%TF.GenerationSoftware,KiCad,Pcbnew,9.0.0*%
%TF.CreationDate,2025-04-07T16:50:41+02:00*%
%TF.ProjectId,TP_PROJ_S5,54505f50-524f-44a5-9f53-352e6b696361,rev?*%
%TF.SameCoordinates,Original*%
%TF.FileFunction,Legend,Bot*%
%TF.FilePolarity,Positive*%
%FSLAX46Y46*%
G04 Gerber Fmt 4.6, Leading zero omitted, Abs format (unit mm)*
G04 Created by KiCad (PCBNEW 9.0.0) date 2025-04-07 16:50:41*
%MOMM*%
%LPD*%
G01*
G04 APERTURE LIST*
%ADD10C,0.200000*%
G04 APERTURE END LIST*
D10*
X129494081Y-101167657D02*
X129527753Y-101066642D01*
X129527753Y-101066642D02*
X129628768Y-100965626D01*
X129628768Y-100965626D02*
X129763455Y-100898283D01*
X129763455Y-100898283D02*
X129898142Y-100898283D01*
X129898142Y-100898283D02*
X129999158Y-100931955D01*
X129999158Y-100931955D02*
X130167516Y-101032970D01*
X130167516Y-101032970D02*
X130268532Y-101133985D01*
X130268532Y-101133985D02*
X130369547Y-101302344D01*
X130369547Y-101302344D02*
X130403219Y-101403359D01*
X130403219Y-101403359D02*
X130403219Y-101538046D01*
X130403219Y-101538046D02*
X130335875Y-101672733D01*
X130335875Y-101672733D02*
X130268532Y-101740077D01*
X130268532Y-101740077D02*
X130133845Y-101807420D01*
X130133845Y-101807420D02*
X130066501Y-101807420D01*
X130066501Y-101807420D02*
X129830799Y-101571718D01*
X129830799Y-101571718D02*
X129965486Y-101437031D01*
X129561425Y-101908435D02*
X129022677Y-102447183D01*
X128618616Y-103389992D02*
X128955334Y-103053275D01*
X128955334Y-103053275D02*
X128248227Y-102346168D01*
X128281898Y-103726710D02*
X128315570Y-103625695D01*
X128315570Y-103625695D02*
X128315570Y-103558351D01*
X128315570Y-103558351D02*
X128281898Y-103457336D01*
X128281898Y-103457336D02*
X128079868Y-103255305D01*
X128079868Y-103255305D02*
X127978853Y-103221634D01*
X127978853Y-103221634D02*
X127911509Y-103221634D01*
X127911509Y-103221634D02*
X127810494Y-103255305D01*
X127810494Y-103255305D02*
X127709479Y-103356321D01*
X127709479Y-103356321D02*
X127675807Y-103457336D01*
X127675807Y-103457336D02*
X127675807Y-103524679D01*
X127675807Y-103524679D02*
X127709479Y-103625695D01*
X127709479Y-103625695D02*
X127911509Y-103827725D01*
X127911509Y-103827725D02*
X128012524Y-103861397D01*
X128012524Y-103861397D02*
X128079868Y-103861397D01*
X128079868Y-103861397D02*
X128180883Y-103827725D01*
X128180883Y-103827725D02*
X128281898Y-103726710D01*
X127743150Y-104265458D02*
X127271746Y-103794054D01*
X127036044Y-103558351D02*
X127103387Y-103558351D01*
X127103387Y-103558351D02*
X127103387Y-103625695D01*
X127103387Y-103625695D02*
X127036044Y-103625695D01*
X127036044Y-103625695D02*
X127036044Y-103558351D01*
X127036044Y-103558351D02*
X127103387Y-103625695D01*
X127406433Y-104534832D02*
X127372761Y-104635847D01*
X127372761Y-104635847D02*
X127238074Y-104770534D01*
X127238074Y-104770534D02*
X127137059Y-104804206D01*
X127137059Y-104804206D02*
X127036044Y-104770534D01*
X127036044Y-104770534D02*
X127002372Y-104736862D01*
X127002372Y-104736862D02*
X126968700Y-104635847D01*
X126968700Y-104635847D02*
X127002372Y-104534832D01*
X127002372Y-104534832D02*
X127103387Y-104433816D01*
X127103387Y-104433816D02*
X127137059Y-104332801D01*
X127137059Y-104332801D02*
X127103387Y-104231786D01*
X127103387Y-104231786D02*
X127069716Y-104198114D01*
X127069716Y-104198114D02*
X126968700Y-104164442D01*
X126968700Y-104164442D02*
X126867685Y-104198114D01*
X126867685Y-104198114D02*
X126766670Y-104299129D01*
X126766670Y-104299129D02*
X126732998Y-104400145D01*
X126530967Y-105410297D02*
X126631983Y-105376626D01*
X126631983Y-105376626D02*
X126766670Y-105241939D01*
X126766670Y-105241939D02*
X126800341Y-105140923D01*
X126800341Y-105140923D02*
X126766670Y-105039908D01*
X126766670Y-105039908D02*
X126497296Y-104770534D01*
X126497296Y-104770534D02*
X126396280Y-104736862D01*
X126396280Y-104736862D02*
X126295265Y-104770534D01*
X126295265Y-104770534D02*
X126160578Y-104905221D01*
X126160578Y-104905221D02*
X126126906Y-105006236D01*
X126126906Y-105006236D02*
X126160578Y-105107252D01*
X126160578Y-105107252D02*
X126227922Y-105174595D01*
X126227922Y-105174595D02*
X126631983Y-104905221D01*
X126126906Y-105881702D02*
X126160578Y-105780687D01*
X126160578Y-105780687D02*
X126126906Y-105679672D01*
X126126906Y-105679672D02*
X125520815Y-105073580D01*
X125554486Y-106386779D02*
X125655501Y-106353107D01*
X125655501Y-106353107D02*
X125790189Y-106218420D01*
X125790189Y-106218420D02*
X125823860Y-106117405D01*
X125823860Y-106117405D02*
X125790189Y-106016389D01*
X125790189Y-106016389D02*
X125520814Y-105747015D01*
X125520814Y-105747015D02*
X125419799Y-105713344D01*
X125419799Y-105713344D02*
X125318784Y-105747015D01*
X125318784Y-105747015D02*
X125184097Y-105881702D01*
X125184097Y-105881702D02*
X125150425Y-105982718D01*
X125150425Y-105982718D02*
X125184097Y-106083733D01*
X125184097Y-106083733D02*
X125251440Y-106151076D01*
X125251440Y-106151076D02*
X125655501Y-105881702D01*
X124881051Y-106184748D02*
X124611677Y-106454122D01*
X124544334Y-106050061D02*
X125150425Y-106656153D01*
X125150425Y-106656153D02*
X125184097Y-106757168D01*
X125184097Y-106757168D02*
X125150425Y-106858183D01*
X125150425Y-106858183D02*
X125083082Y-106925527D01*
X131507949Y-102373402D02*
X131171231Y-102710120D01*
X131777323Y-102508089D02*
X130834514Y-102036685D01*
X130834514Y-102036685D02*
X131305918Y-102979494D01*
X130800842Y-102945822D02*
X130262094Y-103484570D01*
X129588659Y-103282540D02*
X129184598Y-103686601D01*
X130093735Y-104191677D02*
X129386629Y-103484570D01*
X129352957Y-104932456D02*
X128982568Y-104562066D01*
X128982568Y-104562066D02*
X128948896Y-104461051D01*
X128948896Y-104461051D02*
X128982568Y-104360036D01*
X128982568Y-104360036D02*
X129117255Y-104225349D01*
X129117255Y-104225349D02*
X129218270Y-104191677D01*
X129319285Y-104898784D02*
X129420300Y-104865112D01*
X129420300Y-104865112D02*
X129588659Y-104696753D01*
X129588659Y-104696753D02*
X129622331Y-104595738D01*
X129622331Y-104595738D02*
X129588659Y-104494723D01*
X129588659Y-104494723D02*
X129521316Y-104427379D01*
X129521316Y-104427379D02*
X129420300Y-104393708D01*
X129420300Y-104393708D02*
X129319285Y-104427379D01*
X129319285Y-104427379D02*
X129150926Y-104595738D01*
X129150926Y-104595738D02*
X129049911Y-104629410D01*
X129016239Y-105269173D02*
X128544835Y-104797769D01*
X128309132Y-104562066D02*
X128376476Y-104562066D01*
X128376476Y-104562066D02*
X128376476Y-104629410D01*
X128376476Y-104629410D02*
X128309132Y-104629410D01*
X128309132Y-104629410D02*
X128309132Y-104562066D01*
X128309132Y-104562066D02*
X128376476Y-104629410D01*
X128578507Y-105706906D02*
X128612179Y-105605890D01*
X128612179Y-105605890D02*
X128578507Y-105504875D01*
X128578507Y-105504875D02*
X127972415Y-104898784D01*
X128208117Y-106077295D02*
X128241789Y-105976280D01*
X128241789Y-105976280D02*
X128208117Y-105875265D01*
X128208117Y-105875265D02*
X127602026Y-105269173D01*
X127635697Y-106582372D02*
X127736712Y-106548700D01*
X127736712Y-106548700D02*
X127871399Y-106414013D01*
X127871399Y-106414013D02*
X127905071Y-106312998D01*
X127905071Y-106312998D02*
X127871399Y-106211983D01*
X127871399Y-106211983D02*
X127602025Y-105942609D01*
X127602025Y-105942609D02*
X127501010Y-105908937D01*
X127501010Y-105908937D02*
X127399995Y-105942609D01*
X127399995Y-105942609D02*
X127265308Y-106077296D01*
X127265308Y-106077296D02*
X127231636Y-106178311D01*
X127231636Y-106178311D02*
X127265308Y-106279326D01*
X127265308Y-106279326D02*
X127332651Y-106346670D01*
X127332651Y-106346670D02*
X127736712Y-106077296D01*
X126861247Y-106481357D02*
X127568353Y-107188463D01*
X126894918Y-106515028D02*
X126793903Y-106548700D01*
X126793903Y-106548700D02*
X126659216Y-106683387D01*
X126659216Y-106683387D02*
X126625544Y-106784402D01*
X126625544Y-106784402D02*
X126625544Y-106851746D01*
X126625544Y-106851746D02*
X126659216Y-106952761D01*
X126659216Y-106952761D02*
X126861247Y-107154792D01*
X126861247Y-107154792D02*
X126962262Y-107188463D01*
X126962262Y-107188463D02*
X127029605Y-107188463D01*
X127029605Y-107188463D02*
X127130621Y-107154792D01*
X127130621Y-107154792D02*
X127265308Y-107020105D01*
X127265308Y-107020105D02*
X127298979Y-106919089D01*
X126692888Y-107592525D02*
X126221483Y-107121120D01*
X125985781Y-106885418D02*
X126053125Y-106885418D01*
X126053125Y-106885418D02*
X126053125Y-106952761D01*
X126053125Y-106952761D02*
X125985781Y-106952761D01*
X125985781Y-106952761D02*
X125985781Y-106885418D01*
X125985781Y-106885418D02*
X126053125Y-106952761D01*
X126053125Y-108164944D02*
X126154140Y-108131272D01*
X126154140Y-108131272D02*
X126288827Y-107996585D01*
X126288827Y-107996585D02*
X126322499Y-107895570D01*
X126322499Y-107895570D02*
X126288827Y-107794555D01*
X126288827Y-107794555D02*
X126019453Y-107525181D01*
X126019453Y-107525181D02*
X125918438Y-107491509D01*
X125918438Y-107491509D02*
X125817423Y-107525181D01*
X125817423Y-107525181D02*
X125682736Y-107659868D01*
X125682736Y-107659868D02*
X125649064Y-107760883D01*
X125649064Y-107760883D02*
X125682736Y-107861898D01*
X125682736Y-107861898D02*
X125750079Y-107929242D01*
X125750079Y-107929242D02*
X126154140Y-107659868D01*
X125750079Y-108535333D02*
X125278675Y-108063929D01*
X125413362Y-108198616D02*
X125312346Y-108164944D01*
X125312346Y-108164944D02*
X125245003Y-108164944D01*
X125245003Y-108164944D02*
X125143988Y-108198616D01*
X125143988Y-108198616D02*
X125076644Y-108265959D01*
X125312346Y-108973066D02*
X124840941Y-108501662D01*
X124975628Y-108636349D02*
X124874613Y-108602677D01*
X124874613Y-108602677D02*
X124807270Y-108602677D01*
X124807270Y-108602677D02*
X124706254Y-108636349D01*
X124706254Y-108636349D02*
X124638911Y-108703692D01*
X124571567Y-109646502D02*
X124672582Y-109612830D01*
X124672582Y-109612830D02*
X124807269Y-109478143D01*
X124807269Y-109478143D02*
X124840941Y-109377128D01*
X124840941Y-109377128D02*
X124807269Y-109276112D01*
X124807269Y-109276112D02*
X124537895Y-109006738D01*
X124537895Y-109006738D02*
X124436880Y-108973067D01*
X124436880Y-108973067D02*
X124335865Y-109006738D01*
X124335865Y-109006738D02*
X124201178Y-109141425D01*
X124201178Y-109141425D02*
X124167506Y-109242441D01*
X124167506Y-109242441D02*
X124201178Y-109343456D01*
X124201178Y-109343456D02*
X124268521Y-109410799D01*
X124268521Y-109410799D02*
X124672582Y-109141425D01*
X131770885Y-103444461D02*
X131804557Y-103343446D01*
X131804557Y-103343446D02*
X131905572Y-103242430D01*
X131905572Y-103242430D02*
X132040259Y-103175087D01*
X132040259Y-103175087D02*
X132174946Y-103175087D01*
X132174946Y-103175087D02*
X132275962Y-103208759D01*
X132275962Y-103208759D02*
X132444320Y-103309774D01*
X132444320Y-103309774D02*
X132545336Y-103410789D01*
X132545336Y-103410789D02*
X132646351Y-103579148D01*
X132646351Y-103579148D02*
X132680023Y-103680163D01*
X132680023Y-103680163D02*
X132680023Y-103814850D01*
X132680023Y-103814850D02*
X132612679Y-103949537D01*
X132612679Y-103949537D02*
X132545336Y-104016881D01*
X132545336Y-104016881D02*
X132410649Y-104084224D01*
X132410649Y-104084224D02*
X132343305Y-104084224D01*
X132343305Y-104084224D02*
X132107603Y-103848522D01*
X132107603Y-103848522D02*
X132242290Y-103713835D01*
X131838229Y-104185239D02*
X131299481Y-104723987D01*
X130626046Y-104521957D02*
X131097451Y-105464766D01*
X131097451Y-105464766D02*
X130154642Y-104993361D01*
X130626046Y-105936170D02*
X130154641Y-105464766D01*
X129918939Y-105229064D02*
X129986283Y-105229064D01*
X129986283Y-105229064D02*
X129986283Y-105296407D01*
X129986283Y-105296407D02*
X129918939Y-105296407D01*
X129918939Y-105296407D02*
X129918939Y-105229064D01*
X129918939Y-105229064D02*
X129986283Y-105296407D01*
X129986283Y-106575933D02*
X129279176Y-105868827D01*
X129952611Y-106542262D02*
X130053627Y-106508590D01*
X130053627Y-106508590D02*
X130188314Y-106373903D01*
X130188314Y-106373903D02*
X130221985Y-106272888D01*
X130221985Y-106272888D02*
X130221985Y-106205544D01*
X130221985Y-106205544D02*
X130188314Y-106104529D01*
X130188314Y-106104529D02*
X129986283Y-105902498D01*
X129986283Y-105902498D02*
X129885268Y-105868827D01*
X129885268Y-105868827D02*
X129817924Y-105868827D01*
X129817924Y-105868827D02*
X129716909Y-105902498D01*
X129716909Y-105902498D02*
X129582222Y-106037185D01*
X129582222Y-106037185D02*
X129548550Y-106138201D01*
X129548550Y-107013666D02*
X129582222Y-106912651D01*
X129582222Y-106912651D02*
X129582222Y-106845307D01*
X129582222Y-106845307D02*
X129548550Y-106744292D01*
X129548550Y-106744292D02*
X129346520Y-106542262D01*
X129346520Y-106542262D02*
X129245504Y-106508590D01*
X129245504Y-106508590D02*
X129178161Y-106508590D01*
X129178161Y-106508590D02*
X129077146Y-106542262D01*
X129077146Y-106542262D02*
X128976130Y-106643277D01*
X128976130Y-106643277D02*
X128942459Y-106744292D01*
X128942459Y-106744292D02*
X128942459Y-106811636D01*
X128942459Y-106811636D02*
X128976130Y-106912651D01*
X128976130Y-106912651D02*
X129178161Y-107114681D01*
X129178161Y-107114681D02*
X129279176Y-107148353D01*
X129279176Y-107148353D02*
X129346520Y-107148353D01*
X129346520Y-107148353D02*
X129447535Y-107114681D01*
X129447535Y-107114681D02*
X129548550Y-107013666D01*
X128538398Y-107081010D02*
X129009802Y-107552414D01*
X128605741Y-107148353D02*
X128538398Y-107148353D01*
X128538398Y-107148353D02*
X128437382Y-107182025D01*
X128437382Y-107182025D02*
X128336367Y-107283040D01*
X128336367Y-107283040D02*
X128302695Y-107384056D01*
X128302695Y-107384056D02*
X128336367Y-107485071D01*
X128336367Y-107485071D02*
X128706756Y-107855460D01*
M02*
