M48
; DRILL file {KiCad 9.0.0} date 2025-04-07T16:50:37+0200
; FORMAT={-:-/ absolute / inch / decimal}
; #@! TF.CreationDate,2025-04-07T16:50:37+02:00
; #@! TF.GenerationSoftware,Kicad,Pcbnew,9.0.0
; #@! TF.FileFunction,Plated,1,4,PTH
FMAT,2
INCH
; #@! TA.AperFunction,Plated,PTH,ViaDrill
T1C0.0118
; #@! TA.AperFunction,Plated,PTH,ComponentDrill
T2C0.0366
; #@! TA.AperFunction,Plated,PTH,ComponentDrill
T3C0.0394
; #@! TA.AperFunction,Plated,PTH,ComponentDrill
T4C0.0531
; #@! TA.AperFunction,Plated,PTH,ComponentDrill
T5C0.0866
; #@! TA.AperFunction,Plated,PTH,ComponentDrill
T6C0.0945
%
G90
G05
T1
X4.7441Y-4.3169
X4.9941Y-4.3791
X4.9941Y-4.4402
X5.028Y-4.6642
X5.126Y-4.7433
X5.2224Y-4.5819
X5.248Y-4.7677
X5.2894Y-4.7354
X5.2913Y-4.2205
X5.2933Y-4.3024
X5.2953Y-4.7835
X5.3031Y-4.4764
X5.3102Y-4.7098
X5.3425Y-4.437
X5.3425Y-4.5157
X5.3555Y-4.7008
X5.378Y-4.3976
X5.378Y-4.4764
X5.378Y-4.5551
X5.4173Y-4.2354
X5.4173Y-4.437
X5.4173Y-4.5118
X5.4469Y-4.95
X5.4547Y-4.2965
X5.4567Y-4.4764
X5.4685Y-4.1724
X5.4823Y-4.6409
X5.5079Y-4.6575
X5.5264Y-4.9138
X5.5276Y-4.2205
X5.5413Y-4.2984
X5.563Y-4.6654
X5.5689Y-4.1744
X5.5945Y-4.5553
X5.6338Y-3.8767
X5.6713Y-4.3634
X5.6811Y-4.5591
X5.6938Y-3.878
X5.6969Y-4.8228
X5.748Y-4.1606
X5.7657Y-4.9815
X5.8366Y-5.1154
T2
X5.0646Y-5.0362
X5.0646Y-5.3362
X5.1646Y-5.0362
X5.1646Y-5.3362
X5.2646Y-5.0362
X5.2646Y-5.3362
X5.3646Y-5.0362
X5.3646Y-5.3362
T3
X5.5531Y-5.2209
X5.6516Y-5.2209
T4
X4.1339Y-4.1299
X4.1339Y-4.3268
X4.1339Y-4.9213
X4.1339Y-5.1181
X4.5276Y-3.9331
X4.5276Y-4.2283
X4.5276Y-4.5236
X4.5276Y-4.7244
X4.5276Y-5.0197
X4.5276Y-5.315
X4.626Y-4.0315
X4.626Y-4.4252
X4.626Y-4.8228
X4.626Y-5.2165
T5
X4.8819Y-3.937
X4.8819Y-5.315
X5.8661Y-3.937
X5.8661Y-5.315
T6
X4.3307Y-3.9331
X4.3307Y-4.5236
X4.3307Y-4.7244
X4.3307Y-5.315
M30
