%TF.GenerationSoftware,KiCad,Pcbnew,9.0.0*%
%TF.CreationDate,2025-04-07T16:50:41+02:00*%
%TF.ProjectId,TP_PROJ_S5,54505f50-524f-44a5-9f53-352e6b696361,rev?*%
%TF.SameCoordinates,Original*%
%TF.FileFunction,Paste,Top*%
%TF.FilePolarity,Positive*%
%FSLAX46Y46*%
G04 Gerber Fmt 4.6, Leading zero omitted, Abs format (unit mm)*
G04 Created by KiCad (PCBNEW 9.0.0) date 2025-04-07 16:50:41*
%MOMM*%
%LPD*%
G01*
G04 APERTURE LIST*
G04 Aperture macros list*
%AMRoundRect*
0 Rectangle with rounded corners*
0 $1 Rounding radius*
0 $2 $3 $4 $5 $6 $7 $8 $9 X,Y pos of 4 corners*
0 Add a 4 corners polygon primitive as box body*
4,1,4,$2,$3,$4,$5,$6,$7,$8,$9,$2,$3,0*
0 Add four circle primitives for the rounded corners*
1,1,$1+$1,$2,$3*
1,1,$1+$1,$4,$5*
1,1,$1+$1,$6,$7*
1,1,$1+$1,$8,$9*
0 Add four rect primitives between the rounded corners*
20,1,$1+$1,$2,$3,$4,$5,0*
20,1,$1+$1,$4,$5,$6,$7,0*
20,1,$1+$1,$6,$7,$8,$9,0*
20,1,$1+$1,$8,$9,$2,$3,0*%
%AMRotRect*
0 Rectangle, with rotation*
0 The origin of the aperture is its center*
0 $1 length*
0 $2 width*
0 $3 Rotation angle, in degrees counterclockwise*
0 Add horizontal line*
21,1,$1,$2,0,0,$3*%
G04 Aperture macros list end*
%ADD10RoundRect,0.105000X0.105000X-0.358750X0.105000X0.358750X-0.105000X0.358750X-0.105000X-0.358750X0*%
%ADD11RoundRect,0.153125X0.179375X-0.153125X0.179375X0.153125X-0.179375X0.153125X-0.179375X-0.153125X0*%
%ADD12RoundRect,0.175000X0.315000X-0.183750X0.315000X0.183750X-0.315000X0.183750X-0.315000X-0.183750X0*%
%ADD13RoundRect,0.098000X-0.098000X-0.119000X0.098000X-0.119000X0.098000X0.119000X-0.098000X0.119000X0*%
%ADD14RoundRect,0.098000X-0.014849X0.153442X-0.153442X0.014849X0.014849X-0.153442X0.153442X-0.014849X0*%
%ADD15RotRect,0.195580X0.497840X135.000000*%
%ADD16RotRect,0.177800X0.320040X225.000000*%
%ADD17R,0.490000X0.525000*%
%ADD18RotRect,0.700000X1.260000X135.000000*%
%ADD19RoundRect,0.250000X0.000000X-0.445477X0.445477X0.000000X0.000000X0.445477X-0.445477X0.000000X0*%
%ADD20RoundRect,0.043750X-0.154680X-0.216551X0.216551X0.154680X0.154680X0.216551X-0.216551X-0.154680X0*%
%ADD21RoundRect,0.043750X0.154680X-0.216551X0.216551X-0.154680X-0.154680X0.216551X-0.216551X0.154680X0*%
%ADD22RoundRect,0.175000X-0.315000X0.183750X-0.315000X-0.183750X0.315000X-0.183750X0.315000X0.183750X0*%
%ADD23RoundRect,0.175000X0.183750X0.315000X-0.183750X0.315000X-0.183750X-0.315000X0.183750X-0.315000X0*%
%ADD24RoundRect,0.175000X0.352670X0.092808X0.092808X0.352670X-0.352670X-0.092808X-0.092808X-0.352670X0*%
%ADD25RoundRect,0.175000X-0.183750X-0.315000X0.183750X-0.315000X0.183750X0.315000X-0.183750X0.315000X0*%
%ADD26RoundRect,0.153125X-0.296985X-0.080433X-0.080433X-0.296985X0.296985X0.080433X0.080433X0.296985X0*%
%ADD27RoundRect,0.153125X0.266875X-0.153125X0.266875X0.153125X-0.266875X0.153125X-0.266875X-0.153125X0*%
%ADD28R,0.518000X1.680000*%
%ADD29RoundRect,0.098000X0.119000X-0.098000X0.119000X0.098000X-0.119000X0.098000X-0.119000X-0.098000X0*%
%ADD30RoundRect,0.157500X0.175000X-0.157500X0.175000X0.157500X-0.175000X0.157500X-0.175000X-0.157500X0*%
%ADD31RoundRect,0.098000X0.014849X-0.153442X0.153442X-0.014849X-0.014849X0.153442X-0.153442X0.014849X0*%
%ADD32RoundRect,0.098000X-0.153442X-0.014849X-0.014849X-0.153442X0.153442X0.014849X0.014849X0.153442X0*%
%ADD33RoundRect,0.098000X-0.119000X0.098000X-0.119000X-0.098000X0.119000X-0.098000X0.119000X0.098000X0*%
%ADD34RoundRect,0.157500X-0.157500X-0.175000X0.157500X-0.175000X0.157500X0.175000X-0.157500X0.175000X0*%
%ADD35R,0.746760X1.262380*%
G04 APERTURE END LIST*
D10*
%TO.C,U2*%
X141550001Y-127097500D03*
X142500000Y-127097500D03*
X143449999Y-127097500D03*
X143449999Y-124822500D03*
X141550001Y-124822500D03*
%TD*%
D11*
%TO.C,D2*%
X121050000Y-124874999D03*
X121050000Y-126450001D03*
%TD*%
D12*
%TO.C,R4*%
X121050000Y-128150000D03*
X121050000Y-129975000D03*
%TD*%
%TO.C,R7*%
X120500000Y-110587500D03*
X120500000Y-112412500D03*
%TD*%
D13*
%TO.C,C21*%
X142820000Y-115800000D03*
X143780000Y-115800000D03*
%TD*%
D14*
%TO.C,C20*%
X133710589Y-119619411D03*
X134389411Y-118940589D03*
%TD*%
D15*
%TO.C,U3*%
X141931052Y-117231052D03*
D16*
X141661645Y-116638355D03*
D15*
X141068948Y-116368948D03*
D16*
X141338355Y-116961645D03*
%TD*%
D17*
%TO.C,Y3*%
X143300000Y-112980000D03*
X143300000Y-114330000D03*
X144300000Y-114330000D03*
X144300000Y-112980000D03*
%TD*%
D18*
%TO.C,Y1*%
X130951561Y-117031561D03*
X129148439Y-115228439D03*
%TD*%
D19*
%TO.C,U1*%
X133670101Y-113709899D03*
X134660050Y-114699848D03*
X135650000Y-115689798D03*
X136639949Y-116679747D03*
X134660050Y-112719950D03*
X135650000Y-113709899D03*
X136639949Y-114699848D03*
X137629898Y-115689798D03*
X135650000Y-111730000D03*
X136639949Y-112719950D03*
X137629898Y-113709899D03*
X138619848Y-114699848D03*
X136639949Y-110740051D03*
X137629898Y-111730000D03*
X138619848Y-112719950D03*
X139609797Y-113709899D03*
D20*
X132264726Y-114196035D03*
X132618279Y-114549588D03*
X132971833Y-114903142D03*
X133325386Y-115256695D03*
X133678939Y-115610248D03*
X134032493Y-115963802D03*
X134386046Y-116317355D03*
X134739600Y-116670909D03*
X135093153Y-117024462D03*
X135446706Y-117378015D03*
X135800260Y-117731569D03*
X136153813Y-118085122D03*
D21*
X137126085Y-118085122D03*
X137479638Y-117731569D03*
X137833192Y-117378015D03*
X138186745Y-117024462D03*
X138540298Y-116670909D03*
X138893852Y-116317355D03*
X139247405Y-115963802D03*
X139600959Y-115610248D03*
X139954512Y-115256695D03*
X140308065Y-114903142D03*
X140661619Y-114549588D03*
X141015172Y-114196035D03*
D20*
X141015172Y-113223763D03*
X140661619Y-112870210D03*
X140308065Y-112516656D03*
X139954512Y-112163103D03*
X139600959Y-111809550D03*
X139247405Y-111455996D03*
X138893852Y-111102443D03*
X138540298Y-110748889D03*
X138186745Y-110395336D03*
X137833192Y-110041783D03*
X137479638Y-109688229D03*
X137126085Y-109334676D03*
D21*
X136153813Y-109334676D03*
X135800260Y-109688229D03*
X135446706Y-110041783D03*
X135093153Y-110395336D03*
X134739600Y-110748889D03*
X134386046Y-111102443D03*
X134032493Y-111455996D03*
X133678939Y-111809550D03*
X133325386Y-112163103D03*
X132971833Y-112516656D03*
X132618279Y-112870210D03*
X132264726Y-113223763D03*
%TD*%
D22*
%TO.C,R6*%
X123850000Y-112017500D03*
X123850000Y-113842500D03*
%TD*%
D23*
%TO.C,R5*%
X136962500Y-125730000D03*
X135137500Y-125730000D03*
%TD*%
D22*
%TO.C,R3*%
X145450000Y-107817500D03*
X145450000Y-109642500D03*
%TD*%
D24*
%TO.C,R2*%
X132645235Y-120525235D03*
X131354765Y-119234765D03*
%TD*%
D25*
%TO.C,R1*%
X145050000Y-124810000D03*
X146875000Y-124810000D03*
%TD*%
D26*
%TO.C,L2*%
X143648699Y-118848699D03*
X145151301Y-120351301D03*
%TD*%
D27*
%TO.C,L1*%
X142050000Y-109792500D03*
X142050000Y-107667500D03*
%TD*%
D28*
%TO.C,J1*%
X137630000Y-104030000D03*
X137630000Y-100130000D03*
X138900000Y-104030000D03*
X138900000Y-100130000D03*
X140170000Y-104030000D03*
X140170000Y-100130000D03*
X141440000Y-104030000D03*
X141440000Y-100130000D03*
X142710000Y-104030000D03*
X142710000Y-100130000D03*
X143980000Y-104030000D03*
X143980000Y-100130000D03*
X145250000Y-104030000D03*
X145250000Y-100130000D03*
%TD*%
D11*
%TO.C,D1*%
X148050000Y-128217501D03*
X148050000Y-126642499D03*
%TD*%
D29*
%TO.C,C19*%
X134400000Y-108680000D03*
X134400000Y-107720000D03*
%TD*%
%TO.C,C18*%
X131100000Y-112480000D03*
X131100000Y-111520000D03*
%TD*%
D30*
%TO.C,C17*%
X143650000Y-109705000D03*
X143650000Y-108155000D03*
%TD*%
D31*
%TO.C,C16*%
X139260589Y-108339411D03*
X139939411Y-107660589D03*
%TD*%
D14*
%TO.C,C14*%
X129189411Y-117790589D03*
X128510589Y-118469411D03*
%TD*%
%TO.C,C13*%
X128389411Y-116990589D03*
X127710589Y-117669411D03*
%TD*%
%TO.C,C12*%
X145939411Y-121260589D03*
X145260589Y-121939411D03*
%TD*%
%TO.C,C11*%
X142739411Y-117960589D03*
X142060589Y-118639411D03*
%TD*%
D32*
%TO.C,C6*%
X132410589Y-118240589D03*
X133089411Y-118919411D03*
%TD*%
D29*
%TO.C,C5*%
X130150000Y-112480000D03*
X130150000Y-111520000D03*
%TD*%
D32*
%TO.C,C4*%
X140260589Y-117460589D03*
X140939411Y-118139411D03*
%TD*%
D30*
%TO.C,C3*%
X127950000Y-112775000D03*
X127950000Y-111225000D03*
%TD*%
D33*
%TO.C,C2*%
X144850000Y-126530000D03*
X144850000Y-127490000D03*
%TD*%
D34*
%TO.C,C1*%
X141475000Y-129010000D03*
X143025000Y-129010000D03*
%TD*%
D35*
%TO.C,AE1*%
X147806199Y-121900000D03*
X150854199Y-121900000D03*
%TD*%
M02*
