%TF.GenerationSoftware,KiCad,Pcbnew,9.0.0*%
%TF.CreationDate,2025-04-07T16:50:41+02:00*%
%TF.ProjectId,TP_PROJ_S5,54505f50-524f-44a5-9f53-352e6b696361,rev?*%
%TF.SameCoordinates,Original*%
%TF.FileFunction,Legend,Top*%
%TF.FilePolarity,Positive*%
%FSLAX46Y46*%
G04 Gerber Fmt 4.6, Leading zero omitted, Abs format (unit mm)*
G04 Created by KiCad (PCBNEW 9.0.0) date 2025-04-07 16:50:41*
%MOMM*%
%LPD*%
G01*
G04 APERTURE LIST*
%ADD10C,0.150000*%
%ADD11C,0.100000*%
%ADD12C,0.120000*%
%ADD13C,0.200000*%
%ADD14C,0.127000*%
%ADD15C,0.152400*%
G04 APERTURE END LIST*
D10*
X139654819Y-126961904D02*
X140464342Y-126961904D01*
X140464342Y-126961904D02*
X140559580Y-126914285D01*
X140559580Y-126914285D02*
X140607200Y-126866666D01*
X140607200Y-126866666D02*
X140654819Y-126771428D01*
X140654819Y-126771428D02*
X140654819Y-126580952D01*
X140654819Y-126580952D02*
X140607200Y-126485714D01*
X140607200Y-126485714D02*
X140559580Y-126438095D01*
X140559580Y-126438095D02*
X140464342Y-126390476D01*
X140464342Y-126390476D02*
X139654819Y-126390476D01*
X139750057Y-125961904D02*
X139702438Y-125914285D01*
X139702438Y-125914285D02*
X139654819Y-125819047D01*
X139654819Y-125819047D02*
X139654819Y-125580952D01*
X139654819Y-125580952D02*
X139702438Y-125485714D01*
X139702438Y-125485714D02*
X139750057Y-125438095D01*
X139750057Y-125438095D02*
X139845295Y-125390476D01*
X139845295Y-125390476D02*
X139940533Y-125390476D01*
X139940533Y-125390476D02*
X140083390Y-125438095D01*
X140083390Y-125438095D02*
X140654819Y-126009523D01*
X140654819Y-126009523D02*
X140654819Y-125390476D01*
X120066666Y-117554819D02*
X120066666Y-118269104D01*
X120066666Y-118269104D02*
X120019047Y-118411961D01*
X120019047Y-118411961D02*
X119923809Y-118507200D01*
X119923809Y-118507200D02*
X119780952Y-118554819D01*
X119780952Y-118554819D02*
X119685714Y-118554819D01*
X120971428Y-117888152D02*
X120971428Y-118554819D01*
X120733333Y-117507200D02*
X120495238Y-118221485D01*
X120495238Y-118221485D02*
X121114285Y-118221485D01*
X123054819Y-127038094D02*
X122054819Y-127038094D01*
X122054819Y-127038094D02*
X122054819Y-126799999D01*
X122054819Y-126799999D02*
X122102438Y-126657142D01*
X122102438Y-126657142D02*
X122197676Y-126561904D01*
X122197676Y-126561904D02*
X122292914Y-126514285D01*
X122292914Y-126514285D02*
X122483390Y-126466666D01*
X122483390Y-126466666D02*
X122626247Y-126466666D01*
X122626247Y-126466666D02*
X122816723Y-126514285D01*
X122816723Y-126514285D02*
X122911961Y-126561904D01*
X122911961Y-126561904D02*
X123007200Y-126657142D01*
X123007200Y-126657142D02*
X123054819Y-126799999D01*
X123054819Y-126799999D02*
X123054819Y-127038094D01*
X122150057Y-126085713D02*
X122102438Y-126038094D01*
X122102438Y-126038094D02*
X122054819Y-125942856D01*
X122054819Y-125942856D02*
X122054819Y-125704761D01*
X122054819Y-125704761D02*
X122102438Y-125609523D01*
X122102438Y-125609523D02*
X122150057Y-125561904D01*
X122150057Y-125561904D02*
X122245295Y-125514285D01*
X122245295Y-125514285D02*
X122340533Y-125514285D01*
X122340533Y-125514285D02*
X122483390Y-125561904D01*
X122483390Y-125561904D02*
X123054819Y-126133332D01*
X123054819Y-126133332D02*
X123054819Y-125514285D01*
X123154819Y-129866666D02*
X122678628Y-130199999D01*
X123154819Y-130438094D02*
X122154819Y-130438094D01*
X122154819Y-130438094D02*
X122154819Y-130057142D01*
X122154819Y-130057142D02*
X122202438Y-129961904D01*
X122202438Y-129961904D02*
X122250057Y-129914285D01*
X122250057Y-129914285D02*
X122345295Y-129866666D01*
X122345295Y-129866666D02*
X122488152Y-129866666D01*
X122488152Y-129866666D02*
X122583390Y-129914285D01*
X122583390Y-129914285D02*
X122631009Y-129961904D01*
X122631009Y-129961904D02*
X122678628Y-130057142D01*
X122678628Y-130057142D02*
X122678628Y-130438094D01*
X122488152Y-129009523D02*
X123154819Y-129009523D01*
X122107200Y-129247618D02*
X122821485Y-129485713D01*
X122821485Y-129485713D02*
X122821485Y-128866666D01*
X120066666Y-97554819D02*
X120066666Y-98269104D01*
X120066666Y-98269104D02*
X120019047Y-98411961D01*
X120019047Y-98411961D02*
X119923809Y-98507200D01*
X119923809Y-98507200D02*
X119780952Y-98554819D01*
X119780952Y-98554819D02*
X119685714Y-98554819D01*
X121019047Y-97554819D02*
X120542857Y-97554819D01*
X120542857Y-97554819D02*
X120495238Y-98031009D01*
X120495238Y-98031009D02*
X120542857Y-97983390D01*
X120542857Y-97983390D02*
X120638095Y-97935771D01*
X120638095Y-97935771D02*
X120876190Y-97935771D01*
X120876190Y-97935771D02*
X120971428Y-97983390D01*
X120971428Y-97983390D02*
X121019047Y-98031009D01*
X121019047Y-98031009D02*
X121066666Y-98126247D01*
X121066666Y-98126247D02*
X121066666Y-98364342D01*
X121066666Y-98364342D02*
X121019047Y-98459580D01*
X121019047Y-98459580D02*
X120971428Y-98507200D01*
X120971428Y-98507200D02*
X120876190Y-98554819D01*
X120876190Y-98554819D02*
X120638095Y-98554819D01*
X120638095Y-98554819D02*
X120542857Y-98507200D01*
X120542857Y-98507200D02*
X120495238Y-98459580D01*
X122654819Y-111666666D02*
X122178628Y-111999999D01*
X122654819Y-112238094D02*
X121654819Y-112238094D01*
X121654819Y-112238094D02*
X121654819Y-111857142D01*
X121654819Y-111857142D02*
X121702438Y-111761904D01*
X121702438Y-111761904D02*
X121750057Y-111714285D01*
X121750057Y-111714285D02*
X121845295Y-111666666D01*
X121845295Y-111666666D02*
X121988152Y-111666666D01*
X121988152Y-111666666D02*
X122083390Y-111714285D01*
X122083390Y-111714285D02*
X122131009Y-111761904D01*
X122131009Y-111761904D02*
X122178628Y-111857142D01*
X122178628Y-111857142D02*
X122178628Y-112238094D01*
X121654819Y-111333332D02*
X121654819Y-110666666D01*
X121654819Y-110666666D02*
X122654819Y-111095237D01*
X148238095Y-132554819D02*
X148238095Y-131554819D01*
X148238095Y-132031009D02*
X148809523Y-132031009D01*
X148809523Y-132554819D02*
X148809523Y-131554819D01*
X149714285Y-131888152D02*
X149714285Y-132554819D01*
X149476190Y-131507200D02*
X149238095Y-132221485D01*
X149238095Y-132221485D02*
X149857142Y-132221485D01*
X123238095Y-103554819D02*
X123238095Y-102554819D01*
X123238095Y-103031009D02*
X123809523Y-103031009D01*
X123809523Y-103554819D02*
X123809523Y-102554819D01*
X124809523Y-103554819D02*
X124238095Y-103554819D01*
X124523809Y-103554819D02*
X124523809Y-102554819D01*
X124523809Y-102554819D02*
X124428571Y-102697676D01*
X124428571Y-102697676D02*
X124333333Y-102792914D01*
X124333333Y-102792914D02*
X124238095Y-102840533D01*
X131366666Y-122554819D02*
X131366666Y-123269104D01*
X131366666Y-123269104D02*
X131319047Y-123411961D01*
X131319047Y-123411961D02*
X131223809Y-123507200D01*
X131223809Y-123507200D02*
X131080952Y-123554819D01*
X131080952Y-123554819D02*
X130985714Y-123554819D01*
X131842857Y-123554819D02*
X131842857Y-122554819D01*
X131842857Y-122554819D02*
X132223809Y-122554819D01*
X132223809Y-122554819D02*
X132319047Y-122602438D01*
X132319047Y-122602438D02*
X132366666Y-122650057D01*
X132366666Y-122650057D02*
X132414285Y-122745295D01*
X132414285Y-122745295D02*
X132414285Y-122888152D01*
X132414285Y-122888152D02*
X132366666Y-122983390D01*
X132366666Y-122983390D02*
X132319047Y-123031009D01*
X132319047Y-123031009D02*
X132223809Y-123078628D01*
X132223809Y-123078628D02*
X131842857Y-123078628D01*
X132795238Y-122650057D02*
X132842857Y-122602438D01*
X132842857Y-122602438D02*
X132938095Y-122554819D01*
X132938095Y-122554819D02*
X133176190Y-122554819D01*
X133176190Y-122554819D02*
X133271428Y-122602438D01*
X133271428Y-122602438D02*
X133319047Y-122650057D01*
X133319047Y-122650057D02*
X133366666Y-122745295D01*
X133366666Y-122745295D02*
X133366666Y-122840533D01*
X133366666Y-122840533D02*
X133319047Y-122983390D01*
X133319047Y-122983390D02*
X132747619Y-123554819D01*
X132747619Y-123554819D02*
X133366666Y-123554819D01*
X123238095Y-132554819D02*
X123238095Y-131554819D01*
X123238095Y-132031009D02*
X123809523Y-132031009D01*
X123809523Y-132554819D02*
X123809523Y-131554819D01*
X124190476Y-131554819D02*
X124809523Y-131554819D01*
X124809523Y-131554819D02*
X124476190Y-131935771D01*
X124476190Y-131935771D02*
X124619047Y-131935771D01*
X124619047Y-131935771D02*
X124714285Y-131983390D01*
X124714285Y-131983390D02*
X124761904Y-132031009D01*
X124761904Y-132031009D02*
X124809523Y-132126247D01*
X124809523Y-132126247D02*
X124809523Y-132364342D01*
X124809523Y-132364342D02*
X124761904Y-132459580D01*
X124761904Y-132459580D02*
X124714285Y-132507200D01*
X124714285Y-132507200D02*
X124619047Y-132554819D01*
X124619047Y-132554819D02*
X124333333Y-132554819D01*
X124333333Y-132554819D02*
X124238095Y-132507200D01*
X124238095Y-132507200D02*
X124190476Y-132459580D01*
X148138095Y-103454819D02*
X148138095Y-102454819D01*
X148138095Y-102931009D02*
X148709523Y-102931009D01*
X148709523Y-103454819D02*
X148709523Y-102454819D01*
X149138095Y-102550057D02*
X149185714Y-102502438D01*
X149185714Y-102502438D02*
X149280952Y-102454819D01*
X149280952Y-102454819D02*
X149519047Y-102454819D01*
X149519047Y-102454819D02*
X149614285Y-102502438D01*
X149614285Y-102502438D02*
X149661904Y-102550057D01*
X149661904Y-102550057D02*
X149709523Y-102645295D01*
X149709523Y-102645295D02*
X149709523Y-102740533D01*
X149709523Y-102740533D02*
X149661904Y-102883390D01*
X149661904Y-102883390D02*
X149090476Y-103454819D01*
X149090476Y-103454819D02*
X149709523Y-103454819D01*
X127966666Y-122654819D02*
X127966666Y-123369104D01*
X127966666Y-123369104D02*
X127919047Y-123511961D01*
X127919047Y-123511961D02*
X127823809Y-123607200D01*
X127823809Y-123607200D02*
X127680952Y-123654819D01*
X127680952Y-123654819D02*
X127585714Y-123654819D01*
X128442857Y-123654819D02*
X128442857Y-122654819D01*
X128442857Y-122654819D02*
X128823809Y-122654819D01*
X128823809Y-122654819D02*
X128919047Y-122702438D01*
X128919047Y-122702438D02*
X128966666Y-122750057D01*
X128966666Y-122750057D02*
X129014285Y-122845295D01*
X129014285Y-122845295D02*
X129014285Y-122988152D01*
X129014285Y-122988152D02*
X128966666Y-123083390D01*
X128966666Y-123083390D02*
X128919047Y-123131009D01*
X128919047Y-123131009D02*
X128823809Y-123178628D01*
X128823809Y-123178628D02*
X128442857Y-123178628D01*
X129966666Y-123654819D02*
X129395238Y-123654819D01*
X129680952Y-123654819D02*
X129680952Y-122654819D01*
X129680952Y-122654819D02*
X129585714Y-122797676D01*
X129585714Y-122797676D02*
X129490476Y-122892914D01*
X129490476Y-122892914D02*
X129395238Y-122940533D01*
D11*
X145285714Y-116088704D02*
X145247618Y-116126800D01*
X145247618Y-116126800D02*
X145133333Y-116164895D01*
X145133333Y-116164895D02*
X145057142Y-116164895D01*
X145057142Y-116164895D02*
X144942856Y-116126800D01*
X144942856Y-116126800D02*
X144866666Y-116050609D01*
X144866666Y-116050609D02*
X144828571Y-115974419D01*
X144828571Y-115974419D02*
X144790475Y-115822038D01*
X144790475Y-115822038D02*
X144790475Y-115707752D01*
X144790475Y-115707752D02*
X144828571Y-115555371D01*
X144828571Y-115555371D02*
X144866666Y-115479180D01*
X144866666Y-115479180D02*
X144942856Y-115402990D01*
X144942856Y-115402990D02*
X145057142Y-115364895D01*
X145057142Y-115364895D02*
X145133333Y-115364895D01*
X145133333Y-115364895D02*
X145247618Y-115402990D01*
X145247618Y-115402990D02*
X145285714Y-115441085D01*
X145590475Y-115441085D02*
X145628571Y-115402990D01*
X145628571Y-115402990D02*
X145704761Y-115364895D01*
X145704761Y-115364895D02*
X145895237Y-115364895D01*
X145895237Y-115364895D02*
X145971428Y-115402990D01*
X145971428Y-115402990D02*
X146009523Y-115441085D01*
X146009523Y-115441085D02*
X146047618Y-115517276D01*
X146047618Y-115517276D02*
X146047618Y-115593466D01*
X146047618Y-115593466D02*
X146009523Y-115707752D01*
X146009523Y-115707752D02*
X145552380Y-116164895D01*
X145552380Y-116164895D02*
X146047618Y-116164895D01*
X146809523Y-116164895D02*
X146352380Y-116164895D01*
X146580952Y-116164895D02*
X146580952Y-115364895D01*
X146580952Y-115364895D02*
X146504761Y-115479180D01*
X146504761Y-115479180D02*
X146428571Y-115555371D01*
X146428571Y-115555371D02*
X146352380Y-115593466D01*
D10*
X134689208Y-120959074D02*
X134689208Y-121026418D01*
X134689208Y-121026418D02*
X134621864Y-121161105D01*
X134621864Y-121161105D02*
X134554521Y-121228448D01*
X134554521Y-121228448D02*
X134419834Y-121295792D01*
X134419834Y-121295792D02*
X134285147Y-121295792D01*
X134285147Y-121295792D02*
X134184132Y-121262120D01*
X134184132Y-121262120D02*
X134015773Y-121161105D01*
X134015773Y-121161105D02*
X133914758Y-121060090D01*
X133914758Y-121060090D02*
X133813742Y-120891731D01*
X133813742Y-120891731D02*
X133780071Y-120790716D01*
X133780071Y-120790716D02*
X133780071Y-120656029D01*
X133780071Y-120656029D02*
X133847414Y-120521342D01*
X133847414Y-120521342D02*
X133914758Y-120453998D01*
X133914758Y-120453998D02*
X134049445Y-120386655D01*
X134049445Y-120386655D02*
X134116788Y-120386655D01*
X134386162Y-120117281D02*
X134386162Y-120049937D01*
X134386162Y-120049937D02*
X134419834Y-119948922D01*
X134419834Y-119948922D02*
X134588193Y-119780563D01*
X134588193Y-119780563D02*
X134689208Y-119746891D01*
X134689208Y-119746891D02*
X134756551Y-119746891D01*
X134756551Y-119746891D02*
X134857567Y-119780563D01*
X134857567Y-119780563D02*
X134924910Y-119847907D01*
X134924910Y-119847907D02*
X134992254Y-119982594D01*
X134992254Y-119982594D02*
X134992254Y-120790716D01*
X134992254Y-120790716D02*
X135429986Y-120352983D01*
X135160613Y-119208143D02*
X135227956Y-119140800D01*
X135227956Y-119140800D02*
X135328971Y-119107128D01*
X135328971Y-119107128D02*
X135396315Y-119107128D01*
X135396315Y-119107128D02*
X135497330Y-119140800D01*
X135497330Y-119140800D02*
X135665689Y-119241815D01*
X135665689Y-119241815D02*
X135834048Y-119410174D01*
X135834048Y-119410174D02*
X135935063Y-119578532D01*
X135935063Y-119578532D02*
X135968735Y-119679548D01*
X135968735Y-119679548D02*
X135968735Y-119746891D01*
X135968735Y-119746891D02*
X135935063Y-119847906D01*
X135935063Y-119847906D02*
X135867719Y-119915250D01*
X135867719Y-119915250D02*
X135766704Y-119948922D01*
X135766704Y-119948922D02*
X135699361Y-119948922D01*
X135699361Y-119948922D02*
X135598345Y-119915250D01*
X135598345Y-119915250D02*
X135429987Y-119814235D01*
X135429987Y-119814235D02*
X135261628Y-119645876D01*
X135261628Y-119645876D02*
X135160613Y-119477517D01*
X135160613Y-119477517D02*
X135126941Y-119376502D01*
X135126941Y-119376502D02*
X135126941Y-119309158D01*
X135126941Y-119309158D02*
X135160613Y-119208143D01*
X142938095Y-116354819D02*
X142938095Y-117164342D01*
X142938095Y-117164342D02*
X142985714Y-117259580D01*
X142985714Y-117259580D02*
X143033333Y-117307200D01*
X143033333Y-117307200D02*
X143128571Y-117354819D01*
X143128571Y-117354819D02*
X143319047Y-117354819D01*
X143319047Y-117354819D02*
X143414285Y-117307200D01*
X143414285Y-117307200D02*
X143461904Y-117259580D01*
X143461904Y-117259580D02*
X143509523Y-117164342D01*
X143509523Y-117164342D02*
X143509523Y-116354819D01*
X143890476Y-116354819D02*
X144509523Y-116354819D01*
X144509523Y-116354819D02*
X144176190Y-116735771D01*
X144176190Y-116735771D02*
X144319047Y-116735771D01*
X144319047Y-116735771D02*
X144414285Y-116783390D01*
X144414285Y-116783390D02*
X144461904Y-116831009D01*
X144461904Y-116831009D02*
X144509523Y-116926247D01*
X144509523Y-116926247D02*
X144509523Y-117164342D01*
X144509523Y-117164342D02*
X144461904Y-117259580D01*
X144461904Y-117259580D02*
X144414285Y-117307200D01*
X144414285Y-117307200D02*
X144319047Y-117354819D01*
X144319047Y-117354819D02*
X144033333Y-117354819D01*
X144033333Y-117354819D02*
X143938095Y-117307200D01*
X143938095Y-117307200D02*
X143890476Y-117259580D01*
D11*
X143519048Y-111883942D02*
X143519048Y-112264895D01*
X143252381Y-111464895D02*
X143519048Y-111883942D01*
X143519048Y-111883942D02*
X143785714Y-111464895D01*
X143976190Y-111464895D02*
X144471428Y-111464895D01*
X144471428Y-111464895D02*
X144204762Y-111769657D01*
X144204762Y-111769657D02*
X144319047Y-111769657D01*
X144319047Y-111769657D02*
X144395238Y-111807752D01*
X144395238Y-111807752D02*
X144433333Y-111845847D01*
X144433333Y-111845847D02*
X144471428Y-111922038D01*
X144471428Y-111922038D02*
X144471428Y-112112514D01*
X144471428Y-112112514D02*
X144433333Y-112188704D01*
X144433333Y-112188704D02*
X144395238Y-112226800D01*
X144395238Y-112226800D02*
X144319047Y-112264895D01*
X144319047Y-112264895D02*
X144090476Y-112264895D01*
X144090476Y-112264895D02*
X144014285Y-112226800D01*
X144014285Y-112226800D02*
X143976190Y-112188704D01*
X127019048Y-115483942D02*
X127019048Y-115864895D01*
X126752381Y-115064895D02*
X127019048Y-115483942D01*
X127019048Y-115483942D02*
X127285714Y-115064895D01*
X127971428Y-115864895D02*
X127514285Y-115864895D01*
X127742857Y-115864895D02*
X127742857Y-115064895D01*
X127742857Y-115064895D02*
X127666666Y-115179180D01*
X127666666Y-115179180D02*
X127590476Y-115255371D01*
X127590476Y-115255371D02*
X127514285Y-115293466D01*
D10*
X125912901Y-133247450D02*
X126723611Y-133247450D01*
X126723611Y-133247450D02*
X126818989Y-133199762D01*
X126818989Y-133199762D02*
X126866678Y-133152073D01*
X126866678Y-133152073D02*
X126914366Y-133056695D01*
X126914366Y-133056695D02*
X126914366Y-132865940D01*
X126914366Y-132865940D02*
X126866678Y-132770562D01*
X126866678Y-132770562D02*
X126818989Y-132722874D01*
X126818989Y-132722874D02*
X126723611Y-132675185D01*
X126723611Y-132675185D02*
X125912901Y-132675185D01*
X126246723Y-131769097D02*
X126914366Y-131769097D01*
X125865213Y-132007541D02*
X126580545Y-132245985D01*
X126580545Y-132245985D02*
X126580545Y-131626031D01*
X131975750Y-110953246D02*
X132548170Y-111525666D01*
X132548170Y-111525666D02*
X132649185Y-111559338D01*
X132649185Y-111559338D02*
X132716529Y-111559338D01*
X132716529Y-111559338D02*
X132817544Y-111525666D01*
X132817544Y-111525666D02*
X132952231Y-111390979D01*
X132952231Y-111390979D02*
X132985903Y-111289964D01*
X132985903Y-111289964D02*
X132985903Y-111222620D01*
X132985903Y-111222620D02*
X132952231Y-111121605D01*
X132952231Y-111121605D02*
X132379811Y-110549185D01*
X133794025Y-110549185D02*
X133389964Y-110953246D01*
X133591994Y-110751216D02*
X132884888Y-110044109D01*
X132884888Y-110044109D02*
X132918559Y-110212468D01*
X132918559Y-110212468D02*
X132918559Y-110347155D01*
X132918559Y-110347155D02*
X132884888Y-110448170D01*
X125954819Y-113066666D02*
X125478628Y-113399999D01*
X125954819Y-113638094D02*
X124954819Y-113638094D01*
X124954819Y-113638094D02*
X124954819Y-113257142D01*
X124954819Y-113257142D02*
X125002438Y-113161904D01*
X125002438Y-113161904D02*
X125050057Y-113114285D01*
X125050057Y-113114285D02*
X125145295Y-113066666D01*
X125145295Y-113066666D02*
X125288152Y-113066666D01*
X125288152Y-113066666D02*
X125383390Y-113114285D01*
X125383390Y-113114285D02*
X125431009Y-113161904D01*
X125431009Y-113161904D02*
X125478628Y-113257142D01*
X125478628Y-113257142D02*
X125478628Y-113638094D01*
X124954819Y-112209523D02*
X124954819Y-112399999D01*
X124954819Y-112399999D02*
X125002438Y-112495237D01*
X125002438Y-112495237D02*
X125050057Y-112542856D01*
X125050057Y-112542856D02*
X125192914Y-112638094D01*
X125192914Y-112638094D02*
X125383390Y-112685713D01*
X125383390Y-112685713D02*
X125764342Y-112685713D01*
X125764342Y-112685713D02*
X125859580Y-112638094D01*
X125859580Y-112638094D02*
X125907200Y-112590475D01*
X125907200Y-112590475D02*
X125954819Y-112495237D01*
X125954819Y-112495237D02*
X125954819Y-112304761D01*
X125954819Y-112304761D02*
X125907200Y-112209523D01*
X125907200Y-112209523D02*
X125859580Y-112161904D01*
X125859580Y-112161904D02*
X125764342Y-112114285D01*
X125764342Y-112114285D02*
X125526247Y-112114285D01*
X125526247Y-112114285D02*
X125431009Y-112161904D01*
X125431009Y-112161904D02*
X125383390Y-112209523D01*
X125383390Y-112209523D02*
X125335771Y-112304761D01*
X125335771Y-112304761D02*
X125335771Y-112495237D01*
X125335771Y-112495237D02*
X125383390Y-112590475D01*
X125383390Y-112590475D02*
X125431009Y-112638094D01*
X125431009Y-112638094D02*
X125526247Y-112685713D01*
X135883333Y-124654819D02*
X135550000Y-124178628D01*
X135311905Y-124654819D02*
X135311905Y-123654819D01*
X135311905Y-123654819D02*
X135692857Y-123654819D01*
X135692857Y-123654819D02*
X135788095Y-123702438D01*
X135788095Y-123702438D02*
X135835714Y-123750057D01*
X135835714Y-123750057D02*
X135883333Y-123845295D01*
X135883333Y-123845295D02*
X135883333Y-123988152D01*
X135883333Y-123988152D02*
X135835714Y-124083390D01*
X135835714Y-124083390D02*
X135788095Y-124131009D01*
X135788095Y-124131009D02*
X135692857Y-124178628D01*
X135692857Y-124178628D02*
X135311905Y-124178628D01*
X136788095Y-123654819D02*
X136311905Y-123654819D01*
X136311905Y-123654819D02*
X136264286Y-124131009D01*
X136264286Y-124131009D02*
X136311905Y-124083390D01*
X136311905Y-124083390D02*
X136407143Y-124035771D01*
X136407143Y-124035771D02*
X136645238Y-124035771D01*
X136645238Y-124035771D02*
X136740476Y-124083390D01*
X136740476Y-124083390D02*
X136788095Y-124131009D01*
X136788095Y-124131009D02*
X136835714Y-124226247D01*
X136835714Y-124226247D02*
X136835714Y-124464342D01*
X136835714Y-124464342D02*
X136788095Y-124559580D01*
X136788095Y-124559580D02*
X136740476Y-124607200D01*
X136740476Y-124607200D02*
X136645238Y-124654819D01*
X136645238Y-124654819D02*
X136407143Y-124654819D01*
X136407143Y-124654819D02*
X136311905Y-124607200D01*
X136311905Y-124607200D02*
X136264286Y-124559580D01*
X147554819Y-108896666D02*
X147078628Y-109229999D01*
X147554819Y-109468094D02*
X146554819Y-109468094D01*
X146554819Y-109468094D02*
X146554819Y-109087142D01*
X146554819Y-109087142D02*
X146602438Y-108991904D01*
X146602438Y-108991904D02*
X146650057Y-108944285D01*
X146650057Y-108944285D02*
X146745295Y-108896666D01*
X146745295Y-108896666D02*
X146888152Y-108896666D01*
X146888152Y-108896666D02*
X146983390Y-108944285D01*
X146983390Y-108944285D02*
X147031009Y-108991904D01*
X147031009Y-108991904D02*
X147078628Y-109087142D01*
X147078628Y-109087142D02*
X147078628Y-109468094D01*
X146554819Y-108563332D02*
X146554819Y-107944285D01*
X146554819Y-107944285D02*
X146935771Y-108277618D01*
X146935771Y-108277618D02*
X146935771Y-108134761D01*
X146935771Y-108134761D02*
X146983390Y-108039523D01*
X146983390Y-108039523D02*
X147031009Y-107991904D01*
X147031009Y-107991904D02*
X147126247Y-107944285D01*
X147126247Y-107944285D02*
X147364342Y-107944285D01*
X147364342Y-107944285D02*
X147459580Y-107991904D01*
X147459580Y-107991904D02*
X147507200Y-108039523D01*
X147507200Y-108039523D02*
X147554819Y-108134761D01*
X147554819Y-108134761D02*
X147554819Y-108420475D01*
X147554819Y-108420475D02*
X147507200Y-108515713D01*
X147507200Y-108515713D02*
X147459580Y-108563332D01*
X130393817Y-121250480D02*
X130494832Y-120678061D01*
X129989756Y-120846419D02*
X130696863Y-120139313D01*
X130696863Y-120139313D02*
X130966237Y-120408687D01*
X130966237Y-120408687D02*
X130999909Y-120509702D01*
X130999909Y-120509702D02*
X130999909Y-120577045D01*
X130999909Y-120577045D02*
X130966237Y-120678061D01*
X130966237Y-120678061D02*
X130865222Y-120779076D01*
X130865222Y-120779076D02*
X130764206Y-120812748D01*
X130764206Y-120812748D02*
X130696863Y-120812748D01*
X130696863Y-120812748D02*
X130595848Y-120779076D01*
X130595848Y-120779076D02*
X130326474Y-120509702D01*
X131302954Y-120880091D02*
X131370298Y-120880091D01*
X131370298Y-120880091D02*
X131471313Y-120913763D01*
X131471313Y-120913763D02*
X131639672Y-121082122D01*
X131639672Y-121082122D02*
X131673344Y-121183137D01*
X131673344Y-121183137D02*
X131673344Y-121250480D01*
X131673344Y-121250480D02*
X131639672Y-121351496D01*
X131639672Y-121351496D02*
X131572328Y-121418839D01*
X131572328Y-121418839D02*
X131437641Y-121486183D01*
X131437641Y-121486183D02*
X130629519Y-121486183D01*
X130629519Y-121486183D02*
X131067252Y-121923915D01*
X145833333Y-123754819D02*
X145500000Y-123278628D01*
X145261905Y-123754819D02*
X145261905Y-122754819D01*
X145261905Y-122754819D02*
X145642857Y-122754819D01*
X145642857Y-122754819D02*
X145738095Y-122802438D01*
X145738095Y-122802438D02*
X145785714Y-122850057D01*
X145785714Y-122850057D02*
X145833333Y-122945295D01*
X145833333Y-122945295D02*
X145833333Y-123088152D01*
X145833333Y-123088152D02*
X145785714Y-123183390D01*
X145785714Y-123183390D02*
X145738095Y-123231009D01*
X145738095Y-123231009D02*
X145642857Y-123278628D01*
X145642857Y-123278628D02*
X145261905Y-123278628D01*
X146785714Y-123754819D02*
X146214286Y-123754819D01*
X146500000Y-123754819D02*
X146500000Y-122754819D01*
X146500000Y-122754819D02*
X146404762Y-122897676D01*
X146404762Y-122897676D02*
X146309524Y-122992914D01*
X146309524Y-122992914D02*
X146214286Y-123040533D01*
X145633333Y-118354819D02*
X145157143Y-118354819D01*
X145157143Y-118354819D02*
X145157143Y-117354819D01*
X145919048Y-117450057D02*
X145966667Y-117402438D01*
X145966667Y-117402438D02*
X146061905Y-117354819D01*
X146061905Y-117354819D02*
X146300000Y-117354819D01*
X146300000Y-117354819D02*
X146395238Y-117402438D01*
X146395238Y-117402438D02*
X146442857Y-117450057D01*
X146442857Y-117450057D02*
X146490476Y-117545295D01*
X146490476Y-117545295D02*
X146490476Y-117640533D01*
X146490476Y-117640533D02*
X146442857Y-117783390D01*
X146442857Y-117783390D02*
X145871429Y-118354819D01*
X145871429Y-118354819D02*
X146490476Y-118354819D01*
X141933333Y-111554819D02*
X141457143Y-111554819D01*
X141457143Y-111554819D02*
X141457143Y-110554819D01*
X142790476Y-111554819D02*
X142219048Y-111554819D01*
X142504762Y-111554819D02*
X142504762Y-110554819D01*
X142504762Y-110554819D02*
X142409524Y-110697676D01*
X142409524Y-110697676D02*
X142314286Y-110792914D01*
X142314286Y-110792914D02*
X142219048Y-110840533D01*
X141766666Y-136354819D02*
X141766666Y-137069104D01*
X141766666Y-137069104D02*
X141719047Y-137211961D01*
X141719047Y-137211961D02*
X141623809Y-137307200D01*
X141623809Y-137307200D02*
X141480952Y-137354819D01*
X141480952Y-137354819D02*
X141385714Y-137354819D01*
X142147619Y-136354819D02*
X142766666Y-136354819D01*
X142766666Y-136354819D02*
X142433333Y-136735771D01*
X142433333Y-136735771D02*
X142576190Y-136735771D01*
X142576190Y-136735771D02*
X142671428Y-136783390D01*
X142671428Y-136783390D02*
X142719047Y-136831009D01*
X142719047Y-136831009D02*
X142766666Y-136926247D01*
X142766666Y-136926247D02*
X142766666Y-137164342D01*
X142766666Y-137164342D02*
X142719047Y-137259580D01*
X142719047Y-137259580D02*
X142671428Y-137307200D01*
X142671428Y-137307200D02*
X142576190Y-137354819D01*
X142576190Y-137354819D02*
X142290476Y-137354819D01*
X142290476Y-137354819D02*
X142195238Y-137307200D01*
X142195238Y-137307200D02*
X142147619Y-137259580D01*
X135389819Y-102413333D02*
X136104104Y-102413333D01*
X136104104Y-102413333D02*
X136246961Y-102460952D01*
X136246961Y-102460952D02*
X136342200Y-102556190D01*
X136342200Y-102556190D02*
X136389819Y-102699047D01*
X136389819Y-102699047D02*
X136389819Y-102794285D01*
X136389819Y-101413333D02*
X136389819Y-101984761D01*
X136389819Y-101699047D02*
X135389819Y-101699047D01*
X135389819Y-101699047D02*
X135532676Y-101794285D01*
X135532676Y-101794285D02*
X135627914Y-101889523D01*
X135627914Y-101889523D02*
X135675533Y-101984761D01*
X149061905Y-127854819D02*
X149061905Y-126854819D01*
X149061905Y-126854819D02*
X149300000Y-126854819D01*
X149300000Y-126854819D02*
X149442857Y-126902438D01*
X149442857Y-126902438D02*
X149538095Y-126997676D01*
X149538095Y-126997676D02*
X149585714Y-127092914D01*
X149585714Y-127092914D02*
X149633333Y-127283390D01*
X149633333Y-127283390D02*
X149633333Y-127426247D01*
X149633333Y-127426247D02*
X149585714Y-127616723D01*
X149585714Y-127616723D02*
X149538095Y-127711961D01*
X149538095Y-127711961D02*
X149442857Y-127807200D01*
X149442857Y-127807200D02*
X149300000Y-127854819D01*
X149300000Y-127854819D02*
X149061905Y-127854819D01*
X150585714Y-127854819D02*
X150014286Y-127854819D01*
X150300000Y-127854819D02*
X150300000Y-126854819D01*
X150300000Y-126854819D02*
X150204762Y-126997676D01*
X150204762Y-126997676D02*
X150109524Y-127092914D01*
X150109524Y-127092914D02*
X150014286Y-127140533D01*
X133599580Y-108842857D02*
X133647200Y-108890476D01*
X133647200Y-108890476D02*
X133694819Y-109033333D01*
X133694819Y-109033333D02*
X133694819Y-109128571D01*
X133694819Y-109128571D02*
X133647200Y-109271428D01*
X133647200Y-109271428D02*
X133551961Y-109366666D01*
X133551961Y-109366666D02*
X133456723Y-109414285D01*
X133456723Y-109414285D02*
X133266247Y-109461904D01*
X133266247Y-109461904D02*
X133123390Y-109461904D01*
X133123390Y-109461904D02*
X132932914Y-109414285D01*
X132932914Y-109414285D02*
X132837676Y-109366666D01*
X132837676Y-109366666D02*
X132742438Y-109271428D01*
X132742438Y-109271428D02*
X132694819Y-109128571D01*
X132694819Y-109128571D02*
X132694819Y-109033333D01*
X132694819Y-109033333D02*
X132742438Y-108890476D01*
X132742438Y-108890476D02*
X132790057Y-108842857D01*
X133694819Y-107890476D02*
X133694819Y-108461904D01*
X133694819Y-108176190D02*
X132694819Y-108176190D01*
X132694819Y-108176190D02*
X132837676Y-108271428D01*
X132837676Y-108271428D02*
X132932914Y-108366666D01*
X132932914Y-108366666D02*
X132980533Y-108461904D01*
X133694819Y-107414285D02*
X133694819Y-107223809D01*
X133694819Y-107223809D02*
X133647200Y-107128571D01*
X133647200Y-107128571D02*
X133599580Y-107080952D01*
X133599580Y-107080952D02*
X133456723Y-106985714D01*
X133456723Y-106985714D02*
X133266247Y-106938095D01*
X133266247Y-106938095D02*
X132885295Y-106938095D01*
X132885295Y-106938095D02*
X132790057Y-106985714D01*
X132790057Y-106985714D02*
X132742438Y-107033333D01*
X132742438Y-107033333D02*
X132694819Y-107128571D01*
X132694819Y-107128571D02*
X132694819Y-107319047D01*
X132694819Y-107319047D02*
X132742438Y-107414285D01*
X132742438Y-107414285D02*
X132790057Y-107461904D01*
X132790057Y-107461904D02*
X132885295Y-107509523D01*
X132885295Y-107509523D02*
X133123390Y-107509523D01*
X133123390Y-107509523D02*
X133218628Y-107461904D01*
X133218628Y-107461904D02*
X133266247Y-107414285D01*
X133266247Y-107414285D02*
X133313866Y-107319047D01*
X133313866Y-107319047D02*
X133313866Y-107128571D01*
X133313866Y-107128571D02*
X133266247Y-107033333D01*
X133266247Y-107033333D02*
X133218628Y-106985714D01*
X133218628Y-106985714D02*
X133123390Y-106938095D01*
D11*
X131388704Y-110414285D02*
X131426800Y-110452381D01*
X131426800Y-110452381D02*
X131464895Y-110566666D01*
X131464895Y-110566666D02*
X131464895Y-110642857D01*
X131464895Y-110642857D02*
X131426800Y-110757143D01*
X131426800Y-110757143D02*
X131350609Y-110833333D01*
X131350609Y-110833333D02*
X131274419Y-110871428D01*
X131274419Y-110871428D02*
X131122038Y-110909524D01*
X131122038Y-110909524D02*
X131007752Y-110909524D01*
X131007752Y-110909524D02*
X130855371Y-110871428D01*
X130855371Y-110871428D02*
X130779180Y-110833333D01*
X130779180Y-110833333D02*
X130702990Y-110757143D01*
X130702990Y-110757143D02*
X130664895Y-110642857D01*
X130664895Y-110642857D02*
X130664895Y-110566666D01*
X130664895Y-110566666D02*
X130702990Y-110452381D01*
X130702990Y-110452381D02*
X130741085Y-110414285D01*
X131464895Y-109652381D02*
X131464895Y-110109524D01*
X131464895Y-109880952D02*
X130664895Y-109880952D01*
X130664895Y-109880952D02*
X130779180Y-109957143D01*
X130779180Y-109957143D02*
X130855371Y-110033333D01*
X130855371Y-110033333D02*
X130893466Y-110109524D01*
X131007752Y-109195238D02*
X130969657Y-109271428D01*
X130969657Y-109271428D02*
X130931561Y-109309523D01*
X130931561Y-109309523D02*
X130855371Y-109347619D01*
X130855371Y-109347619D02*
X130817276Y-109347619D01*
X130817276Y-109347619D02*
X130741085Y-109309523D01*
X130741085Y-109309523D02*
X130702990Y-109271428D01*
X130702990Y-109271428D02*
X130664895Y-109195238D01*
X130664895Y-109195238D02*
X130664895Y-109042857D01*
X130664895Y-109042857D02*
X130702990Y-108966666D01*
X130702990Y-108966666D02*
X130741085Y-108928571D01*
X130741085Y-108928571D02*
X130817276Y-108890476D01*
X130817276Y-108890476D02*
X130855371Y-108890476D01*
X130855371Y-108890476D02*
X130931561Y-108928571D01*
X130931561Y-108928571D02*
X130969657Y-108966666D01*
X130969657Y-108966666D02*
X131007752Y-109042857D01*
X131007752Y-109042857D02*
X131007752Y-109195238D01*
X131007752Y-109195238D02*
X131045847Y-109271428D01*
X131045847Y-109271428D02*
X131083942Y-109309523D01*
X131083942Y-109309523D02*
X131160133Y-109347619D01*
X131160133Y-109347619D02*
X131312514Y-109347619D01*
X131312514Y-109347619D02*
X131388704Y-109309523D01*
X131388704Y-109309523D02*
X131426800Y-109271428D01*
X131426800Y-109271428D02*
X131464895Y-109195238D01*
X131464895Y-109195238D02*
X131464895Y-109042857D01*
X131464895Y-109042857D02*
X131426800Y-108966666D01*
X131426800Y-108966666D02*
X131388704Y-108928571D01*
X131388704Y-108928571D02*
X131312514Y-108890476D01*
X131312514Y-108890476D02*
X131160133Y-108890476D01*
X131160133Y-108890476D02*
X131083942Y-108928571D01*
X131083942Y-108928571D02*
X131045847Y-108966666D01*
X131045847Y-108966666D02*
X131007752Y-109042857D01*
D10*
X143057142Y-106759580D02*
X143009523Y-106807200D01*
X143009523Y-106807200D02*
X142866666Y-106854819D01*
X142866666Y-106854819D02*
X142771428Y-106854819D01*
X142771428Y-106854819D02*
X142628571Y-106807200D01*
X142628571Y-106807200D02*
X142533333Y-106711961D01*
X142533333Y-106711961D02*
X142485714Y-106616723D01*
X142485714Y-106616723D02*
X142438095Y-106426247D01*
X142438095Y-106426247D02*
X142438095Y-106283390D01*
X142438095Y-106283390D02*
X142485714Y-106092914D01*
X142485714Y-106092914D02*
X142533333Y-105997676D01*
X142533333Y-105997676D02*
X142628571Y-105902438D01*
X142628571Y-105902438D02*
X142771428Y-105854819D01*
X142771428Y-105854819D02*
X142866666Y-105854819D01*
X142866666Y-105854819D02*
X143009523Y-105902438D01*
X143009523Y-105902438D02*
X143057142Y-105950057D01*
X144009523Y-106854819D02*
X143438095Y-106854819D01*
X143723809Y-106854819D02*
X143723809Y-105854819D01*
X143723809Y-105854819D02*
X143628571Y-105997676D01*
X143628571Y-105997676D02*
X143533333Y-106092914D01*
X143533333Y-106092914D02*
X143438095Y-106140533D01*
X144342857Y-105854819D02*
X145009523Y-105854819D01*
X145009523Y-105854819D02*
X144580952Y-106854819D01*
X138579449Y-107888586D02*
X138579449Y-107955930D01*
X138579449Y-107955930D02*
X138512105Y-108090617D01*
X138512105Y-108090617D02*
X138444762Y-108157960D01*
X138444762Y-108157960D02*
X138310075Y-108225304D01*
X138310075Y-108225304D02*
X138175388Y-108225304D01*
X138175388Y-108225304D02*
X138074373Y-108191632D01*
X138074373Y-108191632D02*
X137906014Y-108090617D01*
X137906014Y-108090617D02*
X137804999Y-107989602D01*
X137804999Y-107989602D02*
X137703983Y-107821243D01*
X137703983Y-107821243D02*
X137670312Y-107720228D01*
X137670312Y-107720228D02*
X137670312Y-107585541D01*
X137670312Y-107585541D02*
X137737655Y-107450854D01*
X137737655Y-107450854D02*
X137804999Y-107383510D01*
X137804999Y-107383510D02*
X137939686Y-107316167D01*
X137939686Y-107316167D02*
X138007029Y-107316167D01*
X139320227Y-107282495D02*
X138916166Y-107686556D01*
X139118197Y-107484525D02*
X138411090Y-106777419D01*
X138411090Y-106777419D02*
X138444762Y-106945777D01*
X138444762Y-106945777D02*
X138444762Y-107080464D01*
X138444762Y-107080464D02*
X138411090Y-107181480D01*
X139219212Y-105969296D02*
X139084525Y-106103983D01*
X139084525Y-106103983D02*
X139050854Y-106204999D01*
X139050854Y-106204999D02*
X139050854Y-106272342D01*
X139050854Y-106272342D02*
X139084525Y-106440701D01*
X139084525Y-106440701D02*
X139185541Y-106609060D01*
X139185541Y-106609060D02*
X139454915Y-106878434D01*
X139454915Y-106878434D02*
X139555930Y-106912105D01*
X139555930Y-106912105D02*
X139623273Y-106912105D01*
X139623273Y-106912105D02*
X139724289Y-106878434D01*
X139724289Y-106878434D02*
X139858976Y-106743747D01*
X139858976Y-106743747D02*
X139892647Y-106642731D01*
X139892647Y-106642731D02*
X139892647Y-106575388D01*
X139892647Y-106575388D02*
X139858976Y-106474373D01*
X139858976Y-106474373D02*
X139690617Y-106306014D01*
X139690617Y-106306014D02*
X139589602Y-106272342D01*
X139589602Y-106272342D02*
X139522258Y-106272342D01*
X139522258Y-106272342D02*
X139421243Y-106306014D01*
X139421243Y-106306014D02*
X139286556Y-106440701D01*
X139286556Y-106440701D02*
X139252884Y-106541716D01*
X139252884Y-106541716D02*
X139252884Y-106609060D01*
X139252884Y-106609060D02*
X139286556Y-106710075D01*
D11*
X128185714Y-119888704D02*
X128147618Y-119926800D01*
X128147618Y-119926800D02*
X128033333Y-119964895D01*
X128033333Y-119964895D02*
X127957142Y-119964895D01*
X127957142Y-119964895D02*
X127842856Y-119926800D01*
X127842856Y-119926800D02*
X127766666Y-119850609D01*
X127766666Y-119850609D02*
X127728571Y-119774419D01*
X127728571Y-119774419D02*
X127690475Y-119622038D01*
X127690475Y-119622038D02*
X127690475Y-119507752D01*
X127690475Y-119507752D02*
X127728571Y-119355371D01*
X127728571Y-119355371D02*
X127766666Y-119279180D01*
X127766666Y-119279180D02*
X127842856Y-119202990D01*
X127842856Y-119202990D02*
X127957142Y-119164895D01*
X127957142Y-119164895D02*
X128033333Y-119164895D01*
X128033333Y-119164895D02*
X128147618Y-119202990D01*
X128147618Y-119202990D02*
X128185714Y-119241085D01*
X128947618Y-119964895D02*
X128490475Y-119964895D01*
X128719047Y-119964895D02*
X128719047Y-119164895D01*
X128719047Y-119164895D02*
X128642856Y-119279180D01*
X128642856Y-119279180D02*
X128566666Y-119355371D01*
X128566666Y-119355371D02*
X128490475Y-119393466D01*
X129633333Y-119431561D02*
X129633333Y-119964895D01*
X129442857Y-119126800D02*
X129252380Y-119698228D01*
X129252380Y-119698228D02*
X129747619Y-119698228D01*
X126085714Y-116988704D02*
X126047618Y-117026800D01*
X126047618Y-117026800D02*
X125933333Y-117064895D01*
X125933333Y-117064895D02*
X125857142Y-117064895D01*
X125857142Y-117064895D02*
X125742856Y-117026800D01*
X125742856Y-117026800D02*
X125666666Y-116950609D01*
X125666666Y-116950609D02*
X125628571Y-116874419D01*
X125628571Y-116874419D02*
X125590475Y-116722038D01*
X125590475Y-116722038D02*
X125590475Y-116607752D01*
X125590475Y-116607752D02*
X125628571Y-116455371D01*
X125628571Y-116455371D02*
X125666666Y-116379180D01*
X125666666Y-116379180D02*
X125742856Y-116302990D01*
X125742856Y-116302990D02*
X125857142Y-116264895D01*
X125857142Y-116264895D02*
X125933333Y-116264895D01*
X125933333Y-116264895D02*
X126047618Y-116302990D01*
X126047618Y-116302990D02*
X126085714Y-116341085D01*
X126847618Y-117064895D02*
X126390475Y-117064895D01*
X126619047Y-117064895D02*
X126619047Y-116264895D01*
X126619047Y-116264895D02*
X126542856Y-116379180D01*
X126542856Y-116379180D02*
X126466666Y-116455371D01*
X126466666Y-116455371D02*
X126390475Y-116493466D01*
X127114285Y-116264895D02*
X127609523Y-116264895D01*
X127609523Y-116264895D02*
X127342857Y-116569657D01*
X127342857Y-116569657D02*
X127457142Y-116569657D01*
X127457142Y-116569657D02*
X127533333Y-116607752D01*
X127533333Y-116607752D02*
X127571428Y-116645847D01*
X127571428Y-116645847D02*
X127609523Y-116722038D01*
X127609523Y-116722038D02*
X127609523Y-116912514D01*
X127609523Y-116912514D02*
X127571428Y-116988704D01*
X127571428Y-116988704D02*
X127533333Y-117026800D01*
X127533333Y-117026800D02*
X127457142Y-117064895D01*
X127457142Y-117064895D02*
X127228571Y-117064895D01*
X127228571Y-117064895D02*
X127152380Y-117026800D01*
X127152380Y-117026800D02*
X127114285Y-116988704D01*
D10*
X142657142Y-121959580D02*
X142609523Y-122007200D01*
X142609523Y-122007200D02*
X142466666Y-122054819D01*
X142466666Y-122054819D02*
X142371428Y-122054819D01*
X142371428Y-122054819D02*
X142228571Y-122007200D01*
X142228571Y-122007200D02*
X142133333Y-121911961D01*
X142133333Y-121911961D02*
X142085714Y-121816723D01*
X142085714Y-121816723D02*
X142038095Y-121626247D01*
X142038095Y-121626247D02*
X142038095Y-121483390D01*
X142038095Y-121483390D02*
X142085714Y-121292914D01*
X142085714Y-121292914D02*
X142133333Y-121197676D01*
X142133333Y-121197676D02*
X142228571Y-121102438D01*
X142228571Y-121102438D02*
X142371428Y-121054819D01*
X142371428Y-121054819D02*
X142466666Y-121054819D01*
X142466666Y-121054819D02*
X142609523Y-121102438D01*
X142609523Y-121102438D02*
X142657142Y-121150057D01*
X143609523Y-122054819D02*
X143038095Y-122054819D01*
X143323809Y-122054819D02*
X143323809Y-121054819D01*
X143323809Y-121054819D02*
X143228571Y-121197676D01*
X143228571Y-121197676D02*
X143133333Y-121292914D01*
X143133333Y-121292914D02*
X143038095Y-121340533D01*
X143990476Y-121150057D02*
X144038095Y-121102438D01*
X144038095Y-121102438D02*
X144133333Y-121054819D01*
X144133333Y-121054819D02*
X144371428Y-121054819D01*
X144371428Y-121054819D02*
X144466666Y-121102438D01*
X144466666Y-121102438D02*
X144514285Y-121150057D01*
X144514285Y-121150057D02*
X144561904Y-121245295D01*
X144561904Y-121245295D02*
X144561904Y-121340533D01*
X144561904Y-121340533D02*
X144514285Y-121483390D01*
X144514285Y-121483390D02*
X143942857Y-122054819D01*
X143942857Y-122054819D02*
X144561904Y-122054819D01*
X141057142Y-120259580D02*
X141009523Y-120307200D01*
X141009523Y-120307200D02*
X140866666Y-120354819D01*
X140866666Y-120354819D02*
X140771428Y-120354819D01*
X140771428Y-120354819D02*
X140628571Y-120307200D01*
X140628571Y-120307200D02*
X140533333Y-120211961D01*
X140533333Y-120211961D02*
X140485714Y-120116723D01*
X140485714Y-120116723D02*
X140438095Y-119926247D01*
X140438095Y-119926247D02*
X140438095Y-119783390D01*
X140438095Y-119783390D02*
X140485714Y-119592914D01*
X140485714Y-119592914D02*
X140533333Y-119497676D01*
X140533333Y-119497676D02*
X140628571Y-119402438D01*
X140628571Y-119402438D02*
X140771428Y-119354819D01*
X140771428Y-119354819D02*
X140866666Y-119354819D01*
X140866666Y-119354819D02*
X141009523Y-119402438D01*
X141009523Y-119402438D02*
X141057142Y-119450057D01*
X142009523Y-120354819D02*
X141438095Y-120354819D01*
X141723809Y-120354819D02*
X141723809Y-119354819D01*
X141723809Y-119354819D02*
X141628571Y-119497676D01*
X141628571Y-119497676D02*
X141533333Y-119592914D01*
X141533333Y-119592914D02*
X141438095Y-119640533D01*
X142961904Y-120354819D02*
X142390476Y-120354819D01*
X142676190Y-120354819D02*
X142676190Y-119354819D01*
X142676190Y-119354819D02*
X142580952Y-119497676D01*
X142580952Y-119497676D02*
X142485714Y-119592914D01*
X142485714Y-119592914D02*
X142390476Y-119640533D01*
X133198131Y-117896167D02*
X133130787Y-117896167D01*
X133130787Y-117896167D02*
X132996100Y-117828823D01*
X132996100Y-117828823D02*
X132928757Y-117761480D01*
X132928757Y-117761480D02*
X132861413Y-117626793D01*
X132861413Y-117626793D02*
X132861413Y-117492106D01*
X132861413Y-117492106D02*
X132895085Y-117391091D01*
X132895085Y-117391091D02*
X132996100Y-117222732D01*
X132996100Y-117222732D02*
X133097115Y-117121717D01*
X133097115Y-117121717D02*
X133265474Y-117020701D01*
X133265474Y-117020701D02*
X133366489Y-116987030D01*
X133366489Y-116987030D02*
X133501176Y-116987030D01*
X133501176Y-116987030D02*
X133635863Y-117054373D01*
X133635863Y-117054373D02*
X133703207Y-117121717D01*
X133703207Y-117121717D02*
X133770550Y-117256404D01*
X133770550Y-117256404D02*
X133770550Y-117323747D01*
X134443985Y-117862495D02*
X134309298Y-117727808D01*
X134309298Y-117727808D02*
X134208283Y-117694136D01*
X134208283Y-117694136D02*
X134140940Y-117694136D01*
X134140940Y-117694136D02*
X133972581Y-117727808D01*
X133972581Y-117727808D02*
X133804222Y-117828823D01*
X133804222Y-117828823D02*
X133534848Y-118098197D01*
X133534848Y-118098197D02*
X133501176Y-118199213D01*
X133501176Y-118199213D02*
X133501176Y-118266556D01*
X133501176Y-118266556D02*
X133534848Y-118367571D01*
X133534848Y-118367571D02*
X133669535Y-118502258D01*
X133669535Y-118502258D02*
X133770550Y-118535930D01*
X133770550Y-118535930D02*
X133837894Y-118535930D01*
X133837894Y-118535930D02*
X133938909Y-118502258D01*
X133938909Y-118502258D02*
X134107268Y-118333900D01*
X134107268Y-118333900D02*
X134140940Y-118232884D01*
X134140940Y-118232884D02*
X134140940Y-118165541D01*
X134140940Y-118165541D02*
X134107268Y-118064526D01*
X134107268Y-118064526D02*
X133972581Y-117929839D01*
X133972581Y-117929839D02*
X133871566Y-117896167D01*
X133871566Y-117896167D02*
X133804222Y-117896167D01*
X133804222Y-117896167D02*
X133703207Y-117929839D01*
D11*
X130388704Y-110433332D02*
X130426800Y-110471428D01*
X130426800Y-110471428D02*
X130464895Y-110585713D01*
X130464895Y-110585713D02*
X130464895Y-110661904D01*
X130464895Y-110661904D02*
X130426800Y-110776190D01*
X130426800Y-110776190D02*
X130350609Y-110852380D01*
X130350609Y-110852380D02*
X130274419Y-110890475D01*
X130274419Y-110890475D02*
X130122038Y-110928571D01*
X130122038Y-110928571D02*
X130007752Y-110928571D01*
X130007752Y-110928571D02*
X129855371Y-110890475D01*
X129855371Y-110890475D02*
X129779180Y-110852380D01*
X129779180Y-110852380D02*
X129702990Y-110776190D01*
X129702990Y-110776190D02*
X129664895Y-110661904D01*
X129664895Y-110661904D02*
X129664895Y-110585713D01*
X129664895Y-110585713D02*
X129702990Y-110471428D01*
X129702990Y-110471428D02*
X129741085Y-110433332D01*
X129664895Y-109709523D02*
X129664895Y-110090475D01*
X129664895Y-110090475D02*
X130045847Y-110128571D01*
X130045847Y-110128571D02*
X130007752Y-110090475D01*
X130007752Y-110090475D02*
X129969657Y-110014285D01*
X129969657Y-110014285D02*
X129969657Y-109823809D01*
X129969657Y-109823809D02*
X130007752Y-109747618D01*
X130007752Y-109747618D02*
X130045847Y-109709523D01*
X130045847Y-109709523D02*
X130122038Y-109671428D01*
X130122038Y-109671428D02*
X130312514Y-109671428D01*
X130312514Y-109671428D02*
X130388704Y-109709523D01*
X130388704Y-109709523D02*
X130426800Y-109747618D01*
X130426800Y-109747618D02*
X130464895Y-109823809D01*
X130464895Y-109823809D02*
X130464895Y-110014285D01*
X130464895Y-110014285D02*
X130426800Y-110090475D01*
X130426800Y-110090475D02*
X130388704Y-110128571D01*
D10*
X138933333Y-119659580D02*
X138885714Y-119707200D01*
X138885714Y-119707200D02*
X138742857Y-119754819D01*
X138742857Y-119754819D02*
X138647619Y-119754819D01*
X138647619Y-119754819D02*
X138504762Y-119707200D01*
X138504762Y-119707200D02*
X138409524Y-119611961D01*
X138409524Y-119611961D02*
X138361905Y-119516723D01*
X138361905Y-119516723D02*
X138314286Y-119326247D01*
X138314286Y-119326247D02*
X138314286Y-119183390D01*
X138314286Y-119183390D02*
X138361905Y-118992914D01*
X138361905Y-118992914D02*
X138409524Y-118897676D01*
X138409524Y-118897676D02*
X138504762Y-118802438D01*
X138504762Y-118802438D02*
X138647619Y-118754819D01*
X138647619Y-118754819D02*
X138742857Y-118754819D01*
X138742857Y-118754819D02*
X138885714Y-118802438D01*
X138885714Y-118802438D02*
X138933333Y-118850057D01*
X139790476Y-119088152D02*
X139790476Y-119754819D01*
X139552381Y-118707200D02*
X139314286Y-119421485D01*
X139314286Y-119421485D02*
X139933333Y-119421485D01*
X127733333Y-110259580D02*
X127685714Y-110307200D01*
X127685714Y-110307200D02*
X127542857Y-110354819D01*
X127542857Y-110354819D02*
X127447619Y-110354819D01*
X127447619Y-110354819D02*
X127304762Y-110307200D01*
X127304762Y-110307200D02*
X127209524Y-110211961D01*
X127209524Y-110211961D02*
X127161905Y-110116723D01*
X127161905Y-110116723D02*
X127114286Y-109926247D01*
X127114286Y-109926247D02*
X127114286Y-109783390D01*
X127114286Y-109783390D02*
X127161905Y-109592914D01*
X127161905Y-109592914D02*
X127209524Y-109497676D01*
X127209524Y-109497676D02*
X127304762Y-109402438D01*
X127304762Y-109402438D02*
X127447619Y-109354819D01*
X127447619Y-109354819D02*
X127542857Y-109354819D01*
X127542857Y-109354819D02*
X127685714Y-109402438D01*
X127685714Y-109402438D02*
X127733333Y-109450057D01*
X128066667Y-109354819D02*
X128685714Y-109354819D01*
X128685714Y-109354819D02*
X128352381Y-109735771D01*
X128352381Y-109735771D02*
X128495238Y-109735771D01*
X128495238Y-109735771D02*
X128590476Y-109783390D01*
X128590476Y-109783390D02*
X128638095Y-109831009D01*
X128638095Y-109831009D02*
X128685714Y-109926247D01*
X128685714Y-109926247D02*
X128685714Y-110164342D01*
X128685714Y-110164342D02*
X128638095Y-110259580D01*
X128638095Y-110259580D02*
X128590476Y-110307200D01*
X128590476Y-110307200D02*
X128495238Y-110354819D01*
X128495238Y-110354819D02*
X128209524Y-110354819D01*
X128209524Y-110354819D02*
X128114286Y-110307200D01*
X128114286Y-110307200D02*
X128066667Y-110259580D01*
D11*
X145166667Y-128688704D02*
X145128571Y-128726800D01*
X145128571Y-128726800D02*
X145014286Y-128764895D01*
X145014286Y-128764895D02*
X144938095Y-128764895D01*
X144938095Y-128764895D02*
X144823809Y-128726800D01*
X144823809Y-128726800D02*
X144747619Y-128650609D01*
X144747619Y-128650609D02*
X144709524Y-128574419D01*
X144709524Y-128574419D02*
X144671428Y-128422038D01*
X144671428Y-128422038D02*
X144671428Y-128307752D01*
X144671428Y-128307752D02*
X144709524Y-128155371D01*
X144709524Y-128155371D02*
X144747619Y-128079180D01*
X144747619Y-128079180D02*
X144823809Y-128002990D01*
X144823809Y-128002990D02*
X144938095Y-127964895D01*
X144938095Y-127964895D02*
X145014286Y-127964895D01*
X145014286Y-127964895D02*
X145128571Y-128002990D01*
X145128571Y-128002990D02*
X145166667Y-128041085D01*
X145471428Y-128041085D02*
X145509524Y-128002990D01*
X145509524Y-128002990D02*
X145585714Y-127964895D01*
X145585714Y-127964895D02*
X145776190Y-127964895D01*
X145776190Y-127964895D02*
X145852381Y-128002990D01*
X145852381Y-128002990D02*
X145890476Y-128041085D01*
X145890476Y-128041085D02*
X145928571Y-128117276D01*
X145928571Y-128117276D02*
X145928571Y-128193466D01*
X145928571Y-128193466D02*
X145890476Y-128307752D01*
X145890476Y-128307752D02*
X145433333Y-128764895D01*
X145433333Y-128764895D02*
X145928571Y-128764895D01*
D10*
X140459580Y-129166666D02*
X140507200Y-129214285D01*
X140507200Y-129214285D02*
X140554819Y-129357142D01*
X140554819Y-129357142D02*
X140554819Y-129452380D01*
X140554819Y-129452380D02*
X140507200Y-129595237D01*
X140507200Y-129595237D02*
X140411961Y-129690475D01*
X140411961Y-129690475D02*
X140316723Y-129738094D01*
X140316723Y-129738094D02*
X140126247Y-129785713D01*
X140126247Y-129785713D02*
X139983390Y-129785713D01*
X139983390Y-129785713D02*
X139792914Y-129738094D01*
X139792914Y-129738094D02*
X139697676Y-129690475D01*
X139697676Y-129690475D02*
X139602438Y-129595237D01*
X139602438Y-129595237D02*
X139554819Y-129452380D01*
X139554819Y-129452380D02*
X139554819Y-129357142D01*
X139554819Y-129357142D02*
X139602438Y-129214285D01*
X139602438Y-129214285D02*
X139650057Y-129166666D01*
X140554819Y-128214285D02*
X140554819Y-128785713D01*
X140554819Y-128499999D02*
X139554819Y-128499999D01*
X139554819Y-128499999D02*
X139697676Y-128595237D01*
X139697676Y-128595237D02*
X139792914Y-128690475D01*
X139792914Y-128690475D02*
X139840533Y-128785713D01*
X148163532Y-120169104D02*
X148639722Y-120169104D01*
X148068294Y-120454819D02*
X148401627Y-119454819D01*
X148401627Y-119454819D02*
X148734960Y-120454819D01*
X149068294Y-119931009D02*
X149401627Y-119931009D01*
X149544484Y-120454819D02*
X149068294Y-120454819D01*
X149068294Y-120454819D02*
X149068294Y-119454819D01*
X149068294Y-119454819D02*
X149544484Y-119454819D01*
X150496865Y-120454819D02*
X149925437Y-120454819D01*
X150211151Y-120454819D02*
X150211151Y-119454819D01*
X150211151Y-119454819D02*
X150115913Y-119597676D01*
X150115913Y-119597676D02*
X150020675Y-119692914D01*
X150020675Y-119692914D02*
X149925437Y-119740533D01*
D12*
%TO.C,U2*%
X140939999Y-125960000D02*
X140940000Y-126760000D01*
X140939999Y-125960000D02*
X140940000Y-125160000D01*
X144060001Y-125960000D02*
X144060000Y-126760000D01*
X144060001Y-125960000D02*
X144060000Y-125160000D01*
X140990000Y-127260000D02*
X140660000Y-127500000D01*
X140660000Y-127020000D01*
X140990000Y-127260000D01*
G36*
X140990000Y-127260000D02*
G01*
X140660000Y-127500000D01*
X140660000Y-127020000D01*
X140990000Y-127260000D01*
G37*
D11*
%TO.C,J4*%
X110000000Y-127500000D02*
X107500000Y-130000000D01*
X107500000Y-125000000D01*
X110000000Y-127500000D01*
G36*
X110000000Y-127500000D02*
G01*
X107500000Y-130000000D01*
X107500000Y-125000000D01*
X110000000Y-127500000D01*
G37*
D12*
X116000000Y-129000000D02*
X116000000Y-131500000D01*
X116000000Y-123500000D02*
X116000000Y-126000000D01*
X112000000Y-136500000D02*
X113500000Y-136500000D01*
X112000000Y-118500000D02*
X113500000Y-118500000D01*
X105000000Y-118500000D02*
X107500000Y-118500000D01*
X105000000Y-118500000D02*
X104500000Y-118500000D01*
X104500000Y-136500000D02*
X107000000Y-136500000D01*
X104500000Y-136500000D02*
X104500000Y-132000000D01*
X104500000Y-118500000D02*
X104500000Y-123000000D01*
%TO.C,D2*%
X120315000Y-124862500D02*
X120315000Y-127147500D01*
X121785000Y-127147500D02*
X121785000Y-124862500D01*
X120315000Y-127147500D02*
X121785000Y-127147500D01*
%TO.C,R4*%
X121785000Y-129289564D02*
X121785000Y-128835436D01*
X120315000Y-129289564D02*
X120315000Y-128835436D01*
%TO.C,J5*%
X104500000Y-98400000D02*
X104500000Y-102900000D01*
X104500000Y-116400000D02*
X104500000Y-111900000D01*
X104500000Y-116400000D02*
X107000000Y-116400000D01*
X105000000Y-98400000D02*
X104500000Y-98400000D01*
X105000000Y-98400000D02*
X107500000Y-98400000D01*
X112000000Y-98400000D02*
X113500000Y-98400000D01*
X112000000Y-116400000D02*
X113500000Y-116400000D01*
X116000000Y-103400000D02*
X116000000Y-105900000D01*
X116000000Y-108900000D02*
X116000000Y-111400000D01*
D11*
X110000000Y-107400000D02*
X107500000Y-109900000D01*
X107500000Y-104900000D01*
X110000000Y-107400000D01*
G36*
X110000000Y-107400000D02*
G01*
X107500000Y-109900000D01*
X107500000Y-104900000D01*
X110000000Y-107400000D01*
G37*
D12*
%TO.C,R7*%
X121235000Y-111727064D02*
X121235000Y-111272936D01*
X119765000Y-111727064D02*
X119765000Y-111272936D01*
%TO.C,JP2*%
X134050000Y-123854999D02*
X134050000Y-126654999D01*
X132050000Y-123854999D02*
X134050000Y-123854999D01*
X134050000Y-126654999D02*
X132050000Y-126654999D01*
X132050000Y-126654999D02*
X132050000Y-123854999D01*
%TO.C,JP1*%
X129450000Y-126654999D02*
X129450000Y-123854999D01*
X131450000Y-126654999D02*
X129450000Y-126654999D01*
X129450000Y-123854999D02*
X131450000Y-123854999D01*
X131450000Y-123854999D02*
X131450000Y-126654999D01*
%TO.C,C21*%
X143192164Y-115440000D02*
X143407836Y-115440000D01*
X143192164Y-116160000D02*
X143407836Y-116160000D01*
%TO.C,C20*%
X133871693Y-118949190D02*
X133719190Y-119101693D01*
X134380810Y-119458307D02*
X134228307Y-119610810D01*
D13*
%TO.C,Y3*%
X142550000Y-112655000D02*
G75*
G02*
X142350000Y-112655000I-100000J0D01*
G01*
X142350000Y-112655000D02*
G75*
G02*
X142550000Y-112655000I100000J0D01*
G01*
D14*
%TO.C,Y1*%
X129841403Y-116982064D02*
X129197936Y-116338597D01*
X130902064Y-115921403D02*
X130258597Y-115277936D01*
%TO.C,U4*%
X127650000Y-135230000D02*
X127360000Y-135230000D01*
X127360000Y-135230000D02*
X127360000Y-130714000D01*
X127360000Y-130714000D02*
X127360000Y-128230000D01*
X127360000Y-128230000D02*
X127750000Y-128230000D01*
X137250000Y-135230000D02*
X137540000Y-135230000D01*
X137540000Y-135230000D02*
X137540000Y-128230000D01*
X137540000Y-128230000D02*
X137250000Y-128230000D01*
D13*
X128191419Y-136830000D02*
G75*
G02*
X127908581Y-136830000I-141419J0D01*
G01*
X127908581Y-136830000D02*
G75*
G02*
X128191419Y-136830000I141419J0D01*
G01*
D12*
%TO.C,U1*%
X131870514Y-114045775D02*
X131704344Y-113879605D01*
X136639949Y-118815210D02*
X136304073Y-118479334D01*
X131870514Y-113374023D02*
X131746770Y-113497767D01*
X136975825Y-118479334D02*
X136639949Y-118815210D01*
X136304073Y-108940464D02*
X136639949Y-108604588D01*
X141409384Y-114045775D02*
X141745260Y-113709899D01*
X136639949Y-108604588D02*
X136975825Y-108940464D01*
X141745260Y-113709899D02*
X141409384Y-113374023D01*
X131534638Y-113709899D02*
X131131587Y-113646259D01*
X131470998Y-113306848D01*
X131534638Y-113709899D01*
G36*
X131534638Y-113709899D02*
G01*
X131131587Y-113646259D01*
X131470998Y-113306848D01*
X131534638Y-113709899D01*
G37*
%TO.C,R6*%
X124585000Y-112702936D02*
X124585000Y-113157064D01*
X123115000Y-112702936D02*
X123115000Y-113157064D01*
%TO.C,R5*%
X136277064Y-126465000D02*
X135822936Y-126465000D01*
X136277064Y-124995000D02*
X135822936Y-124995000D01*
%TO.C,R3*%
X146185000Y-108502936D02*
X146185000Y-108957064D01*
X144715000Y-108502936D02*
X144715000Y-108957064D01*
%TO.C,R2*%
X131640835Y-120560282D02*
X131319718Y-120239165D01*
X132680282Y-119520835D02*
X132359165Y-119199718D01*
%TO.C,R1*%
X145735436Y-124075000D02*
X146189564Y-124075000D01*
X145735436Y-125545000D02*
X146189564Y-125545000D01*
%TO.C,L2*%
X144513404Y-118921445D02*
X145078555Y-119486596D01*
X143721445Y-119713404D02*
X144286596Y-120278555D01*
%TO.C,L1*%
X141490000Y-109129622D02*
X141490000Y-108330378D01*
X142610000Y-109129622D02*
X142610000Y-108330378D01*
%TO.C,J3*%
X138200000Y-129860000D02*
X138200000Y-131110000D01*
X138490000Y-130150000D02*
X138490000Y-136120000D01*
X138490000Y-136120000D02*
X146110000Y-136120000D01*
X138500000Y-130160000D02*
X138500000Y-130910000D01*
X138500000Y-130910000D02*
X140299999Y-130910000D01*
X138500000Y-132410000D02*
X139250000Y-132410000D01*
X139250000Y-132410000D02*
X139250000Y-135360000D01*
X139250000Y-135360000D02*
X142300000Y-135360000D01*
X139450000Y-129860000D02*
X138200000Y-129860000D01*
X140300000Y-130159999D02*
X138500000Y-130160000D01*
X140299999Y-130910000D02*
X140300000Y-130159999D01*
X141800000Y-130159999D02*
X141800001Y-130910000D01*
X141800001Y-130910000D02*
X142799999Y-130910000D01*
X142799999Y-130160000D02*
X141800000Y-130159999D01*
X142799999Y-130910000D02*
X142799999Y-130160000D01*
X144300000Y-130159999D02*
X144300001Y-130910000D01*
X144300001Y-130910000D02*
X146100000Y-130910000D01*
X145350000Y-132410000D02*
X145350000Y-135360000D01*
X145350000Y-135360000D02*
X142300000Y-135360000D01*
X146100000Y-130160000D02*
X144300000Y-130159999D01*
X146100000Y-130910000D02*
X146100000Y-130160000D01*
X146100000Y-132410000D02*
X145350000Y-132410000D01*
X146110000Y-130150000D02*
X138490000Y-130150000D01*
X146110000Y-136120000D02*
X146110000Y-130150000D01*
%TO.C,J1*%
X137000000Y-105170000D02*
X136999999Y-103845000D01*
X136934999Y-103845000D02*
X136999999Y-103845000D01*
X136934999Y-103845000D02*
X136934999Y-100315000D01*
X145880001Y-103845000D02*
X145945001Y-103845000D01*
X145945001Y-103845000D02*
X145945001Y-100315000D01*
X136934999Y-100315000D02*
X136999999Y-100315000D01*
X145880001Y-100315000D02*
X145945001Y-100315000D01*
%TO.C,D1*%
X147315000Y-128915000D02*
X148785000Y-128915000D01*
X148785000Y-128915000D02*
X148785000Y-126630000D01*
X147315000Y-126630000D02*
X147315000Y-128915000D01*
%TO.C,C19*%
X134040000Y-108307836D02*
X134040000Y-108092164D01*
X134760000Y-108307836D02*
X134760000Y-108092164D01*
%TO.C,C18*%
X130740000Y-112107836D02*
X130740000Y-111892164D01*
X131460000Y-112107836D02*
X131460000Y-111892164D01*
%TO.C,C17*%
X143140000Y-109070581D02*
X143140000Y-108789419D01*
X144160000Y-109070581D02*
X144160000Y-108789419D01*
%TO.C,C16*%
X139269190Y-107821693D02*
X139421693Y-107669190D01*
X139778307Y-108330810D02*
X139930810Y-108178307D01*
%TO.C,C14*%
X129180810Y-118308307D02*
X129028307Y-118460810D01*
X128671693Y-117799190D02*
X128519190Y-117951693D01*
%TO.C,C13*%
X128380810Y-117508307D02*
X128228307Y-117660810D01*
X127871693Y-116999190D02*
X127719190Y-117151693D01*
%TO.C,C12*%
X145930810Y-121778307D02*
X145778307Y-121930810D01*
X145421693Y-121269190D02*
X145269190Y-121421693D01*
%TO.C,C11*%
X142730810Y-118478307D02*
X142578307Y-118630810D01*
X142221693Y-117969190D02*
X142069190Y-118121693D01*
%TO.C,C6*%
X132928307Y-118249190D02*
X133080810Y-118401693D01*
X132419190Y-118758307D02*
X132571693Y-118910810D01*
%TO.C,C5*%
X129790000Y-112107836D02*
X129790000Y-111892164D01*
X130510000Y-112107836D02*
X130510000Y-111892164D01*
%TO.C,C4*%
X140778307Y-117469190D02*
X140930810Y-117621693D01*
X140269190Y-117978307D02*
X140421693Y-118130810D01*
%TO.C,C3*%
X127440000Y-112140581D02*
X127440000Y-111859419D01*
X128460000Y-112140581D02*
X128460000Y-111859419D01*
%TO.C,C2*%
X145210000Y-126902164D02*
X145210000Y-127117836D01*
X144490000Y-126902164D02*
X144490000Y-127117836D01*
%TO.C,C1*%
X142109419Y-128500000D02*
X142390581Y-128500000D01*
X142109419Y-129520000D02*
X142390581Y-129520000D01*
D15*
%TO.C,AE1*%
X146510799Y-121900000D02*
G75*
G02*
X146358401Y-121900000I-76199J0D01*
G01*
X146358401Y-121900000D02*
G75*
G02*
X146510799Y-121900000I76199J0D01*
G01*
X148647149Y-122928700D02*
X150013249Y-122928700D01*
X150013249Y-120871300D02*
X148647149Y-120871300D01*
%TD*%
M02*
