%TF.GenerationSoftware,KiCad,Pcbnew,9.0.0*%
%TF.CreationDate,2025-04-07T16:50:41+02:00*%
%TF.ProjectId,TP_PROJ_S5,54505f50-524f-44a5-9f53-352e6b696361,rev?*%
%TF.SameCoordinates,Original*%
%TF.FileFunction,Soldermask,Top*%
%TF.FilePolarity,Negative*%
%FSLAX46Y46*%
G04 Gerber Fmt 4.6, Leading zero omitted, Abs format (unit mm)*
G04 Created by KiCad (PCBNEW 9.0.0) date 2025-04-07 16:50:41*
%MOMM*%
%LPD*%
G01*
G04 APERTURE LIST*
G04 Aperture macros list*
%AMRoundRect*
0 Rectangle with rounded corners*
0 $1 Rounding radius*
0 $2 $3 $4 $5 $6 $7 $8 $9 X,Y pos of 4 corners*
0 Add a 4 corners polygon primitive as box body*
4,1,4,$2,$3,$4,$5,$6,$7,$8,$9,$2,$3,0*
0 Add four circle primitives for the rounded corners*
1,1,$1+$1,$2,$3*
1,1,$1+$1,$4,$5*
1,1,$1+$1,$6,$7*
1,1,$1+$1,$8,$9*
0 Add four rect primitives between the rounded corners*
20,1,$1+$1,$2,$3,$4,$5,0*
20,1,$1+$1,$4,$5,$6,$7,0*
20,1,$1+$1,$6,$7,$8,$9,0*
20,1,$1+$1,$8,$9,$2,$3,0*%
%AMRotRect*
0 Rectangle, with rotation*
0 The origin of the aperture is its center*
0 $1 length*
0 $2 width*
0 $3 Rotation angle, in degrees counterclockwise*
0 Add horizontal line*
21,1,$1,$2,0,0,$3*%
%AMFreePoly0*
4,1,6,0.500000,-0.750000,-0.650000,-0.750000,-0.150000,0.000000,-0.650000,0.750000,0.500000,0.750000,0.500000,-0.750000,0.500000,-0.750000,$1*%
%AMFreePoly1*
4,1,6,1.000000,0.000000,0.500000,-0.750000,-0.500000,-0.750000,-0.500000,0.750000,0.500000,0.750000,1.000000,0.000000,1.000000,0.000000,$1*%
G04 Aperture macros list end*
%ADD10C,0.000000*%
%ADD11RoundRect,0.150000X0.150000X-0.512500X0.150000X0.512500X-0.150000X0.512500X-0.150000X-0.512500X0*%
%ADD12C,2.500000*%
%ADD13C,3.500000*%
%ADD14RoundRect,0.218750X0.256250X-0.218750X0.256250X0.218750X-0.256250X0.218750X-0.256250X-0.218750X0*%
%ADD15RoundRect,0.250000X0.450000X-0.262500X0.450000X0.262500X-0.450000X0.262500X-0.450000X-0.262500X0*%
%ADD16C,3.800000*%
%ADD17FreePoly0,90.000000*%
%ADD18FreePoly1,90.000000*%
%ADD19RoundRect,0.140000X-0.140000X-0.170000X0.140000X-0.170000X0.140000X0.170000X-0.140000X0.170000X0*%
%ADD20RoundRect,0.140000X-0.021213X0.219203X-0.219203X0.021213X0.021213X-0.219203X0.219203X-0.021213X0*%
%ADD21RotRect,0.279400X0.711200X135.000000*%
%ADD22RotRect,0.254000X0.457200X225.000000*%
%ADD23RoundRect,0.102000X-0.350000X-0.375000X0.350000X-0.375000X0.350000X0.375000X-0.350000X0.375000X0*%
%ADD24RoundRect,0.102000X0.989949X0.282843X0.282843X0.989949X-0.989949X-0.282843X-0.282843X-0.989949X0*%
%ADD25RoundRect,0.102000X0.719000X-0.719000X0.719000X0.719000X-0.719000X0.719000X-0.719000X-0.719000X0*%
%ADD26C,1.642000*%
%ADD27RoundRect,0.062500X-0.220971X-0.309359X0.309359X0.220971X0.220971X0.309359X-0.309359X-0.220971X0*%
%ADD28RoundRect,0.062500X0.220971X-0.309359X0.309359X-0.220971X-0.220971X0.309359X-0.309359X0.220971X0*%
%ADD29RotRect,5.600000X5.600000X45.000000*%
%ADD30RoundRect,0.250000X-0.450000X0.262500X-0.450000X-0.262500X0.450000X-0.262500X0.450000X0.262500X0*%
%ADD31RoundRect,0.250000X0.262500X0.450000X-0.262500X0.450000X-0.262500X-0.450000X0.262500X-0.450000X0*%
%ADD32RoundRect,0.250000X0.503814X0.132583X0.132583X0.503814X-0.503814X-0.132583X-0.132583X-0.503814X0*%
%ADD33RoundRect,0.250000X-0.262500X-0.450000X0.262500X-0.450000X0.262500X0.450000X-0.262500X0.450000X0*%
%ADD34RoundRect,0.218750X-0.424264X-0.114905X-0.114905X-0.424264X0.424264X0.114905X0.114905X0.424264X0*%
%ADD35RoundRect,0.218750X0.381250X-0.218750X0.381250X0.218750X-0.381250X0.218750X-0.381250X-0.218750X0*%
%ADD36RoundRect,0.250000X-0.600000X-0.750000X0.600000X-0.750000X0.600000X0.750000X-0.600000X0.750000X0*%
%ADD37O,1.700000X2.000000*%
%ADD38R,0.740000X2.400000*%
%ADD39RoundRect,0.140000X0.170000X-0.140000X0.170000X0.140000X-0.170000X0.140000X-0.170000X-0.140000X0*%
%ADD40RoundRect,0.225000X0.250000X-0.225000X0.250000X0.225000X-0.250000X0.225000X-0.250000X-0.225000X0*%
%ADD41RoundRect,0.140000X0.021213X-0.219203X0.219203X-0.021213X-0.021213X0.219203X-0.219203X0.021213X0*%
%ADD42RoundRect,0.140000X-0.219203X-0.021213X-0.021213X-0.219203X0.219203X0.021213X0.021213X0.219203X0*%
%ADD43RoundRect,0.140000X-0.170000X0.140000X-0.170000X-0.140000X0.170000X-0.140000X0.170000X0.140000X0*%
%ADD44RoundRect,0.225000X-0.225000X-0.250000X0.225000X-0.250000X0.225000X0.250000X-0.225000X0.250000X0*%
%ADD45R,1.066800X1.803400*%
G04 APERTURE END LIST*
D10*
%TO.C,JP2*%
G36*
X133800000Y-126479999D02*
G01*
X132300000Y-126479999D01*
X132300000Y-124029999D01*
X133800000Y-124029999D01*
X133800000Y-126479999D01*
G37*
%TO.C,JP1*%
G36*
X131200000Y-126479999D02*
G01*
X129700000Y-126479999D01*
X129700000Y-124029999D01*
X131200000Y-124029999D01*
X131200000Y-126479999D01*
G37*
%TD*%
D11*
%TO.C,U2*%
X141550001Y-127097500D03*
X142500000Y-127097500D03*
X143449999Y-127097500D03*
X143449999Y-124822500D03*
X141550001Y-124822500D03*
%TD*%
D12*
%TO.C,J4*%
X105000000Y-130000000D03*
X105000000Y-125000000D03*
X117500000Y-122500000D03*
X117500000Y-132500000D03*
X115000000Y-120000000D03*
X115000000Y-127500000D03*
X115000000Y-135000000D03*
D13*
X110000000Y-135000000D03*
X110000000Y-120000000D03*
%TD*%
D14*
%TO.C,D2*%
X121050000Y-124874999D03*
X121050000Y-126450001D03*
%TD*%
D15*
%TO.C,R4*%
X121050000Y-128150000D03*
X121050000Y-129975000D03*
%TD*%
D13*
%TO.C,J5*%
X110000000Y-99900000D03*
X110000000Y-114900000D03*
D12*
X115000000Y-114900000D03*
X115000000Y-107400000D03*
X115000000Y-99900000D03*
X117500000Y-112400000D03*
X117500000Y-102400000D03*
X105000000Y-104900000D03*
X105000000Y-109900000D03*
%TD*%
D15*
%TO.C,R7*%
X120500000Y-110587500D03*
X120500000Y-112412500D03*
%TD*%
D16*
%TO.C,H4*%
X149000000Y-135000000D03*
%TD*%
%TO.C,H1*%
X124000000Y-100000000D03*
%TD*%
D17*
%TO.C,JP2*%
X133050000Y-124530000D03*
D18*
X133050000Y-125979998D03*
%TD*%
D16*
%TO.C,H3*%
X124000000Y-135000000D03*
%TD*%
%TO.C,H2*%
X149000000Y-100000000D03*
%TD*%
D18*
%TO.C,JP1*%
X130450000Y-125979998D03*
D17*
X130450000Y-124530000D03*
%TD*%
D19*
%TO.C,C21*%
X142820000Y-115800000D03*
X143780000Y-115800000D03*
%TD*%
D20*
%TO.C,C20*%
X133710589Y-119619411D03*
X134389411Y-118940589D03*
%TD*%
D21*
%TO.C,U3*%
X141931052Y-117231052D03*
D22*
X141661645Y-116638355D03*
D21*
X141068948Y-116368948D03*
D22*
X141338355Y-116961645D03*
%TD*%
D23*
%TO.C,Y3*%
X143300000Y-112980000D03*
X143300000Y-114330000D03*
X144300000Y-114330000D03*
X144300000Y-112980000D03*
%TD*%
D24*
%TO.C,Y1*%
X130951561Y-117031561D03*
X129148439Y-115228439D03*
%TD*%
D25*
%TO.C,U4*%
X128640000Y-135540000D03*
D26*
X131180000Y-135540000D03*
X131180000Y-127920000D03*
X128640000Y-127920000D03*
X133720000Y-135540000D03*
X136260000Y-135540000D03*
X133720000Y-127920000D03*
X136260000Y-127920000D03*
%TD*%
D27*
%TO.C,U1*%
X132264726Y-114196035D03*
X132618279Y-114549588D03*
X132971833Y-114903142D03*
X133325386Y-115256695D03*
X133678939Y-115610248D03*
X134032493Y-115963802D03*
X134386046Y-116317355D03*
X134739600Y-116670909D03*
X135093153Y-117024462D03*
X135446706Y-117378015D03*
X135800260Y-117731569D03*
X136153813Y-118085122D03*
D28*
X137126085Y-118085122D03*
X137479638Y-117731569D03*
X137833192Y-117378015D03*
X138186745Y-117024462D03*
X138540298Y-116670909D03*
X138893852Y-116317355D03*
X139247405Y-115963802D03*
X139600959Y-115610248D03*
X139954512Y-115256695D03*
X140308065Y-114903142D03*
X140661619Y-114549588D03*
X141015172Y-114196035D03*
D27*
X141015172Y-113223763D03*
X140661619Y-112870210D03*
X140308065Y-112516656D03*
X139954512Y-112163103D03*
X139600959Y-111809550D03*
X139247405Y-111455996D03*
X138893852Y-111102443D03*
X138540298Y-110748889D03*
X138186745Y-110395336D03*
X137833192Y-110041783D03*
X137479638Y-109688229D03*
X137126085Y-109334676D03*
D28*
X136153813Y-109334676D03*
X135800260Y-109688229D03*
X135446706Y-110041783D03*
X135093153Y-110395336D03*
X134739600Y-110748889D03*
X134386046Y-111102443D03*
X134032493Y-111455996D03*
X133678939Y-111809550D03*
X133325386Y-112163103D03*
X132971833Y-112516656D03*
X132618279Y-112870210D03*
X132264726Y-113223763D03*
D29*
X136639949Y-113709899D03*
%TD*%
D30*
%TO.C,R6*%
X123850000Y-112017500D03*
X123850000Y-113842500D03*
%TD*%
D31*
%TO.C,R5*%
X136962500Y-125730000D03*
X135137500Y-125730000D03*
%TD*%
D30*
%TO.C,R3*%
X145450000Y-107817500D03*
X145450000Y-109642500D03*
%TD*%
D32*
%TO.C,R2*%
X132645235Y-120525235D03*
X131354765Y-119234765D03*
%TD*%
D33*
%TO.C,R1*%
X145050000Y-124810000D03*
X146875000Y-124810000D03*
%TD*%
D34*
%TO.C,L2*%
X143648699Y-118848699D03*
X145151301Y-120351301D03*
%TD*%
D35*
%TO.C,L1*%
X142050000Y-109792500D03*
X142050000Y-107667500D03*
%TD*%
D36*
%TO.C,J3*%
X141050000Y-132610000D03*
D37*
X143550000Y-132610000D03*
%TD*%
D38*
%TO.C,J1*%
X137630000Y-104030000D03*
X137630000Y-100130000D03*
X138900000Y-104030000D03*
X138900000Y-100130000D03*
X140170000Y-104030000D03*
X140170000Y-100130000D03*
X141440000Y-104030000D03*
X141440000Y-100130000D03*
X142710000Y-104030000D03*
X142710000Y-100130000D03*
X143980000Y-104030000D03*
X143980000Y-100130000D03*
X145250000Y-104030000D03*
X145250000Y-100130000D03*
%TD*%
D14*
%TO.C,D1*%
X148050000Y-128217501D03*
X148050000Y-126642499D03*
%TD*%
D39*
%TO.C,C19*%
X134400000Y-108680000D03*
X134400000Y-107720000D03*
%TD*%
%TO.C,C18*%
X131100000Y-112480000D03*
X131100000Y-111520000D03*
%TD*%
D40*
%TO.C,C17*%
X143650000Y-109705000D03*
X143650000Y-108155000D03*
%TD*%
D41*
%TO.C,C16*%
X139260589Y-108339411D03*
X139939411Y-107660589D03*
%TD*%
D20*
%TO.C,C14*%
X129189411Y-117790589D03*
X128510589Y-118469411D03*
%TD*%
%TO.C,C13*%
X128389411Y-116990589D03*
X127710589Y-117669411D03*
%TD*%
%TO.C,C12*%
X145939411Y-121260589D03*
X145260589Y-121939411D03*
%TD*%
%TO.C,C11*%
X142739411Y-117960589D03*
X142060589Y-118639411D03*
%TD*%
D42*
%TO.C,C6*%
X132410589Y-118240589D03*
X133089411Y-118919411D03*
%TD*%
D39*
%TO.C,C5*%
X130150000Y-112480000D03*
X130150000Y-111520000D03*
%TD*%
D42*
%TO.C,C4*%
X140260589Y-117460589D03*
X140939411Y-118139411D03*
%TD*%
D40*
%TO.C,C3*%
X127950000Y-112775000D03*
X127950000Y-111225000D03*
%TD*%
D43*
%TO.C,C2*%
X144850000Y-126530000D03*
X144850000Y-127490000D03*
%TD*%
D44*
%TO.C,C1*%
X141475000Y-129010000D03*
X143025000Y-129010000D03*
%TD*%
D45*
%TO.C,AE1*%
X147806199Y-121900000D03*
X150854199Y-121900000D03*
%TD*%
M02*
