%TF.GenerationSoftware,KiCad,Pcbnew,9.0.0*%
%TF.CreationDate,2025-04-07T16:50:41+02:00*%
%TF.ProjectId,TP_PROJ_S5,54505f50-524f-44a5-9f53-352e6b696361,rev?*%
%TF.SameCoordinates,Original*%
%TF.FileFunction,Copper,L3,Inr*%
%TF.FilePolarity,Positive*%
%FSLAX46Y46*%
G04 Gerber Fmt 4.6, Leading zero omitted, Abs format (unit mm)*
G04 Created by KiCad (PCBNEW 9.0.0) date 2025-04-07 16:50:41*
%MOMM*%
%LPD*%
G01*
G04 APERTURE LIST*
G04 Aperture macros list*
%AMRoundRect*
0 Rectangle with rounded corners*
0 $1 Rounding radius*
0 $2 $3 $4 $5 $6 $7 $8 $9 X,Y pos of 4 corners*
0 Add a 4 corners polygon primitive as box body*
4,1,4,$2,$3,$4,$5,$6,$7,$8,$9,$2,$3,0*
0 Add four circle primitives for the rounded corners*
1,1,$1+$1,$2,$3*
1,1,$1+$1,$4,$5*
1,1,$1+$1,$6,$7*
1,1,$1+$1,$8,$9*
0 Add four rect primitives between the rounded corners*
20,1,$1+$1,$2,$3,$4,$5,0*
20,1,$1+$1,$4,$5,$6,$7,0*
20,1,$1+$1,$6,$7,$8,$9,0*
20,1,$1+$1,$8,$9,$2,$3,0*%
G04 Aperture macros list end*
%TA.AperFunction,ComponentPad*%
%ADD10C,2.500000*%
%TD*%
%TA.AperFunction,ComponentPad*%
%ADD11C,3.500000*%
%TD*%
%TA.AperFunction,ComponentPad*%
%ADD12C,3.800000*%
%TD*%
%TA.AperFunction,ComponentPad*%
%ADD13R,1.438000X1.438000*%
%TD*%
%TA.AperFunction,ComponentPad*%
%ADD14C,1.438000*%
%TD*%
%TA.AperFunction,ComponentPad*%
%ADD15RoundRect,0.250000X-0.600000X-0.750000X0.600000X-0.750000X0.600000X0.750000X-0.600000X0.750000X0*%
%TD*%
%TA.AperFunction,ComponentPad*%
%ADD16O,1.700000X2.000000*%
%TD*%
%TA.AperFunction,ViaPad*%
%ADD17C,0.500000*%
%TD*%
G04 APERTURE END LIST*
D10*
%TO.N,N/C*%
%TO.C,J4*%
X105000000Y-130000000D03*
X105000000Y-125000000D03*
%TO.N,Net-(D2-A)*%
X117500000Y-122500000D03*
%TO.N,Net-(J4-Pad4)*%
X117500000Y-132500000D03*
%TO.N,unconnected-(J4-Pad3)*%
X115000000Y-120000000D03*
%TO.N,unconnected-(J4-Pad2)*%
X115000000Y-127500000D03*
%TO.N,unconnected-(J4-Pad1)*%
X115000000Y-135000000D03*
D11*
%TO.N,*%
X110000000Y-135000000D03*
X110000000Y-120000000D03*
%TD*%
%TO.N,*%
%TO.C,J5*%
X110000000Y-99900000D03*
X110000000Y-114900000D03*
D10*
%TO.N,unconnected-(J5-Pad1)*%
X115000000Y-114900000D03*
%TO.N,GND*%
X115000000Y-107400000D03*
%TO.N,unconnected-(J5-Pad3)*%
X115000000Y-99900000D03*
%TO.N,Net-(J5-Pad4)*%
X117500000Y-112400000D03*
%TO.N,Net-(J5-Pad5)*%
X117500000Y-102400000D03*
%TO.N,N/C*%
X105000000Y-104900000D03*
X105000000Y-109900000D03*
%TD*%
D12*
%TO.N,GND*%
%TO.C,H4*%
X149000000Y-135000000D03*
%TD*%
%TO.N,GND*%
%TO.C,H1*%
X124000000Y-100000000D03*
%TD*%
%TO.N,GND*%
%TO.C,H3*%
X124000000Y-135000000D03*
%TD*%
%TO.N,GND*%
%TO.C,H2*%
X149000000Y-100000000D03*
%TD*%
D13*
%TO.N,unconnected-(U4-NC-Pad1)*%
%TO.C,U4*%
X128640000Y-135540000D03*
D14*
%TO.N,Net-(D2-K)*%
X131180000Y-135540000D03*
%TO.N,unconnected-(U4-VO1-Pad7)*%
X131180000Y-127920000D03*
%TO.N,unconnected-(U4-VCC-Pad8)*%
X128640000Y-127920000D03*
%TO.N,Net-(D2-A)*%
X133720000Y-135540000D03*
%TO.N,unconnected-(U4-NC-Pad4)*%
X136260000Y-135540000D03*
%TO.N,Net-(JP2-A)*%
X133720000Y-127920000D03*
%TO.N,GND*%
X136260000Y-127920000D03*
%TD*%
D15*
%TO.N,BATT*%
%TO.C,J3*%
X141050000Y-132610000D03*
D16*
%TO.N,GND*%
X143550000Y-132610000D03*
%TD*%
D17*
%TO.N,GND*%
X144700000Y-122500000D03*
%TO.N,+3.3V*%
X120500000Y-109650000D03*
%TO.N,GND*%
X134400000Y-107200000D03*
X134700000Y-113700000D03*
X136600000Y-111700000D03*
X135700000Y-112700000D03*
X135700000Y-114700000D03*
X137600000Y-112700000D03*
X138600000Y-113700000D03*
X137600000Y-114600000D03*
X136600000Y-115700000D03*
X136600000Y-113700000D03*
X141300000Y-118500000D03*
X144300000Y-115800000D03*
X140400000Y-107200000D03*
%TO.N,+3.3V*%
X133300000Y-121100000D03*
X139900000Y-118300000D03*
%TO.N,/stm32/VCP_RX*%
X139250000Y-117880000D03*
X146000000Y-105680000D03*
%TO.N,+3.3V*%
X142100000Y-115705000D03*
%TO.N,/stm32/VCP_TX*%
X137600000Y-107580000D03*
X144623354Y-98500000D03*
%TO.N,/stm32/NRST*%
X143098198Y-98468628D03*
X130200000Y-120480000D03*
%TO.N,+3.3V*%
X138550000Y-109130000D03*
X134450000Y-109280000D03*
X138900000Y-105980000D03*
%TO.N,GND*%
X141450000Y-106030000D03*
X140750000Y-109180000D03*
%TO.N,Net-(U1-PH3)*%
X144050000Y-110830000D03*
X132650000Y-116380000D03*
%TO.N,GND*%
X126850000Y-111230000D03*
%TO.N,+3.3V*%
X126850000Y-112780000D03*
%TO.N,/stm32/TX_MIDI*%
X134500000Y-121500000D03*
X136030729Y-119400000D03*
%TO.N,+3.3V*%
X134879729Y-119630000D03*
%TO.N,GND*%
X134350000Y-120280000D03*
X127710589Y-118469411D03*
%TO.N,+3.3V*%
X138350000Y-125730000D03*
X140370000Y-124810000D03*
%TO.N,GND*%
X148250000Y-129930000D03*
%TO.N,+3.3V*%
X146450000Y-126530000D03*
%TD*%
%TA.AperFunction,Conductor*%
%TO.N,+3.3V*%
G36*
X148903472Y-97300695D02*
G01*
X149195306Y-97317084D01*
X149209103Y-97318638D01*
X149493827Y-97367015D01*
X149507384Y-97370109D01*
X149784899Y-97450060D01*
X149798025Y-97454653D01*
X150064841Y-97565172D01*
X150077355Y-97571198D01*
X150243444Y-97662992D01*
X150330125Y-97710899D01*
X150341899Y-97718297D01*
X150577430Y-97885415D01*
X150588302Y-97894085D01*
X150773388Y-98059488D01*
X150803642Y-98086524D01*
X150813475Y-98096357D01*
X151005914Y-98311697D01*
X151014584Y-98322569D01*
X151181702Y-98558100D01*
X151189100Y-98569874D01*
X151328797Y-98822637D01*
X151334830Y-98835165D01*
X151445346Y-99101975D01*
X151449939Y-99115100D01*
X151529890Y-99392615D01*
X151532984Y-99406172D01*
X151581359Y-99690885D01*
X151582916Y-99704703D01*
X151599305Y-99996527D01*
X151599500Y-100003480D01*
X151599500Y-117876000D01*
X151579815Y-117943039D01*
X151527011Y-117988794D01*
X151475500Y-118000000D01*
X146730199Y-118000000D01*
X146730199Y-119930837D01*
X146710514Y-119997876D01*
X146657710Y-120043631D01*
X146588552Y-120053575D01*
X146524996Y-120024550D01*
X146518518Y-120018518D01*
X143700000Y-117200000D01*
X142000000Y-118899999D01*
X142000000Y-118900000D01*
X144837819Y-121737819D01*
X144871304Y-121799142D01*
X144866320Y-121868834D01*
X144824448Y-121924767D01*
X144758984Y-121949184D01*
X144750138Y-121949500D01*
X144627525Y-121949500D01*
X144498993Y-121983940D01*
X144487511Y-121987017D01*
X144361988Y-122059488D01*
X144361982Y-122059493D01*
X144259493Y-122161982D01*
X144259488Y-122161988D01*
X144187017Y-122287511D01*
X144187016Y-122287515D01*
X144149500Y-122427525D01*
X144149500Y-122572475D01*
X144162778Y-122622027D01*
X144187017Y-122712488D01*
X144259488Y-122838011D01*
X144259490Y-122838013D01*
X144259491Y-122838015D01*
X144361985Y-122940509D01*
X144361986Y-122940510D01*
X144361988Y-122940511D01*
X144487511Y-123012982D01*
X144487512Y-123012982D01*
X144487515Y-123012984D01*
X144627525Y-123050500D01*
X144627528Y-123050500D01*
X144772472Y-123050500D01*
X144772475Y-123050500D01*
X144912485Y-123012984D01*
X145038015Y-122940509D01*
X145140509Y-122838015D01*
X145212984Y-122712485D01*
X145250500Y-122572475D01*
X145250500Y-122449862D01*
X145270185Y-122382823D01*
X145322989Y-122337068D01*
X145392147Y-122327124D01*
X145455703Y-122356149D01*
X145462181Y-122362181D01*
X146693880Y-123593880D01*
X146727365Y-123655203D01*
X146730199Y-123681561D01*
X146730199Y-125700000D01*
X151475500Y-125700000D01*
X151542539Y-125719685D01*
X151588294Y-125772489D01*
X151599500Y-125824000D01*
X151599500Y-134996519D01*
X151599305Y-135003472D01*
X151582916Y-135295296D01*
X151581359Y-135309114D01*
X151532984Y-135593827D01*
X151529890Y-135607384D01*
X151449939Y-135884899D01*
X151445346Y-135898024D01*
X151334830Y-136164834D01*
X151328797Y-136177362D01*
X151189100Y-136430125D01*
X151181702Y-136441899D01*
X151014584Y-136677430D01*
X151005914Y-136688302D01*
X150813475Y-136903642D01*
X150803642Y-136913475D01*
X150588302Y-137105914D01*
X150577430Y-137114584D01*
X150341899Y-137281702D01*
X150330125Y-137289100D01*
X150077362Y-137428797D01*
X150064834Y-137434830D01*
X149798024Y-137545346D01*
X149784899Y-137549939D01*
X149507384Y-137629890D01*
X149493827Y-137632984D01*
X149209114Y-137681359D01*
X149195296Y-137682916D01*
X148903472Y-137699305D01*
X148896519Y-137699500D01*
X104003481Y-137699500D01*
X103996528Y-137699305D01*
X103704703Y-137682916D01*
X103690885Y-137681359D01*
X103406172Y-137632984D01*
X103392615Y-137629890D01*
X103115100Y-137549939D01*
X103101975Y-137545346D01*
X102835165Y-137434830D01*
X102822637Y-137428797D01*
X102569874Y-137289100D01*
X102558100Y-137281702D01*
X102322569Y-137114584D01*
X102311697Y-137105914D01*
X102168337Y-136977800D01*
X102096355Y-136913473D01*
X102086524Y-136903642D01*
X102032320Y-136842988D01*
X101894085Y-136688302D01*
X101885415Y-136677430D01*
X101718297Y-136441899D01*
X101710899Y-136430125D01*
X101656609Y-136331894D01*
X101571198Y-136177355D01*
X101565172Y-136164841D01*
X101454653Y-135898024D01*
X101450060Y-135884899D01*
X101370109Y-135607384D01*
X101367015Y-135593827D01*
X101339217Y-135430219D01*
X101318638Y-135309103D01*
X101317084Y-135295306D01*
X101300695Y-135003472D01*
X101300500Y-134996519D01*
X101300500Y-134865602D01*
X107949500Y-134865602D01*
X107949500Y-135134397D01*
X107984582Y-135400880D01*
X107984583Y-135400885D01*
X107984584Y-135400891D01*
X107994952Y-135439585D01*
X108054152Y-135660524D01*
X108157011Y-135908850D01*
X108157019Y-135908866D01*
X108215458Y-136010083D01*
X108291413Y-136141641D01*
X108291415Y-136141644D01*
X108291416Y-136141645D01*
X108455042Y-136354888D01*
X108455048Y-136354895D01*
X108645104Y-136544951D01*
X108645111Y-136544957D01*
X108664060Y-136559497D01*
X108858359Y-136708587D01*
X109007968Y-136794964D01*
X109091133Y-136842980D01*
X109091149Y-136842988D01*
X109237582Y-136903642D01*
X109339474Y-136945847D01*
X109599109Y-137015416D01*
X109787319Y-137040193D01*
X109865602Y-137050500D01*
X109865603Y-137050500D01*
X110134398Y-137050500D01*
X110194905Y-137042534D01*
X110400891Y-137015416D01*
X110660526Y-136945847D01*
X110847457Y-136868417D01*
X110908850Y-136842988D01*
X110908853Y-136842986D01*
X110908859Y-136842984D01*
X111141641Y-136708587D01*
X111354890Y-136544956D01*
X111544956Y-136354890D01*
X111708587Y-136141641D01*
X111842984Y-135908859D01*
X111945847Y-135660526D01*
X112015416Y-135400891D01*
X112050500Y-135134397D01*
X112050500Y-134877973D01*
X113449500Y-134877973D01*
X113449500Y-135122026D01*
X113478044Y-135302248D01*
X113487679Y-135363076D01*
X113563096Y-135595185D01*
X113621008Y-135708845D01*
X113673896Y-135812642D01*
X113817339Y-136010076D01*
X113817343Y-136010081D01*
X113989918Y-136182656D01*
X113989923Y-136182660D01*
X114156736Y-136303856D01*
X114187361Y-136326106D01*
X114404815Y-136436904D01*
X114636924Y-136512321D01*
X114877973Y-136550500D01*
X114877974Y-136550500D01*
X115122026Y-136550500D01*
X115122027Y-136550500D01*
X115363076Y-136512321D01*
X115595185Y-136436904D01*
X115812639Y-136326106D01*
X116010083Y-136182655D01*
X116182655Y-136010083D01*
X116326106Y-135812639D01*
X116436904Y-135595185D01*
X116512321Y-135363076D01*
X116550500Y-135122027D01*
X116550500Y-134877973D01*
X116546985Y-134855778D01*
X121799500Y-134855778D01*
X121799500Y-135144221D01*
X121799501Y-135144238D01*
X121837149Y-135430206D01*
X121837150Y-135430211D01*
X121837151Y-135430217D01*
X121898862Y-135660526D01*
X121911809Y-135708844D01*
X121911814Y-135708860D01*
X122022191Y-135975336D01*
X122022199Y-135975352D01*
X122166420Y-136225148D01*
X122166431Y-136225164D01*
X122342024Y-136454002D01*
X122342030Y-136454009D01*
X122545990Y-136657969D01*
X122545997Y-136657975D01*
X122578755Y-136683111D01*
X122774844Y-136833575D01*
X122774851Y-136833579D01*
X123024647Y-136977800D01*
X123024663Y-136977808D01*
X123291139Y-137088185D01*
X123291145Y-137088186D01*
X123291155Y-137088191D01*
X123569783Y-137162849D01*
X123855772Y-137200500D01*
X123855779Y-137200500D01*
X124144221Y-137200500D01*
X124144228Y-137200500D01*
X124430217Y-137162849D01*
X124708845Y-137088191D01*
X124708857Y-137088185D01*
X124708860Y-137088185D01*
X124975336Y-136977808D01*
X124975339Y-136977806D01*
X124975345Y-136977804D01*
X125225156Y-136833575D01*
X125454004Y-136657974D01*
X125657974Y-136454004D01*
X125833575Y-136225156D01*
X125977804Y-135975345D01*
X126005341Y-135908866D01*
X126088185Y-135708860D01*
X126088185Y-135708857D01*
X126088191Y-135708845D01*
X126162849Y-135430217D01*
X126200500Y-135144228D01*
X126200500Y-134855772D01*
X126190015Y-134776131D01*
X127620500Y-134776131D01*
X127620500Y-136303856D01*
X127620502Y-136303882D01*
X127623413Y-136328987D01*
X127623415Y-136328991D01*
X127668793Y-136431764D01*
X127668794Y-136431765D01*
X127748235Y-136511206D01*
X127851009Y-136556585D01*
X127876135Y-136559500D01*
X129403864Y-136559499D01*
X129403879Y-136559497D01*
X129403882Y-136559497D01*
X129428987Y-136556586D01*
X129428988Y-136556585D01*
X129428991Y-136556585D01*
X129531765Y-136511206D01*
X129611206Y-136431765D01*
X129656585Y-136328991D01*
X129659500Y-136303865D01*
X129659499Y-135439583D01*
X130160500Y-135439583D01*
X130160500Y-135640416D01*
X130199677Y-135837369D01*
X130199679Y-135837377D01*
X130276529Y-136022911D01*
X130276534Y-136022920D01*
X130388102Y-136189892D01*
X130388105Y-136189896D01*
X130530103Y-136331894D01*
X130530107Y-136331897D01*
X130697079Y-136443465D01*
X130697085Y-136443468D01*
X130697086Y-136443469D01*
X130882623Y-136520321D01*
X131079573Y-136559497D01*
X131079583Y-136559499D01*
X131079586Y-136559500D01*
X131079588Y-136559500D01*
X131280414Y-136559500D01*
X131280415Y-136559499D01*
X131477377Y-136520321D01*
X131662914Y-136443469D01*
X131829893Y-136331897D01*
X131971897Y-136189893D01*
X132083469Y-136022914D01*
X132160321Y-135837377D01*
X132199500Y-135640412D01*
X132199500Y-135439588D01*
X132199500Y-135439585D01*
X132199499Y-135439583D01*
X132700500Y-135439583D01*
X132700500Y-135640416D01*
X132739677Y-135837369D01*
X132739679Y-135837377D01*
X132816529Y-136022911D01*
X132816534Y-136022920D01*
X132928102Y-136189892D01*
X132928105Y-136189896D01*
X133070103Y-136331894D01*
X133070107Y-136331897D01*
X133237079Y-136443465D01*
X133237085Y-136443468D01*
X133237086Y-136443469D01*
X133422623Y-136520321D01*
X133619573Y-136559497D01*
X133619583Y-136559499D01*
X133619586Y-136559500D01*
X133619588Y-136559500D01*
X133820414Y-136559500D01*
X133820415Y-136559499D01*
X134017377Y-136520321D01*
X134202914Y-136443469D01*
X134369893Y-136331897D01*
X134511897Y-136189893D01*
X134623469Y-136022914D01*
X134700321Y-135837377D01*
X134739500Y-135640412D01*
X134739500Y-135439588D01*
X134739500Y-135439585D01*
X134739499Y-135439583D01*
X135240500Y-135439583D01*
X135240500Y-135640416D01*
X135279677Y-135837369D01*
X135279679Y-135837377D01*
X135356529Y-136022911D01*
X135356534Y-136022920D01*
X135468102Y-136189892D01*
X135468105Y-136189896D01*
X135610103Y-136331894D01*
X135610107Y-136331897D01*
X135777079Y-136443465D01*
X135777085Y-136443468D01*
X135777086Y-136443469D01*
X135962623Y-136520321D01*
X136159573Y-136559497D01*
X136159583Y-136559499D01*
X136159586Y-136559500D01*
X136159588Y-136559500D01*
X136360414Y-136559500D01*
X136360415Y-136559499D01*
X136557377Y-136520321D01*
X136742914Y-136443469D01*
X136909893Y-136331897D01*
X137051897Y-136189893D01*
X137163469Y-136022914D01*
X137240321Y-135837377D01*
X137279500Y-135640412D01*
X137279500Y-135439588D01*
X137279500Y-135439585D01*
X137279499Y-135439583D01*
X137240322Y-135242630D01*
X137240321Y-135242623D01*
X137163469Y-135057086D01*
X137163468Y-135057085D01*
X137163465Y-135057079D01*
X137072275Y-134920604D01*
X137051897Y-134890107D01*
X137051894Y-134890103D01*
X137017569Y-134855778D01*
X146799500Y-134855778D01*
X146799500Y-135144221D01*
X146799501Y-135144238D01*
X146837149Y-135430206D01*
X146837150Y-135430211D01*
X146837151Y-135430217D01*
X146898862Y-135660526D01*
X146911809Y-135708844D01*
X146911814Y-135708860D01*
X147022191Y-135975336D01*
X147022199Y-135975352D01*
X147166420Y-136225148D01*
X147166431Y-136225164D01*
X147342024Y-136454002D01*
X147342030Y-136454009D01*
X147545990Y-136657969D01*
X147545997Y-136657975D01*
X147578755Y-136683111D01*
X147774844Y-136833575D01*
X147774851Y-136833579D01*
X148024647Y-136977800D01*
X148024663Y-136977808D01*
X148291139Y-137088185D01*
X148291145Y-137088186D01*
X148291155Y-137088191D01*
X148569783Y-137162849D01*
X148855772Y-137200500D01*
X148855779Y-137200500D01*
X149144221Y-137200500D01*
X149144228Y-137200500D01*
X149430217Y-137162849D01*
X149708845Y-137088191D01*
X149708857Y-137088185D01*
X149708860Y-137088185D01*
X149975336Y-136977808D01*
X149975339Y-136977806D01*
X149975345Y-136977804D01*
X150225156Y-136833575D01*
X150454004Y-136657974D01*
X150657974Y-136454004D01*
X150833575Y-136225156D01*
X150977804Y-135975345D01*
X151005341Y-135908866D01*
X151088185Y-135708860D01*
X151088185Y-135708857D01*
X151088191Y-135708845D01*
X151162849Y-135430217D01*
X151200500Y-135144228D01*
X151200500Y-134855772D01*
X151162849Y-134569783D01*
X151088191Y-134291155D01*
X151088186Y-134291145D01*
X151088185Y-134291139D01*
X150977808Y-134024663D01*
X150977800Y-134024647D01*
X150833579Y-133774851D01*
X150833575Y-133774844D01*
X150657974Y-133545996D01*
X150657969Y-133545990D01*
X150454009Y-133342030D01*
X150454002Y-133342024D01*
X150225164Y-133166431D01*
X150225162Y-133166429D01*
X150225156Y-133166425D01*
X150225151Y-133166422D01*
X150225148Y-133166420D01*
X149975352Y-133022199D01*
X149975336Y-133022191D01*
X149708860Y-132911814D01*
X149708848Y-132911810D01*
X149708845Y-132911809D01*
X149430217Y-132837151D01*
X149430211Y-132837150D01*
X149430206Y-132837149D01*
X149144238Y-132799501D01*
X149144233Y-132799500D01*
X149144228Y-132799500D01*
X148855772Y-132799500D01*
X148855766Y-132799500D01*
X148855761Y-132799501D01*
X148569793Y-132837149D01*
X148569786Y-132837150D01*
X148569783Y-132837151D01*
X148291155Y-132911809D01*
X148291139Y-132911814D01*
X148024663Y-133022191D01*
X148024647Y-133022199D01*
X147774851Y-133166420D01*
X147774835Y-133166431D01*
X147545997Y-133342024D01*
X147545990Y-133342030D01*
X147342030Y-133545990D01*
X147342024Y-133545997D01*
X147166431Y-133774835D01*
X147166420Y-133774851D01*
X147022199Y-134024647D01*
X147022191Y-134024663D01*
X146911814Y-134291139D01*
X146911809Y-134291155D01*
X146839859Y-134559679D01*
X146837152Y-134569780D01*
X146837149Y-134569793D01*
X146799501Y-134855761D01*
X146799500Y-134855778D01*
X137017569Y-134855778D01*
X136909896Y-134748105D01*
X136909892Y-134748102D01*
X136742920Y-134636534D01*
X136742911Y-134636529D01*
X136557377Y-134559679D01*
X136557369Y-134559677D01*
X136360415Y-134520500D01*
X136360412Y-134520500D01*
X136159588Y-134520500D01*
X136159585Y-134520500D01*
X135962630Y-134559677D01*
X135962622Y-134559679D01*
X135777088Y-134636529D01*
X135777079Y-134636534D01*
X135610107Y-134748102D01*
X135610103Y-134748105D01*
X135468105Y-134890103D01*
X135468102Y-134890107D01*
X135356534Y-135057079D01*
X135356529Y-135057088D01*
X135279679Y-135242622D01*
X135279677Y-135242630D01*
X135240500Y-135439583D01*
X134739499Y-135439583D01*
X134700322Y-135242630D01*
X134700321Y-135242623D01*
X134623469Y-135057086D01*
X134623468Y-135057085D01*
X134623465Y-135057079D01*
X134511897Y-134890107D01*
X134511894Y-134890103D01*
X134369896Y-134748105D01*
X134369892Y-134748102D01*
X134202920Y-134636534D01*
X134202911Y-134636529D01*
X134017377Y-134559679D01*
X134017369Y-134559677D01*
X133820415Y-134520500D01*
X133820412Y-134520500D01*
X133619588Y-134520500D01*
X133619585Y-134520500D01*
X133422630Y-134559677D01*
X133422622Y-134559679D01*
X133237088Y-134636529D01*
X133237079Y-134636534D01*
X133070107Y-134748102D01*
X133070103Y-134748105D01*
X132928105Y-134890103D01*
X132928102Y-134890107D01*
X132816534Y-135057079D01*
X132816529Y-135057088D01*
X132739679Y-135242622D01*
X132739677Y-135242630D01*
X132700500Y-135439583D01*
X132199499Y-135439583D01*
X132160322Y-135242630D01*
X132160321Y-135242623D01*
X132083469Y-135057086D01*
X132083468Y-135057085D01*
X132083465Y-135057079D01*
X131971897Y-134890107D01*
X131971894Y-134890103D01*
X131829896Y-134748105D01*
X131829892Y-134748102D01*
X131662920Y-134636534D01*
X131662911Y-134636529D01*
X131477377Y-134559679D01*
X131477369Y-134559677D01*
X131280415Y-134520500D01*
X131280412Y-134520500D01*
X131079588Y-134520500D01*
X131079585Y-134520500D01*
X130882630Y-134559677D01*
X130882622Y-134559679D01*
X130697088Y-134636529D01*
X130697079Y-134636534D01*
X130530107Y-134748102D01*
X130530103Y-134748105D01*
X130388105Y-134890103D01*
X130388102Y-134890107D01*
X130276534Y-135057079D01*
X130276529Y-135057088D01*
X130199679Y-135242622D01*
X130199677Y-135242630D01*
X130160500Y-135439583D01*
X129659499Y-135439583D01*
X129659499Y-134776136D01*
X129659497Y-134776117D01*
X129656586Y-134751012D01*
X129656585Y-134751010D01*
X129656585Y-134751009D01*
X129611206Y-134648235D01*
X129531765Y-134568794D01*
X129531763Y-134568793D01*
X129428992Y-134523415D01*
X129403865Y-134520500D01*
X127876143Y-134520500D01*
X127876117Y-134520502D01*
X127851012Y-134523413D01*
X127851008Y-134523415D01*
X127748235Y-134568793D01*
X127668794Y-134648234D01*
X127623415Y-134751006D01*
X127623415Y-134751008D01*
X127620500Y-134776131D01*
X126190015Y-134776131D01*
X126162849Y-134569783D01*
X126088191Y-134291155D01*
X126088186Y-134291145D01*
X126088185Y-134291139D01*
X125977808Y-134024663D01*
X125977800Y-134024647D01*
X125833579Y-133774851D01*
X125833575Y-133774844D01*
X125657974Y-133545996D01*
X125657969Y-133545990D01*
X125454009Y-133342030D01*
X125454002Y-133342024D01*
X125225164Y-133166431D01*
X125225162Y-133166429D01*
X125225156Y-133166425D01*
X125225151Y-133166422D01*
X125225148Y-133166420D01*
X124975352Y-133022199D01*
X124975336Y-133022191D01*
X124708860Y-132911814D01*
X124708848Y-132911810D01*
X124708845Y-132911809D01*
X124430217Y-132837151D01*
X124430211Y-132837150D01*
X124430206Y-132837149D01*
X124144238Y-132799501D01*
X124144233Y-132799500D01*
X124144228Y-132799500D01*
X123855772Y-132799500D01*
X123855766Y-132799500D01*
X123855761Y-132799501D01*
X123569793Y-132837149D01*
X123569786Y-132837150D01*
X123569783Y-132837151D01*
X123291155Y-132911809D01*
X123291139Y-132911814D01*
X123024663Y-133022191D01*
X123024647Y-133022199D01*
X122774851Y-133166420D01*
X122774835Y-133166431D01*
X122545997Y-133342024D01*
X122545990Y-133342030D01*
X122342030Y-133545990D01*
X122342024Y-133545997D01*
X122166431Y-133774835D01*
X122166420Y-133774851D01*
X122022199Y-134024647D01*
X122022191Y-134024663D01*
X121911814Y-134291139D01*
X121911809Y-134291155D01*
X121839859Y-134559679D01*
X121837152Y-134569780D01*
X121837149Y-134569793D01*
X121799501Y-134855761D01*
X121799500Y-134855778D01*
X116546985Y-134855778D01*
X116512321Y-134636924D01*
X116436904Y-134404815D01*
X116326106Y-134187361D01*
X116256204Y-134091149D01*
X116182660Y-133989923D01*
X116182656Y-133989918D01*
X116010081Y-133817343D01*
X116010076Y-133817339D01*
X115812642Y-133673896D01*
X115812641Y-133673895D01*
X115812639Y-133673894D01*
X115595185Y-133563096D01*
X115363076Y-133487679D01*
X115363074Y-133487678D01*
X115363072Y-133487678D01*
X115157055Y-133455048D01*
X115122027Y-133449500D01*
X114877973Y-133449500D01*
X114842983Y-133455042D01*
X114636927Y-133487678D01*
X114404812Y-133563097D01*
X114187357Y-133673896D01*
X113989923Y-133817339D01*
X113989918Y-133817343D01*
X113817343Y-133989918D01*
X113817339Y-133989923D01*
X113673896Y-134187357D01*
X113563097Y-134404812D01*
X113487678Y-134636927D01*
X113449500Y-134877973D01*
X112050500Y-134877973D01*
X112050500Y-134865603D01*
X112015416Y-134599109D01*
X111945847Y-134339474D01*
X111882838Y-134187357D01*
X111842988Y-134091149D01*
X111842980Y-134091133D01*
X111753935Y-133936904D01*
X111708587Y-133858359D01*
X111544956Y-133645110D01*
X111544951Y-133645104D01*
X111354895Y-133455048D01*
X111354888Y-133455042D01*
X111141645Y-133291416D01*
X111141644Y-133291415D01*
X111141641Y-133291413D01*
X111048832Y-133237830D01*
X110908866Y-133157019D01*
X110908850Y-133157011D01*
X110660524Y-133054152D01*
X110529169Y-133018956D01*
X110400891Y-132984584D01*
X110400885Y-132984583D01*
X110400880Y-132984582D01*
X110134398Y-132949500D01*
X110134397Y-132949500D01*
X109865603Y-132949500D01*
X109865602Y-132949500D01*
X109599119Y-132984582D01*
X109599112Y-132984583D01*
X109599109Y-132984584D01*
X109579154Y-132989931D01*
X109339475Y-133054152D01*
X109091149Y-133157011D01*
X109091133Y-133157019D01*
X108858354Y-133291416D01*
X108645111Y-133455042D01*
X108645104Y-133455048D01*
X108455048Y-133645104D01*
X108455042Y-133645111D01*
X108291416Y-133858354D01*
X108157019Y-134091133D01*
X108157011Y-134091149D01*
X108054152Y-134339475D01*
X107984585Y-134599106D01*
X107984582Y-134599119D01*
X107949500Y-134865602D01*
X101300500Y-134865602D01*
X101300500Y-132377973D01*
X115949500Y-132377973D01*
X115949500Y-132622026D01*
X115983572Y-132837149D01*
X115987679Y-132863076D01*
X116063096Y-133095185D01*
X116163080Y-133291416D01*
X116173896Y-133312642D01*
X116317339Y-133510076D01*
X116317343Y-133510081D01*
X116489918Y-133682656D01*
X116489923Y-133682660D01*
X116616814Y-133774851D01*
X116687361Y-133826106D01*
X116904815Y-133936904D01*
X117136924Y-134012321D01*
X117377973Y-134050500D01*
X117377974Y-134050500D01*
X117622026Y-134050500D01*
X117622027Y-134050500D01*
X117863076Y-134012321D01*
X118095185Y-133936904D01*
X118312639Y-133826106D01*
X118510083Y-133682655D01*
X118682655Y-133510083D01*
X118826106Y-133312639D01*
X118936904Y-133095185D01*
X119012321Y-132863076D01*
X119050500Y-132622027D01*
X119050500Y-132377973D01*
X119012321Y-132136924D01*
X118936904Y-131904815D01*
X118936901Y-131904809D01*
X118918905Y-131869488D01*
X118918904Y-131869487D01*
X118892108Y-131816898D01*
X139899500Y-131816898D01*
X139899500Y-133403102D01*
X139905072Y-133449500D01*
X139910122Y-133491561D01*
X139910122Y-133491563D01*
X139910123Y-133491564D01*
X139917423Y-133510076D01*
X139965639Y-133632343D01*
X140057077Y-133752922D01*
X140177656Y-133844360D01*
X140177657Y-133844360D01*
X140177658Y-133844361D01*
X140318436Y-133899877D01*
X140406898Y-133910500D01*
X140406903Y-133910500D01*
X141693097Y-133910500D01*
X141693102Y-133910500D01*
X141781564Y-133899877D01*
X141922342Y-133844361D01*
X142042922Y-133752922D01*
X142134361Y-133632342D01*
X142189877Y-133491564D01*
X142200500Y-133403102D01*
X142200500Y-133112669D01*
X142220185Y-133045630D01*
X142272989Y-132999875D01*
X142342147Y-132989931D01*
X142405703Y-133018956D01*
X142442431Y-133074351D01*
X142483787Y-133201636D01*
X142483788Y-133201639D01*
X142529531Y-133291413D01*
X142555322Y-133342030D01*
X142566006Y-133362997D01*
X142672441Y-133509494D01*
X142672445Y-133509499D01*
X142800500Y-133637554D01*
X142800505Y-133637558D01*
X142928287Y-133730396D01*
X142947006Y-133743996D01*
X143052484Y-133797740D01*
X143108360Y-133826211D01*
X143108363Y-133826212D01*
X143194476Y-133854191D01*
X143280591Y-133882171D01*
X143363429Y-133895291D01*
X143459449Y-133910500D01*
X143459454Y-133910500D01*
X143640551Y-133910500D01*
X143727259Y-133896765D01*
X143819409Y-133882171D01*
X143991639Y-133826211D01*
X144152994Y-133743996D01*
X144299501Y-133637553D01*
X144427553Y-133509501D01*
X144533996Y-133362994D01*
X144616211Y-133201639D01*
X144672171Y-133029409D01*
X144690797Y-132911809D01*
X144700500Y-132850551D01*
X144700500Y-132369448D01*
X144676608Y-132218608D01*
X144672171Y-132190591D01*
X144616211Y-132018361D01*
X144616211Y-132018360D01*
X144558356Y-131904815D01*
X144533996Y-131857006D01*
X144504856Y-131816898D01*
X144427558Y-131710505D01*
X144427554Y-131710500D01*
X144299499Y-131582445D01*
X144299494Y-131582441D01*
X144152997Y-131476006D01*
X144152996Y-131476005D01*
X144152994Y-131476004D01*
X144101300Y-131449664D01*
X143991639Y-131393788D01*
X143991636Y-131393787D01*
X143819410Y-131337829D01*
X143640551Y-131309500D01*
X143640546Y-131309500D01*
X143459454Y-131309500D01*
X143459449Y-131309500D01*
X143280589Y-131337829D01*
X143108363Y-131393787D01*
X143108360Y-131393788D01*
X142947002Y-131476006D01*
X142800505Y-131582441D01*
X142800500Y-131582445D01*
X142672445Y-131710500D01*
X142672441Y-131710505D01*
X142566006Y-131857002D01*
X142483788Y-132018360D01*
X142483787Y-132018363D01*
X142442431Y-132145648D01*
X142402994Y-132203323D01*
X142338635Y-132230522D01*
X142269789Y-132218608D01*
X142218313Y-132171364D01*
X142200500Y-132107330D01*
X142200500Y-131816903D01*
X142200500Y-131816898D01*
X142189877Y-131728436D01*
X142134361Y-131587658D01*
X142134360Y-131587657D01*
X142134360Y-131587656D01*
X142042922Y-131467077D01*
X141922343Y-131375639D01*
X141826192Y-131337722D01*
X141781564Y-131320123D01*
X141781563Y-131320122D01*
X141781561Y-131320122D01*
X141735926Y-131314642D01*
X141693102Y-131309500D01*
X140406898Y-131309500D01*
X140367853Y-131314188D01*
X140318438Y-131320122D01*
X140177656Y-131375639D01*
X140057077Y-131467077D01*
X139965639Y-131587656D01*
X139910122Y-131728438D01*
X139904188Y-131777853D01*
X139899500Y-131816898D01*
X118892108Y-131816898D01*
X118888939Y-131810679D01*
X118826106Y-131687361D01*
X118753668Y-131587658D01*
X118682660Y-131489923D01*
X118682656Y-131489918D01*
X118510081Y-131317343D01*
X118510076Y-131317339D01*
X118312642Y-131173896D01*
X118312641Y-131173895D01*
X118312639Y-131173894D01*
X118095185Y-131063096D01*
X117863076Y-130987679D01*
X117863074Y-130987678D01*
X117863072Y-130987678D01*
X117694769Y-130961021D01*
X117622027Y-130949500D01*
X117377973Y-130949500D01*
X117322093Y-130958350D01*
X117136927Y-130987678D01*
X116904812Y-131063097D01*
X116687357Y-131173896D01*
X116489923Y-131317339D01*
X116489918Y-131317343D01*
X116317343Y-131489918D01*
X116317339Y-131489923D01*
X116173896Y-131687357D01*
X116063097Y-131904812D01*
X115987678Y-132136927D01*
X115949500Y-132377973D01*
X101300500Y-132377973D01*
X101300500Y-129877973D01*
X103449500Y-129877973D01*
X103449500Y-130122026D01*
X103472622Y-130268015D01*
X103487679Y-130363076D01*
X103525832Y-130480500D01*
X103563097Y-130595187D01*
X103673896Y-130812642D01*
X103817339Y-131010076D01*
X103817343Y-131010081D01*
X103989918Y-131182656D01*
X103989923Y-131182660D01*
X104162136Y-131307779D01*
X104187361Y-131326106D01*
X104404815Y-131436904D01*
X104636924Y-131512321D01*
X104877973Y-131550500D01*
X104877974Y-131550500D01*
X105122026Y-131550500D01*
X105122027Y-131550500D01*
X105363076Y-131512321D01*
X105595185Y-131436904D01*
X105812639Y-131326106D01*
X106010083Y-131182655D01*
X106182655Y-131010083D01*
X106326106Y-130812639D01*
X106436904Y-130595185D01*
X106512321Y-130363076D01*
X106550500Y-130122027D01*
X106550500Y-129877973D01*
X106547261Y-129857525D01*
X147699500Y-129857525D01*
X147699500Y-130002475D01*
X147737016Y-130142485D01*
X147737017Y-130142488D01*
X147809488Y-130268011D01*
X147809490Y-130268013D01*
X147809491Y-130268015D01*
X147911985Y-130370509D01*
X147911986Y-130370510D01*
X147911988Y-130370511D01*
X148037511Y-130442982D01*
X148037512Y-130442982D01*
X148037515Y-130442984D01*
X148177525Y-130480500D01*
X148177528Y-130480500D01*
X148322472Y-130480500D01*
X148322475Y-130480500D01*
X148462485Y-130442984D01*
X148588015Y-130370509D01*
X148690509Y-130268015D01*
X148762984Y-130142485D01*
X148800500Y-130002475D01*
X148800500Y-129857525D01*
X148762984Y-129717515D01*
X148716456Y-129636927D01*
X148690511Y-129591988D01*
X148690506Y-129591982D01*
X148588017Y-129489493D01*
X148588011Y-129489488D01*
X148462488Y-129417017D01*
X148462489Y-129417017D01*
X148451006Y-129413940D01*
X148322475Y-129379500D01*
X148177525Y-129379500D01*
X148048993Y-129413940D01*
X148037511Y-129417017D01*
X147911988Y-129489488D01*
X147911982Y-129489493D01*
X147809493Y-129591982D01*
X147809488Y-129591988D01*
X147737017Y-129717511D01*
X147737016Y-129717515D01*
X147699500Y-129857525D01*
X106547261Y-129857525D01*
X106512321Y-129636924D01*
X106436904Y-129404815D01*
X106326106Y-129187361D01*
X106226671Y-129050500D01*
X106182660Y-128989923D01*
X106182656Y-128989918D01*
X106010081Y-128817343D01*
X106010076Y-128817339D01*
X105812642Y-128673896D01*
X105812641Y-128673895D01*
X105812639Y-128673894D01*
X105595185Y-128563096D01*
X105363076Y-128487679D01*
X105363074Y-128487678D01*
X105363072Y-128487678D01*
X105194769Y-128461021D01*
X105122027Y-128449500D01*
X104877973Y-128449500D01*
X104822093Y-128458350D01*
X104636927Y-128487678D01*
X104404812Y-128563097D01*
X104187357Y-128673896D01*
X103989923Y-128817339D01*
X103989918Y-128817343D01*
X103817343Y-128989918D01*
X103817339Y-128989923D01*
X103673896Y-129187357D01*
X103563097Y-129404812D01*
X103487678Y-129636927D01*
X103449500Y-129877973D01*
X101300500Y-129877973D01*
X101300500Y-127377973D01*
X113449500Y-127377973D01*
X113449500Y-127622027D01*
X113449596Y-127622630D01*
X113487678Y-127863072D01*
X113487678Y-127863074D01*
X113487679Y-127863076D01*
X113538801Y-128020414D01*
X113563097Y-128095187D01*
X113673896Y-128312642D01*
X113817339Y-128510076D01*
X113817343Y-128510081D01*
X113989918Y-128682656D01*
X113989923Y-128682660D01*
X114030165Y-128711897D01*
X114187361Y-128826106D01*
X114404815Y-128936904D01*
X114636924Y-129012321D01*
X114877973Y-129050500D01*
X114877974Y-129050500D01*
X115122026Y-129050500D01*
X115122027Y-129050500D01*
X115363076Y-129012321D01*
X115595185Y-128936904D01*
X115812639Y-128826106D01*
X116010083Y-128682655D01*
X116182655Y-128510083D01*
X116326106Y-128312639D01*
X116436904Y-128095185D01*
X116512321Y-127863076D01*
X116519210Y-127819583D01*
X127620500Y-127819583D01*
X127620500Y-128020416D01*
X127659677Y-128217369D01*
X127659679Y-128217377D01*
X127736529Y-128402911D01*
X127736534Y-128402920D01*
X127848102Y-128569892D01*
X127848105Y-128569896D01*
X127990103Y-128711894D01*
X127990107Y-128711897D01*
X128157079Y-128823465D01*
X128157085Y-128823468D01*
X128157086Y-128823469D01*
X128342623Y-128900321D01*
X128526527Y-128936902D01*
X128539583Y-128939499D01*
X128539586Y-128939500D01*
X128539588Y-128939500D01*
X128740414Y-128939500D01*
X128740415Y-128939499D01*
X128937377Y-128900321D01*
X129122914Y-128823469D01*
X129289893Y-128711897D01*
X129431897Y-128569893D01*
X129543469Y-128402914D01*
X129620321Y-128217377D01*
X129659500Y-128020412D01*
X129659500Y-127819588D01*
X129659500Y-127819585D01*
X129659499Y-127819583D01*
X130160500Y-127819583D01*
X130160500Y-128020416D01*
X130199677Y-128217369D01*
X130199679Y-128217377D01*
X130276529Y-128402911D01*
X130276534Y-128402920D01*
X130388102Y-128569892D01*
X130388105Y-128569896D01*
X130530103Y-128711894D01*
X130530107Y-128711897D01*
X130697079Y-128823465D01*
X130697085Y-128823468D01*
X130697086Y-128823469D01*
X130882623Y-128900321D01*
X131066527Y-128936902D01*
X131079583Y-128939499D01*
X131079586Y-128939500D01*
X131079588Y-128939500D01*
X131280414Y-128939500D01*
X131280415Y-128939499D01*
X131477377Y-128900321D01*
X131662914Y-128823469D01*
X131829893Y-128711897D01*
X131971897Y-128569893D01*
X132083469Y-128402914D01*
X132160321Y-128217377D01*
X132199500Y-128020412D01*
X132199500Y-127819588D01*
X132199500Y-127819585D01*
X132199499Y-127819583D01*
X132700500Y-127819583D01*
X132700500Y-128020416D01*
X132739677Y-128217369D01*
X132739679Y-128217377D01*
X132816529Y-128402911D01*
X132816534Y-128402920D01*
X132928102Y-128569892D01*
X132928105Y-128569896D01*
X133070103Y-128711894D01*
X133070107Y-128711897D01*
X133237079Y-128823465D01*
X133237085Y-128823468D01*
X133237086Y-128823469D01*
X133422623Y-128900321D01*
X133606527Y-128936902D01*
X133619583Y-128939499D01*
X133619586Y-128939500D01*
X133619588Y-128939500D01*
X133820414Y-128939500D01*
X133820415Y-128939499D01*
X134017377Y-128900321D01*
X134202914Y-128823469D01*
X134369893Y-128711897D01*
X134511897Y-128569893D01*
X134623469Y-128402914D01*
X134700321Y-128217377D01*
X134739500Y-128020412D01*
X134739500Y-127819588D01*
X134739500Y-127819585D01*
X134739499Y-127819583D01*
X135240500Y-127819583D01*
X135240500Y-128020416D01*
X135279677Y-128217369D01*
X135279679Y-128217377D01*
X135356529Y-128402911D01*
X135356534Y-128402920D01*
X135468102Y-128569892D01*
X135468105Y-128569896D01*
X135610103Y-128711894D01*
X135610107Y-128711897D01*
X135777079Y-128823465D01*
X135777085Y-128823468D01*
X135777086Y-128823469D01*
X135962623Y-128900321D01*
X136146527Y-128936902D01*
X136159583Y-128939499D01*
X136159586Y-128939500D01*
X136159588Y-128939500D01*
X136360414Y-128939500D01*
X136360415Y-128939499D01*
X136557377Y-128900321D01*
X136742914Y-128823469D01*
X136909893Y-128711897D01*
X137051897Y-128569893D01*
X137163469Y-128402914D01*
X137240321Y-128217377D01*
X137279500Y-128020412D01*
X137279500Y-127819588D01*
X137279500Y-127819585D01*
X137279499Y-127819583D01*
X137240322Y-127622630D01*
X137240321Y-127622623D01*
X137163469Y-127437086D01*
X137163468Y-127437085D01*
X137163465Y-127437079D01*
X137051897Y-127270107D01*
X137051894Y-127270103D01*
X136909896Y-127128105D01*
X136909892Y-127128102D01*
X136742920Y-127016534D01*
X136742911Y-127016529D01*
X136557377Y-126939679D01*
X136557369Y-126939677D01*
X136360415Y-126900500D01*
X136360412Y-126900500D01*
X136159588Y-126900500D01*
X136159585Y-126900500D01*
X135962630Y-126939677D01*
X135962622Y-126939679D01*
X135777088Y-127016529D01*
X135777079Y-127016534D01*
X135610107Y-127128102D01*
X135610103Y-127128105D01*
X135468105Y-127270103D01*
X135468102Y-127270107D01*
X135356534Y-127437079D01*
X135356529Y-127437088D01*
X135279679Y-127622622D01*
X135279677Y-127622630D01*
X135240500Y-127819583D01*
X134739499Y-127819583D01*
X134700322Y-127622630D01*
X134700321Y-127622623D01*
X134623469Y-127437086D01*
X134623468Y-127437085D01*
X134623465Y-127437079D01*
X134511897Y-127270107D01*
X134511894Y-127270103D01*
X134369896Y-127128105D01*
X134369892Y-127128102D01*
X134202920Y-127016534D01*
X134202911Y-127016529D01*
X134017377Y-126939679D01*
X134017369Y-126939677D01*
X133820415Y-126900500D01*
X133820412Y-126900500D01*
X133619588Y-126900500D01*
X133619585Y-126900500D01*
X133422630Y-126939677D01*
X133422622Y-126939679D01*
X133237088Y-127016529D01*
X133237079Y-127016534D01*
X133070107Y-127128102D01*
X133070103Y-127128105D01*
X132928105Y-127270103D01*
X132928102Y-127270107D01*
X132816534Y-127437079D01*
X132816529Y-127437088D01*
X132739679Y-127622622D01*
X132739677Y-127622630D01*
X132700500Y-127819583D01*
X132199499Y-127819583D01*
X132160322Y-127622630D01*
X132160321Y-127622623D01*
X132083469Y-127437086D01*
X132083468Y-127437085D01*
X132083465Y-127437079D01*
X131971897Y-127270107D01*
X131971894Y-127270103D01*
X131829896Y-127128105D01*
X131829892Y-127128102D01*
X131662920Y-127016534D01*
X131662911Y-127016529D01*
X131477377Y-126939679D01*
X131477369Y-126939677D01*
X131280415Y-126900500D01*
X131280412Y-126900500D01*
X131079588Y-126900500D01*
X131079585Y-126900500D01*
X130882630Y-126939677D01*
X130882622Y-126939679D01*
X130697088Y-127016529D01*
X130697079Y-127016534D01*
X130530107Y-127128102D01*
X130530103Y-127128105D01*
X130388105Y-127270103D01*
X130388102Y-127270107D01*
X130276534Y-127437079D01*
X130276529Y-127437088D01*
X130199679Y-127622622D01*
X130199677Y-127622630D01*
X130160500Y-127819583D01*
X129659499Y-127819583D01*
X129620322Y-127622630D01*
X129620321Y-127622623D01*
X129543469Y-127437086D01*
X129543468Y-127437085D01*
X129543465Y-127437079D01*
X129431897Y-127270107D01*
X129431894Y-127270103D01*
X129289896Y-127128105D01*
X129289892Y-127128102D01*
X129122920Y-127016534D01*
X129122911Y-127016529D01*
X128937377Y-126939679D01*
X128937369Y-126939677D01*
X128740415Y-126900500D01*
X128740412Y-126900500D01*
X128539588Y-126900500D01*
X128539585Y-126900500D01*
X128342630Y-126939677D01*
X128342622Y-126939679D01*
X128157088Y-127016529D01*
X128157079Y-127016534D01*
X127990107Y-127128102D01*
X127990103Y-127128105D01*
X127848105Y-127270103D01*
X127848102Y-127270107D01*
X127736534Y-127437079D01*
X127736529Y-127437088D01*
X127659679Y-127622622D01*
X127659677Y-127622630D01*
X127620500Y-127819583D01*
X116519210Y-127819583D01*
X116550500Y-127622027D01*
X116550500Y-127377973D01*
X116512321Y-127136924D01*
X116436904Y-126904815D01*
X116326106Y-126687361D01*
X116226671Y-126550500D01*
X116182660Y-126489923D01*
X116182656Y-126489918D01*
X116010081Y-126317343D01*
X116010076Y-126317339D01*
X115812642Y-126173896D01*
X115812641Y-126173895D01*
X115812639Y-126173894D01*
X115595185Y-126063096D01*
X115363076Y-125987679D01*
X115363074Y-125987678D01*
X115363072Y-125987678D01*
X115194769Y-125961021D01*
X115122027Y-125949500D01*
X114877973Y-125949500D01*
X114822093Y-125958350D01*
X114636927Y-125987678D01*
X114404812Y-126063097D01*
X114187357Y-126173896D01*
X113989923Y-126317339D01*
X113989918Y-126317343D01*
X113817343Y-126489918D01*
X113817339Y-126489923D01*
X113673896Y-126687357D01*
X113563097Y-126904812D01*
X113487678Y-127136927D01*
X113449500Y-127377973D01*
X101300500Y-127377973D01*
X101300500Y-124877973D01*
X103449500Y-124877973D01*
X103449500Y-125122026D01*
X103487678Y-125363072D01*
X103563097Y-125595187D01*
X103673896Y-125812642D01*
X103817339Y-126010076D01*
X103817343Y-126010081D01*
X103989918Y-126182656D01*
X103989923Y-126182660D01*
X104162136Y-126307779D01*
X104187361Y-126326106D01*
X104404815Y-126436904D01*
X104636924Y-126512321D01*
X104877973Y-126550500D01*
X104877974Y-126550500D01*
X105122026Y-126550500D01*
X105122027Y-126550500D01*
X105363076Y-126512321D01*
X105595185Y-126436904D01*
X105812639Y-126326106D01*
X106010083Y-126182655D01*
X106182655Y-126010083D01*
X106326106Y-125812639D01*
X106436904Y-125595185D01*
X106512321Y-125363076D01*
X106550500Y-125122027D01*
X106550500Y-124877973D01*
X106512321Y-124636924D01*
X106436904Y-124404815D01*
X106326106Y-124187361D01*
X106226671Y-124050500D01*
X106182660Y-123989923D01*
X106182656Y-123989918D01*
X106010081Y-123817343D01*
X106010076Y-123817339D01*
X105812642Y-123673896D01*
X105812641Y-123673895D01*
X105812639Y-123673894D01*
X105595185Y-123563096D01*
X105363076Y-123487679D01*
X105363074Y-123487678D01*
X105363072Y-123487678D01*
X105194769Y-123461021D01*
X105122027Y-123449500D01*
X104877973Y-123449500D01*
X104822093Y-123458350D01*
X104636927Y-123487678D01*
X104404812Y-123563097D01*
X104187357Y-123673896D01*
X103989923Y-123817339D01*
X103989918Y-123817343D01*
X103817343Y-123989918D01*
X103817339Y-123989923D01*
X103673896Y-124187357D01*
X103563097Y-124404812D01*
X103487678Y-124636927D01*
X103449500Y-124877973D01*
X101300500Y-124877973D01*
X101300500Y-122377973D01*
X115949500Y-122377973D01*
X115949500Y-122622026D01*
X115983709Y-122838015D01*
X115987679Y-122863076D01*
X116036387Y-123012984D01*
X116063097Y-123095187D01*
X116173896Y-123312642D01*
X116317339Y-123510076D01*
X116317343Y-123510081D01*
X116489918Y-123682656D01*
X116489923Y-123682660D01*
X116662136Y-123807779D01*
X116687361Y-123826106D01*
X116904815Y-123936904D01*
X117136924Y-124012321D01*
X117377973Y-124050500D01*
X117377974Y-124050500D01*
X117622026Y-124050500D01*
X117622027Y-124050500D01*
X117863076Y-124012321D01*
X118095185Y-123936904D01*
X118312639Y-123826106D01*
X118510083Y-123682655D01*
X118682655Y-123510083D01*
X118826106Y-123312639D01*
X118936904Y-123095185D01*
X119012321Y-122863076D01*
X119050500Y-122622027D01*
X119050500Y-122377973D01*
X119012321Y-122136924D01*
X118936904Y-121904815D01*
X118826106Y-121687361D01*
X118722643Y-121544956D01*
X118682660Y-121489923D01*
X118682656Y-121489918D01*
X118510081Y-121317343D01*
X118510076Y-121317339D01*
X118312642Y-121173896D01*
X118312641Y-121173895D01*
X118312639Y-121173894D01*
X118095185Y-121063096D01*
X117863076Y-120987679D01*
X117863074Y-120987678D01*
X117863072Y-120987678D01*
X117694769Y-120961021D01*
X117622027Y-120949500D01*
X117377973Y-120949500D01*
X117322093Y-120958350D01*
X117136927Y-120987678D01*
X116904812Y-121063097D01*
X116687357Y-121173896D01*
X116489923Y-121317339D01*
X116489918Y-121317343D01*
X116317343Y-121489918D01*
X116317339Y-121489923D01*
X116173896Y-121687357D01*
X116063097Y-121904812D01*
X115987678Y-122136927D01*
X115949500Y-122377973D01*
X101300500Y-122377973D01*
X101300500Y-119865602D01*
X107949500Y-119865602D01*
X107949500Y-120134397D01*
X107984582Y-120400880D01*
X107984583Y-120400885D01*
X107984584Y-120400891D01*
X108009127Y-120492485D01*
X108054152Y-120660524D01*
X108157011Y-120908850D01*
X108157019Y-120908866D01*
X108227893Y-121031621D01*
X108291413Y-121141641D01*
X108291415Y-121141644D01*
X108291416Y-121141645D01*
X108455042Y-121354888D01*
X108455048Y-121354895D01*
X108645104Y-121544951D01*
X108645111Y-121544957D01*
X108770387Y-121641084D01*
X108858359Y-121708587D01*
X109007968Y-121794964D01*
X109091133Y-121842980D01*
X109091149Y-121842988D01*
X109240407Y-121904812D01*
X109339474Y-121945847D01*
X109599109Y-122015416D01*
X109787319Y-122040193D01*
X109865602Y-122050500D01*
X109865603Y-122050500D01*
X110134398Y-122050500D01*
X110194905Y-122042534D01*
X110400891Y-122015416D01*
X110660526Y-121945847D01*
X110847457Y-121868417D01*
X110908850Y-121842988D01*
X110908853Y-121842986D01*
X110908859Y-121842984D01*
X111141641Y-121708587D01*
X111354890Y-121544956D01*
X111544956Y-121354890D01*
X111708587Y-121141641D01*
X111842984Y-120908859D01*
X111945847Y-120660526D01*
X112015416Y-120400891D01*
X112050500Y-120134397D01*
X112050500Y-119877973D01*
X113449500Y-119877973D01*
X113449500Y-120122027D01*
X113487679Y-120363076D01*
X113563096Y-120595185D01*
X113670995Y-120806950D01*
X113673896Y-120812642D01*
X113817339Y-121010076D01*
X113817343Y-121010081D01*
X113989918Y-121182656D01*
X113989923Y-121182660D01*
X114134239Y-121287511D01*
X114187361Y-121326106D01*
X114404815Y-121436904D01*
X114636924Y-121512321D01*
X114877973Y-121550500D01*
X114877974Y-121550500D01*
X115122026Y-121550500D01*
X115122027Y-121550500D01*
X115363076Y-121512321D01*
X115595185Y-121436904D01*
X115812639Y-121326106D01*
X116010083Y-121182655D01*
X116182655Y-121010083D01*
X116326106Y-120812639D01*
X116436904Y-120595185D01*
X116497879Y-120407525D01*
X129649500Y-120407525D01*
X129649500Y-120552475D01*
X129678452Y-120660524D01*
X129687017Y-120692488D01*
X129759488Y-120818011D01*
X129759490Y-120818013D01*
X129759491Y-120818015D01*
X129861985Y-120920509D01*
X129861986Y-120920510D01*
X129861988Y-120920511D01*
X129987511Y-120992982D01*
X129987512Y-120992982D01*
X129987515Y-120992984D01*
X130127525Y-121030500D01*
X130127528Y-121030500D01*
X130272472Y-121030500D01*
X130272475Y-121030500D01*
X130412485Y-120992984D01*
X130538015Y-120920509D01*
X130640509Y-120818015D01*
X130712984Y-120692485D01*
X130750500Y-120552475D01*
X130750500Y-120407525D01*
X130712984Y-120267515D01*
X130712982Y-120267511D01*
X130709454Y-120261400D01*
X130709453Y-120261399D01*
X130704051Y-120252044D01*
X130678348Y-120207525D01*
X133799500Y-120207525D01*
X133799500Y-120352475D01*
X133837016Y-120492485D01*
X133837017Y-120492488D01*
X133909488Y-120618011D01*
X133909490Y-120618013D01*
X133909491Y-120618015D01*
X134011985Y-120720509D01*
X134137515Y-120792984D01*
X134180347Y-120804461D01*
X134240007Y-120840825D01*
X134270536Y-120903672D01*
X134262241Y-120973047D01*
X134217756Y-121026925D01*
X134210255Y-121031621D01*
X134161988Y-121059489D01*
X134161982Y-121059493D01*
X134059493Y-121161982D01*
X134059488Y-121161988D01*
X133987017Y-121287511D01*
X133987016Y-121287515D01*
X133949500Y-121427525D01*
X133949500Y-121572475D01*
X133985972Y-121708587D01*
X133987017Y-121712488D01*
X134059488Y-121838011D01*
X134059490Y-121838013D01*
X134059491Y-121838015D01*
X134161985Y-121940509D01*
X134161986Y-121940510D01*
X134161988Y-121940511D01*
X134287511Y-122012982D01*
X134287512Y-122012982D01*
X134287515Y-122012984D01*
X134427525Y-122050500D01*
X134427528Y-122050500D01*
X134572472Y-122050500D01*
X134572475Y-122050500D01*
X134712485Y-122012984D01*
X134838015Y-121940509D01*
X134940509Y-121838015D01*
X135012984Y-121712485D01*
X135050500Y-121572475D01*
X135050500Y-121427525D01*
X135012984Y-121287515D01*
X134952443Y-121182656D01*
X134940511Y-121161988D01*
X134940506Y-121161982D01*
X134838017Y-121059493D01*
X134838011Y-121059488D01*
X134712488Y-120987017D01*
X134712484Y-120987015D01*
X134669651Y-120975538D01*
X134609991Y-120939173D01*
X134579463Y-120876326D01*
X134587758Y-120806950D01*
X134632244Y-120753073D01*
X134639746Y-120748377D01*
X134688015Y-120720509D01*
X134790509Y-120618015D01*
X134862984Y-120492485D01*
X134900500Y-120352475D01*
X134900500Y-120207525D01*
X134862984Y-120067515D01*
X134846805Y-120039493D01*
X134790511Y-119941988D01*
X134790506Y-119941982D01*
X134688017Y-119839493D01*
X134688011Y-119839488D01*
X134562488Y-119767017D01*
X134562489Y-119767017D01*
X134551006Y-119763940D01*
X134422475Y-119729500D01*
X134277525Y-119729500D01*
X134148993Y-119763940D01*
X134137511Y-119767017D01*
X134011988Y-119839488D01*
X134011982Y-119839493D01*
X133909493Y-119941982D01*
X133909488Y-119941988D01*
X133837017Y-120067511D01*
X133837016Y-120067515D01*
X133799500Y-120207525D01*
X130678348Y-120207525D01*
X130640509Y-120141985D01*
X130538015Y-120039491D01*
X130538013Y-120039490D01*
X130538011Y-120039488D01*
X130412488Y-119967017D01*
X130412489Y-119967017D01*
X130401006Y-119963940D01*
X130272475Y-119929500D01*
X130127525Y-119929500D01*
X129998993Y-119963940D01*
X129987511Y-119967017D01*
X129861988Y-120039488D01*
X129861982Y-120039493D01*
X129759493Y-120141982D01*
X129759488Y-120141988D01*
X129687017Y-120267511D01*
X129687016Y-120267515D01*
X129649500Y-120407525D01*
X116497879Y-120407525D01*
X116512321Y-120363076D01*
X116550500Y-120122027D01*
X116550500Y-119877973D01*
X116512321Y-119636924D01*
X116436904Y-119404815D01*
X116436901Y-119404809D01*
X116422067Y-119375694D01*
X116422066Y-119375693D01*
X116397523Y-119327525D01*
X135480229Y-119327525D01*
X135480229Y-119472475D01*
X135514160Y-119599106D01*
X135517746Y-119612488D01*
X135590217Y-119738011D01*
X135590219Y-119738013D01*
X135590220Y-119738015D01*
X135692714Y-119840509D01*
X135692715Y-119840510D01*
X135692717Y-119840511D01*
X135818240Y-119912982D01*
X135818241Y-119912982D01*
X135818244Y-119912984D01*
X135958254Y-119950500D01*
X135958257Y-119950500D01*
X136103201Y-119950500D01*
X136103204Y-119950500D01*
X136243214Y-119912984D01*
X136368744Y-119840509D01*
X136471238Y-119738015D01*
X136543713Y-119612485D01*
X136581229Y-119472475D01*
X136581229Y-119327525D01*
X136543713Y-119187515D01*
X136488071Y-119091141D01*
X136471240Y-119061988D01*
X136471235Y-119061982D01*
X136368746Y-118959493D01*
X136368740Y-118959488D01*
X136243217Y-118887017D01*
X136243218Y-118887017D01*
X136231735Y-118883940D01*
X136103204Y-118849500D01*
X135958254Y-118849500D01*
X135829722Y-118883940D01*
X135818240Y-118887017D01*
X135692717Y-118959488D01*
X135692711Y-118959493D01*
X135590222Y-119061982D01*
X135590217Y-119061988D01*
X135517746Y-119187511D01*
X135517745Y-119187515D01*
X135480229Y-119327525D01*
X116397523Y-119327525D01*
X116326184Y-119187515D01*
X116326106Y-119187361D01*
X116256204Y-119091149D01*
X116182660Y-118989923D01*
X116182656Y-118989918D01*
X116010081Y-118817343D01*
X116010076Y-118817339D01*
X115812642Y-118673896D01*
X115812641Y-118673895D01*
X115812639Y-118673894D01*
X115595185Y-118563096D01*
X115363076Y-118487679D01*
X115363074Y-118487678D01*
X115363072Y-118487678D01*
X115157055Y-118455048D01*
X115122027Y-118449500D01*
X114877973Y-118449500D01*
X114842983Y-118455042D01*
X114636927Y-118487678D01*
X114636924Y-118487679D01*
X114470093Y-118541886D01*
X114404812Y-118563097D01*
X114187357Y-118673896D01*
X113989923Y-118817339D01*
X113989918Y-118817343D01*
X113817343Y-118989918D01*
X113817339Y-118989923D01*
X113673896Y-119187357D01*
X113563097Y-119404812D01*
X113487678Y-119636927D01*
X113455595Y-119839491D01*
X113449500Y-119877973D01*
X112050500Y-119877973D01*
X112050500Y-119865603D01*
X112015416Y-119599109D01*
X111945847Y-119339474D01*
X111907132Y-119246008D01*
X111842988Y-119091149D01*
X111842980Y-119091133D01*
X111780198Y-118982393D01*
X111708587Y-118858359D01*
X111596658Y-118712490D01*
X111544957Y-118645111D01*
X111544951Y-118645104D01*
X111354895Y-118455048D01*
X111354888Y-118455042D01*
X111279162Y-118396936D01*
X127160089Y-118396936D01*
X127160089Y-118541886D01*
X127197605Y-118681896D01*
X127197606Y-118681899D01*
X127270077Y-118807422D01*
X127270079Y-118807424D01*
X127270080Y-118807426D01*
X127372574Y-118909920D01*
X127372575Y-118909921D01*
X127372577Y-118909922D01*
X127498100Y-118982393D01*
X127498101Y-118982393D01*
X127498104Y-118982395D01*
X127638114Y-119019911D01*
X127638117Y-119019911D01*
X127783061Y-119019911D01*
X127783064Y-119019911D01*
X127923074Y-118982395D01*
X128048604Y-118909920D01*
X128151098Y-118807426D01*
X128223573Y-118681896D01*
X128261089Y-118541886D01*
X128261089Y-118396936D01*
X128223573Y-118256926D01*
X128201105Y-118218011D01*
X128151100Y-118131399D01*
X128151095Y-118131393D01*
X128048606Y-118028904D01*
X128048600Y-118028899D01*
X127923077Y-117956428D01*
X127923078Y-117956428D01*
X127897222Y-117949500D01*
X127783064Y-117918911D01*
X127638114Y-117918911D01*
X127523956Y-117949500D01*
X127498100Y-117956428D01*
X127372577Y-118028899D01*
X127372571Y-118028904D01*
X127270082Y-118131393D01*
X127270077Y-118131399D01*
X127197606Y-118256922D01*
X127197605Y-118256926D01*
X127160089Y-118396936D01*
X111279162Y-118396936D01*
X111141645Y-118291416D01*
X111141644Y-118291415D01*
X111141641Y-118291413D01*
X111014516Y-118218017D01*
X110908866Y-118157019D01*
X110908850Y-118157011D01*
X110660524Y-118054152D01*
X110530708Y-118019368D01*
X110400891Y-117984584D01*
X110400885Y-117984583D01*
X110400880Y-117984582D01*
X110134398Y-117949500D01*
X110134397Y-117949500D01*
X109865603Y-117949500D01*
X109865602Y-117949500D01*
X109599119Y-117984582D01*
X109599112Y-117984583D01*
X109599109Y-117984584D01*
X109544239Y-117999286D01*
X109339475Y-118054152D01*
X109091149Y-118157011D01*
X109091133Y-118157019D01*
X108918092Y-118256926D01*
X108865118Y-118287511D01*
X108858354Y-118291416D01*
X108645111Y-118455042D01*
X108645104Y-118455048D01*
X108455048Y-118645104D01*
X108455042Y-118645111D01*
X108291416Y-118858354D01*
X108157019Y-119091133D01*
X108157011Y-119091149D01*
X108054152Y-119339475D01*
X107984585Y-119599106D01*
X107984582Y-119599119D01*
X107949500Y-119865602D01*
X101300500Y-119865602D01*
X101300500Y-117807525D01*
X138699500Y-117807525D01*
X138699500Y-117952475D01*
X138728176Y-118059493D01*
X138737017Y-118092488D01*
X138809488Y-118218011D01*
X138809490Y-118218013D01*
X138809491Y-118218015D01*
X138911985Y-118320509D01*
X138911986Y-118320510D01*
X138911988Y-118320511D01*
X139037511Y-118392982D01*
X139037512Y-118392982D01*
X139037515Y-118392984D01*
X139177525Y-118430500D01*
X139177528Y-118430500D01*
X139322472Y-118430500D01*
X139322475Y-118430500D01*
X139333578Y-118427525D01*
X140749500Y-118427525D01*
X140749500Y-118572475D01*
X140787016Y-118712485D01*
X140787017Y-118712488D01*
X140859488Y-118838011D01*
X140859490Y-118838013D01*
X140859491Y-118838015D01*
X140961985Y-118940509D01*
X140961986Y-118940510D01*
X140961988Y-118940511D01*
X141087511Y-119012982D01*
X141087512Y-119012982D01*
X141087515Y-119012984D01*
X141227525Y-119050500D01*
X141227528Y-119050500D01*
X141372472Y-119050500D01*
X141372475Y-119050500D01*
X141512485Y-119012984D01*
X141638015Y-118940509D01*
X141740509Y-118838015D01*
X141812984Y-118712485D01*
X141850500Y-118572475D01*
X141850500Y-118427525D01*
X141812984Y-118287515D01*
X141795323Y-118256926D01*
X141740511Y-118161988D01*
X141740506Y-118161982D01*
X141638017Y-118059493D01*
X141638011Y-118059488D01*
X141512488Y-117987017D01*
X141512489Y-117987017D01*
X141501006Y-117983940D01*
X141372475Y-117949500D01*
X141227525Y-117949500D01*
X141098993Y-117983940D01*
X141087511Y-117987017D01*
X140961988Y-118059488D01*
X140961982Y-118059493D01*
X140859493Y-118161982D01*
X140859488Y-118161988D01*
X140787017Y-118287511D01*
X140785971Y-118291416D01*
X140749500Y-118427525D01*
X139333578Y-118427525D01*
X139462485Y-118392984D01*
X139588015Y-118320509D01*
X139690509Y-118218015D01*
X139762984Y-118092485D01*
X139800500Y-117952475D01*
X139800500Y-117807525D01*
X139762984Y-117667515D01*
X139690509Y-117541985D01*
X139588015Y-117439491D01*
X139588013Y-117439490D01*
X139588011Y-117439488D01*
X139462488Y-117367017D01*
X139462489Y-117367017D01*
X139451006Y-117363940D01*
X139322475Y-117329500D01*
X139177525Y-117329500D01*
X139048993Y-117363940D01*
X139037511Y-117367017D01*
X138911988Y-117439488D01*
X138911982Y-117439493D01*
X138809493Y-117541982D01*
X138809488Y-117541988D01*
X138737017Y-117667511D01*
X138737016Y-117667515D01*
X138699500Y-117807525D01*
X101300500Y-117807525D01*
X101300500Y-114765602D01*
X107949500Y-114765602D01*
X107949500Y-115034397D01*
X107984582Y-115300880D01*
X107984583Y-115300885D01*
X107984584Y-115300891D01*
X108000954Y-115361985D01*
X108054152Y-115560524D01*
X108157011Y-115808850D01*
X108157019Y-115808866D01*
X108232438Y-115939493D01*
X108291413Y-116041641D01*
X108291415Y-116041644D01*
X108291416Y-116041645D01*
X108455042Y-116254888D01*
X108455048Y-116254895D01*
X108645104Y-116444951D01*
X108645110Y-116444956D01*
X108858359Y-116608587D01*
X109007968Y-116694964D01*
X109091133Y-116742980D01*
X109091149Y-116742988D01*
X109246008Y-116807132D01*
X109339474Y-116845847D01*
X109599109Y-116915416D01*
X109787319Y-116940193D01*
X109865602Y-116950500D01*
X109865603Y-116950500D01*
X110134398Y-116950500D01*
X110194905Y-116942534D01*
X110400891Y-116915416D01*
X110660526Y-116845847D01*
X110847457Y-116768417D01*
X110908850Y-116742988D01*
X110908853Y-116742986D01*
X110908859Y-116742984D01*
X111141641Y-116608587D01*
X111354890Y-116444956D01*
X111544956Y-116254890D01*
X111708587Y-116041641D01*
X111842984Y-115808859D01*
X111945847Y-115560526D01*
X112015416Y-115300891D01*
X112050500Y-115034397D01*
X112050500Y-114777973D01*
X113449500Y-114777973D01*
X113449500Y-115022026D01*
X113487110Y-115259488D01*
X113487679Y-115263076D01*
X113563096Y-115495185D01*
X113630527Y-115627527D01*
X113673896Y-115712642D01*
X113817339Y-115910076D01*
X113817343Y-115910081D01*
X113989918Y-116082656D01*
X113989923Y-116082660D01*
X114106717Y-116167515D01*
X114187361Y-116226106D01*
X114404815Y-116336904D01*
X114636924Y-116412321D01*
X114877973Y-116450500D01*
X114877974Y-116450500D01*
X115122026Y-116450500D01*
X115122027Y-116450500D01*
X115363076Y-116412321D01*
X115595185Y-116336904D01*
X115652845Y-116307525D01*
X132099500Y-116307525D01*
X132099500Y-116452475D01*
X132137016Y-116592485D01*
X132137017Y-116592488D01*
X132209488Y-116718011D01*
X132209490Y-116718013D01*
X132209491Y-116718015D01*
X132311985Y-116820509D01*
X132311986Y-116820510D01*
X132311988Y-116820511D01*
X132437511Y-116892982D01*
X132437512Y-116892982D01*
X132437515Y-116892984D01*
X132577525Y-116930500D01*
X132577528Y-116930500D01*
X132722472Y-116930500D01*
X132722475Y-116930500D01*
X132862485Y-116892984D01*
X132988015Y-116820509D01*
X133090509Y-116718015D01*
X133162984Y-116592485D01*
X133200500Y-116452475D01*
X133200500Y-116307525D01*
X133162984Y-116167515D01*
X133147390Y-116140506D01*
X133090511Y-116041988D01*
X133090506Y-116041982D01*
X132988017Y-115939493D01*
X132988011Y-115939488D01*
X132862488Y-115867017D01*
X132862489Y-115867017D01*
X132851006Y-115863940D01*
X132722475Y-115829500D01*
X132577525Y-115829500D01*
X132448993Y-115863940D01*
X132437511Y-115867017D01*
X132311988Y-115939488D01*
X132311982Y-115939493D01*
X132209493Y-116041982D01*
X132209488Y-116041988D01*
X132137017Y-116167511D01*
X132137016Y-116167515D01*
X132099500Y-116307525D01*
X115652845Y-116307525D01*
X115812639Y-116226106D01*
X115834616Y-116210138D01*
X115849838Y-116199080D01*
X116010076Y-116082660D01*
X116010074Y-116082660D01*
X116010083Y-116082655D01*
X116182655Y-115910083D01*
X116326106Y-115712639D01*
X116369474Y-115627525D01*
X136049500Y-115627525D01*
X136049500Y-115772475D01*
X136087016Y-115912485D01*
X136087017Y-115912488D01*
X136159488Y-116038011D01*
X136159490Y-116038013D01*
X136159491Y-116038015D01*
X136261985Y-116140509D01*
X136261986Y-116140510D01*
X136261988Y-116140511D01*
X136387511Y-116212982D01*
X136387512Y-116212982D01*
X136387515Y-116212984D01*
X136527525Y-116250500D01*
X136527528Y-116250500D01*
X136672472Y-116250500D01*
X136672475Y-116250500D01*
X136812485Y-116212984D01*
X136938015Y-116140509D01*
X137040509Y-116038015D01*
X137112984Y-115912485D01*
X137150500Y-115772475D01*
X137150500Y-115727525D01*
X143749500Y-115727525D01*
X143749500Y-115872475D01*
X143767458Y-115939493D01*
X143787017Y-116012488D01*
X143859488Y-116138011D01*
X143859490Y-116138013D01*
X143859491Y-116138015D01*
X143961985Y-116240509D01*
X143961986Y-116240510D01*
X143961988Y-116240511D01*
X144087511Y-116312982D01*
X144087512Y-116312982D01*
X144087515Y-116312984D01*
X144227525Y-116350500D01*
X144227528Y-116350500D01*
X144372472Y-116350500D01*
X144372475Y-116350500D01*
X144512485Y-116312984D01*
X144638015Y-116240509D01*
X144740509Y-116138015D01*
X144812984Y-116012485D01*
X144850500Y-115872475D01*
X144850500Y-115727525D01*
X144812984Y-115587515D01*
X144759678Y-115495187D01*
X144740511Y-115461988D01*
X144740506Y-115461982D01*
X144638017Y-115359493D01*
X144638011Y-115359488D01*
X144512488Y-115287017D01*
X144512489Y-115287017D01*
X144501006Y-115283940D01*
X144372475Y-115249500D01*
X144227525Y-115249500D01*
X144098993Y-115283940D01*
X144087511Y-115287017D01*
X143961988Y-115359488D01*
X143961982Y-115359493D01*
X143859493Y-115461982D01*
X143859488Y-115461988D01*
X143787017Y-115587511D01*
X143787016Y-115587515D01*
X143749500Y-115727525D01*
X137150500Y-115727525D01*
X137150500Y-115627525D01*
X137112984Y-115487515D01*
X137098244Y-115461985D01*
X137040511Y-115361988D01*
X137040506Y-115361982D01*
X136938017Y-115259493D01*
X136938011Y-115259488D01*
X136812488Y-115187017D01*
X136812489Y-115187017D01*
X136801006Y-115183940D01*
X136672475Y-115149500D01*
X136527525Y-115149500D01*
X136398993Y-115183940D01*
X136387511Y-115187017D01*
X136278348Y-115250042D01*
X136278342Y-115250046D01*
X136261985Y-115259491D01*
X136181844Y-115339631D01*
X136181831Y-115339644D01*
X136159491Y-115361985D01*
X136159488Y-115361988D01*
X136087017Y-115487511D01*
X136087016Y-115487515D01*
X136049500Y-115627525D01*
X116369474Y-115627525D01*
X116436904Y-115495185D01*
X116512321Y-115263076D01*
X116550500Y-115022027D01*
X116550500Y-114777973D01*
X116526671Y-114627525D01*
X135149500Y-114627525D01*
X135149500Y-114772475D01*
X135160221Y-114812485D01*
X135187017Y-114912488D01*
X135259488Y-115038011D01*
X135259490Y-115038013D01*
X135259491Y-115038015D01*
X135361985Y-115140509D01*
X135361986Y-115140510D01*
X135361988Y-115140511D01*
X135487511Y-115212982D01*
X135487512Y-115212982D01*
X135487515Y-115212984D01*
X135627525Y-115250500D01*
X135627528Y-115250500D01*
X135772472Y-115250500D01*
X135772475Y-115250500D01*
X135912485Y-115212984D01*
X136038015Y-115140509D01*
X136140509Y-115038015D01*
X136212984Y-114912485D01*
X136250500Y-114772475D01*
X136250500Y-114627525D01*
X136223705Y-114527525D01*
X137049500Y-114527525D01*
X137049500Y-114672475D01*
X137087016Y-114812485D01*
X137087017Y-114812488D01*
X137159488Y-114938011D01*
X137159490Y-114938013D01*
X137159491Y-114938015D01*
X137261985Y-115040509D01*
X137261986Y-115040510D01*
X137261988Y-115040511D01*
X137387511Y-115112982D01*
X137387512Y-115112982D01*
X137387515Y-115112984D01*
X137527525Y-115150500D01*
X137527528Y-115150500D01*
X137672472Y-115150500D01*
X137672475Y-115150500D01*
X137812485Y-115112984D01*
X137938015Y-115040509D01*
X138040509Y-114938015D01*
X138112984Y-114812485D01*
X138150500Y-114672475D01*
X138150500Y-114527525D01*
X138112984Y-114387515D01*
X138040509Y-114261985D01*
X137938015Y-114159491D01*
X137938013Y-114159490D01*
X137938011Y-114159488D01*
X137812488Y-114087017D01*
X137812489Y-114087017D01*
X137801006Y-114083940D01*
X137672475Y-114049500D01*
X137527525Y-114049500D01*
X137398993Y-114083940D01*
X137387511Y-114087017D01*
X137261988Y-114159488D01*
X137261985Y-114159491D01*
X137239644Y-114181831D01*
X137239631Y-114181844D01*
X137159491Y-114261985D01*
X137150046Y-114278342D01*
X137150042Y-114278348D01*
X137087017Y-114387511D01*
X137087016Y-114387515D01*
X137049500Y-114527525D01*
X136223705Y-114527525D01*
X136212984Y-114487515D01*
X136155246Y-114387511D01*
X136140511Y-114361988D01*
X136140506Y-114361982D01*
X136118182Y-114339658D01*
X136038015Y-114259491D01*
X136021651Y-114250043D01*
X136021650Y-114250042D01*
X135912488Y-114187017D01*
X135912489Y-114187017D01*
X135901006Y-114183940D01*
X135772475Y-114149500D01*
X135627525Y-114149500D01*
X135498993Y-114183940D01*
X135487511Y-114187017D01*
X135361988Y-114259488D01*
X135361982Y-114259493D01*
X135259493Y-114361982D01*
X135259488Y-114361988D01*
X135187017Y-114487511D01*
X135187016Y-114487515D01*
X135149500Y-114627525D01*
X116526671Y-114627525D01*
X116512321Y-114536924D01*
X116436904Y-114304815D01*
X116326106Y-114087361D01*
X116306474Y-114060340D01*
X116182660Y-113889923D01*
X116182656Y-113889918D01*
X116010081Y-113717343D01*
X116010076Y-113717339D01*
X115812642Y-113573896D01*
X115812641Y-113573895D01*
X115812639Y-113573894D01*
X115595185Y-113463096D01*
X115363076Y-113387679D01*
X115363074Y-113387678D01*
X115363072Y-113387678D01*
X115157055Y-113355048D01*
X115122027Y-113349500D01*
X114877973Y-113349500D01*
X114842983Y-113355042D01*
X114636927Y-113387678D01*
X114404812Y-113463097D01*
X114187357Y-113573896D01*
X113989923Y-113717339D01*
X113989918Y-113717343D01*
X113817343Y-113889918D01*
X113817339Y-113889923D01*
X113673896Y-114087357D01*
X113563097Y-114304812D01*
X113487678Y-114536927D01*
X113449500Y-114777973D01*
X112050500Y-114777973D01*
X112050500Y-114765603D01*
X112015416Y-114499109D01*
X111945847Y-114239474D01*
X111882697Y-114087016D01*
X111842988Y-113991149D01*
X111842980Y-113991133D01*
X111753935Y-113836904D01*
X111708587Y-113758359D01*
X111544956Y-113545110D01*
X111544951Y-113545104D01*
X111354895Y-113355048D01*
X111354888Y-113355042D01*
X111141645Y-113191416D01*
X111141644Y-113191415D01*
X111141641Y-113191413D01*
X111048832Y-113137830D01*
X110908866Y-113057019D01*
X110908850Y-113057011D01*
X110660524Y-112954152D01*
X110505019Y-112912485D01*
X110400891Y-112884584D01*
X110400885Y-112884583D01*
X110400880Y-112884582D01*
X110134398Y-112849500D01*
X110134397Y-112849500D01*
X109865603Y-112849500D01*
X109865602Y-112849500D01*
X109599119Y-112884582D01*
X109599112Y-112884583D01*
X109599109Y-112884584D01*
X109544239Y-112899286D01*
X109339475Y-112954152D01*
X109091149Y-113057011D01*
X109091133Y-113057019D01*
X108858354Y-113191416D01*
X108645111Y-113355042D01*
X108645104Y-113355048D01*
X108455048Y-113545104D01*
X108455042Y-113545111D01*
X108291416Y-113758354D01*
X108157019Y-113991133D01*
X108157011Y-113991149D01*
X108054152Y-114239475D01*
X107984585Y-114499106D01*
X107984582Y-114499119D01*
X107949500Y-114765602D01*
X101300500Y-114765602D01*
X101300500Y-112277973D01*
X115949500Y-112277973D01*
X115949500Y-112522027D01*
X115987679Y-112763076D01*
X116063096Y-112995185D01*
X116163080Y-113191416D01*
X116173896Y-113212642D01*
X116317339Y-113410076D01*
X116317343Y-113410081D01*
X116489918Y-113582656D01*
X116489923Y-113582660D01*
X116551675Y-113627525D01*
X116687361Y-113726106D01*
X116904815Y-113836904D01*
X117136924Y-113912321D01*
X117377973Y-113950500D01*
X117377974Y-113950500D01*
X117622026Y-113950500D01*
X117622027Y-113950500D01*
X117863076Y-113912321D01*
X118095185Y-113836904D01*
X118312639Y-113726106D01*
X118448325Y-113627525D01*
X134149500Y-113627525D01*
X134149500Y-113772475D01*
X134186972Y-113912321D01*
X134187017Y-113912488D01*
X134259488Y-114038011D01*
X134259490Y-114038013D01*
X134259491Y-114038015D01*
X134361985Y-114140509D01*
X134361986Y-114140510D01*
X134361988Y-114140511D01*
X134487511Y-114212982D01*
X134487512Y-114212982D01*
X134487515Y-114212984D01*
X134627525Y-114250500D01*
X134627528Y-114250500D01*
X134772472Y-114250500D01*
X134772475Y-114250500D01*
X134912485Y-114212984D01*
X135038015Y-114140509D01*
X135140509Y-114038015D01*
X135212984Y-113912485D01*
X135250500Y-113772475D01*
X135250500Y-113627525D01*
X136049500Y-113627525D01*
X136049500Y-113772475D01*
X136086972Y-113912321D01*
X136087017Y-113912488D01*
X136159488Y-114038011D01*
X136159490Y-114038013D01*
X136159491Y-114038015D01*
X136261985Y-114140509D01*
X136387515Y-114212984D01*
X136527525Y-114250500D01*
X136527528Y-114250500D01*
X136672472Y-114250500D01*
X136672475Y-114250500D01*
X136812485Y-114212984D01*
X136938015Y-114140509D01*
X137040509Y-114038015D01*
X137112984Y-113912485D01*
X137150500Y-113772475D01*
X137150500Y-113627525D01*
X138049500Y-113627525D01*
X138049500Y-113772475D01*
X138086972Y-113912321D01*
X138087017Y-113912488D01*
X138150042Y-114021650D01*
X138150043Y-114021651D01*
X138159491Y-114038015D01*
X138261985Y-114140509D01*
X138261986Y-114140510D01*
X138261988Y-114140511D01*
X138387511Y-114212982D01*
X138387512Y-114212982D01*
X138387515Y-114212984D01*
X138527525Y-114250500D01*
X138527528Y-114250500D01*
X138672472Y-114250500D01*
X138672475Y-114250500D01*
X138812485Y-114212984D01*
X138938015Y-114140509D01*
X139040509Y-114038015D01*
X139112984Y-113912485D01*
X139150500Y-113772475D01*
X139150500Y-113627525D01*
X139112984Y-113487515D01*
X139098886Y-113463097D01*
X139040511Y-113361988D01*
X139040506Y-113361982D01*
X138938017Y-113259493D01*
X138938011Y-113259488D01*
X138812488Y-113187017D01*
X138812489Y-113187017D01*
X138801006Y-113183940D01*
X138672475Y-113149500D01*
X138527525Y-113149500D01*
X138398993Y-113183940D01*
X138387511Y-113187017D01*
X138261988Y-113259488D01*
X138261982Y-113259493D01*
X138159493Y-113361982D01*
X138159488Y-113361988D01*
X138087017Y-113487511D01*
X138087016Y-113487515D01*
X138049500Y-113627525D01*
X137150500Y-113627525D01*
X137112984Y-113487515D01*
X137098886Y-113463097D01*
X137040511Y-113361988D01*
X137040506Y-113361982D01*
X136938017Y-113259493D01*
X136938011Y-113259488D01*
X136812488Y-113187017D01*
X136812489Y-113187017D01*
X136801006Y-113183940D01*
X136672475Y-113149500D01*
X136527525Y-113149500D01*
X136398993Y-113183940D01*
X136387511Y-113187017D01*
X136278348Y-113250042D01*
X136278342Y-113250046D01*
X136261985Y-113259491D01*
X136181844Y-113339631D01*
X136181831Y-113339644D01*
X136159491Y-113361985D01*
X136159488Y-113361988D01*
X136087017Y-113487511D01*
X136087016Y-113487515D01*
X136049500Y-113627525D01*
X135250500Y-113627525D01*
X135212984Y-113487515D01*
X135198886Y-113463097D01*
X135140511Y-113361988D01*
X135140506Y-113361982D01*
X135038017Y-113259493D01*
X135038011Y-113259488D01*
X134912488Y-113187017D01*
X134912489Y-113187017D01*
X134901006Y-113183940D01*
X134772475Y-113149500D01*
X134627525Y-113149500D01*
X134498993Y-113183940D01*
X134487511Y-113187017D01*
X134361988Y-113259488D01*
X134361982Y-113259493D01*
X134259493Y-113361982D01*
X134259488Y-113361988D01*
X134187017Y-113487511D01*
X134187016Y-113487515D01*
X134149500Y-113627525D01*
X118448325Y-113627525D01*
X118510083Y-113582655D01*
X118682655Y-113410083D01*
X118826106Y-113212639D01*
X118936904Y-112995185D01*
X119012321Y-112763076D01*
X119033791Y-112627525D01*
X135149500Y-112627525D01*
X135149500Y-112772475D01*
X135179540Y-112884584D01*
X135187017Y-112912488D01*
X135259488Y-113038011D01*
X135259490Y-113038013D01*
X135259491Y-113038015D01*
X135361985Y-113140509D01*
X135361986Y-113140510D01*
X135361988Y-113140511D01*
X135487511Y-113212982D01*
X135487512Y-113212982D01*
X135487515Y-113212984D01*
X135627525Y-113250500D01*
X135627528Y-113250500D01*
X135772472Y-113250500D01*
X135772475Y-113250500D01*
X135912485Y-113212984D01*
X136038015Y-113140509D01*
X136140509Y-113038015D01*
X136212984Y-112912485D01*
X136250500Y-112772475D01*
X136250500Y-112627525D01*
X137049500Y-112627525D01*
X137049500Y-112772475D01*
X137079540Y-112884584D01*
X137087017Y-112912488D01*
X137159488Y-113038011D01*
X137159490Y-113038013D01*
X137159491Y-113038015D01*
X137261985Y-113140509D01*
X137261986Y-113140510D01*
X137261988Y-113140511D01*
X137387511Y-113212982D01*
X137387512Y-113212982D01*
X137387515Y-113212984D01*
X137527525Y-113250500D01*
X137527528Y-113250500D01*
X137672472Y-113250500D01*
X137672475Y-113250500D01*
X137812485Y-113212984D01*
X137938015Y-113140509D01*
X138040509Y-113038015D01*
X138112984Y-112912485D01*
X138150500Y-112772475D01*
X138150500Y-112627525D01*
X138112984Y-112487515D01*
X138040509Y-112361985D01*
X137938015Y-112259491D01*
X137938013Y-112259490D01*
X137938011Y-112259488D01*
X137812488Y-112187017D01*
X137812489Y-112187017D01*
X137801006Y-112183940D01*
X137672475Y-112149500D01*
X137527525Y-112149500D01*
X137398993Y-112183940D01*
X137387511Y-112187017D01*
X137261988Y-112259488D01*
X137261982Y-112259493D01*
X137159493Y-112361982D01*
X137159488Y-112361988D01*
X137087017Y-112487511D01*
X137087016Y-112487515D01*
X137049500Y-112627525D01*
X136250500Y-112627525D01*
X136212984Y-112487515D01*
X136140509Y-112361985D01*
X136038015Y-112259491D01*
X136021651Y-112250043D01*
X136021650Y-112250042D01*
X135912488Y-112187017D01*
X135912489Y-112187017D01*
X135901006Y-112183940D01*
X135772475Y-112149500D01*
X135627525Y-112149500D01*
X135498993Y-112183940D01*
X135487511Y-112187017D01*
X135361988Y-112259488D01*
X135361982Y-112259493D01*
X135259493Y-112361982D01*
X135259488Y-112361988D01*
X135187017Y-112487511D01*
X135187016Y-112487515D01*
X135149500Y-112627525D01*
X119033791Y-112627525D01*
X119050500Y-112522027D01*
X119050500Y-112277973D01*
X119012321Y-112036924D01*
X118936904Y-111804815D01*
X118826106Y-111587361D01*
X118720848Y-111442485D01*
X118682660Y-111389923D01*
X118682656Y-111389918D01*
X118510081Y-111217343D01*
X118510076Y-111217339D01*
X118427748Y-111157525D01*
X126299500Y-111157525D01*
X126299500Y-111302475D01*
X126337016Y-111442485D01*
X126337017Y-111442488D01*
X126409488Y-111568011D01*
X126409490Y-111568013D01*
X126409491Y-111568015D01*
X126511985Y-111670509D01*
X126511986Y-111670510D01*
X126511988Y-111670511D01*
X126637511Y-111742982D01*
X126637512Y-111742982D01*
X126637515Y-111742984D01*
X126777525Y-111780500D01*
X126777528Y-111780500D01*
X126922472Y-111780500D01*
X126922475Y-111780500D01*
X127062485Y-111742984D01*
X127188015Y-111670509D01*
X127230999Y-111627525D01*
X136049500Y-111627525D01*
X136049500Y-111772475D01*
X136058165Y-111804812D01*
X136087017Y-111912488D01*
X136159488Y-112038011D01*
X136159490Y-112038013D01*
X136159491Y-112038015D01*
X136261985Y-112140509D01*
X136387515Y-112212984D01*
X136527525Y-112250500D01*
X136527528Y-112250500D01*
X136672472Y-112250500D01*
X136672475Y-112250500D01*
X136812485Y-112212984D01*
X136938015Y-112140509D01*
X137040509Y-112038015D01*
X137112984Y-111912485D01*
X137150500Y-111772475D01*
X137150500Y-111627525D01*
X137112984Y-111487515D01*
X137091613Y-111450500D01*
X137040511Y-111361988D01*
X137040506Y-111361982D01*
X136938017Y-111259493D01*
X136938011Y-111259488D01*
X136812488Y-111187017D01*
X136812489Y-111187017D01*
X136801006Y-111183940D01*
X136672475Y-111149500D01*
X136527525Y-111149500D01*
X136398993Y-111183940D01*
X136387511Y-111187017D01*
X136261988Y-111259488D01*
X136261982Y-111259493D01*
X136159493Y-111361982D01*
X136159488Y-111361988D01*
X136087017Y-111487511D01*
X136087016Y-111487515D01*
X136049500Y-111627525D01*
X127230999Y-111627525D01*
X127290509Y-111568015D01*
X127362984Y-111442485D01*
X127400500Y-111302475D01*
X127400500Y-111157525D01*
X127362984Y-111017515D01*
X127296565Y-110902475D01*
X127290511Y-110891988D01*
X127290506Y-110891982D01*
X127188017Y-110789493D01*
X127188011Y-110789488D01*
X127132650Y-110757525D01*
X143499500Y-110757525D01*
X143499500Y-110902475D01*
X143537016Y-111042485D01*
X143537017Y-111042488D01*
X143609488Y-111168011D01*
X143609490Y-111168013D01*
X143609491Y-111168015D01*
X143711985Y-111270509D01*
X143711986Y-111270510D01*
X143711988Y-111270511D01*
X143837511Y-111342982D01*
X143837512Y-111342982D01*
X143837515Y-111342984D01*
X143977525Y-111380500D01*
X143977528Y-111380500D01*
X144122472Y-111380500D01*
X144122475Y-111380500D01*
X144262485Y-111342984D01*
X144388015Y-111270509D01*
X144490509Y-111168015D01*
X144562984Y-111042485D01*
X144600500Y-110902475D01*
X144600500Y-110757525D01*
X144562984Y-110617515D01*
X144490509Y-110491985D01*
X144388015Y-110389491D01*
X144388013Y-110389490D01*
X144388011Y-110389488D01*
X144262488Y-110317017D01*
X144262489Y-110317017D01*
X144251006Y-110313940D01*
X144122475Y-110279500D01*
X143977525Y-110279500D01*
X143848993Y-110313940D01*
X143837511Y-110317017D01*
X143711988Y-110389488D01*
X143711982Y-110389493D01*
X143609493Y-110491982D01*
X143609488Y-110491988D01*
X143537017Y-110617511D01*
X143537016Y-110617515D01*
X143499500Y-110757525D01*
X127132650Y-110757525D01*
X127062488Y-110717017D01*
X127062489Y-110717017D01*
X127046150Y-110712639D01*
X126922475Y-110679500D01*
X126777525Y-110679500D01*
X126653850Y-110712639D01*
X126637511Y-110717017D01*
X126511988Y-110789488D01*
X126511982Y-110789493D01*
X126409493Y-110891982D01*
X126409488Y-110891988D01*
X126337017Y-111017511D01*
X126337016Y-111017515D01*
X126299500Y-111157525D01*
X118427748Y-111157525D01*
X118312642Y-111073896D01*
X118312641Y-111073895D01*
X118312639Y-111073894D01*
X118095185Y-110963096D01*
X117863076Y-110887679D01*
X117863074Y-110887678D01*
X117863072Y-110887678D01*
X117694769Y-110861021D01*
X117622027Y-110849500D01*
X117377973Y-110849500D01*
X117322093Y-110858350D01*
X117136927Y-110887678D01*
X116904812Y-110963097D01*
X116687357Y-111073896D01*
X116489923Y-111217339D01*
X116489918Y-111217343D01*
X116317343Y-111389918D01*
X116317339Y-111389923D01*
X116173896Y-111587357D01*
X116063097Y-111804812D01*
X115987678Y-112036927D01*
X115983970Y-112060340D01*
X115949500Y-112277973D01*
X101300500Y-112277973D01*
X101300500Y-109777973D01*
X103449500Y-109777973D01*
X103449500Y-110022027D01*
X103487679Y-110263076D01*
X103562057Y-110491988D01*
X103563097Y-110495187D01*
X103673896Y-110712642D01*
X103817339Y-110910076D01*
X103817343Y-110910081D01*
X103989918Y-111082656D01*
X103989923Y-111082660D01*
X104107400Y-111168011D01*
X104187361Y-111226106D01*
X104404815Y-111336904D01*
X104636924Y-111412321D01*
X104877973Y-111450500D01*
X104877974Y-111450500D01*
X105122026Y-111450500D01*
X105122027Y-111450500D01*
X105363076Y-111412321D01*
X105595185Y-111336904D01*
X105812639Y-111226106D01*
X106010083Y-111082655D01*
X106182655Y-110910083D01*
X106326106Y-110712639D01*
X106436904Y-110495185D01*
X106512321Y-110263076D01*
X106550500Y-110022027D01*
X106550500Y-109777973D01*
X106512321Y-109536924D01*
X106436904Y-109304815D01*
X106336380Y-109107525D01*
X140199500Y-109107525D01*
X140199500Y-109252475D01*
X140213524Y-109304812D01*
X140237017Y-109392488D01*
X140309488Y-109518011D01*
X140309490Y-109518013D01*
X140309491Y-109518015D01*
X140411985Y-109620509D01*
X140411986Y-109620510D01*
X140411988Y-109620511D01*
X140537511Y-109692982D01*
X140537512Y-109692982D01*
X140537515Y-109692984D01*
X140677525Y-109730500D01*
X140677528Y-109730500D01*
X140822472Y-109730500D01*
X140822475Y-109730500D01*
X140962485Y-109692984D01*
X141088015Y-109620509D01*
X141190509Y-109518015D01*
X141262984Y-109392485D01*
X141300500Y-109252475D01*
X141300500Y-109107525D01*
X141262984Y-108967515D01*
X141253160Y-108950500D01*
X141190511Y-108841988D01*
X141190506Y-108841982D01*
X141088017Y-108739493D01*
X141088011Y-108739488D01*
X140962488Y-108667017D01*
X140962489Y-108667017D01*
X140951006Y-108663940D01*
X140822475Y-108629500D01*
X140677525Y-108629500D01*
X140548993Y-108663940D01*
X140537511Y-108667017D01*
X140411988Y-108739488D01*
X140411982Y-108739493D01*
X140309493Y-108841982D01*
X140309488Y-108841988D01*
X140237017Y-108967511D01*
X140237016Y-108967515D01*
X140199500Y-109107525D01*
X106336380Y-109107525D01*
X106326106Y-109087361D01*
X106239033Y-108967515D01*
X106182660Y-108889923D01*
X106182656Y-108889918D01*
X106010081Y-108717343D01*
X106010076Y-108717339D01*
X105812642Y-108573896D01*
X105812641Y-108573895D01*
X105812639Y-108573894D01*
X105595185Y-108463096D01*
X105363076Y-108387679D01*
X105363074Y-108387678D01*
X105363072Y-108387678D01*
X105194769Y-108361021D01*
X105122027Y-108349500D01*
X104877973Y-108349500D01*
X104822093Y-108358350D01*
X104636927Y-108387678D01*
X104404812Y-108463097D01*
X104187357Y-108573896D01*
X103989923Y-108717339D01*
X103989918Y-108717343D01*
X103817343Y-108889918D01*
X103817339Y-108889923D01*
X103673896Y-109087357D01*
X103563097Y-109304812D01*
X103487678Y-109536927D01*
X103474440Y-109620509D01*
X103449500Y-109777973D01*
X101300500Y-109777973D01*
X101300500Y-107277973D01*
X113449500Y-107277973D01*
X113449500Y-107522026D01*
X113468265Y-107640506D01*
X113487679Y-107763076D01*
X113563096Y-107995185D01*
X113632042Y-108130500D01*
X113673896Y-108212642D01*
X113817339Y-108410076D01*
X113817343Y-108410081D01*
X113989918Y-108582656D01*
X113989923Y-108582660D01*
X114162136Y-108707779D01*
X114187361Y-108726106D01*
X114404815Y-108836904D01*
X114636924Y-108912321D01*
X114877973Y-108950500D01*
X114877974Y-108950500D01*
X115122026Y-108950500D01*
X115122027Y-108950500D01*
X115363076Y-108912321D01*
X115595185Y-108836904D01*
X115812639Y-108726106D01*
X116010083Y-108582655D01*
X116182655Y-108410083D01*
X116326106Y-108212639D01*
X116436904Y-107995185D01*
X116512321Y-107763076D01*
X116550500Y-107522027D01*
X116550500Y-107277973D01*
X116526671Y-107127525D01*
X133849500Y-107127525D01*
X133849500Y-107272475D01*
X133887016Y-107412485D01*
X133887017Y-107412488D01*
X133959488Y-107538011D01*
X133959490Y-107538013D01*
X133959491Y-107538015D01*
X134061985Y-107640509D01*
X134061986Y-107640510D01*
X134061988Y-107640511D01*
X134187511Y-107712982D01*
X134187512Y-107712982D01*
X134187515Y-107712984D01*
X134327525Y-107750500D01*
X134327528Y-107750500D01*
X134472472Y-107750500D01*
X134472475Y-107750500D01*
X134612485Y-107712984D01*
X134738015Y-107640509D01*
X134840509Y-107538015D01*
X134858112Y-107507525D01*
X137049500Y-107507525D01*
X137049500Y-107652475D01*
X137065714Y-107712984D01*
X137087017Y-107792488D01*
X137159488Y-107918011D01*
X137159490Y-107918013D01*
X137159491Y-107918015D01*
X137261985Y-108020509D01*
X137261986Y-108020510D01*
X137261988Y-108020511D01*
X137387511Y-108092982D01*
X137387512Y-108092982D01*
X137387515Y-108092984D01*
X137527525Y-108130500D01*
X137527528Y-108130500D01*
X137672472Y-108130500D01*
X137672475Y-108130500D01*
X137812485Y-108092984D01*
X137938015Y-108020509D01*
X138040509Y-107918015D01*
X138112984Y-107792485D01*
X138150500Y-107652475D01*
X138150500Y-107507525D01*
X138112984Y-107367515D01*
X138061287Y-107277974D01*
X138040511Y-107241988D01*
X138040506Y-107241982D01*
X137938017Y-107139493D01*
X137938011Y-107139488D01*
X137917291Y-107127525D01*
X139849500Y-107127525D01*
X139849500Y-107272475D01*
X139887016Y-107412485D01*
X139887017Y-107412488D01*
X139959488Y-107538011D01*
X139959490Y-107538013D01*
X139959491Y-107538015D01*
X140061985Y-107640509D01*
X140061986Y-107640510D01*
X140061988Y-107640511D01*
X140187511Y-107712982D01*
X140187512Y-107712982D01*
X140187515Y-107712984D01*
X140327525Y-107750500D01*
X140327528Y-107750500D01*
X140472472Y-107750500D01*
X140472475Y-107750500D01*
X140612485Y-107712984D01*
X140738015Y-107640509D01*
X140840509Y-107538015D01*
X140912984Y-107412485D01*
X140950500Y-107272475D01*
X140950500Y-107127525D01*
X140912984Y-106987515D01*
X140840509Y-106861985D01*
X140738015Y-106759491D01*
X140738013Y-106759490D01*
X140738011Y-106759488D01*
X140612488Y-106687017D01*
X140612489Y-106687017D01*
X140601006Y-106683940D01*
X140472475Y-106649500D01*
X140327525Y-106649500D01*
X140198993Y-106683940D01*
X140187511Y-106687017D01*
X140061988Y-106759488D01*
X140061982Y-106759493D01*
X139959493Y-106861982D01*
X139959488Y-106861988D01*
X139887017Y-106987511D01*
X139887016Y-106987515D01*
X139849500Y-107127525D01*
X137917291Y-107127525D01*
X137812488Y-107067017D01*
X137812489Y-107067017D01*
X137801006Y-107063940D01*
X137672475Y-107029500D01*
X137527525Y-107029500D01*
X137398993Y-107063940D01*
X137387511Y-107067017D01*
X137261988Y-107139488D01*
X137261982Y-107139493D01*
X137159493Y-107241982D01*
X137159488Y-107241988D01*
X137087017Y-107367511D01*
X137087016Y-107367515D01*
X137049500Y-107507525D01*
X134858112Y-107507525D01*
X134912984Y-107412485D01*
X134950500Y-107272475D01*
X134950500Y-107127525D01*
X134912984Y-106987515D01*
X134840509Y-106861985D01*
X134738015Y-106759491D01*
X134738013Y-106759490D01*
X134738011Y-106759488D01*
X134612488Y-106687017D01*
X134612489Y-106687017D01*
X134601006Y-106683940D01*
X134472475Y-106649500D01*
X134327525Y-106649500D01*
X134198993Y-106683940D01*
X134187511Y-106687017D01*
X134061988Y-106759488D01*
X134061982Y-106759493D01*
X133959493Y-106861982D01*
X133959488Y-106861988D01*
X133887017Y-106987511D01*
X133887016Y-106987515D01*
X133849500Y-107127525D01*
X116526671Y-107127525D01*
X116512321Y-107036924D01*
X116436904Y-106804815D01*
X116326106Y-106587361D01*
X116241210Y-106470511D01*
X116182660Y-106389923D01*
X116182656Y-106389918D01*
X116010081Y-106217343D01*
X116010076Y-106217339D01*
X115812642Y-106073896D01*
X115812641Y-106073895D01*
X115812639Y-106073894D01*
X115595185Y-105963096D01*
X115578039Y-105957525D01*
X140899500Y-105957525D01*
X140899500Y-106102475D01*
X140932627Y-106226106D01*
X140937017Y-106242488D01*
X141009488Y-106368011D01*
X141009490Y-106368013D01*
X141009491Y-106368015D01*
X141111985Y-106470509D01*
X141111986Y-106470510D01*
X141111988Y-106470511D01*
X141237511Y-106542982D01*
X141237512Y-106542982D01*
X141237515Y-106542984D01*
X141377525Y-106580500D01*
X141377528Y-106580500D01*
X141522472Y-106580500D01*
X141522475Y-106580500D01*
X141662485Y-106542984D01*
X141788015Y-106470509D01*
X141890509Y-106368015D01*
X141962984Y-106242485D01*
X142000500Y-106102475D01*
X142000500Y-105957525D01*
X141962984Y-105817515D01*
X141925431Y-105752472D01*
X141890511Y-105691988D01*
X141890506Y-105691982D01*
X141806049Y-105607525D01*
X145449500Y-105607525D01*
X145449500Y-105752475D01*
X145466927Y-105817511D01*
X145487017Y-105892488D01*
X145559488Y-106018011D01*
X145559490Y-106018013D01*
X145559491Y-106018015D01*
X145661985Y-106120509D01*
X145661986Y-106120510D01*
X145661988Y-106120511D01*
X145787511Y-106192982D01*
X145787512Y-106192982D01*
X145787515Y-106192984D01*
X145927525Y-106230500D01*
X145927528Y-106230500D01*
X146072472Y-106230500D01*
X146072475Y-106230500D01*
X146212485Y-106192984D01*
X146338015Y-106120509D01*
X146440509Y-106018015D01*
X146512984Y-105892485D01*
X146550500Y-105752475D01*
X146550500Y-105607525D01*
X146512984Y-105467515D01*
X146440509Y-105341985D01*
X146338015Y-105239491D01*
X146338013Y-105239490D01*
X146338011Y-105239488D01*
X146212488Y-105167017D01*
X146212489Y-105167017D01*
X146201006Y-105163940D01*
X146072475Y-105129500D01*
X145927525Y-105129500D01*
X145798993Y-105163940D01*
X145787511Y-105167017D01*
X145661988Y-105239488D01*
X145661982Y-105239493D01*
X145559493Y-105341982D01*
X145559488Y-105341988D01*
X145487017Y-105467511D01*
X145487016Y-105467515D01*
X145449500Y-105607525D01*
X141806049Y-105607525D01*
X141788017Y-105589493D01*
X141788011Y-105589488D01*
X141662488Y-105517017D01*
X141662489Y-105517017D01*
X141651006Y-105513940D01*
X141522475Y-105479500D01*
X141377525Y-105479500D01*
X141248993Y-105513940D01*
X141237511Y-105517017D01*
X141111988Y-105589488D01*
X141111982Y-105589493D01*
X141009493Y-105691982D01*
X141009488Y-105691988D01*
X140937017Y-105817511D01*
X140937016Y-105817515D01*
X140899500Y-105957525D01*
X115578039Y-105957525D01*
X115363076Y-105887679D01*
X115363074Y-105887678D01*
X115363072Y-105887678D01*
X115194769Y-105861021D01*
X115122027Y-105849500D01*
X114877973Y-105849500D01*
X114822093Y-105858350D01*
X114636927Y-105887678D01*
X114404812Y-105963097D01*
X114187357Y-106073896D01*
X113989923Y-106217339D01*
X113989918Y-106217343D01*
X113817343Y-106389918D01*
X113817339Y-106389923D01*
X113673896Y-106587357D01*
X113563097Y-106804812D01*
X113487678Y-107036927D01*
X113449500Y-107277973D01*
X101300500Y-107277973D01*
X101300500Y-104777973D01*
X103449500Y-104777973D01*
X103449500Y-105022026D01*
X103483943Y-105239493D01*
X103487679Y-105263076D01*
X103563096Y-105495185D01*
X103663370Y-105691985D01*
X103673896Y-105712642D01*
X103817339Y-105910076D01*
X103817343Y-105910081D01*
X103989918Y-106082656D01*
X103989923Y-106082660D01*
X104141772Y-106192984D01*
X104187361Y-106226106D01*
X104404815Y-106336904D01*
X104636924Y-106412321D01*
X104877973Y-106450500D01*
X104877974Y-106450500D01*
X105122026Y-106450500D01*
X105122027Y-106450500D01*
X105363076Y-106412321D01*
X105595185Y-106336904D01*
X105812639Y-106226106D01*
X106010083Y-106082655D01*
X106182655Y-105910083D01*
X106326106Y-105712639D01*
X106436904Y-105495185D01*
X106512321Y-105263076D01*
X106550500Y-105022027D01*
X106550500Y-104777973D01*
X106512321Y-104536924D01*
X106436904Y-104304815D01*
X106326106Y-104087361D01*
X106226671Y-103950500D01*
X106182660Y-103889923D01*
X106182656Y-103889918D01*
X106010081Y-103717343D01*
X106010076Y-103717339D01*
X105812642Y-103573896D01*
X105812641Y-103573895D01*
X105812639Y-103573894D01*
X105595185Y-103463096D01*
X105363076Y-103387679D01*
X105363074Y-103387678D01*
X105363072Y-103387678D01*
X105194769Y-103361021D01*
X105122027Y-103349500D01*
X104877973Y-103349500D01*
X104822093Y-103358350D01*
X104636927Y-103387678D01*
X104404812Y-103463097D01*
X104187357Y-103573896D01*
X103989923Y-103717339D01*
X103989918Y-103717343D01*
X103817343Y-103889918D01*
X103817339Y-103889923D01*
X103673896Y-104087357D01*
X103563097Y-104304812D01*
X103487678Y-104536927D01*
X103449500Y-104777973D01*
X101300500Y-104777973D01*
X101300500Y-102277973D01*
X115949500Y-102277973D01*
X115949500Y-102522026D01*
X115987678Y-102763072D01*
X116063097Y-102995187D01*
X116173896Y-103212642D01*
X116317339Y-103410076D01*
X116317343Y-103410081D01*
X116489918Y-103582656D01*
X116489923Y-103582660D01*
X116662136Y-103707779D01*
X116687361Y-103726106D01*
X116904815Y-103836904D01*
X117136924Y-103912321D01*
X117377973Y-103950500D01*
X117377974Y-103950500D01*
X117622026Y-103950500D01*
X117622027Y-103950500D01*
X117863076Y-103912321D01*
X118095185Y-103836904D01*
X118312639Y-103726106D01*
X118510083Y-103582655D01*
X118682655Y-103410083D01*
X118826106Y-103212639D01*
X118936904Y-102995185D01*
X119012321Y-102763076D01*
X119050500Y-102522027D01*
X119050500Y-102277973D01*
X119012321Y-102036924D01*
X118936904Y-101804815D01*
X118826106Y-101587361D01*
X118807779Y-101562136D01*
X118682660Y-101389923D01*
X118682656Y-101389918D01*
X118510081Y-101217343D01*
X118510076Y-101217339D01*
X118312642Y-101073896D01*
X118312641Y-101073895D01*
X118312639Y-101073894D01*
X118095185Y-100963096D01*
X117863076Y-100887679D01*
X117863074Y-100887678D01*
X117863072Y-100887678D01*
X117694769Y-100861021D01*
X117622027Y-100849500D01*
X117377973Y-100849500D01*
X117322093Y-100858350D01*
X117136927Y-100887678D01*
X116904812Y-100963097D01*
X116687357Y-101073896D01*
X116489923Y-101217339D01*
X116489918Y-101217343D01*
X116317343Y-101389918D01*
X116317339Y-101389923D01*
X116173896Y-101587357D01*
X116063097Y-101804812D01*
X115987678Y-102036927D01*
X115949500Y-102277973D01*
X101300500Y-102277973D01*
X101300500Y-100003480D01*
X101300695Y-99996528D01*
X101308599Y-99855778D01*
X101313663Y-99765602D01*
X107949500Y-99765602D01*
X107949500Y-100034397D01*
X107984582Y-100300880D01*
X107984583Y-100300885D01*
X107984584Y-100300891D01*
X107984585Y-100300893D01*
X108054152Y-100560524D01*
X108157011Y-100808850D01*
X108157019Y-100808866D01*
X108215458Y-100910083D01*
X108291413Y-101041641D01*
X108291415Y-101041644D01*
X108291416Y-101041645D01*
X108455042Y-101254888D01*
X108455048Y-101254895D01*
X108645104Y-101444951D01*
X108645111Y-101444957D01*
X108656908Y-101454009D01*
X108858359Y-101608587D01*
X109007968Y-101694964D01*
X109091133Y-101742980D01*
X109091149Y-101742988D01*
X109240407Y-101804812D01*
X109339474Y-101845847D01*
X109599109Y-101915416D01*
X109787319Y-101940193D01*
X109865602Y-101950500D01*
X109865603Y-101950500D01*
X110134398Y-101950500D01*
X110194905Y-101942534D01*
X110400891Y-101915416D01*
X110660526Y-101845847D01*
X110847457Y-101768417D01*
X110908850Y-101742988D01*
X110908853Y-101742986D01*
X110908859Y-101742984D01*
X111141641Y-101608587D01*
X111354890Y-101444956D01*
X111544956Y-101254890D01*
X111708587Y-101041641D01*
X111842984Y-100808859D01*
X111945847Y-100560526D01*
X112015416Y-100300891D01*
X112050500Y-100034397D01*
X112050500Y-99777973D01*
X113449500Y-99777973D01*
X113449500Y-100022027D01*
X113487679Y-100263076D01*
X113563096Y-100495185D01*
X113671960Y-100708844D01*
X113673896Y-100712642D01*
X113817339Y-100910076D01*
X113817343Y-100910081D01*
X113989918Y-101082656D01*
X113989923Y-101082660D01*
X114162136Y-101207779D01*
X114187361Y-101226106D01*
X114404815Y-101336904D01*
X114636924Y-101412321D01*
X114877973Y-101450500D01*
X114877974Y-101450500D01*
X115122026Y-101450500D01*
X115122027Y-101450500D01*
X115363076Y-101412321D01*
X115595185Y-101336904D01*
X115812639Y-101226106D01*
X116010083Y-101082655D01*
X116182655Y-100910083D01*
X116326106Y-100712639D01*
X116436904Y-100495185D01*
X116512321Y-100263076D01*
X116550500Y-100022027D01*
X116550500Y-99855778D01*
X121799500Y-99855778D01*
X121799500Y-100144221D01*
X121799501Y-100144238D01*
X121837149Y-100430206D01*
X121837150Y-100430211D01*
X121837151Y-100430217D01*
X121854560Y-100495187D01*
X121911809Y-100708844D01*
X121911814Y-100708860D01*
X122022191Y-100975336D01*
X122022199Y-100975352D01*
X122166420Y-101225148D01*
X122166431Y-101225164D01*
X122342024Y-101454002D01*
X122342030Y-101454009D01*
X122545990Y-101657969D01*
X122545997Y-101657975D01*
X122708953Y-101783015D01*
X122774844Y-101833575D01*
X122774851Y-101833579D01*
X123024647Y-101977800D01*
X123024663Y-101977808D01*
X123291139Y-102088185D01*
X123291145Y-102088186D01*
X123291155Y-102088191D01*
X123569783Y-102162849D01*
X123855772Y-102200500D01*
X123855779Y-102200500D01*
X124144221Y-102200500D01*
X124144228Y-102200500D01*
X124430217Y-102162849D01*
X124708845Y-102088191D01*
X124708857Y-102088185D01*
X124708860Y-102088185D01*
X124975336Y-101977808D01*
X124975339Y-101977806D01*
X124975345Y-101977804D01*
X125225156Y-101833575D01*
X125454004Y-101657974D01*
X125657974Y-101454004D01*
X125833575Y-101225156D01*
X125977804Y-100975345D01*
X125982878Y-100963097D01*
X126088185Y-100708860D01*
X126088185Y-100708857D01*
X126088191Y-100708845D01*
X126162849Y-100430217D01*
X126200500Y-100144228D01*
X126200500Y-99855778D01*
X146799500Y-99855778D01*
X146799500Y-100144221D01*
X146799501Y-100144238D01*
X146837149Y-100430206D01*
X146837150Y-100430211D01*
X146837151Y-100430217D01*
X146854560Y-100495187D01*
X146911809Y-100708844D01*
X146911814Y-100708860D01*
X147022191Y-100975336D01*
X147022199Y-100975352D01*
X147166420Y-101225148D01*
X147166431Y-101225164D01*
X147342024Y-101454002D01*
X147342030Y-101454009D01*
X147545990Y-101657969D01*
X147545997Y-101657975D01*
X147708953Y-101783015D01*
X147774844Y-101833575D01*
X147774851Y-101833579D01*
X148024647Y-101977800D01*
X148024663Y-101977808D01*
X148291139Y-102088185D01*
X148291145Y-102088186D01*
X148291155Y-102088191D01*
X148569783Y-102162849D01*
X148855772Y-102200500D01*
X148855779Y-102200500D01*
X149144221Y-102200500D01*
X149144228Y-102200500D01*
X149430217Y-102162849D01*
X149708845Y-102088191D01*
X149708857Y-102088185D01*
X149708860Y-102088185D01*
X149975336Y-101977808D01*
X149975339Y-101977806D01*
X149975345Y-101977804D01*
X150225156Y-101833575D01*
X150454004Y-101657974D01*
X150657974Y-101454004D01*
X150833575Y-101225156D01*
X150977804Y-100975345D01*
X150982878Y-100963097D01*
X151088185Y-100708860D01*
X151088185Y-100708857D01*
X151088191Y-100708845D01*
X151162849Y-100430217D01*
X151200500Y-100144228D01*
X151200500Y-99855772D01*
X151162849Y-99569783D01*
X151088191Y-99291155D01*
X151088186Y-99291145D01*
X151088185Y-99291139D01*
X150977808Y-99024663D01*
X150977800Y-99024647D01*
X150833579Y-98774851D01*
X150833575Y-98774844D01*
X150761653Y-98681113D01*
X150657975Y-98545997D01*
X150657969Y-98545990D01*
X150454009Y-98342030D01*
X150454002Y-98342024D01*
X150225164Y-98166431D01*
X150225162Y-98166429D01*
X150225156Y-98166425D01*
X150225151Y-98166422D01*
X150225148Y-98166420D01*
X149975352Y-98022199D01*
X149975336Y-98022191D01*
X149708860Y-97911814D01*
X149708848Y-97911810D01*
X149708845Y-97911809D01*
X149430217Y-97837151D01*
X149430211Y-97837150D01*
X149430206Y-97837149D01*
X149144238Y-97799501D01*
X149144233Y-97799500D01*
X149144228Y-97799500D01*
X148855772Y-97799500D01*
X148855766Y-97799500D01*
X148855761Y-97799501D01*
X148569793Y-97837149D01*
X148569786Y-97837150D01*
X148569783Y-97837151D01*
X148392757Y-97884585D01*
X148291155Y-97911809D01*
X148291139Y-97911814D01*
X148024663Y-98022191D01*
X148024647Y-98022199D01*
X147774851Y-98166420D01*
X147774835Y-98166431D01*
X147545997Y-98342024D01*
X147545990Y-98342030D01*
X147342030Y-98545990D01*
X147342024Y-98545997D01*
X147166431Y-98774835D01*
X147166420Y-98774851D01*
X147022199Y-99024647D01*
X147022191Y-99024663D01*
X146911814Y-99291139D01*
X146911809Y-99291155D01*
X146837152Y-99569780D01*
X146837149Y-99569793D01*
X146799501Y-99855761D01*
X146799500Y-99855778D01*
X126200500Y-99855778D01*
X126200500Y-99855772D01*
X126162849Y-99569783D01*
X126088191Y-99291155D01*
X126088186Y-99291145D01*
X126088185Y-99291139D01*
X125977808Y-99024663D01*
X125977800Y-99024647D01*
X125833579Y-98774851D01*
X125833575Y-98774844D01*
X125761653Y-98681113D01*
X125657975Y-98545997D01*
X125657969Y-98545990D01*
X125508132Y-98396153D01*
X142547698Y-98396153D01*
X142547698Y-98541103D01*
X142585214Y-98681113D01*
X142585215Y-98681116D01*
X142657686Y-98806639D01*
X142657688Y-98806641D01*
X142657689Y-98806643D01*
X142760183Y-98909137D01*
X142760184Y-98909138D01*
X142760186Y-98909139D01*
X142885709Y-98981610D01*
X142885710Y-98981610D01*
X142885713Y-98981612D01*
X143025723Y-99019128D01*
X143025726Y-99019128D01*
X143170670Y-99019128D01*
X143170673Y-99019128D01*
X143310683Y-98981612D01*
X143436213Y-98909137D01*
X143538707Y-98806643D01*
X143611182Y-98681113D01*
X143648698Y-98541103D01*
X143648698Y-98427525D01*
X144072854Y-98427525D01*
X144072854Y-98572475D01*
X144101964Y-98681113D01*
X144110371Y-98712488D01*
X144182842Y-98838011D01*
X144182844Y-98838013D01*
X144182845Y-98838015D01*
X144285339Y-98940509D01*
X144285340Y-98940510D01*
X144285342Y-98940511D01*
X144410865Y-99012982D01*
X144410866Y-99012982D01*
X144410869Y-99012984D01*
X144550879Y-99050500D01*
X144550882Y-99050500D01*
X144695826Y-99050500D01*
X144695829Y-99050500D01*
X144835839Y-99012984D01*
X144961369Y-98940509D01*
X145063863Y-98838015D01*
X145136338Y-98712485D01*
X145173854Y-98572475D01*
X145173854Y-98427525D01*
X145136338Y-98287515D01*
X145118225Y-98256143D01*
X145063865Y-98161988D01*
X145063860Y-98161982D01*
X144961371Y-98059493D01*
X144961365Y-98059488D01*
X144835842Y-97987017D01*
X144835843Y-97987017D01*
X144824360Y-97983940D01*
X144695829Y-97949500D01*
X144550879Y-97949500D01*
X144422347Y-97983940D01*
X144410865Y-97987017D01*
X144285342Y-98059488D01*
X144285336Y-98059493D01*
X144182847Y-98161982D01*
X144182842Y-98161988D01*
X144110371Y-98287511D01*
X144110370Y-98287515D01*
X144072854Y-98427525D01*
X143648698Y-98427525D01*
X143648698Y-98396153D01*
X143611182Y-98256143D01*
X143559380Y-98166420D01*
X143538709Y-98130616D01*
X143538704Y-98130610D01*
X143436215Y-98028121D01*
X143436209Y-98028116D01*
X143310686Y-97955645D01*
X143310687Y-97955645D01*
X143299204Y-97952568D01*
X143170673Y-97918128D01*
X143025723Y-97918128D01*
X142897191Y-97952568D01*
X142885709Y-97955645D01*
X142760186Y-98028116D01*
X142760180Y-98028121D01*
X142657691Y-98130610D01*
X142657686Y-98130616D01*
X142585215Y-98256139D01*
X142585214Y-98256143D01*
X142547698Y-98396153D01*
X125508132Y-98396153D01*
X125454009Y-98342030D01*
X125454002Y-98342024D01*
X125225164Y-98166431D01*
X125225162Y-98166429D01*
X125225156Y-98166425D01*
X125225151Y-98166422D01*
X125225148Y-98166420D01*
X124975352Y-98022199D01*
X124975336Y-98022191D01*
X124708860Y-97911814D01*
X124708848Y-97911810D01*
X124708845Y-97911809D01*
X124430217Y-97837151D01*
X124430211Y-97837150D01*
X124430206Y-97837149D01*
X124144238Y-97799501D01*
X124144233Y-97799500D01*
X124144228Y-97799500D01*
X123855772Y-97799500D01*
X123855766Y-97799500D01*
X123855761Y-97799501D01*
X123569793Y-97837149D01*
X123569786Y-97837150D01*
X123569783Y-97837151D01*
X123392757Y-97884585D01*
X123291155Y-97911809D01*
X123291139Y-97911814D01*
X123024663Y-98022191D01*
X123024647Y-98022199D01*
X122774851Y-98166420D01*
X122774835Y-98166431D01*
X122545997Y-98342024D01*
X122545990Y-98342030D01*
X122342030Y-98545990D01*
X122342024Y-98545997D01*
X122166431Y-98774835D01*
X122166420Y-98774851D01*
X122022199Y-99024647D01*
X122022191Y-99024663D01*
X121911814Y-99291139D01*
X121911809Y-99291155D01*
X121837152Y-99569780D01*
X121837149Y-99569793D01*
X121799501Y-99855761D01*
X121799500Y-99855778D01*
X116550500Y-99855778D01*
X116550500Y-99777973D01*
X116512321Y-99536924D01*
X116436904Y-99304815D01*
X116326106Y-99087361D01*
X116299325Y-99050500D01*
X116182660Y-98889923D01*
X116182656Y-98889918D01*
X116010081Y-98717343D01*
X116010076Y-98717339D01*
X115812642Y-98573896D01*
X115812641Y-98573895D01*
X115812639Y-98573894D01*
X115595185Y-98463096D01*
X115363076Y-98387679D01*
X115363074Y-98387678D01*
X115363072Y-98387678D01*
X115157055Y-98355048D01*
X115122027Y-98349500D01*
X114877973Y-98349500D01*
X114842983Y-98355042D01*
X114636927Y-98387678D01*
X114404812Y-98463097D01*
X114187357Y-98573896D01*
X113989923Y-98717339D01*
X113989918Y-98717343D01*
X113817343Y-98889918D01*
X113817339Y-98889923D01*
X113673896Y-99087357D01*
X113563097Y-99304812D01*
X113487678Y-99536927D01*
X113462206Y-99697752D01*
X113449500Y-99777973D01*
X112050500Y-99777973D01*
X112050500Y-99765603D01*
X112049050Y-99754592D01*
X112040193Y-99687319D01*
X112015416Y-99499109D01*
X111945847Y-99239474D01*
X111882838Y-99087357D01*
X111842988Y-98991149D01*
X111842980Y-98991133D01*
X111784542Y-98889917D01*
X111708587Y-98758359D01*
X111544956Y-98545110D01*
X111544951Y-98545104D01*
X111354895Y-98355048D01*
X111354888Y-98355042D01*
X111141645Y-98191416D01*
X111141644Y-98191415D01*
X111141641Y-98191413D01*
X111036327Y-98130610D01*
X110908866Y-98057019D01*
X110908850Y-98057011D01*
X110660524Y-97954152D01*
X110526079Y-97918128D01*
X110400891Y-97884584D01*
X110400885Y-97884583D01*
X110400880Y-97884582D01*
X110134398Y-97849500D01*
X110134397Y-97849500D01*
X109865603Y-97849500D01*
X109865602Y-97849500D01*
X109599119Y-97884582D01*
X109599112Y-97884583D01*
X109599109Y-97884584D01*
X109596008Y-97885415D01*
X109339475Y-97954152D01*
X109091149Y-98057011D01*
X109091133Y-98057019D01*
X108858354Y-98191416D01*
X108645111Y-98355042D01*
X108645104Y-98355048D01*
X108455048Y-98545104D01*
X108455042Y-98545111D01*
X108291416Y-98758354D01*
X108157019Y-98991133D01*
X108157011Y-98991149D01*
X108054152Y-99239475D01*
X107984585Y-99499106D01*
X107984582Y-99499119D01*
X107949500Y-99765602D01*
X101313663Y-99765602D01*
X101317084Y-99704689D01*
X101318638Y-99690898D01*
X101367015Y-99406167D01*
X101370109Y-99392615D01*
X101399340Y-99291155D01*
X101450061Y-99115096D01*
X101454653Y-99101975D01*
X101565175Y-98835151D01*
X101571195Y-98822651D01*
X101710902Y-98569868D01*
X101718297Y-98558100D01*
X101726885Y-98545997D01*
X101885422Y-98322559D01*
X101894077Y-98311705D01*
X102086534Y-98096346D01*
X102096346Y-98086534D01*
X102311705Y-97894077D01*
X102322559Y-97885422D01*
X102558105Y-97718293D01*
X102569868Y-97710902D01*
X102822651Y-97571195D01*
X102835151Y-97565175D01*
X103101979Y-97454651D01*
X103115096Y-97450061D01*
X103392621Y-97370107D01*
X103406167Y-97367015D01*
X103690898Y-97318638D01*
X103704691Y-97317084D01*
X103996528Y-97300695D01*
X104003481Y-97300500D01*
X104047595Y-97300500D01*
X148852405Y-97300500D01*
X148896519Y-97300500D01*
X148903472Y-97300695D01*
G37*
%TD.AperFunction*%
%TD*%
M02*
