%TF.GenerationSoftware,KiCad,Pcbnew,8.0.8*%
%TF.CreationDate,2025-04-07T17:04:07+02:00*%
%TF.ProjectId,Schematics_batterie,53636865-6d61-4746-9963-735f62617474,rev?*%
%TF.SameCoordinates,Original*%
%TF.FileFunction,Soldermask,Bot*%
%TF.FilePolarity,Negative*%
%FSLAX46Y46*%
G04 Gerber Fmt 4.6, Leading zero omitted, Abs format (unit mm)*
G04 Created by KiCad (PCBNEW 8.0.8) date 2025-04-07 17:04:07*
%MOMM*%
%LPD*%
G01*
G04 APERTURE LIST*
G04 Aperture macros list*
%AMRoundRect*
0 Rectangle with rounded corners*
0 $1 Rounding radius*
0 $2 $3 $4 $5 $6 $7 $8 $9 X,Y pos of 4 corners*
0 Add a 4 corners polygon primitive as box body*
4,1,4,$2,$3,$4,$5,$6,$7,$8,$9,$2,$3,0*
0 Add four circle primitives for the rounded corners*
1,1,$1+$1,$2,$3*
1,1,$1+$1,$4,$5*
1,1,$1+$1,$6,$7*
1,1,$1+$1,$8,$9*
0 Add four rect primitives between the rounded corners*
20,1,$1+$1,$2,$3,$4,$5,0*
20,1,$1+$1,$4,$5,$6,$7,0*
20,1,$1+$1,$6,$7,$8,$9,0*
20,1,$1+$1,$8,$9,$2,$3,0*%
G04 Aperture macros list end*
%ADD10C,0.650000*%
%ADD11O,1.000000X2.100000*%
%ADD12O,1.000000X1.600000*%
%ADD13C,0.800000*%
%ADD14C,6.400000*%
%ADD15RoundRect,0.250000X0.750000X-0.600000X0.750000X0.600000X-0.750000X0.600000X-0.750000X-0.600000X0*%
%ADD16O,2.000000X1.700000*%
G04 APERTURE END LIST*
D10*
%TO.C,J1*%
X126390000Y-51780000D03*
X120610000Y-51780000D03*
D11*
X127820000Y-52280000D03*
D12*
X127820000Y-48100000D03*
D11*
X119180000Y-52280000D03*
D12*
X119180000Y-48100000D03*
%TD*%
D13*
%TO.C,H4*%
X107600000Y-85000000D03*
X108302944Y-83302944D03*
X108302944Y-86697056D03*
X110000000Y-82600000D03*
D14*
X110000000Y-85000000D03*
D13*
X110000000Y-87400000D03*
X111697056Y-83302944D03*
X111697056Y-86697056D03*
X112400000Y-85000000D03*
%TD*%
D15*
%TO.C,J5*%
X146000000Y-70050000D03*
D16*
X146000000Y-67550000D03*
%TD*%
D13*
%TO.C,H3*%
X142600000Y-85000000D03*
X143302944Y-83302944D03*
X143302944Y-86697056D03*
X145000000Y-82600000D03*
D14*
X145000000Y-85000000D03*
D13*
X145000000Y-87400000D03*
X146697056Y-83302944D03*
X146697056Y-86697056D03*
X147400000Y-85000000D03*
%TD*%
%TO.C,H2*%
X107600000Y-50000000D03*
X108302944Y-48302944D03*
X108302944Y-51697056D03*
X110000000Y-47600000D03*
D14*
X110000000Y-50000000D03*
D13*
X110000000Y-52400000D03*
X111697056Y-48302944D03*
X111697056Y-51697056D03*
X112400000Y-50000000D03*
%TD*%
D15*
%TO.C,J2*%
X146075000Y-78600000D03*
D16*
X146075000Y-76100000D03*
%TD*%
D15*
%TO.C,J3*%
X146000000Y-61600000D03*
D16*
X146000000Y-59100000D03*
%TD*%
D13*
%TO.C,H1*%
X142600000Y-50000000D03*
X143302944Y-48302944D03*
X143302944Y-51697056D03*
X145000000Y-47600000D03*
D14*
X145000000Y-50000000D03*
D13*
X145000000Y-52400000D03*
X146697056Y-48302944D03*
X146697056Y-51697056D03*
X147400000Y-50000000D03*
%TD*%
M02*
