%TF.GenerationSoftware,KiCad,Pcbnew,8.0.8*%
%TF.CreationDate,2025-04-07T17:04:07+02:00*%
%TF.ProjectId,Schematics_batterie,53636865-6d61-4746-9963-735f62617474,rev?*%
%TF.SameCoordinates,Original*%
%TF.FileFunction,Soldermask,Top*%
%TF.FilePolarity,Negative*%
%FSLAX46Y46*%
G04 Gerber Fmt 4.6, Leading zero omitted, Abs format (unit mm)*
G04 Created by KiCad (PCBNEW 8.0.8) date 2025-04-07 17:04:07*
%MOMM*%
%LPD*%
G01*
G04 APERTURE LIST*
G04 Aperture macros list*
%AMRoundRect*
0 Rectangle with rounded corners*
0 $1 Rounding radius*
0 $2 $3 $4 $5 $6 $7 $8 $9 X,Y pos of 4 corners*
0 Add a 4 corners polygon primitive as box body*
4,1,4,$2,$3,$4,$5,$6,$7,$8,$9,$2,$3,0*
0 Add four circle primitives for the rounded corners*
1,1,$1+$1,$2,$3*
1,1,$1+$1,$4,$5*
1,1,$1+$1,$6,$7*
1,1,$1+$1,$8,$9*
0 Add four rect primitives between the rounded corners*
20,1,$1+$1,$2,$3,$4,$5,0*
20,1,$1+$1,$4,$5,$6,$7,0*
20,1,$1+$1,$6,$7,$8,$9,0*
20,1,$1+$1,$8,$9,$2,$3,0*%
%AMFreePoly0*
4,1,6,1.000000,0.000000,0.500000,-0.750000,-0.500000,-0.750000,-0.500000,0.750000,0.500000,0.750000,1.000000,0.000000,1.000000,0.000000,$1*%
%AMFreePoly1*
4,1,6,0.500000,-0.750000,-0.650000,-0.750000,-0.150000,0.000000,-0.650000,0.750000,0.500000,0.750000,0.500000,-0.750000,0.500000,-0.750000,$1*%
G04 Aperture macros list end*
%ADD10RoundRect,0.225000X0.250000X-0.225000X0.250000X0.225000X-0.250000X0.225000X-0.250000X-0.225000X0*%
%ADD11RoundRect,0.200000X-0.200000X-0.275000X0.200000X-0.275000X0.200000X0.275000X-0.200000X0.275000X0*%
%ADD12RoundRect,0.140000X0.140000X0.170000X-0.140000X0.170000X-0.140000X-0.170000X0.140000X-0.170000X0*%
%ADD13C,0.650000*%
%ADD14RoundRect,0.150000X0.150000X0.500000X-0.150000X0.500000X-0.150000X-0.500000X0.150000X-0.500000X0*%
%ADD15RoundRect,0.075000X0.075000X0.575000X-0.075000X0.575000X-0.075000X-0.575000X0.075000X-0.575000X0*%
%ADD16O,1.000000X2.100000*%
%ADD17O,1.000000X1.600000*%
%ADD18RoundRect,0.200000X0.275000X-0.200000X0.275000X0.200000X-0.275000X0.200000X-0.275000X-0.200000X0*%
%ADD19RoundRect,0.218750X0.218750X0.256250X-0.218750X0.256250X-0.218750X-0.256250X0.218750X-0.256250X0*%
%ADD20C,2.000000*%
%ADD21RoundRect,0.125000X0.125000X-0.625000X0.125000X0.625000X-0.125000X0.625000X-0.125000X-0.625000X0*%
%ADD22RoundRect,0.125000X0.625000X-0.125000X0.625000X0.125000X-0.625000X0.125000X-0.625000X-0.125000X0*%
%ADD23C,0.800000*%
%ADD24C,6.400000*%
%ADD25RoundRect,0.250000X0.750000X-0.600000X0.750000X0.600000X-0.750000X0.600000X-0.750000X-0.600000X0*%
%ADD26O,2.000000X1.700000*%
%ADD27RoundRect,0.225000X0.225000X0.250000X-0.225000X0.250000X-0.225000X-0.250000X0.225000X-0.250000X0*%
%ADD28RoundRect,0.225000X-0.225000X-0.250000X0.225000X-0.250000X0.225000X0.250000X-0.225000X0.250000X0*%
%ADD29FreePoly0,0.000000*%
%ADD30FreePoly1,0.000000*%
%ADD31RoundRect,0.200000X0.200000X0.275000X-0.200000X0.275000X-0.200000X-0.275000X0.200000X-0.275000X0*%
%ADD32RoundRect,0.225000X-0.250000X0.225000X-0.250000X-0.225000X0.250000X-0.225000X0.250000X0.225000X0*%
%ADD33RoundRect,0.200000X-0.275000X0.200000X-0.275000X-0.200000X0.275000X-0.200000X0.275000X0.200000X0*%
%ADD34RoundRect,0.150000X-0.150000X0.512500X-0.150000X-0.512500X0.150000X-0.512500X0.150000X0.512500X0*%
%ADD35RoundRect,0.150000X0.512500X0.150000X-0.512500X0.150000X-0.512500X-0.150000X0.512500X-0.150000X0*%
%ADD36RoundRect,0.140000X0.170000X-0.140000X0.170000X0.140000X-0.170000X0.140000X-0.170000X-0.140000X0*%
%ADD37RoundRect,0.062500X-0.350000X-0.062500X0.350000X-0.062500X0.350000X0.062500X-0.350000X0.062500X0*%
%ADD38R,0.850000X1.380000*%
%ADD39R,2.400000X0.740000*%
G04 APERTURE END LIST*
D10*
%TO.C,C2*%
X130700000Y-68550000D03*
X130700000Y-67000000D03*
%TD*%
D11*
%TO.C,R1*%
X131075000Y-60850000D03*
X132725000Y-60850000D03*
%TD*%
D12*
%TO.C,C10*%
X118560000Y-73800000D03*
X117600000Y-73800000D03*
%TD*%
D13*
%TO.C,J1*%
X126390000Y-51780000D03*
X120610000Y-51780000D03*
D14*
X126700000Y-52920000D03*
X125900000Y-52920000D03*
D15*
X124750000Y-52920000D03*
X123750000Y-52920000D03*
X123250000Y-52920000D03*
X122250000Y-52920000D03*
D14*
X121100000Y-52920000D03*
X120300000Y-52920000D03*
X120300000Y-52920000D03*
X121100000Y-52920000D03*
D15*
X121750000Y-52920000D03*
X122750000Y-52920000D03*
X124250000Y-52920000D03*
X125250000Y-52920000D03*
D14*
X125900000Y-52920000D03*
X126700000Y-52920000D03*
D16*
X127820000Y-52280000D03*
D17*
X127820000Y-48100000D03*
D16*
X119180000Y-52280000D03*
D17*
X119180000Y-48100000D03*
%TD*%
D18*
%TO.C,R9*%
X130750000Y-75975000D03*
X130750000Y-74325000D03*
%TD*%
D19*
%TO.C,D2*%
X129037500Y-59200000D03*
X127462500Y-59200000D03*
%TD*%
D20*
%TO.C,TP2*%
X137675000Y-78750000D03*
%TD*%
D21*
%TO.C,U2*%
X120200000Y-72100000D03*
X121000000Y-72100000D03*
X121800000Y-72100000D03*
X122600000Y-72100000D03*
X123400000Y-72100000D03*
X124200000Y-72100000D03*
X125000000Y-72100000D03*
X125800000Y-72100000D03*
D22*
X127175000Y-70725000D03*
X127175000Y-69925000D03*
X127175000Y-69125000D03*
X127175000Y-68325000D03*
X127175000Y-67525000D03*
X127175000Y-66725000D03*
X127175000Y-65925000D03*
X127175000Y-65125000D03*
D21*
X125800000Y-63750000D03*
X125000000Y-63750000D03*
X124200000Y-63750000D03*
X123400000Y-63750000D03*
X122600000Y-63750000D03*
X121800000Y-63750000D03*
X121000000Y-63750000D03*
X120200000Y-63750000D03*
D22*
X118825000Y-65125000D03*
X118825000Y-65925000D03*
X118825000Y-66725000D03*
X118825000Y-67525000D03*
X118825000Y-68325000D03*
X118825000Y-69125000D03*
X118825000Y-69925000D03*
X118825000Y-70725000D03*
%TD*%
D23*
%TO.C,H4*%
X107600000Y-85000000D03*
X108302944Y-83302944D03*
X108302944Y-86697056D03*
X110000000Y-82600000D03*
D24*
X110000000Y-85000000D03*
D23*
X110000000Y-87400000D03*
X111697056Y-83302944D03*
X111697056Y-86697056D03*
X112400000Y-85000000D03*
%TD*%
D25*
%TO.C,J5*%
X146000000Y-70050000D03*
D26*
X146000000Y-67550000D03*
%TD*%
D11*
%TO.C,R5*%
X137775000Y-69500000D03*
X139425000Y-69500000D03*
%TD*%
D20*
%TO.C,TP1*%
X137050000Y-58050000D03*
%TD*%
D10*
%TO.C,C4*%
X129300000Y-80837500D03*
X129300000Y-79287500D03*
%TD*%
D27*
%TO.C,C11*%
X122525000Y-74050000D03*
X120975000Y-74050000D03*
%TD*%
D28*
%TO.C,C1*%
X118625000Y-55962500D03*
X120175000Y-55962500D03*
%TD*%
D29*
%TO.C,JP2*%
X132787500Y-80812500D03*
D30*
X134237500Y-80812500D03*
%TD*%
D19*
%TO.C,L1*%
X129037500Y-62500000D03*
X127462500Y-62500000D03*
%TD*%
D11*
%TO.C,R4*%
X115625000Y-50075000D03*
X117275000Y-50075000D03*
%TD*%
D23*
%TO.C,H3*%
X142600000Y-85000000D03*
X143302944Y-83302944D03*
X143302944Y-86697056D03*
X145000000Y-82600000D03*
D24*
X145000000Y-85000000D03*
D23*
X145000000Y-87400000D03*
X146697056Y-83302944D03*
X146697056Y-86697056D03*
X147400000Y-85000000D03*
%TD*%
D20*
%TO.C,TP6*%
X133650000Y-75650000D03*
%TD*%
D27*
%TO.C,C7*%
X118275000Y-72550000D03*
X116725000Y-72550000D03*
%TD*%
D10*
%TO.C,C5*%
X123300000Y-80787500D03*
X123300000Y-79237500D03*
%TD*%
D31*
%TO.C,R8*%
X134475000Y-78225000D03*
X132825000Y-78225000D03*
%TD*%
D32*
%TO.C,C3*%
X133350000Y-65275000D03*
X133350000Y-66825000D03*
%TD*%
D33*
%TO.C,R6*%
X136150000Y-72225000D03*
X136150000Y-73875000D03*
%TD*%
D23*
%TO.C,H2*%
X107600000Y-50000000D03*
X108302944Y-48302944D03*
X108302944Y-51697056D03*
X110000000Y-47600000D03*
D24*
X110000000Y-50000000D03*
D23*
X110000000Y-52400000D03*
X111697056Y-48302944D03*
X111697056Y-51697056D03*
X112400000Y-50000000D03*
%TD*%
D25*
%TO.C,J2*%
X146075000Y-78600000D03*
D26*
X146075000Y-76100000D03*
%TD*%
D19*
%TO.C,D1*%
X129037500Y-60900000D03*
X127462500Y-60900000D03*
%TD*%
D34*
%TO.C,U3*%
X124450000Y-56225000D03*
X123500000Y-56225000D03*
X122550000Y-56225000D03*
X122550000Y-58500000D03*
X123500000Y-58500000D03*
X124450000Y-58500000D03*
%TD*%
D20*
%TO.C,TP7*%
X138600000Y-75350000D03*
%TD*%
D10*
%TO.C,C6*%
X129150000Y-65625000D03*
X129150000Y-64075000D03*
%TD*%
D35*
%TO.C,U1*%
X127387500Y-80962500D03*
X127387500Y-80012500D03*
X127387500Y-79062500D03*
X125112500Y-79062500D03*
X125112500Y-80962500D03*
%TD*%
D36*
%TO.C,C8*%
X130450000Y-65550000D03*
X130450000Y-64590000D03*
%TD*%
D37*
%TO.C,IC1*%
X133187500Y-68630000D03*
X133187500Y-69030000D03*
X133187500Y-69430000D03*
X133187500Y-69830000D03*
X133187500Y-70230000D03*
X135300000Y-70230000D03*
X135300000Y-69830000D03*
X135300000Y-69430000D03*
X135300000Y-69030000D03*
X135300000Y-68630000D03*
D38*
X134260000Y-69410000D03*
%TD*%
D25*
%TO.C,J3*%
X146000000Y-61600000D03*
D26*
X146000000Y-59100000D03*
%TD*%
D12*
%TO.C,C9*%
X118580000Y-74750000D03*
X117620000Y-74750000D03*
%TD*%
D20*
%TO.C,TP3*%
X137150000Y-61300000D03*
%TD*%
%TO.C,TP4*%
X130150000Y-72000000D03*
%TD*%
D31*
%TO.C,R3*%
X134425000Y-72100000D03*
X132775000Y-72100000D03*
%TD*%
D11*
%TO.C,R7*%
X131075000Y-59200000D03*
X132725000Y-59200000D03*
%TD*%
D36*
%TO.C,C12*%
X129500000Y-75455000D03*
X129500000Y-74495000D03*
%TD*%
D11*
%TO.C,R2*%
X129675000Y-50325000D03*
X131325000Y-50325000D03*
%TD*%
D23*
%TO.C,H1*%
X142600000Y-50000000D03*
X143302944Y-48302944D03*
X143302944Y-51697056D03*
X145000000Y-47600000D03*
D24*
X145000000Y-50000000D03*
D23*
X145000000Y-52400000D03*
X146697056Y-48302944D03*
X146697056Y-51697056D03*
X147400000Y-50000000D03*
%TD*%
D20*
%TO.C,TP8*%
X138650000Y-72250000D03*
%TD*%
D39*
%TO.C,J4*%
X110200000Y-61190000D03*
X114100000Y-61190000D03*
X110200000Y-62460000D03*
X114100000Y-62460000D03*
X110200000Y-63730000D03*
X114100000Y-63730000D03*
X110200000Y-65000000D03*
X114100000Y-65000000D03*
X110200000Y-66270000D03*
X114100000Y-66270000D03*
X110200000Y-67540000D03*
X114100000Y-67540000D03*
X110200000Y-68810000D03*
X114100000Y-68810000D03*
%TD*%
D20*
%TO.C,TP5*%
X140200000Y-61300000D03*
%TD*%
M02*
