%TF.GenerationSoftware,KiCad,Pcbnew,8.0.8*%
%TF.CreationDate,2025-04-07T17:04:07+02:00*%
%TF.ProjectId,Schematics_batterie,53636865-6d61-4746-9963-735f62617474,rev?*%
%TF.SameCoordinates,Original*%
%TF.FileFunction,Copper,L1,Top*%
%TF.FilePolarity,Positive*%
%FSLAX46Y46*%
G04 Gerber Fmt 4.6, Leading zero omitted, Abs format (unit mm)*
G04 Created by KiCad (PCBNEW 8.0.8) date 2025-04-07 17:04:07*
%MOMM*%
%LPD*%
G01*
G04 APERTURE LIST*
G04 Aperture macros list*
%AMRoundRect*
0 Rectangle with rounded corners*
0 $1 Rounding radius*
0 $2 $3 $4 $5 $6 $7 $8 $9 X,Y pos of 4 corners*
0 Add a 4 corners polygon primitive as box body*
4,1,4,$2,$3,$4,$5,$6,$7,$8,$9,$2,$3,0*
0 Add four circle primitives for the rounded corners*
1,1,$1+$1,$2,$3*
1,1,$1+$1,$4,$5*
1,1,$1+$1,$6,$7*
1,1,$1+$1,$8,$9*
0 Add four rect primitives between the rounded corners*
20,1,$1+$1,$2,$3,$4,$5,0*
20,1,$1+$1,$4,$5,$6,$7,0*
20,1,$1+$1,$6,$7,$8,$9,0*
20,1,$1+$1,$8,$9,$2,$3,0*%
%AMFreePoly0*
4,1,6,1.000000,0.000000,0.500000,-0.750000,-0.500000,-0.750000,-0.500000,0.750000,0.500000,0.750000,1.000000,0.000000,1.000000,0.000000,$1*%
%AMFreePoly1*
4,1,6,0.500000,-0.750000,-0.650000,-0.750000,-0.150000,0.000000,-0.650000,0.750000,0.500000,0.750000,0.500000,-0.750000,0.500000,-0.750000,$1*%
G04 Aperture macros list end*
%TA.AperFunction,SMDPad,CuDef*%
%ADD10RoundRect,0.225000X0.250000X-0.225000X0.250000X0.225000X-0.250000X0.225000X-0.250000X-0.225000X0*%
%TD*%
%TA.AperFunction,SMDPad,CuDef*%
%ADD11RoundRect,0.200000X-0.200000X-0.275000X0.200000X-0.275000X0.200000X0.275000X-0.200000X0.275000X0*%
%TD*%
%TA.AperFunction,SMDPad,CuDef*%
%ADD12RoundRect,0.140000X0.140000X0.170000X-0.140000X0.170000X-0.140000X-0.170000X0.140000X-0.170000X0*%
%TD*%
%TA.AperFunction,SMDPad,CuDef*%
%ADD13RoundRect,0.150000X0.150000X0.500000X-0.150000X0.500000X-0.150000X-0.500000X0.150000X-0.500000X0*%
%TD*%
%TA.AperFunction,SMDPad,CuDef*%
%ADD14RoundRect,0.075000X0.075000X0.575000X-0.075000X0.575000X-0.075000X-0.575000X0.075000X-0.575000X0*%
%TD*%
%TA.AperFunction,HeatsinkPad*%
%ADD15O,1.000000X2.100000*%
%TD*%
%TA.AperFunction,HeatsinkPad*%
%ADD16O,1.000000X1.600000*%
%TD*%
%TA.AperFunction,SMDPad,CuDef*%
%ADD17RoundRect,0.200000X0.275000X-0.200000X0.275000X0.200000X-0.275000X0.200000X-0.275000X-0.200000X0*%
%TD*%
%TA.AperFunction,SMDPad,CuDef*%
%ADD18RoundRect,0.218750X0.218750X0.256250X-0.218750X0.256250X-0.218750X-0.256250X0.218750X-0.256250X0*%
%TD*%
%TA.AperFunction,SMDPad,CuDef*%
%ADD19C,2.000000*%
%TD*%
%TA.AperFunction,SMDPad,CuDef*%
%ADD20RoundRect,0.125000X0.125000X-0.625000X0.125000X0.625000X-0.125000X0.625000X-0.125000X-0.625000X0*%
%TD*%
%TA.AperFunction,SMDPad,CuDef*%
%ADD21RoundRect,0.125000X0.625000X-0.125000X0.625000X0.125000X-0.625000X0.125000X-0.625000X-0.125000X0*%
%TD*%
%TA.AperFunction,ComponentPad*%
%ADD22C,0.800000*%
%TD*%
%TA.AperFunction,ComponentPad*%
%ADD23C,6.400000*%
%TD*%
%TA.AperFunction,ComponentPad*%
%ADD24RoundRect,0.250000X0.750000X-0.600000X0.750000X0.600000X-0.750000X0.600000X-0.750000X-0.600000X0*%
%TD*%
%TA.AperFunction,ComponentPad*%
%ADD25O,2.000000X1.700000*%
%TD*%
%TA.AperFunction,SMDPad,CuDef*%
%ADD26RoundRect,0.225000X0.225000X0.250000X-0.225000X0.250000X-0.225000X-0.250000X0.225000X-0.250000X0*%
%TD*%
%TA.AperFunction,SMDPad,CuDef*%
%ADD27RoundRect,0.225000X-0.225000X-0.250000X0.225000X-0.250000X0.225000X0.250000X-0.225000X0.250000X0*%
%TD*%
%TA.AperFunction,SMDPad,CuDef*%
%ADD28FreePoly0,0.000000*%
%TD*%
%TA.AperFunction,SMDPad,CuDef*%
%ADD29FreePoly1,0.000000*%
%TD*%
%TA.AperFunction,SMDPad,CuDef*%
%ADD30RoundRect,0.200000X0.200000X0.275000X-0.200000X0.275000X-0.200000X-0.275000X0.200000X-0.275000X0*%
%TD*%
%TA.AperFunction,SMDPad,CuDef*%
%ADD31RoundRect,0.225000X-0.250000X0.225000X-0.250000X-0.225000X0.250000X-0.225000X0.250000X0.225000X0*%
%TD*%
%TA.AperFunction,SMDPad,CuDef*%
%ADD32RoundRect,0.200000X-0.275000X0.200000X-0.275000X-0.200000X0.275000X-0.200000X0.275000X0.200000X0*%
%TD*%
%TA.AperFunction,SMDPad,CuDef*%
%ADD33RoundRect,0.150000X-0.150000X0.512500X-0.150000X-0.512500X0.150000X-0.512500X0.150000X0.512500X0*%
%TD*%
%TA.AperFunction,SMDPad,CuDef*%
%ADD34RoundRect,0.150000X0.512500X0.150000X-0.512500X0.150000X-0.512500X-0.150000X0.512500X-0.150000X0*%
%TD*%
%TA.AperFunction,SMDPad,CuDef*%
%ADD35RoundRect,0.140000X0.170000X-0.140000X0.170000X0.140000X-0.170000X0.140000X-0.170000X-0.140000X0*%
%TD*%
%TA.AperFunction,SMDPad,CuDef*%
%ADD36RoundRect,0.062500X-0.350000X-0.062500X0.350000X-0.062500X0.350000X0.062500X-0.350000X0.062500X0*%
%TD*%
%TA.AperFunction,HeatsinkPad*%
%ADD37R,0.850000X1.380000*%
%TD*%
%TA.AperFunction,SMDPad,CuDef*%
%ADD38R,2.400000X0.740000*%
%TD*%
%TA.AperFunction,ViaPad*%
%ADD39C,0.450000*%
%TD*%
%TA.AperFunction,ViaPad*%
%ADD40C,0.800000*%
%TD*%
%TA.AperFunction,Conductor*%
%ADD41C,0.400000*%
%TD*%
%TA.AperFunction,Conductor*%
%ADD42C,0.300000*%
%TD*%
%TA.AperFunction,Conductor*%
%ADD43C,0.200000*%
%TD*%
G04 APERTURE END LIST*
D10*
%TO.P,C2,1*%
%TO.N,SYS*%
X130700000Y-68550000D03*
%TO.P,C2,2*%
%TO.N,GND*%
X130700000Y-67000000D03*
%TD*%
D11*
%TO.P,R1,1*%
%TO.N,/LED_Stat*%
X131075000Y-60850000D03*
%TO.P,R1,2*%
%TO.N,GND*%
X132725000Y-60850000D03*
%TD*%
D12*
%TO.P,C10,1*%
%TO.N,+3.3V*%
X118560000Y-73800000D03*
%TO.P,C10,2*%
%TO.N,GND*%
X117600000Y-73800000D03*
%TD*%
D13*
%TO.P,J1,A1,GND*%
%TO.N,GND*%
X126700000Y-52920000D03*
%TO.P,J1,A4,VBUS*%
%TO.N,+5V*%
X125900000Y-52920000D03*
D14*
%TO.P,J1,A5,CC1*%
%TO.N,Net-(J1-CC1)*%
X124750000Y-52920000D03*
%TO.P,J1,A6,D+*%
%TO.N,D_p_1*%
X123750000Y-52920000D03*
%TO.P,J1,A7,D-*%
%TO.N,D_m_1*%
X123250000Y-52920000D03*
%TO.P,J1,A8,SBU1*%
%TO.N,unconnected-(J1-SBU1-PadA8)*%
X122250000Y-52920000D03*
D13*
%TO.P,J1,A9,VBUS*%
%TO.N,+5V*%
X121100000Y-52920000D03*
%TO.P,J1,A12,GND*%
%TO.N,GND*%
X120300000Y-52920000D03*
%TO.P,J1,B1,GND*%
X120300000Y-52920000D03*
%TO.P,J1,B4,VBUS*%
%TO.N,+5V*%
X121100000Y-52920000D03*
D14*
%TO.P,J1,B5,CC2*%
%TO.N,Net-(J1-CC2)*%
X121750000Y-52920000D03*
%TO.P,J1,B6,D+*%
%TO.N,D_p_1*%
X122750000Y-52920000D03*
%TO.P,J1,B7,D-*%
%TO.N,D_m_1*%
X124250000Y-52920000D03*
%TO.P,J1,B8,SBU2*%
%TO.N,unconnected-(J1-SBU2-PadB8)*%
X125250000Y-52920000D03*
D13*
%TO.P,J1,B9,VBUS*%
%TO.N,+5V*%
X125900000Y-52920000D03*
%TO.P,J1,B12,GND*%
%TO.N,GND*%
X126700000Y-52920000D03*
D15*
%TO.P,J1,S1,SHIELD*%
%TO.N,unconnected-(J1-SHIELD-PadS1)_1*%
X127820000Y-52280000D03*
D16*
%TO.N,unconnected-(J1-SHIELD-PadS1)*%
X127820000Y-48100000D03*
D15*
%TO.N,unconnected-(J1-SHIELD-PadS1)_2*%
X119180000Y-52280000D03*
D16*
%TO.N,unconnected-(J1-SHIELD-PadS1)_3*%
X119180000Y-48100000D03*
%TD*%
D17*
%TO.P,R9,1*%
%TO.N,VBAT*%
X130750000Y-75975000D03*
%TO.P,R9,2*%
%TO.N,GND*%
X130750000Y-74325000D03*
%TD*%
D18*
%TO.P,D2,1,K*%
%TO.N,/LED_play*%
X129037500Y-59200000D03*
%TO.P,D2,2,A*%
%TO.N,LED_Playing*%
X127462500Y-59200000D03*
%TD*%
D19*
%TO.P,TP2,1,1*%
%TO.N,BAT*%
X137675000Y-78750000D03*
%TD*%
D20*
%TO.P,U2,1,VDD*%
%TO.N,+3.3V*%
X120200000Y-72100000D03*
%TO.P,U2,2,PF0*%
%TO.N,unconnected-(U2-PF0-Pad2)*%
X121000000Y-72100000D03*
%TO.P,U2,3,PF1*%
%TO.N,unconnected-(U2-PF1-Pad3)*%
X121800000Y-72100000D03*
%TO.P,U2,4,PG10*%
%TO.N,NRST*%
X122600000Y-72100000D03*
%TO.P,U2,5,PA0*%
%TO.N,VBAT*%
X123400000Y-72100000D03*
%TO.P,U2,6,PA1*%
%TO.N,unconnected-(U2-PA1-Pad6)*%
X124200000Y-72100000D03*
%TO.P,U2,7,PA2*%
%TO.N,USART2_TX*%
X125000000Y-72100000D03*
%TO.P,U2,8,PA3*%
%TO.N,USART2_RX*%
X125800000Y-72100000D03*
D21*
%TO.P,U2,9,PA4*%
%TO.N,Charge Enabler*%
X127175000Y-70725000D03*
%TO.P,U2,10,PA5*%
%TO.N,STAT1*%
X127175000Y-69925000D03*
%TO.P,U2,11,PA6*%
%TO.N,STAT2*%
X127175000Y-69125000D03*
%TO.P,U2,12,PA7*%
%TO.N,SYS*%
X127175000Y-68325000D03*
%TO.P,U2,13,PB0*%
%TO.N,unconnected-(U2-PB0-Pad13)*%
X127175000Y-67525000D03*
%TO.P,U2,14,VSSA*%
%TO.N,GND*%
X127175000Y-66725000D03*
%TO.P,U2,15,VDDA*%
%TO.N,+3.3VA*%
X127175000Y-65925000D03*
%TO.P,U2,16,VSS*%
%TO.N,GND*%
X127175000Y-65125000D03*
D20*
%TO.P,U2,17,VDD*%
%TO.N,+3.3V*%
X125800000Y-63750000D03*
%TO.P,U2,18,PA8*%
%TO.N,LED_Status*%
X125000000Y-63750000D03*
%TO.P,U2,19,PA9*%
%TO.N,LED_Playing*%
X124200000Y-63750000D03*
%TO.P,U2,20,PA10*%
%TO.N,unconnected-(U2-PA10-Pad20)*%
X123400000Y-63750000D03*
%TO.P,U2,21,PA11*%
%TO.N,D_m_2*%
X122600000Y-63750000D03*
%TO.P,U2,22,PA12*%
%TO.N,D_p_2*%
X121800000Y-63750000D03*
%TO.P,U2,23,PA13*%
%TO.N,SYS_SWDIO*%
X121000000Y-63750000D03*
%TO.P,U2,24,PA14*%
%TO.N,SYS_SWCLK*%
X120200000Y-63750000D03*
D21*
%TO.P,U2,25,PA15*%
%TO.N,unconnected-(U2-PA15-Pad25)*%
X118825000Y-65125000D03*
%TO.P,U2,26,PB3*%
%TO.N,unconnected-(U2-PB3-Pad26)*%
X118825000Y-65925000D03*
%TO.P,U2,27,PB4*%
%TO.N,unconnected-(U2-PB4-Pad27)*%
X118825000Y-66725000D03*
%TO.P,U2,28,PB5*%
%TO.N,unconnected-(U2-PB5-Pad28)*%
X118825000Y-67525000D03*
%TO.P,U2,29,PB6*%
%TO.N,unconnected-(U2-PB6-Pad29)*%
X118825000Y-68325000D03*
%TO.P,U2,30,PB7*%
%TO.N,unconnected-(U2-PB7-Pad30)*%
X118825000Y-69125000D03*
%TO.P,U2,31,PB8*%
%TO.N,unconnected-(U2-PB8-Pad31)*%
X118825000Y-69925000D03*
%TO.P,U2,32,VSS*%
%TO.N,GND*%
X118825000Y-70725000D03*
%TD*%
D22*
%TO.P,H4,1,1*%
%TO.N,GND*%
X107600000Y-85000000D03*
X108302944Y-83302944D03*
X108302944Y-86697056D03*
X110000000Y-82600000D03*
D23*
X110000000Y-85000000D03*
D22*
X110000000Y-87400000D03*
X111697056Y-83302944D03*
X111697056Y-86697056D03*
X112400000Y-85000000D03*
%TD*%
D24*
%TO.P,J5,1,Pin_1*%
%TO.N,SYS*%
X146000000Y-70050000D03*
D25*
%TO.P,J5,2,Pin_2*%
%TO.N,GND*%
X146000000Y-67550000D03*
%TD*%
D11*
%TO.P,R5,1*%
%TO.N,/Iset*%
X137775000Y-69500000D03*
%TO.P,R5,2*%
%TO.N,GND*%
X139425000Y-69500000D03*
%TD*%
D19*
%TO.P,TP1,1,1*%
%TO.N,SYS*%
X137050000Y-58050000D03*
%TD*%
D10*
%TO.P,C4,1*%
%TO.N,/VIN*%
X129300000Y-80837500D03*
%TO.P,C4,2*%
%TO.N,GND*%
X129300000Y-79287500D03*
%TD*%
D26*
%TO.P,C11,1*%
%TO.N,NRST*%
X122525000Y-74050000D03*
%TO.P,C11,2*%
%TO.N,GND*%
X120975000Y-74050000D03*
%TD*%
D27*
%TO.P,C1,1*%
%TO.N,GND*%
X118625000Y-55962500D03*
%TO.P,C1,2*%
%TO.N,+5V*%
X120175000Y-55962500D03*
%TD*%
D28*
%TO.P,JP2,1,A*%
%TO.N,/VIN*%
X132787500Y-80812500D03*
D29*
%TO.P,JP2,2,B*%
%TO.N,SYS*%
X134237500Y-80812500D03*
%TD*%
D18*
%TO.P,L1,1*%
%TO.N,+3.3VA*%
X129037500Y-62500000D03*
%TO.P,L1,2*%
%TO.N,+3.3V*%
X127462500Y-62500000D03*
%TD*%
D11*
%TO.P,R4,1*%
%TO.N,GND*%
X115625000Y-50075000D03*
%TO.P,R4,2*%
%TO.N,Net-(J1-CC2)*%
X117275000Y-50075000D03*
%TD*%
D22*
%TO.P,H3,1,1*%
%TO.N,GND*%
X142600000Y-85000000D03*
X143302944Y-83302944D03*
X143302944Y-86697056D03*
X145000000Y-82600000D03*
D23*
X145000000Y-85000000D03*
D22*
X145000000Y-87400000D03*
X146697056Y-83302944D03*
X146697056Y-86697056D03*
X147400000Y-85000000D03*
%TD*%
D19*
%TO.P,TP6,1,1*%
%TO.N,/TS MR*%
X133650000Y-75650000D03*
%TD*%
D26*
%TO.P,C7,1*%
%TO.N,+3.3V*%
X118275000Y-72550000D03*
%TO.P,C7,2*%
%TO.N,GND*%
X116725000Y-72550000D03*
%TD*%
D10*
%TO.P,C5,1*%
%TO.N,+3.3V*%
X123300000Y-80787500D03*
%TO.P,C5,2*%
%TO.N,GND*%
X123300000Y-79237500D03*
%TD*%
D30*
%TO.P,R8,1*%
%TO.N,BAT*%
X134475000Y-78225000D03*
%TO.P,R8,2*%
%TO.N,VBAT*%
X132825000Y-78225000D03*
%TD*%
D31*
%TO.P,C3,1*%
%TO.N,GND*%
X133350000Y-65275000D03*
%TO.P,C3,2*%
%TO.N,BAT*%
X133350000Y-66825000D03*
%TD*%
D32*
%TO.P,R6,1*%
%TO.N,/Ilim{slash}Vset*%
X136150000Y-72225000D03*
%TO.P,R6,2*%
%TO.N,GND*%
X136150000Y-73875000D03*
%TD*%
D22*
%TO.P,H2,1,1*%
%TO.N,GND*%
X107600000Y-50000000D03*
X108302944Y-48302944D03*
X108302944Y-51697056D03*
X110000000Y-47600000D03*
D23*
X110000000Y-50000000D03*
D22*
X110000000Y-52400000D03*
X111697056Y-48302944D03*
X111697056Y-51697056D03*
X112400000Y-50000000D03*
%TD*%
D24*
%TO.P,J2,1,Pin_1*%
%TO.N,BAT*%
X146075000Y-78600000D03*
D25*
%TO.P,J2,2,Pin_2*%
%TO.N,GND*%
X146075000Y-76100000D03*
%TD*%
D18*
%TO.P,D1,1,K*%
%TO.N,/LED_Stat*%
X129037500Y-60900000D03*
%TO.P,D1,2,A*%
%TO.N,LED_Status*%
X127462500Y-60900000D03*
%TD*%
D33*
%TO.P,U3,1,I/O1*%
%TO.N,D_m_1*%
X124450000Y-56225000D03*
%TO.P,U3,2,GND*%
%TO.N,GND*%
X123500000Y-56225000D03*
%TO.P,U3,3,I/O2*%
%TO.N,D_p_1*%
X122550000Y-56225000D03*
%TO.P,U3,4,I/O2*%
%TO.N,D_p_2*%
X122550000Y-58500000D03*
%TO.P,U3,5,VBUS*%
%TO.N,+5V*%
X123500000Y-58500000D03*
%TO.P,U3,6,I/O1*%
%TO.N,D_m_2*%
X124450000Y-58500000D03*
%TD*%
D19*
%TO.P,TP7,1,1*%
%TO.N,/Ilim{slash}Vset*%
X138600000Y-75350000D03*
%TD*%
D10*
%TO.P,C6,1*%
%TO.N,+3.3VA*%
X129150000Y-65625000D03*
%TO.P,C6,2*%
%TO.N,GND*%
X129150000Y-64075000D03*
%TD*%
D34*
%TO.P,U1,1,VIN*%
%TO.N,/VIN*%
X127387500Y-80962500D03*
%TO.P,U1,2,GND*%
%TO.N,GND*%
X127387500Y-80012500D03*
%TO.P,U1,3,~{SHDN}*%
%TO.N,/VIN*%
X127387500Y-79062500D03*
%TO.P,U1,4,NC*%
%TO.N,unconnected-(U1-NC-Pad4)*%
X125112500Y-79062500D03*
%TO.P,U1,5,VOUT*%
%TO.N,+3.3V*%
X125112500Y-80962500D03*
%TD*%
D35*
%TO.P,C8,1*%
%TO.N,+3.3VA*%
X130450000Y-65550000D03*
%TO.P,C8,2*%
%TO.N,GND*%
X130450000Y-64590000D03*
%TD*%
D36*
%TO.P,IC1,1,SYS*%
%TO.N,SYS*%
X133187500Y-68630000D03*
%TO.P,IC1,2,BAT*%
%TO.N,BAT*%
X133187500Y-69030000D03*
%TO.P,IC1,3,STAT2*%
%TO.N,STAT2*%
X133187500Y-69430000D03*
%TO.P,IC1,4,~{CE}*%
%TO.N,Charge Enabler*%
X133187500Y-69830000D03*
%TO.P,IC1,5,GND*%
%TO.N,GND*%
X133187500Y-70230000D03*
%TO.P,IC1,6,TS/MR*%
%TO.N,/TS MR*%
X135300000Y-70230000D03*
%TO.P,IC1,7,ILIM/VSET*%
%TO.N,/Ilim{slash}Vset*%
X135300000Y-69830000D03*
%TO.P,IC1,8,ISET*%
%TO.N,/Iset*%
X135300000Y-69430000D03*
%TO.P,IC1,9,STAT1*%
%TO.N,STAT1*%
X135300000Y-69030000D03*
%TO.P,IC1,10,IN*%
%TO.N,+5V*%
X135300000Y-68630000D03*
D37*
%TO.P,IC1,11,EP*%
%TO.N,GND*%
X134260000Y-69410000D03*
%TD*%
D24*
%TO.P,J3,1,Pin_1*%
%TO.N,SYS*%
X146000000Y-61600000D03*
D25*
%TO.P,J3,2,Pin_2*%
%TO.N,GND*%
X146000000Y-59100000D03*
%TD*%
D12*
%TO.P,C9,1*%
%TO.N,+3.3V*%
X118580000Y-74750000D03*
%TO.P,C9,2*%
%TO.N,GND*%
X117620000Y-74750000D03*
%TD*%
D19*
%TO.P,TP3,1,1*%
%TO.N,STAT2*%
X137150000Y-61300000D03*
%TD*%
%TO.P,TP4,1,1*%
%TO.N,Charge Enabler*%
X130150000Y-72000000D03*
%TD*%
D30*
%TO.P,R3,1*%
%TO.N,/TS MR*%
X134425000Y-72100000D03*
%TO.P,R3,2*%
%TO.N,GND*%
X132775000Y-72100000D03*
%TD*%
D11*
%TO.P,R7,1*%
%TO.N,/LED_play*%
X131075000Y-59200000D03*
%TO.P,R7,2*%
%TO.N,GND*%
X132725000Y-59200000D03*
%TD*%
D35*
%TO.P,C12,1*%
%TO.N,VBAT*%
X129500000Y-75455000D03*
%TO.P,C12,2*%
%TO.N,GND*%
X129500000Y-74495000D03*
%TD*%
D11*
%TO.P,R2,1*%
%TO.N,Net-(J1-CC1)*%
X129675000Y-50325000D03*
%TO.P,R2,2*%
%TO.N,GND*%
X131325000Y-50325000D03*
%TD*%
D22*
%TO.P,H1,1,1*%
%TO.N,GND*%
X142600000Y-50000000D03*
X143302944Y-48302944D03*
X143302944Y-51697056D03*
X145000000Y-47600000D03*
D23*
X145000000Y-50000000D03*
D22*
X145000000Y-52400000D03*
X146697056Y-48302944D03*
X146697056Y-51697056D03*
X147400000Y-50000000D03*
%TD*%
D19*
%TO.P,TP8,1,1*%
%TO.N,/Iset*%
X138650000Y-72250000D03*
%TD*%
D38*
%TO.P,J4,1,NC*%
%TO.N,unconnected-(J4-NC-Pad1)*%
X110200000Y-61190000D03*
%TO.P,J4,2,NC*%
%TO.N,unconnected-(J4-NC-Pad2)*%
X114100000Y-61190000D03*
%TO.P,J4,3,VCC*%
%TO.N,+3.3V*%
X110200000Y-62460000D03*
%TO.P,J4,4,JTMS/SWDIO*%
%TO.N,SYS_SWDIO*%
X114100000Y-62460000D03*
%TO.P,J4,5,GND*%
%TO.N,GND*%
X110200000Y-63730000D03*
%TO.P,J4,6,JCLK/SWCLK*%
%TO.N,SYS_SWCLK*%
X114100000Y-63730000D03*
%TO.P,J4,7,GND*%
%TO.N,GND*%
X110200000Y-65000000D03*
%TO.P,J4,8,JTDO/SWO*%
%TO.N,unconnected-(J4-JTDO{slash}SWO-Pad8)*%
X114100000Y-65000000D03*
%TO.P,J4,9,JRCLK/NC*%
%TO.N,unconnected-(J4-JRCLK{slash}NC-Pad9)*%
X110200000Y-66270000D03*
%TO.P,J4,10,JTDI/NC*%
%TO.N,unconnected-(J4-JTDI{slash}NC-Pad10)*%
X114100000Y-66270000D03*
%TO.P,J4,11,GNDDetect*%
%TO.N,GND*%
X110200000Y-67540000D03*
%TO.P,J4,12,~{RST}*%
%TO.N,NRST*%
X114100000Y-67540000D03*
%TO.P,J4,13,VCP_RX*%
%TO.N,USART2_RX*%
X110200000Y-68810000D03*
%TO.P,J4,14,VCP_TX*%
%TO.N,USART2_TX*%
X114100000Y-68810000D03*
%TD*%
D19*
%TO.P,TP5,1,1*%
%TO.N,STAT1*%
X140200000Y-61300000D03*
%TD*%
D39*
%TO.N,+5V*%
X136150000Y-67725000D03*
X125850000Y-54862500D03*
X121100000Y-54812500D03*
%TO.N,GND*%
X108750000Y-63720000D03*
X126700000Y-54125000D03*
X122200000Y-79262500D03*
X132700000Y-73050000D03*
X129650000Y-66975000D03*
X134250000Y-69750000D03*
X108750000Y-67570000D03*
X124025000Y-57362500D03*
X133350000Y-64300000D03*
X136150000Y-75100000D03*
X108750000Y-64970000D03*
X132300000Y-70350000D03*
X134250000Y-69050000D03*
X120100000Y-74050000D03*
X132337500Y-50325000D03*
X127912500Y-64387500D03*
X139500000Y-68400000D03*
X129300000Y-78425000D03*
X114600000Y-50075000D03*
X115625000Y-72550000D03*
X131475000Y-74300000D03*
X126500000Y-80012500D03*
X120300000Y-54025000D03*
X133950000Y-59300000D03*
X117600000Y-55962500D03*
X133900000Y-60850000D03*
%TO.N,SYS*%
X129325000Y-68425000D03*
X134475000Y-67800000D03*
X138975000Y-66025000D03*
D40*
%TO.N,+3.3V*%
X122000000Y-80750000D03*
X108750000Y-62500000D03*
D39*
X120200000Y-70800000D03*
%TO.N,STAT2*%
X125800000Y-69200000D03*
X132225000Y-63175000D03*
%TO.N,STAT1*%
X136675000Y-69525000D03*
X125800000Y-69950000D03*
X134100000Y-63700000D03*
%TO.N,VBAT*%
X124125000Y-74800000D03*
X127150000Y-75000000D03*
%TD*%
D41*
%TO.N,+5V*%
X125850000Y-54862500D02*
X125850000Y-52795000D01*
D42*
X123500000Y-58500000D02*
X123500000Y-57762500D01*
X122150000Y-57412500D02*
X121100000Y-56362500D01*
D41*
X125850000Y-52970000D02*
X125900000Y-52920000D01*
D42*
X121100000Y-55962500D02*
X121100000Y-54812500D01*
D41*
X121100000Y-52745000D02*
X121100000Y-54812500D01*
D42*
X121100000Y-56362500D02*
X121100000Y-55962500D01*
X123500000Y-57762500D02*
X123150000Y-57412500D01*
X123150000Y-57412500D02*
X122150000Y-57412500D01*
X120175000Y-55962500D02*
X121100000Y-55962500D01*
D41*
%TO.N,GND*%
X128050216Y-66975000D02*
X129650000Y-66975000D01*
X139512500Y-69500000D02*
X139512500Y-68412500D01*
X132687500Y-73037500D02*
X132700000Y-73050000D01*
X136150000Y-73962500D02*
X136150000Y-75100000D01*
X110170000Y-64970000D02*
X110200000Y-65000000D01*
X131450000Y-74325000D02*
X131475000Y-74300000D01*
D42*
X123500000Y-57062500D02*
X123500000Y-56225000D01*
D41*
X127912500Y-64387500D02*
X127175000Y-65125000D01*
D43*
X132420000Y-70230000D02*
X132300000Y-70350000D01*
D41*
X128225000Y-64075000D02*
X127912500Y-64387500D01*
X129665000Y-64590000D02*
X129150000Y-64075000D01*
X142400000Y-49800000D02*
X142600000Y-50000000D01*
X126500000Y-80012500D02*
X127387500Y-80012500D01*
D42*
X124025000Y-57362500D02*
X123800000Y-57362500D01*
D41*
X118625000Y-55962500D02*
X117600000Y-55962500D01*
X117600000Y-74730000D02*
X117620000Y-74750000D01*
X108750000Y-64970000D02*
X110170000Y-64970000D01*
X131412500Y-50325000D02*
X132337500Y-50325000D01*
X110170000Y-67570000D02*
X110200000Y-67540000D01*
X117600000Y-73800000D02*
X117600000Y-74730000D01*
X139512500Y-68412500D02*
X139500000Y-68400000D01*
X110190000Y-63720000D02*
X110200000Y-63730000D01*
X130580000Y-74495000D02*
X130750000Y-74325000D01*
X118200000Y-71075000D02*
X116725000Y-72550000D01*
X127175000Y-65125000D02*
X127250000Y-65200000D01*
X130350000Y-64590000D02*
X129665000Y-64590000D01*
X127800216Y-66725000D02*
X128050216Y-66975000D01*
X108750000Y-63720000D02*
X110190000Y-63720000D01*
X129650000Y-66975000D02*
X130500000Y-66975000D01*
X132812500Y-60850000D02*
X133900000Y-60850000D01*
X132687500Y-72100000D02*
X132687500Y-73037500D01*
X127175000Y-66725000D02*
X127800216Y-66725000D01*
X130500000Y-66975000D02*
X130700000Y-66775000D01*
X116725000Y-72550000D02*
X115625000Y-72550000D01*
X120100000Y-74050000D02*
X120887500Y-74050000D01*
X129500000Y-74495000D02*
X130580000Y-74495000D01*
X122225000Y-79237500D02*
X122200000Y-79262500D01*
X123300000Y-79237500D02*
X122225000Y-79237500D01*
X129150000Y-64075000D02*
X128225000Y-64075000D01*
X108750000Y-67570000D02*
X110170000Y-67570000D01*
D43*
X133187500Y-70230000D02*
X132420000Y-70230000D01*
D42*
X123800000Y-57362500D02*
X123500000Y-57062500D01*
D41*
X117350000Y-73550000D02*
X117600000Y-73800000D01*
X129300000Y-78425000D02*
X129300000Y-79200000D01*
X118825000Y-70800000D02*
X118825000Y-71075000D01*
X118825000Y-71075000D02*
X118200000Y-71075000D01*
X117600000Y-73800000D02*
X117600000Y-73425000D01*
X120300000Y-52920000D02*
X120300000Y-54025000D01*
X132812500Y-59300000D02*
X133950000Y-59300000D01*
X126700000Y-52920000D02*
X126700000Y-54125000D01*
X133350000Y-65275000D02*
X133350000Y-64300000D01*
X117600000Y-73425000D02*
X116725000Y-72550000D01*
X130750000Y-74325000D02*
X131450000Y-74325000D01*
X115537500Y-50075000D02*
X114600000Y-50075000D01*
%TO.N,SYS*%
X134237500Y-80812500D02*
X134237500Y-81087500D01*
D43*
X137050000Y-58050000D02*
X137050000Y-58750000D01*
X130625000Y-68400000D02*
X130700000Y-68325000D01*
X131005000Y-68630000D02*
X130700000Y-68325000D01*
D41*
%TO.N,BAT*%
X142625000Y-75875000D02*
X142850000Y-76100000D01*
X140550000Y-67550000D02*
X139825000Y-66825000D01*
X140550000Y-68800000D02*
X140550000Y-67550000D01*
X145350000Y-78600000D02*
X142850000Y-76100000D01*
D43*
X132155000Y-69030000D02*
X132125000Y-69000000D01*
D41*
X140550000Y-75875000D02*
X137675000Y-78750000D01*
X140550000Y-73800000D02*
X140550000Y-75875000D01*
X135000000Y-78750000D02*
X134475000Y-78225000D01*
X134700000Y-78225000D02*
X134475000Y-78225000D01*
X140550000Y-75875000D02*
X142625000Y-75875000D01*
X140550000Y-73800000D02*
X140550000Y-68800000D01*
X137675000Y-78750000D02*
X135000000Y-78750000D01*
D43*
X133187500Y-69030000D02*
X132155000Y-69030000D01*
D41*
X146075000Y-78600000D02*
X145350000Y-78600000D01*
X139825000Y-66825000D02*
X133350000Y-66825000D01*
%TO.N,+3.3V*%
X118275000Y-72550000D02*
X118275000Y-73515000D01*
X125800000Y-64450216D02*
X125800000Y-63825000D01*
X118580000Y-74750000D02*
X118580000Y-73820000D01*
X110160000Y-62500000D02*
X110200000Y-62460000D01*
X119425000Y-72875000D02*
X120200000Y-72100000D01*
X122000000Y-80750000D02*
X123262500Y-80750000D01*
X118275000Y-73515000D02*
X118560000Y-73800000D01*
X118600000Y-72875000D02*
X119425000Y-72875000D01*
X120200000Y-72175000D02*
X120200000Y-70800000D01*
X118275000Y-72550000D02*
X118600000Y-72875000D01*
X123262500Y-80750000D02*
X123300000Y-80787500D01*
X108750000Y-62500000D02*
X110160000Y-62500000D01*
X120200000Y-70800000D02*
X120200000Y-70050216D01*
X125112500Y-80962500D02*
X123475000Y-80962500D01*
X123475000Y-80962500D02*
X123300000Y-80787500D01*
X125800000Y-63825000D02*
X126050000Y-63825000D01*
X118580000Y-73820000D02*
X118560000Y-73800000D01*
X126050000Y-63825000D02*
X127375000Y-62500000D01*
X120200000Y-70050216D02*
X125800000Y-64450216D01*
%TO.N,+3.3VA*%
X128775000Y-66000000D02*
X129150000Y-65625000D01*
X131110000Y-65090000D02*
X130650000Y-65550000D01*
X130275000Y-65625000D02*
X130350000Y-65550000D01*
X127175000Y-66000000D02*
X128775000Y-66000000D01*
X130250000Y-62500000D02*
X131110000Y-63360000D01*
X131110000Y-63360000D02*
X131110000Y-65090000D01*
X129150000Y-65625000D02*
X130275000Y-65625000D01*
X129125000Y-62500000D02*
X130250000Y-62500000D01*
X130650000Y-65550000D02*
X130450000Y-65550000D01*
D42*
%TO.N,NRST*%
X115600000Y-69480000D02*
X114625000Y-70455000D01*
X122600000Y-74037500D02*
X122612500Y-74050000D01*
X122600000Y-72175000D02*
X122600000Y-74037500D01*
X114100000Y-67540000D02*
X114930000Y-67540000D01*
X114625000Y-67845000D02*
X114625000Y-68140000D01*
X114625000Y-70455000D02*
X114625000Y-73125000D01*
X117350000Y-75850000D02*
X120725000Y-75850000D01*
X114625000Y-68140000D02*
X115600000Y-68140000D01*
X114625000Y-73125000D02*
X117350000Y-75850000D01*
X114930000Y-67540000D02*
X114625000Y-67845000D01*
X115600000Y-68140000D02*
X115600000Y-69480000D01*
X120725000Y-75850000D02*
X122525000Y-74050000D01*
%TO.N,LED_Status*%
X127250000Y-60900000D02*
X125000000Y-63150000D01*
X125000000Y-63150000D02*
X125000000Y-63825000D01*
X127375000Y-60900000D02*
X127250000Y-60900000D01*
D43*
%TO.N,STAT2*%
X125800000Y-69200000D02*
X127733794Y-69200000D01*
X132225000Y-63175000D02*
X135275000Y-63175000D01*
X127733794Y-69200000D02*
X127963794Y-69430000D01*
X127963794Y-69430000D02*
X133187500Y-69430000D01*
X135275000Y-63175000D02*
X137150000Y-61300000D01*
%TO.N,STAT1*%
X125800000Y-69950000D02*
X127125000Y-69950000D01*
X134100000Y-63700000D02*
X138050000Y-63700000D01*
X136180000Y-69030000D02*
X135300000Y-69030000D01*
X136675000Y-69525000D02*
X136180000Y-69030000D01*
X127125000Y-69950000D02*
X127175000Y-70000000D01*
X138050000Y-63700000D02*
X140200000Y-61550000D01*
%TO.N,Charge Enabler*%
X130150000Y-72000000D02*
X130150000Y-70280000D01*
X130150000Y-70280000D02*
X129700000Y-69830000D01*
X129700000Y-69830000D02*
X128628794Y-69830000D01*
X128628794Y-69830000D02*
X127658794Y-70800000D01*
X127658794Y-70800000D02*
X127175000Y-70800000D01*
X133187500Y-69830000D02*
X129700000Y-69830000D01*
D42*
%TO.N,D_p_1*%
X123050000Y-51875000D02*
X122750000Y-52175000D01*
X122550000Y-56225000D02*
X122750000Y-56025000D01*
X123500000Y-51875000D02*
X123050000Y-51875000D01*
X123750000Y-52125000D02*
X123500000Y-51875000D01*
X122750000Y-52175000D02*
X122750000Y-52920000D01*
X122750000Y-56025000D02*
X122750000Y-52745000D01*
X123750000Y-52920000D02*
X123750000Y-52125000D01*
%TO.N,Net-(J1-CC1)*%
X124750000Y-52050000D02*
X126425000Y-50375000D01*
X126425000Y-50375000D02*
X129300000Y-50375000D01*
X124750000Y-52920000D02*
X124750000Y-52050000D01*
%TO.N,Net-(J1-CC2)*%
X119975000Y-50075000D02*
X117362500Y-50075000D01*
X121750000Y-51850000D02*
X119975000Y-50075000D01*
X121750000Y-52920000D02*
X121750000Y-51850000D01*
%TO.N,D_m_1*%
X124450000Y-56225000D02*
X124450000Y-55212500D01*
X123250000Y-53675000D02*
X123250000Y-52920000D01*
X123950000Y-53875000D02*
X123450000Y-53875000D01*
X124050000Y-53875000D02*
X123950000Y-53875000D01*
X124250000Y-53675000D02*
X124050000Y-53875000D01*
X123950000Y-54712500D02*
X123950000Y-53875000D01*
X124450000Y-55212500D02*
X123950000Y-54712500D01*
X123450000Y-53875000D02*
X123250000Y-53675000D01*
X124250000Y-52920000D02*
X124250000Y-53675000D01*
%TO.N,USART2_RX*%
X114500000Y-77250000D02*
X124900000Y-77250000D01*
X125800000Y-76350000D02*
X125800000Y-72175000D01*
X124900000Y-77250000D02*
X125800000Y-76350000D01*
X110200000Y-68810000D02*
X110200000Y-72950000D01*
X110200000Y-72950000D02*
X114500000Y-77250000D01*
%TO.N,USART2_TX*%
X114100000Y-68810000D02*
X114100000Y-74150000D01*
X116600000Y-76650000D02*
X124550000Y-76650000D01*
X125000000Y-76200000D02*
X125000000Y-72175000D01*
X124550000Y-76650000D02*
X125000000Y-76200000D01*
X114100000Y-74150000D02*
X116600000Y-76650000D01*
%TO.N,SYS_SWCLK*%
X120200000Y-63825000D02*
X114195000Y-63825000D01*
X114195000Y-63825000D02*
X114100000Y-63730000D01*
%TO.N,SYS_SWDIO*%
X121000000Y-62850000D02*
X121000000Y-63825000D01*
X114100000Y-62460000D02*
X120610000Y-62460000D01*
X120610000Y-62460000D02*
X121000000Y-62850000D01*
%TO.N,D_m_2*%
X124450000Y-60100000D02*
X122600000Y-61950000D01*
X122675000Y-63825000D02*
X122700000Y-63800000D01*
X122600000Y-63825000D02*
X122675000Y-63825000D01*
X122600000Y-61950000D02*
X122600000Y-63825000D01*
X124450000Y-60100000D02*
X124450000Y-58500000D01*
%TO.N,LED_Playing*%
X127225000Y-59350000D02*
X127375000Y-59350000D01*
X124200000Y-63825000D02*
X124200000Y-62375000D01*
X124200000Y-62375000D02*
X127225000Y-59350000D01*
D41*
%TO.N,/VIN*%
X127387500Y-80962500D02*
X128300000Y-80962500D01*
D42*
X128350000Y-79262500D02*
X128350000Y-80912500D01*
X128150000Y-79062500D02*
X128350000Y-79262500D01*
D41*
X129212500Y-81012500D02*
X129300000Y-80925000D01*
D42*
X132787500Y-80812500D02*
X129325000Y-80812500D01*
D41*
X128300000Y-80962500D02*
X129262500Y-80962500D01*
X129262500Y-80962500D02*
X129300000Y-80925000D01*
D42*
X128350000Y-80912500D02*
X128300000Y-80962500D01*
X129325000Y-80812500D02*
X129300000Y-80837500D01*
X127387500Y-79062500D02*
X128150000Y-79062500D01*
%TO.N,D_p_2*%
X121800000Y-59612500D02*
X121800000Y-63825000D01*
X122550000Y-58862500D02*
X121800000Y-59612500D01*
X122550000Y-58500000D02*
X122550000Y-58862500D01*
D41*
%TO.N,VBAT*%
X127605000Y-75455000D02*
X127150000Y-75000000D01*
X123400000Y-74075000D02*
X123400000Y-72100000D01*
X130020000Y-75975000D02*
X129500000Y-75455000D01*
X130750000Y-75975000D02*
X130020000Y-75975000D01*
X132825000Y-78050000D02*
X130750000Y-75975000D01*
X124125000Y-74800000D02*
X123400000Y-74075000D01*
X129500000Y-75455000D02*
X127605000Y-75455000D01*
X132825000Y-78225000D02*
X132825000Y-78050000D01*
D42*
%TO.N,/LED_Stat*%
X129125000Y-60900000D02*
X130937500Y-60900000D01*
X130937500Y-60900000D02*
X130987500Y-60850000D01*
%TO.N,/LED_play*%
X129125000Y-59350000D02*
X130937500Y-59350000D01*
X130937500Y-59350000D02*
X130987500Y-59300000D01*
D43*
%TO.N,/Iset*%
X135300000Y-69430000D02*
X135851148Y-69430000D01*
D42*
X137687500Y-69537500D02*
X138650000Y-70500000D01*
D43*
X136503852Y-70075000D02*
X137112500Y-70075000D01*
D42*
X137687500Y-69500000D02*
X137687500Y-69537500D01*
D43*
X136500000Y-70078852D02*
X136503852Y-70075000D01*
D42*
X138650000Y-70500000D02*
X138650000Y-72250000D01*
D43*
X137112500Y-70075000D02*
X137687500Y-69500000D01*
X135851148Y-69430000D02*
X136500000Y-70078852D01*
D42*
%TO.N,/Ilim{slash}Vset*%
X136150000Y-72137500D02*
X138600000Y-74587500D01*
X138600000Y-74587500D02*
X138600000Y-75350000D01*
D43*
X136150000Y-70223826D02*
X136150000Y-72137500D01*
X135756174Y-69830000D02*
X136150000Y-70223826D01*
X135300000Y-69830000D02*
X135756174Y-69830000D01*
D42*
%TO.N,/TS MR*%
X134512500Y-72100000D02*
X134512500Y-74787500D01*
X134512500Y-74787500D02*
X133650000Y-75650000D01*
D43*
X134512500Y-71017500D02*
X134512500Y-72100000D01*
X135300000Y-70230000D02*
X134512500Y-71017500D01*
%TD*%
%TA.AperFunction,Conductor*%
%TO.N,BAT*%
G36*
X133443039Y-66744685D02*
G01*
X133488794Y-66797489D01*
X133500000Y-66849000D01*
X133500000Y-67101000D01*
X133480315Y-67168039D01*
X133427511Y-67213794D01*
X133376000Y-67225000D01*
X132325000Y-67225000D01*
X132325000Y-68625000D01*
X132617441Y-68917441D01*
X132614573Y-68920308D01*
X132632517Y-68934763D01*
X132654593Y-69001054D01*
X132637325Y-69068756D01*
X132586196Y-69116375D01*
X132530673Y-69129500D01*
X131899000Y-69129500D01*
X131831961Y-69109815D01*
X131786206Y-69057011D01*
X131775000Y-69005500D01*
X131775000Y-66849000D01*
X131794685Y-66781961D01*
X131847489Y-66736206D01*
X131899000Y-66725000D01*
X133376000Y-66725000D01*
X133443039Y-66744685D01*
G37*
%TD.AperFunction*%
%TD*%
%TA.AperFunction,Conductor*%
%TO.N,SYS*%
G36*
X135801556Y-67245185D02*
G01*
X135847311Y-67297989D01*
X135857255Y-67367147D01*
X135828230Y-67430703D01*
X135822198Y-67437181D01*
X134989118Y-68270260D01*
X134927795Y-68303745D01*
X134925628Y-68304196D01*
X134847385Y-68319759D01*
X134847379Y-68319761D01*
X134784510Y-68361770D01*
X134760388Y-68377888D01*
X134732082Y-68420252D01*
X134702589Y-68464391D01*
X134648977Y-68509196D01*
X134599487Y-68519500D01*
X133994937Y-68519500D01*
X133927898Y-68499815D01*
X133883536Y-68449960D01*
X133836597Y-68353944D01*
X133751054Y-68268401D01*
X133642366Y-68215266D01*
X133600000Y-68209094D01*
X133600000Y-68075000D01*
X132575000Y-68075000D01*
X132575000Y-68210095D01*
X132536483Y-68153492D01*
X132530500Y-68115440D01*
X132530500Y-67554500D01*
X132550185Y-67487461D01*
X132602989Y-67441706D01*
X132654500Y-67430500D01*
X132879759Y-67430500D01*
X132936052Y-67444014D01*
X132966874Y-67459719D01*
X132966876Y-67459720D01*
X133066507Y-67475500D01*
X133066512Y-67475500D01*
X133633493Y-67475500D01*
X133733121Y-67459720D01*
X133733121Y-67459719D01*
X133733126Y-67459719D01*
X133853220Y-67398528D01*
X133948528Y-67303220D01*
X133953630Y-67293205D01*
X134001604Y-67242410D01*
X134064115Y-67225500D01*
X135734517Y-67225500D01*
X135801556Y-67245185D01*
G37*
%TD.AperFunction*%
%TA.AperFunction,Conductor*%
G36*
X145002702Y-45500617D02*
G01*
X145386771Y-45517386D01*
X145397506Y-45518326D01*
X145775971Y-45568152D01*
X145786597Y-45570025D01*
X146159284Y-45652648D01*
X146169710Y-45655442D01*
X146533765Y-45770227D01*
X146543911Y-45773920D01*
X146896578Y-45920000D01*
X146906369Y-45924566D01*
X147244942Y-46100816D01*
X147254310Y-46106224D01*
X147576244Y-46311318D01*
X147585105Y-46317523D01*
X147887930Y-46549889D01*
X147896217Y-46556843D01*
X148177635Y-46814715D01*
X148185284Y-46822364D01*
X148443156Y-47103782D01*
X148450110Y-47112069D01*
X148682476Y-47414894D01*
X148688681Y-47423755D01*
X148893775Y-47745689D01*
X148899183Y-47755057D01*
X149075430Y-48093623D01*
X149080002Y-48103427D01*
X149226075Y-48456078D01*
X149229775Y-48466244D01*
X149344554Y-48830278D01*
X149347354Y-48840727D01*
X149429971Y-49213389D01*
X149431849Y-49224042D01*
X149481671Y-49602473D01*
X149482614Y-49613249D01*
X149487558Y-49726476D01*
X149496617Y-49933980D01*
X149499382Y-49997297D01*
X149499500Y-50002706D01*
X149499500Y-84997293D01*
X149499382Y-85002702D01*
X149482614Y-85386750D01*
X149481671Y-85397526D01*
X149431849Y-85775957D01*
X149429971Y-85786610D01*
X149347354Y-86159272D01*
X149344554Y-86169721D01*
X149229775Y-86533755D01*
X149226075Y-86543921D01*
X149080002Y-86896572D01*
X149075430Y-86906376D01*
X148899183Y-87244942D01*
X148893775Y-87254310D01*
X148688681Y-87576244D01*
X148682476Y-87585105D01*
X148450110Y-87887930D01*
X148443156Y-87896217D01*
X148185284Y-88177635D01*
X148177635Y-88185284D01*
X147896217Y-88443156D01*
X147887930Y-88450110D01*
X147585105Y-88682476D01*
X147576244Y-88688681D01*
X147254310Y-88893775D01*
X147244942Y-88899183D01*
X146906376Y-89075430D01*
X146896572Y-89080002D01*
X146543921Y-89226075D01*
X146533755Y-89229775D01*
X146169721Y-89344554D01*
X146159272Y-89347354D01*
X145786610Y-89429971D01*
X145775957Y-89431849D01*
X145397526Y-89481671D01*
X145386750Y-89482614D01*
X145002703Y-89499382D01*
X144997294Y-89499500D01*
X110002706Y-89499500D01*
X109997297Y-89499382D01*
X109613249Y-89482614D01*
X109602473Y-89481671D01*
X109224042Y-89431849D01*
X109213389Y-89429971D01*
X108840727Y-89347354D01*
X108830278Y-89344554D01*
X108466244Y-89229775D01*
X108456078Y-89226075D01*
X108103427Y-89080002D01*
X108093623Y-89075430D01*
X107755057Y-88899183D01*
X107745689Y-88893775D01*
X107423755Y-88688681D01*
X107414894Y-88682476D01*
X107112069Y-88450110D01*
X107103782Y-88443156D01*
X106822364Y-88185284D01*
X106814715Y-88177635D01*
X106556843Y-87896217D01*
X106549889Y-87887930D01*
X106317523Y-87585105D01*
X106311318Y-87576244D01*
X106106224Y-87254310D01*
X106100816Y-87244942D01*
X105924569Y-86906376D01*
X105919997Y-86896572D01*
X105861653Y-86755717D01*
X105773920Y-86543911D01*
X105770224Y-86533755D01*
X105737491Y-86429938D01*
X105655442Y-86169710D01*
X105652648Y-86159284D01*
X105570025Y-85786597D01*
X105568152Y-85775971D01*
X105518326Y-85397506D01*
X105517386Y-85386771D01*
X105500618Y-85002702D01*
X105500559Y-84999997D01*
X106594506Y-84999997D01*
X106594506Y-85000002D01*
X106614469Y-85368196D01*
X106614470Y-85368213D01*
X106674122Y-85732068D01*
X106674128Y-85732094D01*
X106772768Y-86087365D01*
X106772770Y-86087371D01*
X106909255Y-86429926D01*
X106909261Y-86429938D01*
X107081973Y-86755708D01*
X107081979Y-86755717D01*
X107248410Y-87001185D01*
X107288910Y-87060917D01*
X107527627Y-87341956D01*
X107795330Y-87595538D01*
X108088881Y-87818690D01*
X108404838Y-88008795D01*
X108404840Y-88008796D01*
X108404842Y-88008797D01*
X108404846Y-88008799D01*
X108739486Y-88163620D01*
X108739497Y-88163625D01*
X109088934Y-88281364D01*
X109449052Y-88360632D01*
X109815630Y-88400500D01*
X109815636Y-88400500D01*
X110184364Y-88400500D01*
X110184370Y-88400500D01*
X110550948Y-88360632D01*
X110911066Y-88281364D01*
X111260503Y-88163625D01*
X111595162Y-88008795D01*
X111911119Y-87818690D01*
X112204670Y-87595538D01*
X112472373Y-87341956D01*
X112711090Y-87060917D01*
X112918022Y-86755716D01*
X113090743Y-86429930D01*
X113227227Y-86087379D01*
X113325875Y-85732081D01*
X113380723Y-85397526D01*
X113385529Y-85368213D01*
X113385529Y-85368210D01*
X113385531Y-85368199D01*
X113405494Y-85000000D01*
X113405494Y-84999997D01*
X141594506Y-84999997D01*
X141594506Y-85000002D01*
X141614469Y-85368196D01*
X141614470Y-85368213D01*
X141674122Y-85732068D01*
X141674128Y-85732094D01*
X141772768Y-86087365D01*
X141772770Y-86087371D01*
X141909255Y-86429926D01*
X141909261Y-86429938D01*
X142081973Y-86755708D01*
X142081979Y-86755717D01*
X142248410Y-87001185D01*
X142288910Y-87060917D01*
X142527627Y-87341956D01*
X142795330Y-87595538D01*
X143088881Y-87818690D01*
X143404838Y-88008795D01*
X143404840Y-88008796D01*
X143404842Y-88008797D01*
X143404846Y-88008799D01*
X143739486Y-88163620D01*
X143739497Y-88163625D01*
X144088934Y-88281364D01*
X144449052Y-88360632D01*
X144815630Y-88400500D01*
X144815636Y-88400500D01*
X145184364Y-88400500D01*
X145184370Y-88400500D01*
X145550948Y-88360632D01*
X145911066Y-88281364D01*
X146260503Y-88163625D01*
X146595162Y-88008795D01*
X146911119Y-87818690D01*
X147204670Y-87595538D01*
X147472373Y-87341956D01*
X147711090Y-87060917D01*
X147918022Y-86755716D01*
X148090743Y-86429930D01*
X148227227Y-86087379D01*
X148325875Y-85732081D01*
X148380723Y-85397526D01*
X148385529Y-85368213D01*
X148385529Y-85368210D01*
X148385531Y-85368199D01*
X148405494Y-85000000D01*
X148385531Y-84631801D01*
X148325875Y-84267919D01*
X148227227Y-83912621D01*
X148090743Y-83570070D01*
X147918022Y-83244284D01*
X147711090Y-82939083D01*
X147472373Y-82658044D01*
X147204670Y-82404462D01*
X146911119Y-82181310D01*
X146595162Y-81991205D01*
X146595161Y-81991204D01*
X146595157Y-81991202D01*
X146595153Y-81991200D01*
X146260513Y-81836379D01*
X146260508Y-81836377D01*
X146260503Y-81836375D01*
X146090172Y-81778983D01*
X145911065Y-81718635D01*
X145550946Y-81639367D01*
X145184371Y-81599500D01*
X145184370Y-81599500D01*
X144815630Y-81599500D01*
X144815628Y-81599500D01*
X144449053Y-81639367D01*
X144088934Y-81718635D01*
X143818812Y-81809650D01*
X143739497Y-81836375D01*
X143739494Y-81836376D01*
X143739486Y-81836379D01*
X143404846Y-81991200D01*
X143404842Y-81991202D01*
X143169538Y-82132779D01*
X143088881Y-82181310D01*
X142988410Y-82257685D01*
X142795330Y-82404461D01*
X142795330Y-82404462D01*
X142527626Y-82658044D01*
X142288909Y-82939083D01*
X142081979Y-83244282D01*
X142081973Y-83244291D01*
X141909261Y-83570061D01*
X141909255Y-83570073D01*
X141772770Y-83912628D01*
X141772768Y-83912634D01*
X141674128Y-84267905D01*
X141674122Y-84267931D01*
X141614470Y-84631786D01*
X141614469Y-84631803D01*
X141594506Y-84999997D01*
X113405494Y-84999997D01*
X113385531Y-84631801D01*
X113325875Y-84267919D01*
X113227227Y-83912621D01*
X113090743Y-83570070D01*
X112918022Y-83244284D01*
X112711090Y-82939083D01*
X112472373Y-82658044D01*
X112204670Y-82404462D01*
X111911119Y-82181310D01*
X111595162Y-81991205D01*
X111595161Y-81991204D01*
X111595157Y-81991202D01*
X111595153Y-81991200D01*
X111260513Y-81836379D01*
X111260508Y-81836377D01*
X111260503Y-81836375D01*
X111090172Y-81778983D01*
X110911065Y-81718635D01*
X110550946Y-81639367D01*
X110184371Y-81599500D01*
X110184370Y-81599500D01*
X109815630Y-81599500D01*
X109815628Y-81599500D01*
X109449053Y-81639367D01*
X109088934Y-81718635D01*
X108818812Y-81809650D01*
X108739497Y-81836375D01*
X108739494Y-81836376D01*
X108739486Y-81836379D01*
X108404846Y-81991200D01*
X108404842Y-81991202D01*
X108169538Y-82132779D01*
X108088881Y-82181310D01*
X107988410Y-82257685D01*
X107795330Y-82404461D01*
X107795330Y-82404462D01*
X107527626Y-82658044D01*
X107288909Y-82939083D01*
X107081979Y-83244282D01*
X107081973Y-83244291D01*
X106909261Y-83570061D01*
X106909255Y-83570073D01*
X106772770Y-83912628D01*
X106772768Y-83912634D01*
X106674128Y-84267905D01*
X106674122Y-84267931D01*
X106614470Y-84631786D01*
X106614469Y-84631803D01*
X106594506Y-84999997D01*
X105500559Y-84999997D01*
X105500500Y-84997293D01*
X105500500Y-80749998D01*
X121394318Y-80749998D01*
X121394318Y-80750001D01*
X121414955Y-80906760D01*
X121414956Y-80906762D01*
X121423130Y-80926497D01*
X121475464Y-81052841D01*
X121571718Y-81178282D01*
X121697159Y-81274536D01*
X121843238Y-81335044D01*
X121921619Y-81345363D01*
X121999999Y-81355682D01*
X122000000Y-81355682D01*
X122000001Y-81355682D01*
X122052254Y-81348802D01*
X122156762Y-81335044D01*
X122302841Y-81274536D01*
X122428282Y-81178282D01*
X122428283Y-81178279D01*
X122431093Y-81176124D01*
X122496263Y-81150930D01*
X122506580Y-81150500D01*
X122566777Y-81150500D01*
X122633816Y-81170185D01*
X122677261Y-81218204D01*
X122701471Y-81265718D01*
X122701476Y-81265725D01*
X122796774Y-81361023D01*
X122796778Y-81361026D01*
X122796780Y-81361028D01*
X122916874Y-81422219D01*
X122916876Y-81422219D01*
X122916878Y-81422220D01*
X123016507Y-81438000D01*
X123016512Y-81438000D01*
X123583493Y-81438000D01*
X123683123Y-81422220D01*
X123683124Y-81422219D01*
X123683126Y-81422219D01*
X123760716Y-81382685D01*
X123772826Y-81376515D01*
X123829120Y-81363000D01*
X124303456Y-81363000D01*
X124370495Y-81382685D01*
X124391137Y-81399319D01*
X124393514Y-81401696D01*
X124393515Y-81401696D01*
X124393517Y-81401698D01*
X124498607Y-81453073D01*
X124532673Y-81458036D01*
X124566739Y-81463000D01*
X124566740Y-81463000D01*
X125658261Y-81463000D01*
X125680971Y-81459691D01*
X125726393Y-81453073D01*
X125831483Y-81401698D01*
X125914198Y-81318983D01*
X125965573Y-81213893D01*
X125975500Y-81145760D01*
X125975500Y-80779240D01*
X125965573Y-80711107D01*
X125914198Y-80606017D01*
X125914196Y-80606015D01*
X125914196Y-80606014D01*
X125831485Y-80523303D01*
X125726391Y-80471926D01*
X125658261Y-80462000D01*
X125658260Y-80462000D01*
X124566740Y-80462000D01*
X124566739Y-80462000D01*
X124498608Y-80471926D01*
X124393514Y-80523303D01*
X124391137Y-80525681D01*
X124387085Y-80527893D01*
X124385153Y-80529273D01*
X124384986Y-80529039D01*
X124329814Y-80559166D01*
X124303456Y-80562000D01*
X124086631Y-80562000D01*
X124019592Y-80542315D01*
X123973837Y-80489511D01*
X123964158Y-80457397D01*
X123959720Y-80429378D01*
X123959719Y-80429376D01*
X123959719Y-80429374D01*
X123898528Y-80309280D01*
X123898526Y-80309278D01*
X123898523Y-80309274D01*
X123803225Y-80213976D01*
X123803221Y-80213973D01*
X123803220Y-80213972D01*
X123683126Y-80152781D01*
X123683124Y-80152780D01*
X123683121Y-80152779D01*
X123583493Y-80137000D01*
X123583488Y-80137000D01*
X123016512Y-80137000D01*
X123016507Y-80137000D01*
X122916878Y-80152779D01*
X122796778Y-80213973D01*
X122796774Y-80213976D01*
X122697570Y-80313181D01*
X122636247Y-80346666D01*
X122609889Y-80349500D01*
X122506580Y-80349500D01*
X122439541Y-80329815D01*
X122431093Y-80323876D01*
X122428283Y-80321720D01*
X122428282Y-80321718D01*
X122302841Y-80225464D01*
X122292462Y-80221165D01*
X122156762Y-80164956D01*
X122156760Y-80164955D01*
X122000001Y-80144318D01*
X121999999Y-80144318D01*
X121843239Y-80164955D01*
X121843237Y-80164956D01*
X121697160Y-80225463D01*
X121571718Y-80321718D01*
X121475463Y-80447160D01*
X121414956Y-80593237D01*
X121414955Y-80593239D01*
X121394318Y-80749998D01*
X105500500Y-80749998D01*
X105500500Y-80012497D01*
X126069196Y-80012497D01*
X126069196Y-80012502D01*
X126090279Y-80145621D01*
X126090280Y-80145624D01*
X126090281Y-80145626D01*
X126151472Y-80265720D01*
X126151473Y-80265721D01*
X126151476Y-80265725D01*
X126246774Y-80361023D01*
X126246778Y-80361026D01*
X126246780Y-80361028D01*
X126366874Y-80422219D01*
X126487795Y-80441370D01*
X126550926Y-80471298D01*
X126587858Y-80530610D01*
X126586860Y-80600472D01*
X126579795Y-80618302D01*
X126534426Y-80711106D01*
X126534426Y-80711107D01*
X126524500Y-80779239D01*
X126524500Y-81145760D01*
X126534426Y-81213891D01*
X126585803Y-81318985D01*
X126668514Y-81401696D01*
X126668515Y-81401696D01*
X126668517Y-81401698D01*
X126773607Y-81453073D01*
X126807673Y-81458036D01*
X126841739Y-81463000D01*
X126841740Y-81463000D01*
X127933261Y-81463000D01*
X127955971Y-81459691D01*
X128001393Y-81453073D01*
X128106483Y-81401698D01*
X128106485Y-81401696D01*
X128108863Y-81399319D01*
X128112914Y-81397106D01*
X128114847Y-81395727D01*
X128115013Y-81395960D01*
X128170186Y-81365834D01*
X128196544Y-81363000D01*
X128247273Y-81363000D01*
X128697389Y-81363000D01*
X128764428Y-81382685D01*
X128785070Y-81399319D01*
X128796774Y-81411023D01*
X128796778Y-81411026D01*
X128796780Y-81411028D01*
X128916874Y-81472219D01*
X128916876Y-81472219D01*
X128916878Y-81472220D01*
X129016507Y-81488000D01*
X129016512Y-81488000D01*
X129583493Y-81488000D01*
X129683121Y-81472220D01*
X129683121Y-81472219D01*
X129683126Y-81472219D01*
X129803220Y-81411028D01*
X129898528Y-81315720D01*
X129941845Y-81230704D01*
X129989820Y-81179909D01*
X130052330Y-81163000D01*
X131958000Y-81163000D01*
X132025039Y-81182685D01*
X132070794Y-81235489D01*
X132082000Y-81287000D01*
X132082000Y-81562504D01*
X132087151Y-81608228D01*
X132126833Y-81690626D01*
X132126834Y-81690627D01*
X132198337Y-81747649D01*
X132273703Y-81764851D01*
X132287495Y-81767999D01*
X132287500Y-81768000D01*
X133287493Y-81768000D01*
X133287500Y-81768000D01*
X133304987Y-81767255D01*
X133392095Y-81739390D01*
X133458486Y-81676491D01*
X133958486Y-80926491D01*
X133983230Y-80875110D01*
X133991012Y-80783986D01*
X133958486Y-80698509D01*
X133458486Y-79948509D01*
X133448166Y-79934373D01*
X133432925Y-79922219D01*
X133376663Y-79877351D01*
X133287504Y-79857000D01*
X133287500Y-79857000D01*
X132287500Y-79857000D01*
X132287495Y-79857000D01*
X132241771Y-79862151D01*
X132159373Y-79901833D01*
X132102351Y-79973336D01*
X132082000Y-80062495D01*
X132082000Y-80338000D01*
X132062315Y-80405039D01*
X132009511Y-80450794D01*
X131958000Y-80462000D01*
X130026853Y-80462000D01*
X129959814Y-80442315D01*
X129916368Y-80394294D01*
X129898528Y-80359280D01*
X129898525Y-80359277D01*
X129898523Y-80359274D01*
X129803225Y-80263976D01*
X129803221Y-80263973D01*
X129803220Y-80263972D01*
X129683126Y-80202781D01*
X129683124Y-80202780D01*
X129683121Y-80202779D01*
X129583493Y-80187000D01*
X129583488Y-80187000D01*
X129016512Y-80187000D01*
X129016507Y-80187000D01*
X128916877Y-80202779D01*
X128880793Y-80221165D01*
X128812123Y-80234060D01*
X128747383Y-80207782D01*
X128707127Y-80150675D01*
X128700500Y-80110679D01*
X128700500Y-80014320D01*
X128720185Y-79947281D01*
X128772989Y-79901526D01*
X128842147Y-79891582D01*
X128880790Y-79903833D01*
X128916874Y-79922219D01*
X128916876Y-79922219D01*
X128916878Y-79922220D01*
X129016507Y-79938000D01*
X129016512Y-79938000D01*
X129583493Y-79938000D01*
X129683121Y-79922220D01*
X129683121Y-79922219D01*
X129683126Y-79922219D01*
X129803220Y-79861028D01*
X129898528Y-79765720D01*
X129959719Y-79645626D01*
X129966503Y-79602793D01*
X129975500Y-79545993D01*
X129975500Y-79029006D01*
X129959720Y-78929378D01*
X129959719Y-78929376D01*
X129959719Y-78929374D01*
X129898528Y-78809280D01*
X129898526Y-78809278D01*
X129898523Y-78809274D01*
X129803225Y-78713976D01*
X129803222Y-78713974D01*
X129803220Y-78713972D01*
X129773915Y-78699040D01*
X129723121Y-78651067D01*
X129706326Y-78583246D01*
X129709098Y-78567908D01*
X129708193Y-78567765D01*
X129730804Y-78425002D01*
X129730804Y-78424997D01*
X129709720Y-78291878D01*
X129709719Y-78291876D01*
X129709719Y-78291874D01*
X129648528Y-78171780D01*
X129648526Y-78171778D01*
X129648523Y-78171774D01*
X129553225Y-78076476D01*
X129553221Y-78076473D01*
X129553220Y-78076472D01*
X129433126Y-78015281D01*
X129433124Y-78015280D01*
X129433121Y-78015279D01*
X129300002Y-77994196D01*
X129299998Y-77994196D01*
X129166878Y-78015279D01*
X129046778Y-78076473D01*
X129046774Y-78076476D01*
X128951476Y-78171774D01*
X128951473Y-78171778D01*
X128890279Y-78291878D01*
X128869196Y-78424997D01*
X128869196Y-78425002D01*
X128891807Y-78567765D01*
X128888233Y-78568330D01*
X128889714Y-78620075D01*
X128853636Y-78679910D01*
X128826083Y-78699041D01*
X128796781Y-78713971D01*
X128796774Y-78713976D01*
X128701476Y-78809274D01*
X128701474Y-78809278D01*
X128701472Y-78809280D01*
X128674652Y-78861918D01*
X128626677Y-78912714D01*
X128558856Y-78929509D01*
X128492721Y-78906971D01*
X128476486Y-78893304D01*
X128365213Y-78782031D01*
X128365208Y-78782027D01*
X128285290Y-78735887D01*
X128285289Y-78735886D01*
X128259955Y-78729098D01*
X128226919Y-78720246D01*
X128171335Y-78688154D01*
X128106483Y-78623302D01*
X128024547Y-78583246D01*
X128001391Y-78571926D01*
X127933261Y-78562000D01*
X127933260Y-78562000D01*
X126841740Y-78562000D01*
X126841739Y-78562000D01*
X126773608Y-78571926D01*
X126668514Y-78623303D01*
X126585803Y-78706014D01*
X126534426Y-78811108D01*
X126524500Y-78879239D01*
X126524500Y-79245760D01*
X126534426Y-79313891D01*
X126579795Y-79406696D01*
X126591553Y-79475569D01*
X126564210Y-79539866D01*
X126506445Y-79579173D01*
X126487792Y-79583629D01*
X126366878Y-79602779D01*
X126366874Y-79602780D01*
X126366874Y-79602781D01*
X126362959Y-79604776D01*
X126246778Y-79663973D01*
X126246774Y-79663976D01*
X126151476Y-79759274D01*
X126151473Y-79759278D01*
X126090279Y-79879378D01*
X126069196Y-80012497D01*
X105500500Y-80012497D01*
X105500500Y-79262497D01*
X121769196Y-79262497D01*
X121769196Y-79262502D01*
X121790279Y-79395621D01*
X121790280Y-79395624D01*
X121790281Y-79395626D01*
X121851472Y-79515720D01*
X121851473Y-79515721D01*
X121851476Y-79515725D01*
X121946774Y-79611023D01*
X121946778Y-79611026D01*
X121946780Y-79611028D01*
X122066874Y-79672219D01*
X122066876Y-79672219D01*
X122066878Y-79672220D01*
X122199998Y-79693304D01*
X122200000Y-79693304D01*
X122200002Y-79693304D01*
X122333122Y-79672220D01*
X122333123Y-79672219D01*
X122333126Y-79672219D01*
X122373762Y-79651513D01*
X122430055Y-79638000D01*
X122585885Y-79638000D01*
X122652924Y-79657685D01*
X122696370Y-79705706D01*
X122701471Y-79715719D01*
X122701476Y-79715725D01*
X122796774Y-79811023D01*
X122796778Y-79811026D01*
X122796780Y-79811028D01*
X122916874Y-79872219D01*
X122916876Y-79872219D01*
X122916878Y-79872220D01*
X123016507Y-79888000D01*
X123016512Y-79888000D01*
X123583493Y-79888000D01*
X123683121Y-79872220D01*
X123683121Y-79872219D01*
X123683126Y-79872219D01*
X123803220Y-79811028D01*
X123898528Y-79715720D01*
X123959719Y-79595626D01*
X123961619Y-79583629D01*
X123975500Y-79495993D01*
X123975500Y-78979006D01*
X123959720Y-78879378D01*
X123959719Y-78879376D01*
X123959719Y-78879374D01*
X123959650Y-78879239D01*
X124249500Y-78879239D01*
X124249500Y-79245760D01*
X124259426Y-79313891D01*
X124310803Y-79418985D01*
X124393514Y-79501696D01*
X124393515Y-79501696D01*
X124393517Y-79501698D01*
X124498607Y-79553073D01*
X124532673Y-79558036D01*
X124566739Y-79563000D01*
X124566740Y-79563000D01*
X125658261Y-79563000D01*
X125680971Y-79559691D01*
X125726393Y-79553073D01*
X125831483Y-79501698D01*
X125914198Y-79418983D01*
X125965573Y-79313893D01*
X125975500Y-79245760D01*
X125975500Y-78879240D01*
X125965573Y-78811107D01*
X125914198Y-78706017D01*
X125914196Y-78706015D01*
X125914196Y-78706014D01*
X125831485Y-78623303D01*
X125726391Y-78571926D01*
X125658261Y-78562000D01*
X125658260Y-78562000D01*
X124566740Y-78562000D01*
X124566739Y-78562000D01*
X124498608Y-78571926D01*
X124393514Y-78623303D01*
X124310803Y-78706014D01*
X124259426Y-78811108D01*
X124249500Y-78879239D01*
X123959650Y-78879239D01*
X123898528Y-78759280D01*
X123898526Y-78759278D01*
X123898523Y-78759274D01*
X123803225Y-78663976D01*
X123803221Y-78663973D01*
X123803220Y-78663972D01*
X123683126Y-78602781D01*
X123683124Y-78602780D01*
X123683121Y-78602779D01*
X123583493Y-78587000D01*
X123583488Y-78587000D01*
X123016512Y-78587000D01*
X123016507Y-78587000D01*
X122916878Y-78602779D01*
X122796778Y-78663973D01*
X122796774Y-78663976D01*
X122701476Y-78759274D01*
X122701471Y-78759280D01*
X122696370Y-78769294D01*
X122648396Y-78820090D01*
X122585885Y-78837000D01*
X122243245Y-78837000D01*
X122223847Y-78835473D01*
X122200000Y-78831696D01*
X122199998Y-78831696D01*
X122066878Y-78852779D01*
X122066874Y-78852780D01*
X122066874Y-78852781D01*
X122002375Y-78885645D01*
X121946778Y-78913973D01*
X121946774Y-78913976D01*
X121851476Y-79009274D01*
X121851473Y-79009278D01*
X121790279Y-79129378D01*
X121769196Y-79262497D01*
X105500500Y-79262497D01*
X105500500Y-62499998D01*
X108144318Y-62499998D01*
X108144318Y-62500001D01*
X108164955Y-62656760D01*
X108164956Y-62656762D01*
X108224080Y-62799501D01*
X108225464Y-62802841D01*
X108321718Y-62928282D01*
X108447159Y-63024536D01*
X108593238Y-63085044D01*
X108593239Y-63085044D01*
X108600747Y-63088154D01*
X108599488Y-63091192D01*
X108646044Y-63119552D01*
X108676591Y-63182391D01*
X108668316Y-63251768D01*
X108623846Y-63305659D01*
X108610609Y-63313472D01*
X108496783Y-63371469D01*
X108496774Y-63371476D01*
X108401476Y-63466774D01*
X108401473Y-63466778D01*
X108340279Y-63586878D01*
X108319196Y-63719997D01*
X108319196Y-63720002D01*
X108340279Y-63853121D01*
X108340280Y-63853124D01*
X108340281Y-63853126D01*
X108401472Y-63973220D01*
X108401473Y-63973221D01*
X108401476Y-63973225D01*
X108496774Y-64068523D01*
X108496778Y-64068526D01*
X108496780Y-64068528D01*
X108616874Y-64129719D01*
X108744305Y-64149902D01*
X108807436Y-64179829D01*
X108828006Y-64203483D01*
X108855447Y-64244552D01*
X108881407Y-64261898D01*
X108926212Y-64315511D01*
X108934919Y-64384836D01*
X108904764Y-64447863D01*
X108881407Y-64468102D01*
X108855450Y-64485445D01*
X108846816Y-64494081D01*
X108845715Y-64492980D01*
X108802746Y-64528892D01*
X108753256Y-64539196D01*
X108749998Y-64539196D01*
X108616878Y-64560279D01*
X108616874Y-64560280D01*
X108616874Y-64560281D01*
X108572713Y-64582782D01*
X108496778Y-64621473D01*
X108496774Y-64621476D01*
X108401476Y-64716774D01*
X108401473Y-64716778D01*
X108401472Y-64716780D01*
X108353760Y-64810421D01*
X108340279Y-64836878D01*
X108319196Y-64969997D01*
X108319196Y-64970002D01*
X108340279Y-65103121D01*
X108340280Y-65103124D01*
X108340281Y-65103126D01*
X108401472Y-65223220D01*
X108401473Y-65223221D01*
X108401476Y-65223225D01*
X108496774Y-65318523D01*
X108496778Y-65318526D01*
X108496780Y-65318528D01*
X108616874Y-65379719D01*
X108729358Y-65397534D01*
X108792490Y-65427462D01*
X108813060Y-65451115D01*
X108855448Y-65514553D01*
X108881407Y-65531898D01*
X108926212Y-65585511D01*
X108934919Y-65654836D01*
X108904764Y-65717863D01*
X108881407Y-65738102D01*
X108855447Y-65755447D01*
X108811132Y-65821769D01*
X108811131Y-65821770D01*
X108799500Y-65880247D01*
X108799500Y-66659752D01*
X108811131Y-66718229D01*
X108811132Y-66718230D01*
X108855447Y-66784552D01*
X108881407Y-66801898D01*
X108926212Y-66855511D01*
X108934919Y-66924836D01*
X108904764Y-66987863D01*
X108881407Y-67008102D01*
X108855447Y-67025447D01*
X108813061Y-67088883D01*
X108759448Y-67133688D01*
X108729357Y-67142465D01*
X108616878Y-67160279D01*
X108616874Y-67160280D01*
X108616874Y-67160281D01*
X108538291Y-67200321D01*
X108496778Y-67221473D01*
X108496774Y-67221476D01*
X108401476Y-67316774D01*
X108401473Y-67316778D01*
X108340279Y-67436878D01*
X108319196Y-67569997D01*
X108319196Y-67570002D01*
X108340279Y-67703121D01*
X108340280Y-67703124D01*
X108340281Y-67703126D01*
X108401472Y-67823220D01*
X108401473Y-67823221D01*
X108401476Y-67823225D01*
X108496774Y-67918523D01*
X108496778Y-67918526D01*
X108496780Y-67918528D01*
X108616874Y-67979719D01*
X108616876Y-67979719D01*
X108616878Y-67979720D01*
X108749998Y-68000804D01*
X108753255Y-68000804D01*
X108757069Y-68001924D01*
X108759639Y-68002331D01*
X108759586Y-68002663D01*
X108820294Y-68020489D01*
X108846499Y-68046229D01*
X108846812Y-68045917D01*
X108855446Y-68054551D01*
X108881407Y-68071898D01*
X108926212Y-68125511D01*
X108934919Y-68194836D01*
X108904764Y-68257863D01*
X108881407Y-68278102D01*
X108855447Y-68295447D01*
X108811132Y-68361769D01*
X108811131Y-68361770D01*
X108799500Y-68420247D01*
X108799500Y-69199752D01*
X108811131Y-69258229D01*
X108811132Y-69258230D01*
X108855447Y-69324552D01*
X108921769Y-69368867D01*
X108921770Y-69368868D01*
X108980247Y-69380499D01*
X108980250Y-69380500D01*
X108980252Y-69380500D01*
X109725500Y-69380500D01*
X109792539Y-69400185D01*
X109838294Y-69452989D01*
X109849500Y-69504500D01*
X109849500Y-72996144D01*
X109864065Y-73050499D01*
X109871663Y-73078856D01*
X109871663Y-73078858D01*
X109873384Y-73085283D01*
X109873388Y-73085293D01*
X109919527Y-73165208D01*
X109919529Y-73165211D01*
X109919530Y-73165212D01*
X114219531Y-77465212D01*
X114284788Y-77530469D01*
X114284791Y-77530470D01*
X114284794Y-77530473D01*
X114364706Y-77576611D01*
X114364707Y-77576611D01*
X114364712Y-77576614D01*
X114453856Y-77600500D01*
X114453858Y-77600500D01*
X124946142Y-77600500D01*
X124946144Y-77600500D01*
X125035288Y-77576614D01*
X125056523Y-77564354D01*
X125115212Y-77530470D01*
X126080470Y-76565212D01*
X126126614Y-76485288D01*
X126127011Y-76483808D01*
X126129851Y-76473209D01*
X126129851Y-76473208D01*
X126135775Y-76451098D01*
X126150500Y-76396144D01*
X126150500Y-74999997D01*
X126719196Y-74999997D01*
X126719196Y-75000002D01*
X126740279Y-75133121D01*
X126740280Y-75133124D01*
X126740281Y-75133126D01*
X126791234Y-75233126D01*
X126801473Y-75253221D01*
X126801476Y-75253225D01*
X126896774Y-75348523D01*
X126896776Y-75348524D01*
X126896780Y-75348528D01*
X126951366Y-75376341D01*
X126982751Y-75399144D01*
X127359087Y-75775480D01*
X127450412Y-75828207D01*
X127552273Y-75855500D01*
X129060134Y-75855500D01*
X129127173Y-75875185D01*
X129131257Y-75877925D01*
X129131682Y-75878223D01*
X129131683Y-75878223D01*
X129131684Y-75878224D01*
X129240513Y-75928972D01*
X129290099Y-75935500D01*
X129362743Y-75935499D01*
X129429782Y-75955183D01*
X129450425Y-75971818D01*
X129774087Y-76295480D01*
X129865412Y-76348207D01*
X129967273Y-76375500D01*
X130057745Y-76375500D01*
X130124784Y-76395185D01*
X130145426Y-76411819D01*
X130236652Y-76503045D01*
X130236654Y-76503046D01*
X130236658Y-76503050D01*
X130349696Y-76560646D01*
X130349698Y-76560647D01*
X130443475Y-76575499D01*
X130443481Y-76575500D01*
X130732744Y-76575499D01*
X130799783Y-76595183D01*
X130820425Y-76611818D01*
X132188181Y-77979574D01*
X132221666Y-78040897D01*
X132224500Y-78067255D01*
X132224500Y-78531517D01*
X132231580Y-78576219D01*
X132239354Y-78625304D01*
X132296950Y-78738342D01*
X132296952Y-78738344D01*
X132296954Y-78738347D01*
X132386652Y-78828045D01*
X132386654Y-78828046D01*
X132386658Y-78828050D01*
X132499694Y-78885645D01*
X132499698Y-78885647D01*
X132593475Y-78900499D01*
X132593481Y-78900500D01*
X133056518Y-78900499D01*
X133150304Y-78885646D01*
X133263342Y-78828050D01*
X133353050Y-78738342D01*
X133410646Y-78625304D01*
X133410646Y-78625302D01*
X133410647Y-78625301D01*
X133425499Y-78531524D01*
X133425500Y-78531519D01*
X133425499Y-77918482D01*
X133410646Y-77824696D01*
X133353050Y-77711658D01*
X133353046Y-77711654D01*
X133353045Y-77711652D01*
X133263347Y-77621954D01*
X133263344Y-77621952D01*
X133263342Y-77621950D01*
X133186517Y-77582805D01*
X133150301Y-77564352D01*
X133056524Y-77549500D01*
X133056519Y-77549500D01*
X132942255Y-77549500D01*
X132875216Y-77529815D01*
X132854574Y-77513181D01*
X131461818Y-76120425D01*
X131428333Y-76059102D01*
X131425499Y-76032744D01*
X131425499Y-75743482D01*
X131410646Y-75649696D01*
X131353050Y-75536658D01*
X131353046Y-75536654D01*
X131353045Y-75536652D01*
X131263347Y-75446954D01*
X131263344Y-75446952D01*
X131263342Y-75446950D01*
X131169518Y-75399144D01*
X131150301Y-75389352D01*
X131056524Y-75374500D01*
X130443482Y-75374500D01*
X130362519Y-75387323D01*
X130349696Y-75389354D01*
X130272943Y-75428462D01*
X130236654Y-75446952D01*
X130235176Y-75448431D01*
X130232936Y-75449653D01*
X130228763Y-75452686D01*
X130228370Y-75452146D01*
X130173851Y-75481913D01*
X130104160Y-75476924D01*
X130059819Y-75448426D01*
X130046818Y-75435425D01*
X130013333Y-75374102D01*
X130010499Y-75347744D01*
X130010499Y-75275105D01*
X130010499Y-75275100D01*
X130003972Y-75225513D01*
X129953224Y-75116684D01*
X129943721Y-75107181D01*
X129910236Y-75045858D01*
X129915220Y-74976166D01*
X129957092Y-74920233D01*
X130022556Y-74895816D01*
X130031402Y-74895500D01*
X130290201Y-74895500D01*
X130346492Y-74909013D01*
X130349696Y-74910646D01*
X130349697Y-74910646D01*
X130349699Y-74910647D01*
X130443475Y-74925499D01*
X130443481Y-74925500D01*
X131056518Y-74925499D01*
X131150304Y-74910646D01*
X131263342Y-74853050D01*
X131353050Y-74763342D01*
X131353051Y-74763339D01*
X131353137Y-74763254D01*
X131414460Y-74729769D01*
X131460214Y-74728462D01*
X131475000Y-74730804D01*
X131572838Y-74715308D01*
X131608121Y-74709720D01*
X131608121Y-74709719D01*
X131608126Y-74709719D01*
X131728220Y-74648528D01*
X131823528Y-74553220D01*
X131884719Y-74433126D01*
X131887631Y-74414743D01*
X131905804Y-74300002D01*
X131905804Y-74299997D01*
X131884720Y-74166878D01*
X131884719Y-74166876D01*
X131884719Y-74166874D01*
X131823528Y-74046780D01*
X131823526Y-74046778D01*
X131823523Y-74046774D01*
X131728225Y-73951476D01*
X131728221Y-73951473D01*
X131728220Y-73951472D01*
X131608126Y-73890281D01*
X131608124Y-73890280D01*
X131608121Y-73890279D01*
X131475002Y-73869196D01*
X131475000Y-73869196D01*
X131417051Y-73878373D01*
X131347758Y-73869418D01*
X131309974Y-73843581D01*
X131263347Y-73796954D01*
X131263344Y-73796952D01*
X131263342Y-73796950D01*
X131162453Y-73745544D01*
X131150301Y-73739352D01*
X131056524Y-73724500D01*
X130443482Y-73724500D01*
X130362519Y-73737323D01*
X130349696Y-73739354D01*
X130236658Y-73796950D01*
X130236657Y-73796951D01*
X130236652Y-73796954D01*
X130146954Y-73886652D01*
X130146951Y-73886657D01*
X130146950Y-73886658D01*
X130089354Y-73999696D01*
X130086390Y-74008819D01*
X130046952Y-74066494D01*
X129982593Y-74093692D01*
X129968459Y-74094500D01*
X129939866Y-74094500D01*
X129872827Y-74074815D01*
X129868743Y-74072075D01*
X129868317Y-74071776D01*
X129802611Y-74041137D01*
X129759487Y-74021028D01*
X129759485Y-74021027D01*
X129759486Y-74021027D01*
X129709901Y-74014500D01*
X129290105Y-74014500D01*
X129274386Y-74016569D01*
X129240513Y-74021028D01*
X129240511Y-74021029D01*
X129240509Y-74021029D01*
X129131683Y-74071776D01*
X129046776Y-74156683D01*
X128996027Y-74265514D01*
X128989500Y-74315097D01*
X128989500Y-74674894D01*
X128989501Y-74674900D01*
X128996028Y-74724487D01*
X128996029Y-74724489D01*
X128996029Y-74724490D01*
X129046776Y-74833316D01*
X129056279Y-74842819D01*
X129089764Y-74904142D01*
X129084780Y-74973834D01*
X129042908Y-75029767D01*
X128977444Y-75054184D01*
X128968598Y-75054500D01*
X127822255Y-75054500D01*
X127755216Y-75034815D01*
X127734574Y-75018181D01*
X127549144Y-74832751D01*
X127526340Y-74801365D01*
X127498528Y-74746780D01*
X127498524Y-74746776D01*
X127498523Y-74746774D01*
X127403225Y-74651476D01*
X127403221Y-74651473D01*
X127403220Y-74651472D01*
X127283126Y-74590281D01*
X127283124Y-74590280D01*
X127283121Y-74590279D01*
X127150002Y-74569196D01*
X127149998Y-74569196D01*
X127016878Y-74590279D01*
X126896778Y-74651473D01*
X126896774Y-74651476D01*
X126801476Y-74746774D01*
X126801473Y-74746778D01*
X126740279Y-74866878D01*
X126719196Y-74999997D01*
X126150500Y-74999997D01*
X126150500Y-73011188D01*
X126170185Y-72944149D01*
X126186819Y-72923507D01*
X126195747Y-72914579D01*
X126244259Y-72810545D01*
X126250500Y-72763139D01*
X126250499Y-71436862D01*
X126244259Y-71389455D01*
X126195844Y-71285630D01*
X126185353Y-71216555D01*
X126188022Y-71210584D01*
X126132782Y-71211023D01*
X126114368Y-71204154D01*
X126010544Y-71155740D01*
X125963140Y-71149500D01*
X125636867Y-71149500D01*
X125621839Y-71151478D01*
X125589455Y-71155741D01*
X125589453Y-71155742D01*
X125589451Y-71155742D01*
X125485419Y-71204253D01*
X125476535Y-71210475D01*
X125475322Y-71208742D01*
X125426347Y-71235480D01*
X125356656Y-71230489D01*
X125324100Y-71209566D01*
X125323465Y-71210475D01*
X125314580Y-71204254D01*
X125314579Y-71204253D01*
X125210545Y-71155741D01*
X125210543Y-71155740D01*
X125210544Y-71155740D01*
X125163140Y-71149500D01*
X124836867Y-71149500D01*
X124821839Y-71151478D01*
X124789455Y-71155741D01*
X124789453Y-71155742D01*
X124789451Y-71155742D01*
X124685419Y-71204253D01*
X124676535Y-71210475D01*
X124675322Y-71208742D01*
X124626347Y-71235480D01*
X124556656Y-71230489D01*
X124524100Y-71209566D01*
X124523465Y-71210475D01*
X124514580Y-71204254D01*
X124514579Y-71204253D01*
X124410545Y-71155741D01*
X124410543Y-71155740D01*
X124410544Y-71155740D01*
X124363140Y-71149500D01*
X124036867Y-71149500D01*
X124021839Y-71151478D01*
X123989455Y-71155741D01*
X123989453Y-71155742D01*
X123989451Y-71155742D01*
X123885419Y-71204253D01*
X123876535Y-71210475D01*
X123875322Y-71208742D01*
X123826347Y-71235480D01*
X123756656Y-71230489D01*
X123724100Y-71209566D01*
X123723465Y-71210475D01*
X123714580Y-71204254D01*
X123714579Y-71204253D01*
X123610545Y-71155741D01*
X123610543Y-71155740D01*
X123610544Y-71155740D01*
X123563140Y-71149500D01*
X123236867Y-71149500D01*
X123221839Y-71151478D01*
X123189455Y-71155741D01*
X123189453Y-71155742D01*
X123189451Y-71155742D01*
X123085419Y-71204253D01*
X123076535Y-71210475D01*
X123075322Y-71208742D01*
X123026347Y-71235480D01*
X122956656Y-71230489D01*
X122924100Y-71209566D01*
X122923465Y-71210475D01*
X122914580Y-71204254D01*
X122914579Y-71204253D01*
X122810545Y-71155741D01*
X122810543Y-71155740D01*
X122810544Y-71155740D01*
X122763140Y-71149500D01*
X122436867Y-71149500D01*
X122421839Y-71151478D01*
X122389455Y-71155741D01*
X122389453Y-71155742D01*
X122389451Y-71155742D01*
X122285419Y-71204253D01*
X122276535Y-71210475D01*
X122275322Y-71208742D01*
X122226347Y-71235480D01*
X122156656Y-71230489D01*
X122124100Y-71209566D01*
X122123465Y-71210475D01*
X122114580Y-71204254D01*
X122114579Y-71204253D01*
X122010545Y-71155741D01*
X122010543Y-71155740D01*
X122010544Y-71155740D01*
X121963140Y-71149500D01*
X121636867Y-71149500D01*
X121621839Y-71151478D01*
X121589455Y-71155741D01*
X121589453Y-71155742D01*
X121589451Y-71155742D01*
X121485419Y-71204253D01*
X121476535Y-71210475D01*
X121475322Y-71208742D01*
X121426347Y-71235480D01*
X121356656Y-71230489D01*
X121324100Y-71209566D01*
X121323465Y-71210475D01*
X121314580Y-71204254D01*
X121314579Y-71204253D01*
X121210545Y-71155741D01*
X121210543Y-71155740D01*
X121210544Y-71155740D01*
X121163140Y-71149500D01*
X120836867Y-71149500D01*
X120821839Y-71151478D01*
X120789455Y-71155741D01*
X120789453Y-71155742D01*
X120789451Y-71155742D01*
X120776905Y-71161593D01*
X120707828Y-71172085D01*
X120644043Y-71143565D01*
X120605804Y-71085089D01*
X120600500Y-71049211D01*
X120600500Y-70980988D01*
X120609569Y-70943336D01*
X120606704Y-70942405D01*
X120609720Y-70933123D01*
X120630804Y-70800002D01*
X120630804Y-70799997D01*
X120609719Y-70666873D01*
X120606704Y-70657593D01*
X120609539Y-70656671D01*
X120600500Y-70619011D01*
X120600500Y-70267471D01*
X120620185Y-70200432D01*
X120636819Y-70179790D01*
X123329148Y-67487461D01*
X126023802Y-64792806D01*
X126085123Y-64759323D01*
X126154815Y-64764307D01*
X126210748Y-64806179D01*
X126235165Y-64871643D01*
X126231612Y-64905000D01*
X126231979Y-64905049D01*
X126224500Y-64961859D01*
X126224500Y-65288132D01*
X126224501Y-65288138D01*
X126230741Y-65335545D01*
X126230742Y-65335547D01*
X126230742Y-65335548D01*
X126279253Y-65439580D01*
X126285475Y-65448465D01*
X126283742Y-65449677D01*
X126310480Y-65498653D01*
X126305489Y-65568344D01*
X126284566Y-65600899D01*
X126285475Y-65601535D01*
X126279254Y-65610419D01*
X126230740Y-65714456D01*
X126224500Y-65761859D01*
X126224500Y-66088132D01*
X126224501Y-66088138D01*
X126230741Y-66135545D01*
X126230742Y-66135547D01*
X126230742Y-66135548D01*
X126279253Y-66239580D01*
X126285475Y-66248465D01*
X126283742Y-66249677D01*
X126310480Y-66298653D01*
X126305489Y-66368344D01*
X126284566Y-66400899D01*
X126285475Y-66401535D01*
X126279254Y-66410419D01*
X126230740Y-66514456D01*
X126224500Y-66561859D01*
X126224500Y-66888132D01*
X126224501Y-66888138D01*
X126230741Y-66935545D01*
X126230742Y-66935547D01*
X126230742Y-66935548D01*
X126279253Y-67039580D01*
X126285475Y-67048465D01*
X126283742Y-67049677D01*
X126310480Y-67098653D01*
X126305489Y-67168344D01*
X126284566Y-67200899D01*
X126285475Y-67201535D01*
X126279254Y-67210419D01*
X126230740Y-67314456D01*
X126224500Y-67361859D01*
X126224500Y-67688132D01*
X126224501Y-67688138D01*
X126230741Y-67735545D01*
X126230742Y-67735547D01*
X126230742Y-67735548D01*
X126252139Y-67781433D01*
X126262631Y-67850510D01*
X126234112Y-67914294D01*
X126227441Y-67921517D01*
X126201882Y-67947076D01*
X126140760Y-68067033D01*
X126125000Y-68166543D01*
X126125000Y-68175000D01*
X128224999Y-68175000D01*
X128224999Y-68166550D01*
X128209237Y-68067032D01*
X128148116Y-67947076D01*
X128148113Y-67947071D01*
X128122561Y-67921519D01*
X128089076Y-67860196D01*
X128094060Y-67790504D01*
X128097846Y-67781463D01*
X128119259Y-67735545D01*
X128125500Y-67688139D01*
X128125499Y-67499499D01*
X128145183Y-67432461D01*
X128197987Y-67386706D01*
X128249499Y-67375500D01*
X129469011Y-67375500D01*
X129506673Y-67384541D01*
X129507595Y-67381704D01*
X129516876Y-67384720D01*
X129649998Y-67405804D01*
X129650000Y-67405804D01*
X129650002Y-67405804D01*
X129783123Y-67384720D01*
X129792405Y-67381704D01*
X129793326Y-67384541D01*
X129830989Y-67375500D01*
X129973147Y-67375500D01*
X130040186Y-67395185D01*
X130083631Y-67443205D01*
X130092046Y-67459720D01*
X130101471Y-67478218D01*
X130101476Y-67478225D01*
X130196774Y-67573523D01*
X130196778Y-67573526D01*
X130196780Y-67573528D01*
X130269140Y-67610397D01*
X130319935Y-67658370D01*
X130336730Y-67726191D01*
X130314193Y-67792326D01*
X130259478Y-67835778D01*
X130258335Y-67836235D01*
X130190274Y-67863075D01*
X130190270Y-67863077D01*
X130075278Y-67950278D01*
X129988077Y-68065270D01*
X129935131Y-68199531D01*
X129935131Y-68199532D01*
X129925000Y-68283897D01*
X129925000Y-68400000D01*
X130576000Y-68400000D01*
X130643039Y-68419685D01*
X130688794Y-68472489D01*
X130700000Y-68524000D01*
X130700000Y-68576000D01*
X130680315Y-68643039D01*
X130627511Y-68688794D01*
X130576000Y-68700000D01*
X129925000Y-68700000D01*
X129925000Y-68816102D01*
X129935131Y-68900467D01*
X129935131Y-68900468D01*
X129958612Y-68960010D01*
X129964893Y-69029597D01*
X129932556Y-69091533D01*
X129871867Y-69126154D01*
X129843257Y-69129500D01*
X128249499Y-69129500D01*
X128182460Y-69109815D01*
X128136705Y-69057011D01*
X128125499Y-69005500D01*
X128125499Y-68961867D01*
X128125499Y-68961862D01*
X128119259Y-68914455D01*
X128097859Y-68868563D01*
X128087368Y-68799490D01*
X128115887Y-68735705D01*
X128122562Y-68728478D01*
X128148117Y-68702922D01*
X128209239Y-68582966D01*
X128225000Y-68483456D01*
X128225000Y-68475000D01*
X126125001Y-68475000D01*
X126125001Y-68483449D01*
X126140762Y-68582969D01*
X126182983Y-68665833D01*
X126195879Y-68734502D01*
X126169602Y-68799242D01*
X126112496Y-68839499D01*
X126042690Y-68842491D01*
X126016211Y-68832615D01*
X125933126Y-68790281D01*
X125933124Y-68790280D01*
X125933121Y-68790279D01*
X125800002Y-68769196D01*
X125799998Y-68769196D01*
X125666878Y-68790279D01*
X125666874Y-68790280D01*
X125666874Y-68790281D01*
X125600430Y-68824136D01*
X125546778Y-68851473D01*
X125546774Y-68851476D01*
X125451476Y-68946774D01*
X125451473Y-68946778D01*
X125390279Y-69066878D01*
X125369196Y-69199997D01*
X125369196Y-69200002D01*
X125390279Y-69333121D01*
X125390280Y-69333124D01*
X125390281Y-69333126D01*
X125451472Y-69453220D01*
X125451473Y-69453221D01*
X125451476Y-69453225D01*
X125485570Y-69487319D01*
X125519055Y-69548642D01*
X125514071Y-69618334D01*
X125485570Y-69662681D01*
X125451476Y-69696774D01*
X125451473Y-69696778D01*
X125390279Y-69816878D01*
X125369196Y-69949997D01*
X125369196Y-69950002D01*
X125390279Y-70083121D01*
X125390280Y-70083124D01*
X125390281Y-70083126D01*
X125451472Y-70203220D01*
X125451473Y-70203221D01*
X125451476Y-70203225D01*
X125546774Y-70298523D01*
X125546778Y-70298526D01*
X125546780Y-70298528D01*
X125666874Y-70359719D01*
X125666876Y-70359719D01*
X125666878Y-70359720D01*
X125799998Y-70380804D01*
X125800000Y-70380804D01*
X125800002Y-70380804D01*
X125933121Y-70359720D01*
X125933121Y-70359719D01*
X125933126Y-70359719D01*
X126053220Y-70298528D01*
X126054183Y-70297565D01*
X126064930Y-70286819D01*
X126126253Y-70253334D01*
X126152611Y-70250500D01*
X126159185Y-70250500D01*
X126226224Y-70270185D01*
X126271979Y-70322989D01*
X126281923Y-70392147D01*
X126271568Y-70426901D01*
X126258999Y-70453856D01*
X126230740Y-70514456D01*
X126224500Y-70561859D01*
X126224500Y-70888132D01*
X126224501Y-70888138D01*
X126230741Y-70935545D01*
X126230742Y-70935547D01*
X126230742Y-70935548D01*
X126279154Y-71039367D01*
X126289646Y-71108445D01*
X126286976Y-71114414D01*
X126342216Y-71113976D01*
X126360627Y-71120843D01*
X126464455Y-71169259D01*
X126511861Y-71175500D01*
X127838138Y-71175499D01*
X127885545Y-71169259D01*
X127989579Y-71120747D01*
X128070747Y-71039579D01*
X128119259Y-70935545D01*
X128125500Y-70888139D01*
X128125499Y-70809626D01*
X128145183Y-70742588D01*
X128161813Y-70721950D01*
X128716946Y-70166819D01*
X128778269Y-70133334D01*
X128804627Y-70130500D01*
X129524167Y-70130500D01*
X129591206Y-70150185D01*
X129611848Y-70166819D01*
X129813181Y-70368152D01*
X129846666Y-70429475D01*
X129849500Y-70455833D01*
X129849500Y-70744034D01*
X129829815Y-70811073D01*
X129777011Y-70856828D01*
X129770294Y-70859660D01*
X129612610Y-70920747D01*
X129612595Y-70920754D01*
X129423439Y-71037874D01*
X129423437Y-71037876D01*
X129259020Y-71187761D01*
X129124943Y-71365308D01*
X129124938Y-71365316D01*
X129025775Y-71564461D01*
X129025769Y-71564476D01*
X128964885Y-71778462D01*
X128964884Y-71778464D01*
X128944357Y-71999999D01*
X128944357Y-72000000D01*
X128964884Y-72221535D01*
X128964885Y-72221537D01*
X129025769Y-72435523D01*
X129025775Y-72435538D01*
X129124938Y-72634683D01*
X129124943Y-72634691D01*
X129259020Y-72812238D01*
X129423437Y-72962123D01*
X129423439Y-72962125D01*
X129612595Y-73079245D01*
X129612596Y-73079245D01*
X129612599Y-73079247D01*
X129820060Y-73159618D01*
X130038757Y-73200500D01*
X130038759Y-73200500D01*
X130261241Y-73200500D01*
X130261243Y-73200500D01*
X130479940Y-73159618D01*
X130687401Y-73079247D01*
X130876562Y-72962124D01*
X131040981Y-72812236D01*
X131175058Y-72634689D01*
X131274229Y-72435528D01*
X131335115Y-72221536D01*
X131355643Y-72000000D01*
X131336506Y-71793475D01*
X132174500Y-71793475D01*
X132174500Y-72406517D01*
X132183904Y-72465893D01*
X132189354Y-72500304D01*
X132246950Y-72613342D01*
X132246952Y-72613344D01*
X132250677Y-72617069D01*
X132284165Y-72678390D01*
X132287000Y-72704754D01*
X132287000Y-72927832D01*
X132285473Y-72947230D01*
X132269196Y-73049997D01*
X132269196Y-73050002D01*
X132290279Y-73183121D01*
X132290280Y-73183124D01*
X132290281Y-73183126D01*
X132351472Y-73303220D01*
X132351473Y-73303221D01*
X132351476Y-73303225D01*
X132446774Y-73398523D01*
X132446778Y-73398526D01*
X132446780Y-73398528D01*
X132566874Y-73459719D01*
X132566876Y-73459719D01*
X132566878Y-73459720D01*
X132699998Y-73480804D01*
X132700000Y-73480804D01*
X132700002Y-73480804D01*
X132833121Y-73459720D01*
X132833121Y-73459719D01*
X132833126Y-73459719D01*
X132953220Y-73398528D01*
X133048528Y-73303220D01*
X133109719Y-73183126D01*
X133112556Y-73165213D01*
X133130804Y-73050002D01*
X133130804Y-73049997D01*
X133111553Y-72928456D01*
X133109719Y-72916874D01*
X133105049Y-72907709D01*
X133101514Y-72900770D01*
X133088000Y-72844478D01*
X133088000Y-72842902D01*
X133107685Y-72775863D01*
X133155703Y-72732418D01*
X133213342Y-72703050D01*
X133303050Y-72613342D01*
X133360646Y-72500304D01*
X133360646Y-72500302D01*
X133360647Y-72500301D01*
X133375499Y-72406524D01*
X133375500Y-72406519D01*
X133375499Y-71793482D01*
X133360646Y-71699696D01*
X133303050Y-71586658D01*
X133303046Y-71586654D01*
X133303045Y-71586652D01*
X133213347Y-71496954D01*
X133213344Y-71496952D01*
X133213342Y-71496950D01*
X133105833Y-71442171D01*
X133100301Y-71439352D01*
X133006524Y-71424500D01*
X132543482Y-71424500D01*
X132462519Y-71437323D01*
X132449696Y-71439354D01*
X132336658Y-71496950D01*
X132336657Y-71496951D01*
X132336652Y-71496954D01*
X132246954Y-71586652D01*
X132246951Y-71586657D01*
X132189352Y-71699698D01*
X132174500Y-71793475D01*
X131336506Y-71793475D01*
X131335115Y-71778464D01*
X131274229Y-71564472D01*
X131267454Y-71550866D01*
X131175061Y-71365316D01*
X131175056Y-71365308D01*
X131040979Y-71187761D01*
X130876562Y-71037876D01*
X130876560Y-71037874D01*
X130687404Y-70920754D01*
X130687389Y-70920747D01*
X130529706Y-70859660D01*
X130474304Y-70817087D01*
X130450714Y-70751321D01*
X130450500Y-70744034D01*
X130450500Y-70254500D01*
X130470185Y-70187461D01*
X130522989Y-70141706D01*
X130574500Y-70130500D01*
X131758776Y-70130500D01*
X131825815Y-70150185D01*
X131871570Y-70202989D01*
X131881514Y-70272147D01*
X131881249Y-70273898D01*
X131869196Y-70349997D01*
X131869196Y-70350002D01*
X131890279Y-70483121D01*
X131890280Y-70483124D01*
X131890281Y-70483126D01*
X131951472Y-70603220D01*
X131951473Y-70603221D01*
X131951476Y-70603225D01*
X132046774Y-70698523D01*
X132046778Y-70698526D01*
X132046780Y-70698528D01*
X132166874Y-70759719D01*
X132166876Y-70759719D01*
X132166878Y-70759720D01*
X132299998Y-70780804D01*
X132300000Y-70780804D01*
X132300002Y-70780804D01*
X132433121Y-70759720D01*
X132433121Y-70759719D01*
X132433126Y-70759719D01*
X132553220Y-70698528D01*
X132648528Y-70603220D01*
X132648531Y-70603213D01*
X132652748Y-70597410D01*
X132708074Y-70554740D01*
X132777263Y-70548670D01*
X132811599Y-70555500D01*
X133563400Y-70555499D01*
X133640117Y-70540240D01*
X133727112Y-70482112D01*
X133785240Y-70395117D01*
X133785241Y-70395110D01*
X133789915Y-70383831D01*
X133792308Y-70384822D01*
X133816592Y-70338398D01*
X133877308Y-70303824D01*
X133905825Y-70300500D01*
X134505166Y-70300500D01*
X134572205Y-70320185D01*
X134617960Y-70372989D01*
X134627904Y-70442147D01*
X134598879Y-70505703D01*
X134592847Y-70512181D01*
X134327989Y-70777040D01*
X134272041Y-70832987D01*
X134272035Y-70832995D01*
X134232482Y-70901504D01*
X134232479Y-70901509D01*
X134212000Y-70977939D01*
X134212000Y-71315660D01*
X134192315Y-71382699D01*
X134139511Y-71428454D01*
X134107402Y-71438133D01*
X134099699Y-71439353D01*
X134099697Y-71439353D01*
X134099696Y-71439354D01*
X133986658Y-71496950D01*
X133986657Y-71496951D01*
X133986652Y-71496954D01*
X133896954Y-71586652D01*
X133896951Y-71586657D01*
X133839352Y-71699698D01*
X133824500Y-71793475D01*
X133824500Y-72406517D01*
X133833904Y-72465893D01*
X133839354Y-72500304D01*
X133896950Y-72613342D01*
X133896952Y-72613344D01*
X133896954Y-72613347D01*
X133986652Y-72703045D01*
X133986656Y-72703048D01*
X133986658Y-72703050D01*
X134094297Y-72757895D01*
X134145091Y-72805867D01*
X134162000Y-72868378D01*
X134162000Y-74379894D01*
X134142315Y-74446933D01*
X134089511Y-74492688D01*
X134020353Y-74502632D01*
X133993208Y-74495521D01*
X133979947Y-74490383D01*
X133868200Y-74469494D01*
X133761243Y-74449500D01*
X133538757Y-74449500D01*
X133320060Y-74490382D01*
X133191726Y-74540099D01*
X133112601Y-74570752D01*
X133112595Y-74570754D01*
X132923439Y-74687874D01*
X132923437Y-74687876D01*
X132759020Y-74837761D01*
X132624943Y-75015308D01*
X132624938Y-75015316D01*
X132525775Y-75214461D01*
X132525769Y-75214476D01*
X132464885Y-75428462D01*
X132464884Y-75428464D01*
X132444357Y-75649999D01*
X132444357Y-75650000D01*
X132464884Y-75871535D01*
X132464885Y-75871537D01*
X132525769Y-76085523D01*
X132525775Y-76085538D01*
X132624938Y-76284683D01*
X132624943Y-76284691D01*
X132759020Y-76462238D01*
X132923437Y-76612123D01*
X132923439Y-76612125D01*
X133112595Y-76729245D01*
X133112596Y-76729245D01*
X133112599Y-76729247D01*
X133320060Y-76809618D01*
X133538757Y-76850500D01*
X133538759Y-76850500D01*
X133761241Y-76850500D01*
X133761243Y-76850500D01*
X133979940Y-76809618D01*
X134187401Y-76729247D01*
X134376562Y-76612124D01*
X134528945Y-76473208D01*
X134540979Y-76462238D01*
X134565895Y-76429245D01*
X134675058Y-76284689D01*
X134774229Y-76085528D01*
X134835115Y-75871536D01*
X134855643Y-75650000D01*
X134851232Y-75602402D01*
X134835115Y-75428464D01*
X134835114Y-75428462D01*
X134834701Y-75427011D01*
X134774229Y-75214472D01*
X134749833Y-75165480D01*
X134737573Y-75096697D01*
X134764446Y-75032202D01*
X134773147Y-75022534D01*
X134792970Y-75002712D01*
X134839114Y-74922788D01*
X134843991Y-74904587D01*
X134844111Y-74904142D01*
X134857800Y-74853050D01*
X134863000Y-74833644D01*
X134863000Y-72754754D01*
X134882685Y-72687715D01*
X134899314Y-72667077D01*
X134953050Y-72613342D01*
X135010646Y-72500304D01*
X135010646Y-72500302D01*
X135010647Y-72500301D01*
X135025499Y-72406524D01*
X135025500Y-72406519D01*
X135025499Y-71793482D01*
X135010646Y-71699696D01*
X134953050Y-71586658D01*
X134953046Y-71586654D01*
X134953045Y-71586652D01*
X134856442Y-71490049D01*
X134857524Y-71488966D01*
X134821445Y-71442171D01*
X134813000Y-71397192D01*
X134813000Y-71193332D01*
X134832685Y-71126293D01*
X134849315Y-71105655D01*
X135363152Y-70591817D01*
X135424475Y-70558333D01*
X135450833Y-70555499D01*
X135675900Y-70555499D01*
X135701309Y-70550445D01*
X135770900Y-70556672D01*
X135826077Y-70599535D01*
X135849322Y-70665424D01*
X135849500Y-70672062D01*
X135849500Y-71517640D01*
X135829815Y-71584679D01*
X135777011Y-71630434D01*
X135758842Y-71635911D01*
X135758981Y-71636337D01*
X135749699Y-71639352D01*
X135694297Y-71667580D01*
X135636658Y-71696950D01*
X135636657Y-71696951D01*
X135636652Y-71696954D01*
X135546954Y-71786652D01*
X135546951Y-71786657D01*
X135546950Y-71786658D01*
X135532784Y-71814461D01*
X135489352Y-71899698D01*
X135474500Y-71993475D01*
X135474500Y-72456517D01*
X135481435Y-72500301D01*
X135489354Y-72550304D01*
X135546950Y-72663342D01*
X135546952Y-72663344D01*
X135546954Y-72663347D01*
X135636652Y-72753045D01*
X135636654Y-72753046D01*
X135636658Y-72753050D01*
X135735122Y-72803220D01*
X135749698Y-72810647D01*
X135843475Y-72825499D01*
X135843481Y-72825500D01*
X136290955Y-72825499D01*
X136357994Y-72845183D01*
X136378636Y-72861818D01*
X136584468Y-73067650D01*
X136617953Y-73128973D01*
X136612969Y-73198665D01*
X136571097Y-73254598D01*
X136505633Y-73279015D01*
X136477392Y-73277805D01*
X136456521Y-73274500D01*
X135843482Y-73274500D01*
X135762519Y-73287323D01*
X135749696Y-73289354D01*
X135636658Y-73346950D01*
X135636657Y-73346951D01*
X135636652Y-73346954D01*
X135546954Y-73436652D01*
X135546951Y-73436657D01*
X135546950Y-73436658D01*
X135535200Y-73459719D01*
X135489352Y-73549698D01*
X135474500Y-73643475D01*
X135474500Y-74106517D01*
X135484719Y-74171040D01*
X135489354Y-74200304D01*
X135546950Y-74313342D01*
X135546952Y-74313344D01*
X135546954Y-74313347D01*
X135636652Y-74403045D01*
X135636654Y-74403046D01*
X135636658Y-74403050D01*
X135681796Y-74426049D01*
X135732591Y-74474023D01*
X135749500Y-74536533D01*
X135749500Y-74919011D01*
X135740460Y-74956671D01*
X135743296Y-74957593D01*
X135740280Y-74966873D01*
X135719196Y-75099997D01*
X135719196Y-75100002D01*
X135740279Y-75233121D01*
X135740280Y-75233124D01*
X135740281Y-75233126D01*
X135801472Y-75353220D01*
X135801473Y-75353221D01*
X135801476Y-75353225D01*
X135896774Y-75448523D01*
X135896778Y-75448526D01*
X135896780Y-75448528D01*
X136016874Y-75509719D01*
X136016876Y-75509719D01*
X136016878Y-75509720D01*
X136149998Y-75530804D01*
X136150000Y-75530804D01*
X136150002Y-75530804D01*
X136283121Y-75509720D01*
X136283121Y-75509719D01*
X136283126Y-75509719D01*
X136403220Y-75448528D01*
X136498528Y-75353220D01*
X136559719Y-75233126D01*
X136560925Y-75225511D01*
X136580804Y-75100002D01*
X136580804Y-75099997D01*
X136559719Y-74966873D01*
X136556704Y-74957593D01*
X136559539Y-74956671D01*
X136550500Y-74919011D01*
X136550500Y-74536533D01*
X136570185Y-74469494D01*
X136618203Y-74426049D01*
X136663342Y-74403050D01*
X136753050Y-74313342D01*
X136810646Y-74200304D01*
X136810646Y-74200302D01*
X136810647Y-74200301D01*
X136825499Y-74106524D01*
X136825500Y-74106519D01*
X136825499Y-73643482D01*
X136822193Y-73622608D01*
X136831146Y-73553317D01*
X136876142Y-73499864D01*
X136942893Y-73479223D01*
X137010207Y-73497946D01*
X137032347Y-73515529D01*
X137797959Y-74281141D01*
X137831444Y-74342464D01*
X137826460Y-74412156D01*
X137793817Y-74460458D01*
X137709021Y-74537761D01*
X137574943Y-74715308D01*
X137574938Y-74715316D01*
X137475775Y-74914461D01*
X137475769Y-74914476D01*
X137414885Y-75128462D01*
X137414884Y-75128464D01*
X137394357Y-75349999D01*
X137394357Y-75350000D01*
X137414884Y-75571535D01*
X137414885Y-75571537D01*
X137475769Y-75785523D01*
X137475775Y-75785538D01*
X137574938Y-75984683D01*
X137574943Y-75984691D01*
X137709020Y-76162238D01*
X137819750Y-76263181D01*
X137873103Y-76311819D01*
X137873437Y-76312123D01*
X137873439Y-76312125D01*
X138062595Y-76429245D01*
X138062596Y-76429245D01*
X138062599Y-76429247D01*
X138270060Y-76509618D01*
X138488757Y-76550500D01*
X138488759Y-76550500D01*
X138711241Y-76550500D01*
X138711243Y-76550500D01*
X138929940Y-76509618D01*
X139065863Y-76456960D01*
X139135485Y-76451098D01*
X139197225Y-76483808D01*
X139231480Y-76544704D01*
X139227375Y-76614453D01*
X139198337Y-76660268D01*
X138251841Y-77606764D01*
X138190518Y-77640249D01*
X138120826Y-77635265D01*
X138119367Y-77634710D01*
X138004944Y-77590383D01*
X138004941Y-77590382D01*
X138004940Y-77590382D01*
X137786243Y-77549500D01*
X137563757Y-77549500D01*
X137345060Y-77590382D01*
X137229204Y-77635265D01*
X137137601Y-77670752D01*
X137137595Y-77670754D01*
X136948439Y-77787874D01*
X136948437Y-77787876D01*
X136784020Y-77937761D01*
X136649943Y-78115308D01*
X136649938Y-78115316D01*
X136567551Y-78280772D01*
X136520048Y-78332009D01*
X136456551Y-78349500D01*
X135224500Y-78349500D01*
X135157461Y-78329815D01*
X135111706Y-78277011D01*
X135100500Y-78225500D01*
X135100500Y-78172275D01*
X135100500Y-78172273D01*
X135079724Y-78094735D01*
X135075499Y-78062642D01*
X135075499Y-77918482D01*
X135074995Y-77915298D01*
X135060646Y-77824696D01*
X135003050Y-77711658D01*
X135003046Y-77711654D01*
X135003045Y-77711652D01*
X134913347Y-77621954D01*
X134913344Y-77621952D01*
X134913342Y-77621950D01*
X134836517Y-77582805D01*
X134800301Y-77564352D01*
X134706524Y-77549500D01*
X134243482Y-77549500D01*
X134162519Y-77562323D01*
X134149696Y-77564354D01*
X134036658Y-77621950D01*
X134036657Y-77621951D01*
X134036652Y-77621954D01*
X133946954Y-77711652D01*
X133946951Y-77711657D01*
X133889352Y-77824698D01*
X133874500Y-77918475D01*
X133874500Y-78531517D01*
X133881580Y-78576219D01*
X133889354Y-78625304D01*
X133946950Y-78738342D01*
X133946952Y-78738344D01*
X133946954Y-78738347D01*
X134036652Y-78828045D01*
X134036654Y-78828046D01*
X134036658Y-78828050D01*
X134149694Y-78885645D01*
X134149698Y-78885647D01*
X134243475Y-78900499D01*
X134243481Y-78900500D01*
X134532744Y-78900499D01*
X134599783Y-78920183D01*
X134620425Y-78936818D01*
X134754087Y-79070480D01*
X134845412Y-79123207D01*
X134947273Y-79150500D01*
X136456551Y-79150500D01*
X136523590Y-79170185D01*
X136567551Y-79219228D01*
X136649938Y-79384683D01*
X136649943Y-79384691D01*
X136784020Y-79562238D01*
X136948437Y-79712123D01*
X136948439Y-79712125D01*
X137137595Y-79829245D01*
X137137596Y-79829245D01*
X137137599Y-79829247D01*
X137345060Y-79909618D01*
X137563757Y-79950500D01*
X137563759Y-79950500D01*
X137786241Y-79950500D01*
X137786243Y-79950500D01*
X138004940Y-79909618D01*
X138212401Y-79829247D01*
X138401562Y-79712124D01*
X138565981Y-79562236D01*
X138700058Y-79384689D01*
X138799229Y-79185528D01*
X138860115Y-78971536D01*
X138880643Y-78750000D01*
X138877304Y-78713971D01*
X138860115Y-78528464D01*
X138860114Y-78528462D01*
X138830677Y-78425002D01*
X138799229Y-78314472D01*
X138798339Y-78312685D01*
X138798171Y-78311743D01*
X138797157Y-78309125D01*
X138797669Y-78308926D01*
X138786077Y-78243904D01*
X138812949Y-78179408D01*
X138821648Y-78169743D01*
X140679574Y-76311819D01*
X140740897Y-76278334D01*
X140767255Y-76275500D01*
X142407745Y-76275500D01*
X142474784Y-76295185D01*
X142495426Y-76311819D01*
X144838181Y-78654574D01*
X144871666Y-78715897D01*
X144874500Y-78742255D01*
X144874500Y-79254269D01*
X144877353Y-79284699D01*
X144877353Y-79284701D01*
X144920042Y-79406696D01*
X144922207Y-79412882D01*
X145002850Y-79522150D01*
X145112118Y-79602793D01*
X145154845Y-79617744D01*
X145240299Y-79647646D01*
X145270730Y-79650500D01*
X145270734Y-79650500D01*
X146879270Y-79650500D01*
X146909699Y-79647646D01*
X146909701Y-79647646D01*
X146973790Y-79625219D01*
X147037882Y-79602793D01*
X147147150Y-79522150D01*
X147227793Y-79412882D01*
X147262431Y-79313893D01*
X147272646Y-79284701D01*
X147272646Y-79284699D01*
X147275500Y-79254269D01*
X147275500Y-77945730D01*
X147272646Y-77915300D01*
X147272646Y-77915298D01*
X147228058Y-77787876D01*
X147227793Y-77787118D01*
X147147150Y-77677850D01*
X147037882Y-77597207D01*
X147037880Y-77597206D01*
X146909700Y-77552353D01*
X146879270Y-77549500D01*
X146879266Y-77549500D01*
X145270734Y-77549500D01*
X145270730Y-77549500D01*
X145240300Y-77552353D01*
X145240298Y-77552353D01*
X145112119Y-77597206D01*
X145112117Y-77597207D01*
X145083756Y-77618139D01*
X145018126Y-77642109D01*
X144949956Y-77626793D01*
X144922442Y-77606049D01*
X143312923Y-75996530D01*
X144874500Y-75996530D01*
X144874500Y-76203469D01*
X144914868Y-76406412D01*
X144914870Y-76406420D01*
X144993058Y-76595183D01*
X144994059Y-76597598D01*
X145051541Y-76683626D01*
X145109024Y-76769657D01*
X145255342Y-76915975D01*
X145255345Y-76915977D01*
X145427402Y-77030941D01*
X145618580Y-77110130D01*
X145821530Y-77150499D01*
X145821534Y-77150500D01*
X145821535Y-77150500D01*
X146328466Y-77150500D01*
X146328467Y-77150499D01*
X146531420Y-77110130D01*
X146722598Y-77030941D01*
X146894655Y-76915977D01*
X147040977Y-76769655D01*
X147155941Y-76597598D01*
X147235130Y-76406420D01*
X147275500Y-76203465D01*
X147275500Y-75996535D01*
X147235130Y-75793580D01*
X147155941Y-75602402D01*
X147040977Y-75430345D01*
X147040975Y-75430342D01*
X146894657Y-75284024D01*
X146733900Y-75176611D01*
X146722598Y-75169059D01*
X146713962Y-75165482D01*
X146531420Y-75089870D01*
X146531412Y-75089868D01*
X146328469Y-75049500D01*
X146328465Y-75049500D01*
X145821535Y-75049500D01*
X145821530Y-75049500D01*
X145618587Y-75089868D01*
X145618579Y-75089870D01*
X145427403Y-75169058D01*
X145255342Y-75284024D01*
X145109024Y-75430342D01*
X144994058Y-75602403D01*
X144914870Y-75793579D01*
X144914868Y-75793587D01*
X144874500Y-75996530D01*
X143312923Y-75996530D01*
X142870915Y-75554522D01*
X142870913Y-75554520D01*
X142825250Y-75528156D01*
X142779589Y-75501793D01*
X142697074Y-75479684D01*
X142677727Y-75474500D01*
X142677726Y-75474500D01*
X141074500Y-75474500D01*
X141007461Y-75454815D01*
X140961706Y-75402011D01*
X140950500Y-75350500D01*
X140950500Y-69406946D01*
X144700000Y-69406946D01*
X144700000Y-69900000D01*
X145522555Y-69900000D01*
X145500000Y-69984174D01*
X145500000Y-70115826D01*
X145522555Y-70200000D01*
X144700000Y-70200000D01*
X144700000Y-70693053D01*
X144710613Y-70781443D01*
X144766079Y-70922095D01*
X144857435Y-71042564D01*
X144977904Y-71133920D01*
X145118556Y-71189386D01*
X145206946Y-71200000D01*
X145850000Y-71200000D01*
X145850000Y-70527445D01*
X145934174Y-70550000D01*
X146065826Y-70550000D01*
X146150000Y-70527445D01*
X146150000Y-71200000D01*
X146793054Y-71200000D01*
X146881443Y-71189386D01*
X147022095Y-71133920D01*
X147142564Y-71042564D01*
X147233920Y-70922095D01*
X147289386Y-70781443D01*
X147300000Y-70693053D01*
X147300000Y-70200000D01*
X146477445Y-70200000D01*
X146500000Y-70115826D01*
X146500000Y-69984174D01*
X146477445Y-69900000D01*
X147300000Y-69900000D01*
X147300000Y-69406946D01*
X147289386Y-69318556D01*
X147233920Y-69177904D01*
X147142564Y-69057435D01*
X147022095Y-68966079D01*
X146881443Y-68910613D01*
X146793054Y-68900000D01*
X146150000Y-68900000D01*
X146150000Y-69572554D01*
X146065826Y-69550000D01*
X145934174Y-69550000D01*
X145850000Y-69572554D01*
X145850000Y-68900000D01*
X145206946Y-68900000D01*
X145118556Y-68910613D01*
X144977904Y-68966079D01*
X144857435Y-69057435D01*
X144766079Y-69177904D01*
X144710613Y-69318556D01*
X144700000Y-69406946D01*
X140950500Y-69406946D01*
X140950500Y-67497275D01*
X140950500Y-67497273D01*
X140936903Y-67446530D01*
X144799500Y-67446530D01*
X144799500Y-67653469D01*
X144839868Y-67856412D01*
X144839870Y-67856420D01*
X144910555Y-68027069D01*
X144919059Y-68047598D01*
X144963730Y-68114453D01*
X145034024Y-68219657D01*
X145180342Y-68365975D01*
X145180345Y-68365977D01*
X145352402Y-68480941D01*
X145543580Y-68560130D01*
X145746530Y-68600499D01*
X145746534Y-68600500D01*
X145746535Y-68600500D01*
X146253466Y-68600500D01*
X146253467Y-68600499D01*
X146456420Y-68560130D01*
X146647598Y-68480941D01*
X146819655Y-68365977D01*
X146965977Y-68219655D01*
X147080941Y-68047598D01*
X147160130Y-67856420D01*
X147200500Y-67653465D01*
X147200500Y-67446535D01*
X147160130Y-67243580D01*
X147080941Y-67052402D01*
X146965977Y-66880345D01*
X146965975Y-66880342D01*
X146819657Y-66734024D01*
X146708494Y-66659748D01*
X146647598Y-66619059D01*
X146517762Y-66565279D01*
X146456420Y-66539870D01*
X146456412Y-66539868D01*
X146253469Y-66499500D01*
X146253465Y-66499500D01*
X145746535Y-66499500D01*
X145746530Y-66499500D01*
X145543587Y-66539868D01*
X145543579Y-66539870D01*
X145352403Y-66619058D01*
X145180342Y-66734024D01*
X145034024Y-66880342D01*
X144919058Y-67052403D01*
X144839870Y-67243579D01*
X144839868Y-67243587D01*
X144799500Y-67446530D01*
X140936903Y-67446530D01*
X140934316Y-67436874D01*
X140923207Y-67395412D01*
X140870480Y-67304087D01*
X140070913Y-66504520D01*
X140005709Y-66466874D01*
X139979589Y-66451793D01*
X139908901Y-66432853D01*
X139877727Y-66424500D01*
X139877726Y-66424500D01*
X134064115Y-66424500D01*
X133997076Y-66404815D01*
X133953630Y-66356794D01*
X133950860Y-66351358D01*
X133948528Y-66346780D01*
X133948526Y-66346778D01*
X133948523Y-66346774D01*
X133853225Y-66251476D01*
X133853221Y-66251473D01*
X133853220Y-66251472D01*
X133733126Y-66190281D01*
X133733124Y-66190280D01*
X133733121Y-66190279D01*
X133633493Y-66174500D01*
X133633488Y-66174500D01*
X133066512Y-66174500D01*
X133066507Y-66174500D01*
X132966878Y-66190279D01*
X132846778Y-66251473D01*
X132846774Y-66251476D01*
X132751476Y-66346774D01*
X132751473Y-66346778D01*
X132751472Y-66346780D01*
X132697963Y-66451796D01*
X132649991Y-66502591D01*
X132587480Y-66519500D01*
X131898992Y-66519500D01*
X131855313Y-66524197D01*
X131803825Y-66535397D01*
X131793627Y-66537890D01*
X131793624Y-66537891D01*
X131712916Y-66580899D01*
X131712913Y-66580901D01*
X131660104Y-66626660D01*
X131642160Y-66644242D01*
X131642156Y-66644247D01*
X131633483Y-66659752D01*
X131600774Y-66718229D01*
X131597046Y-66724893D01*
X131547139Y-66773791D01*
X131478718Y-66787945D01*
X131413506Y-66762861D01*
X131372208Y-66706503D01*
X131366353Y-66683756D01*
X131359720Y-66641878D01*
X131359719Y-66641876D01*
X131359719Y-66641874D01*
X131298528Y-66521780D01*
X131298526Y-66521778D01*
X131298523Y-66521774D01*
X131203225Y-66426476D01*
X131203221Y-66426473D01*
X131203220Y-66426472D01*
X131083126Y-66365281D01*
X131083124Y-66365280D01*
X131083121Y-66365279D01*
X130983493Y-66349500D01*
X130983488Y-66349500D01*
X130416512Y-66349500D01*
X130416507Y-66349500D01*
X130316878Y-66365279D01*
X130196778Y-66426473D01*
X130196774Y-66426476D01*
X130101476Y-66521774D01*
X130100311Y-66523379D01*
X130098392Y-66524858D01*
X130094571Y-66528680D01*
X130094077Y-66528186D01*
X130044983Y-66566048D01*
X129999988Y-66574500D01*
X129830989Y-66574500D01*
X129793326Y-66565458D01*
X129792405Y-66568296D01*
X129783123Y-66565279D01*
X129650002Y-66544196D01*
X129649998Y-66544196D01*
X129516876Y-66565279D01*
X129507595Y-66568296D01*
X129506673Y-66565458D01*
X129469011Y-66574500D01*
X129043712Y-66574500D01*
X128976673Y-66554815D01*
X128930918Y-66502011D01*
X128920974Y-66432853D01*
X128949999Y-66369297D01*
X128981709Y-66343114D01*
X129020913Y-66320480D01*
X129029574Y-66311819D01*
X129090897Y-66278334D01*
X129117255Y-66275500D01*
X129433493Y-66275500D01*
X129533121Y-66259720D01*
X129533121Y-66259719D01*
X129533126Y-66259719D01*
X129653220Y-66198528D01*
X129748528Y-66103220D01*
X129753630Y-66093205D01*
X129801604Y-66042410D01*
X129864115Y-66025500D01*
X130193994Y-66025500D01*
X130210179Y-66026561D01*
X130240099Y-66030500D01*
X130659900Y-66030499D01*
X130709487Y-66023972D01*
X130818316Y-65973224D01*
X130903224Y-65888316D01*
X130915956Y-65861009D01*
X130940655Y-65825736D01*
X131430480Y-65335913D01*
X131483207Y-65244588D01*
X131510500Y-65142727D01*
X131510500Y-65037273D01*
X131510500Y-63422729D01*
X131510501Y-63422716D01*
X131510501Y-63307274D01*
X131510501Y-63307273D01*
X131483207Y-63205413D01*
X131480370Y-63200499D01*
X131476789Y-63194297D01*
X131465646Y-63174997D01*
X131794196Y-63174997D01*
X131794196Y-63175002D01*
X131815279Y-63308121D01*
X131815280Y-63308124D01*
X131815281Y-63308126D01*
X131874577Y-63424500D01*
X131876473Y-63428221D01*
X131876476Y-63428225D01*
X131971774Y-63523523D01*
X131971778Y-63523526D01*
X131971780Y-63523528D01*
X132091874Y-63584719D01*
X132091876Y-63584719D01*
X132091878Y-63584720D01*
X132224998Y-63605804D01*
X132225000Y-63605804D01*
X132225002Y-63605804D01*
X132358121Y-63584720D01*
X132358121Y-63584719D01*
X132358126Y-63584719D01*
X132478220Y-63523528D01*
X132478225Y-63523523D01*
X132489930Y-63511819D01*
X132551253Y-63478334D01*
X132577611Y-63475500D01*
X133559568Y-63475500D01*
X133626607Y-63495185D01*
X133672362Y-63547989D01*
X133682306Y-63617147D01*
X133682041Y-63618898D01*
X133669196Y-63699997D01*
X133669196Y-63700003D01*
X133680242Y-63769748D01*
X133671287Y-63839041D01*
X133626291Y-63892493D01*
X133559539Y-63913132D01*
X133501476Y-63899631D01*
X133483122Y-63890279D01*
X133350002Y-63869196D01*
X133349998Y-63869196D01*
X133216878Y-63890279D01*
X133096778Y-63951473D01*
X133096774Y-63951476D01*
X133001476Y-64046774D01*
X133001473Y-64046778D01*
X133001472Y-64046780D01*
X132956889Y-64134280D01*
X132940279Y-64166878D01*
X132919196Y-64299997D01*
X132919196Y-64300002D01*
X132940279Y-64433123D01*
X132943296Y-64442405D01*
X132940430Y-64443336D01*
X132949500Y-64480988D01*
X132949500Y-64573146D01*
X132929815Y-64640185D01*
X132881796Y-64683630D01*
X132846781Y-64701471D01*
X132846774Y-64701476D01*
X132751476Y-64796774D01*
X132751473Y-64796778D01*
X132751472Y-64796780D01*
X132702021Y-64893834D01*
X132690279Y-64916878D01*
X132674500Y-65016506D01*
X132674500Y-65533493D01*
X132690279Y-65633121D01*
X132690280Y-65633124D01*
X132690281Y-65633126D01*
X132751472Y-65753220D01*
X132751473Y-65753221D01*
X132751476Y-65753225D01*
X132846774Y-65848523D01*
X132846778Y-65848526D01*
X132846780Y-65848528D01*
X132966874Y-65909719D01*
X132966876Y-65909719D01*
X132966878Y-65909720D01*
X133066507Y-65925500D01*
X133066512Y-65925500D01*
X133633493Y-65925500D01*
X133733121Y-65909720D01*
X133733121Y-65909719D01*
X133733126Y-65909719D01*
X133853220Y-65848528D01*
X133948528Y-65753220D01*
X134009719Y-65633126D01*
X134013315Y-65610421D01*
X134025500Y-65533493D01*
X134025500Y-65016506D01*
X134009720Y-64916878D01*
X134009719Y-64916876D01*
X134009719Y-64916874D01*
X133948528Y-64796780D01*
X133948526Y-64796778D01*
X133948523Y-64796774D01*
X133853225Y-64701476D01*
X133853221Y-64701473D01*
X133853220Y-64701472D01*
X133839060Y-64694257D01*
X133818204Y-64683630D01*
X133767408Y-64635655D01*
X133750500Y-64573146D01*
X133750500Y-64480988D01*
X133759569Y-64443336D01*
X133756704Y-64442405D01*
X133759720Y-64433123D01*
X133780804Y-64300002D01*
X133780804Y-64299998D01*
X133769757Y-64230252D01*
X133778711Y-64160959D01*
X133823707Y-64107507D01*
X133890459Y-64086867D01*
X133948524Y-64100369D01*
X133966876Y-64109720D01*
X134099998Y-64130804D01*
X134100000Y-64130804D01*
X134100002Y-64130804D01*
X134233121Y-64109720D01*
X134233121Y-64109719D01*
X134233126Y-64109719D01*
X134353220Y-64048528D01*
X134354974Y-64046774D01*
X134364930Y-64036819D01*
X134426253Y-64003334D01*
X134452611Y-64000500D01*
X138089560Y-64000500D01*
X138089562Y-64000500D01*
X138165989Y-63980021D01*
X138234511Y-63940460D01*
X138290460Y-63884511D01*
X139701420Y-62473549D01*
X139762741Y-62440066D01*
X139832432Y-62445050D01*
X139833685Y-62445526D01*
X139870060Y-62459618D01*
X140088757Y-62500500D01*
X140088759Y-62500500D01*
X140311241Y-62500500D01*
X140311243Y-62500500D01*
X140529940Y-62459618D01*
X140737401Y-62379247D01*
X140926562Y-62262124D01*
X141077199Y-62124800D01*
X141090979Y-62112238D01*
X141100599Y-62099500D01*
X141225058Y-61934689D01*
X141324229Y-61735528D01*
X141385115Y-61521536D01*
X141405643Y-61300000D01*
X141401910Y-61259719D01*
X141385115Y-61078464D01*
X141385114Y-61078462D01*
X141357987Y-60983121D01*
X141350540Y-60956946D01*
X144700000Y-60956946D01*
X144700000Y-61450000D01*
X145522555Y-61450000D01*
X145500000Y-61534174D01*
X145500000Y-61665826D01*
X145522555Y-61750000D01*
X144700000Y-61750000D01*
X144700000Y-62243053D01*
X144710613Y-62331443D01*
X144766079Y-62472095D01*
X144857435Y-62592564D01*
X144977904Y-62683920D01*
X145118556Y-62739386D01*
X145206946Y-62750000D01*
X145850000Y-62750000D01*
X145850000Y-62077445D01*
X145934174Y-62100000D01*
X146065826Y-62100000D01*
X146150000Y-62077445D01*
X146150000Y-62750000D01*
X146793054Y-62750000D01*
X146881443Y-62739386D01*
X147022095Y-62683920D01*
X147142564Y-62592564D01*
X147233920Y-62472095D01*
X147289386Y-62331443D01*
X147300000Y-62243053D01*
X147300000Y-61750000D01*
X146477445Y-61750000D01*
X146500000Y-61665826D01*
X146500000Y-61534174D01*
X146477445Y-61450000D01*
X147300000Y-61450000D01*
X147300000Y-60956946D01*
X147289386Y-60868556D01*
X147233920Y-60727904D01*
X147142564Y-60607435D01*
X147022095Y-60516079D01*
X146881443Y-60460613D01*
X146793054Y-60450000D01*
X146150000Y-60450000D01*
X146150000Y-61122554D01*
X146065826Y-61100000D01*
X145934174Y-61100000D01*
X145850000Y-61122554D01*
X145850000Y-60450000D01*
X145206946Y-60450000D01*
X145118556Y-60460613D01*
X144977904Y-60516079D01*
X144857435Y-60607435D01*
X144766079Y-60727904D01*
X144710613Y-60868556D01*
X144700000Y-60956946D01*
X141350540Y-60956946D01*
X141324229Y-60864472D01*
X141317023Y-60850000D01*
X141225061Y-60665316D01*
X141225056Y-60665308D01*
X141090979Y-60487761D01*
X140926562Y-60337876D01*
X140926560Y-60337874D01*
X140737404Y-60220754D01*
X140737398Y-60220752D01*
X140529940Y-60140382D01*
X140311243Y-60099500D01*
X140088757Y-60099500D01*
X139870060Y-60140382D01*
X139781989Y-60174501D01*
X139662601Y-60220752D01*
X139662595Y-60220754D01*
X139473439Y-60337874D01*
X139473437Y-60337876D01*
X139309020Y-60487761D01*
X139174943Y-60665308D01*
X139174938Y-60665316D01*
X139075775Y-60864461D01*
X139075769Y-60864476D01*
X139014885Y-61078462D01*
X139014884Y-61078464D01*
X138994357Y-61299999D01*
X138994357Y-61300000D01*
X139014884Y-61521535D01*
X139014885Y-61521537D01*
X139075769Y-61735523D01*
X139075775Y-61735538D01*
X139174938Y-61934683D01*
X139174943Y-61934690D01*
X139202591Y-61971303D01*
X139227282Y-62036665D01*
X139212716Y-62104999D01*
X139191317Y-62133710D01*
X137961848Y-63363181D01*
X137900525Y-63396666D01*
X137874167Y-63399500D01*
X135774833Y-63399500D01*
X135707794Y-63379815D01*
X135662039Y-63327011D01*
X135652095Y-63257853D01*
X135681120Y-63194297D01*
X135687152Y-63187819D01*
X135883074Y-62991897D01*
X136471488Y-62403481D01*
X136532809Y-62369998D01*
X136602500Y-62374982D01*
X136610067Y-62378266D01*
X136612598Y-62379246D01*
X136612599Y-62379247D01*
X136820060Y-62459618D01*
X137038757Y-62500500D01*
X137038759Y-62500500D01*
X137261241Y-62500500D01*
X137261243Y-62500500D01*
X137479940Y-62459618D01*
X137687401Y-62379247D01*
X137876562Y-62262124D01*
X138027199Y-62124800D01*
X138040979Y-62112238D01*
X138050599Y-62099500D01*
X138175058Y-61934689D01*
X138274229Y-61735528D01*
X138335115Y-61521536D01*
X138355643Y-61300000D01*
X138351910Y-61259719D01*
X138335115Y-61078464D01*
X138335114Y-61078462D01*
X138307987Y-60983121D01*
X138274229Y-60864472D01*
X138267023Y-60850000D01*
X138175061Y-60665316D01*
X138175056Y-60665308D01*
X138040979Y-60487761D01*
X137876562Y-60337876D01*
X137876560Y-60337874D01*
X137687404Y-60220754D01*
X137687398Y-60220752D01*
X137479940Y-60140382D01*
X137261243Y-60099500D01*
X137038757Y-60099500D01*
X136820060Y-60140382D01*
X136731989Y-60174501D01*
X136612601Y-60220752D01*
X136612595Y-60220754D01*
X136423439Y-60337874D01*
X136423437Y-60337876D01*
X136259020Y-60487761D01*
X136124943Y-60665308D01*
X136124938Y-60665316D01*
X136025775Y-60864461D01*
X136025769Y-60864476D01*
X135964885Y-61078462D01*
X135964884Y-61078464D01*
X135944357Y-61299999D01*
X135944357Y-61300000D01*
X135964884Y-61521535D01*
X135964885Y-61521538D01*
X136025768Y-61735523D01*
X136025771Y-61735529D01*
X136073670Y-61831723D01*
X136085931Y-61900509D01*
X136059058Y-61965004D01*
X136050351Y-61974676D01*
X135186848Y-62838181D01*
X135125525Y-62871666D01*
X135099167Y-62874500D01*
X132577611Y-62874500D01*
X132510572Y-62854815D01*
X132489930Y-62838181D01*
X132478225Y-62826476D01*
X132478221Y-62826473D01*
X132478220Y-62826472D01*
X132358126Y-62765281D01*
X132358124Y-62765280D01*
X132358121Y-62765279D01*
X132225002Y-62744196D01*
X132224998Y-62744196D01*
X132091878Y-62765279D01*
X131971778Y-62826473D01*
X131971774Y-62826476D01*
X131876476Y-62921774D01*
X131876473Y-62921778D01*
X131815279Y-63041878D01*
X131794196Y-63174997D01*
X131465646Y-63174997D01*
X131456960Y-63159952D01*
X131430480Y-63114087D01*
X131355913Y-63039520D01*
X131355912Y-63039519D01*
X131351582Y-63035189D01*
X131351571Y-63035179D01*
X130495915Y-62179522D01*
X130495914Y-62179521D01*
X130495913Y-62179520D01*
X130450250Y-62153156D01*
X130404589Y-62126793D01*
X130340048Y-62109500D01*
X130302727Y-62099500D01*
X130302726Y-62099500D01*
X129729273Y-62099500D01*
X129662234Y-62079815D01*
X129618789Y-62031796D01*
X129599658Y-61994249D01*
X129599654Y-61994245D01*
X129599653Y-61994243D01*
X129505756Y-61900346D01*
X129505753Y-61900344D01*
X129505751Y-61900342D01*
X129387420Y-61840049D01*
X129387419Y-61840048D01*
X129387416Y-61840047D01*
X129387417Y-61840047D01*
X129289251Y-61824500D01*
X129289246Y-61824500D01*
X128785754Y-61824500D01*
X128785749Y-61824500D01*
X128687582Y-61840047D01*
X128619984Y-61874491D01*
X128569249Y-61900342D01*
X128569248Y-61900343D01*
X128569243Y-61900346D01*
X128475346Y-61994243D01*
X128475343Y-61994248D01*
X128475342Y-61994249D01*
X128466415Y-62011769D01*
X128415047Y-62112582D01*
X128399500Y-62210748D01*
X128399500Y-62789251D01*
X128415047Y-62887417D01*
X128425652Y-62908229D01*
X128475342Y-63005751D01*
X128475344Y-63005753D01*
X128475346Y-63005756D01*
X128569243Y-63099653D01*
X128569245Y-63099654D01*
X128569249Y-63099658D01*
X128687580Y-63159951D01*
X128687581Y-63159951D01*
X128687583Y-63159952D01*
X128687582Y-63159952D01*
X128785749Y-63175500D01*
X128785754Y-63175500D01*
X129289251Y-63175500D01*
X129387417Y-63159952D01*
X129387418Y-63159951D01*
X129387420Y-63159951D01*
X129505751Y-63099658D01*
X129599658Y-63005751D01*
X129618789Y-62968203D01*
X129666763Y-62917409D01*
X129729273Y-62900500D01*
X130032745Y-62900500D01*
X130099784Y-62920185D01*
X130120426Y-62936819D01*
X130673181Y-63489573D01*
X130706666Y-63550896D01*
X130709500Y-63577254D01*
X130709500Y-63985500D01*
X130689815Y-64052539D01*
X130637011Y-64098294D01*
X130585500Y-64109500D01*
X130240105Y-64109500D01*
X130224386Y-64111569D01*
X130190513Y-64116028D01*
X130190511Y-64116029D01*
X130190509Y-64116029D01*
X130081683Y-64166776D01*
X130081257Y-64167075D01*
X130080484Y-64167335D01*
X130071852Y-64171361D01*
X130071402Y-64170398D01*
X130015051Y-64189402D01*
X130010134Y-64189500D01*
X129949500Y-64189500D01*
X129882461Y-64169815D01*
X129836706Y-64117011D01*
X129825500Y-64065500D01*
X129825500Y-63816506D01*
X129809720Y-63716878D01*
X129809719Y-63716876D01*
X129809719Y-63716874D01*
X129748528Y-63596780D01*
X129748526Y-63596778D01*
X129748523Y-63596774D01*
X129653225Y-63501476D01*
X129653221Y-63501473D01*
X129653220Y-63501472D01*
X129533126Y-63440281D01*
X129533124Y-63440280D01*
X129533121Y-63440279D01*
X129433493Y-63424500D01*
X129433488Y-63424500D01*
X128866512Y-63424500D01*
X128866507Y-63424500D01*
X128766878Y-63440279D01*
X128766874Y-63440280D01*
X128766874Y-63440281D01*
X128714879Y-63466774D01*
X128646778Y-63501473D01*
X128646774Y-63501476D01*
X128551476Y-63596774D01*
X128551471Y-63596780D01*
X128546370Y-63606794D01*
X128498396Y-63657590D01*
X128435885Y-63674500D01*
X128285339Y-63674500D01*
X128285323Y-63674499D01*
X128277727Y-63674499D01*
X128172273Y-63674499D01*
X128104366Y-63692695D01*
X128070412Y-63701793D01*
X128038877Y-63720000D01*
X127979087Y-63754520D01*
X127911589Y-63822018D01*
X127911588Y-63822017D01*
X127745252Y-63988354D01*
X127713868Y-64011157D01*
X127659279Y-64038972D01*
X127659274Y-64038976D01*
X127563972Y-64134278D01*
X127536157Y-64188867D01*
X127513354Y-64220252D01*
X127095424Y-64638181D01*
X127034101Y-64671666D01*
X127007743Y-64674500D01*
X126511867Y-64674500D01*
X126496839Y-64676478D01*
X126464455Y-64680741D01*
X126464453Y-64680742D01*
X126464448Y-64680743D01*
X126360631Y-64729154D01*
X126291554Y-64739646D01*
X126227770Y-64711126D01*
X126189531Y-64652649D01*
X126188977Y-64582782D01*
X126195841Y-64564376D01*
X126244259Y-64460545D01*
X126250500Y-64413139D01*
X126250499Y-64241476D01*
X126270183Y-64174437D01*
X126290881Y-64151942D01*
X126290166Y-64151227D01*
X127229574Y-63211819D01*
X127290897Y-63178334D01*
X127317255Y-63175500D01*
X127714251Y-63175500D01*
X127812417Y-63159952D01*
X127812418Y-63159951D01*
X127812420Y-63159951D01*
X127930751Y-63099658D01*
X128024658Y-63005751D01*
X128084951Y-62887420D01*
X128084951Y-62887418D01*
X128084952Y-62887417D01*
X128100500Y-62789251D01*
X128100500Y-62210748D01*
X128084952Y-62112582D01*
X128076086Y-62095182D01*
X128024658Y-61994249D01*
X128024654Y-61994245D01*
X128024653Y-61994243D01*
X127930756Y-61900346D01*
X127930753Y-61900344D01*
X127930751Y-61900342D01*
X127812420Y-61840049D01*
X127812419Y-61840048D01*
X127812416Y-61840047D01*
X127812417Y-61840047D01*
X127714251Y-61824500D01*
X127714246Y-61824500D01*
X127210754Y-61824500D01*
X127124800Y-61838113D01*
X127055507Y-61829157D01*
X127002055Y-61784160D01*
X126981416Y-61717409D01*
X127000141Y-61650095D01*
X127017718Y-61627962D01*
X127044726Y-61600954D01*
X127106047Y-61567471D01*
X127151803Y-61566164D01*
X127210749Y-61575500D01*
X127210754Y-61575500D01*
X127714251Y-61575500D01*
X127812417Y-61559952D01*
X127812418Y-61559951D01*
X127812420Y-61559951D01*
X127930751Y-61499658D01*
X128024658Y-61405751D01*
X128084951Y-61287420D01*
X128084951Y-61287418D01*
X128084952Y-61287417D01*
X128100500Y-61189251D01*
X128100500Y-60610748D01*
X128399500Y-60610748D01*
X128399500Y-61189251D01*
X128415047Y-61287417D01*
X128421458Y-61299999D01*
X128475342Y-61405751D01*
X128475344Y-61405753D01*
X128475346Y-61405756D01*
X128569243Y-61499653D01*
X128569245Y-61499654D01*
X128569249Y-61499658D01*
X128687580Y-61559951D01*
X128687581Y-61559951D01*
X128687583Y-61559952D01*
X128687582Y-61559952D01*
X128785749Y-61575500D01*
X128785754Y-61575500D01*
X129289251Y-61575500D01*
X129387417Y-61559952D01*
X129387418Y-61559951D01*
X129387420Y-61559951D01*
X129505751Y-61499658D01*
X129599658Y-61405751D01*
X129644266Y-61318202D01*
X129692238Y-61267409D01*
X129754749Y-61250500D01*
X130413467Y-61250500D01*
X130480506Y-61270185D01*
X130523950Y-61318203D01*
X130546950Y-61363342D01*
X130546952Y-61363344D01*
X130546954Y-61363347D01*
X130636652Y-61453045D01*
X130636654Y-61453046D01*
X130636658Y-61453050D01*
X130749694Y-61510645D01*
X130749698Y-61510647D01*
X130843475Y-61525499D01*
X130843481Y-61525500D01*
X131306518Y-61525499D01*
X131400304Y-61510646D01*
X131513342Y-61453050D01*
X131603050Y-61363342D01*
X131660646Y-61250304D01*
X131660646Y-61250302D01*
X131660647Y-61250301D01*
X131675499Y-61156524D01*
X131675500Y-61156519D01*
X131675499Y-60543482D01*
X131675498Y-60543475D01*
X132124500Y-60543475D01*
X132124500Y-61156517D01*
X132135292Y-61224657D01*
X132139354Y-61250304D01*
X132196950Y-61363342D01*
X132196952Y-61363344D01*
X132196954Y-61363347D01*
X132286652Y-61453045D01*
X132286654Y-61453046D01*
X132286658Y-61453050D01*
X132399694Y-61510645D01*
X132399698Y-61510647D01*
X132493475Y-61525499D01*
X132493481Y-61525500D01*
X132956518Y-61525499D01*
X133050304Y-61510646D01*
X133163342Y-61453050D01*
X133253050Y-61363342D01*
X133276049Y-61318203D01*
X133324023Y-61267409D01*
X133386533Y-61250500D01*
X133719011Y-61250500D01*
X133756673Y-61259541D01*
X133757595Y-61256704D01*
X133766876Y-61259720D01*
X133899998Y-61280804D01*
X133900000Y-61280804D01*
X133900002Y-61280804D01*
X134033121Y-61259720D01*
X134033121Y-61259719D01*
X134033126Y-61259719D01*
X134153220Y-61198528D01*
X134248528Y-61103220D01*
X134309719Y-60983126D01*
X134309720Y-60983121D01*
X134330804Y-60850002D01*
X134330804Y-60849997D01*
X134309720Y-60716878D01*
X134309719Y-60716876D01*
X134309719Y-60716874D01*
X134248528Y-60596780D01*
X134248526Y-60596778D01*
X134248523Y-60596774D01*
X134153225Y-60501476D01*
X134153221Y-60501473D01*
X134153220Y-60501472D01*
X134033126Y-60440281D01*
X134033124Y-60440280D01*
X134033121Y-60440279D01*
X133900002Y-60419196D01*
X133899998Y-60419196D01*
X133766876Y-60440279D01*
X133757595Y-60443296D01*
X133756673Y-60440458D01*
X133719011Y-60449500D01*
X133386533Y-60449500D01*
X133319494Y-60429815D01*
X133276049Y-60381796D01*
X133253050Y-60336658D01*
X133253046Y-60336654D01*
X133253045Y-60336652D01*
X133163347Y-60246954D01*
X133163344Y-60246952D01*
X133163342Y-60246950D01*
X133086517Y-60207805D01*
X133050301Y-60189352D01*
X132956524Y-60174500D01*
X132493482Y-60174500D01*
X132412519Y-60187323D01*
X132399696Y-60189354D01*
X132286658Y-60246950D01*
X132286657Y-60246951D01*
X132286652Y-60246954D01*
X132196954Y-60336652D01*
X132196951Y-60336657D01*
X132196950Y-60336658D01*
X132177751Y-60374337D01*
X132139352Y-60449698D01*
X132124500Y-60543475D01*
X131675498Y-60543475D01*
X131660646Y-60449696D01*
X131603050Y-60336658D01*
X131603046Y-60336654D01*
X131603045Y-60336652D01*
X131513347Y-60246954D01*
X131513344Y-60246952D01*
X131513342Y-60246950D01*
X131436517Y-60207805D01*
X131400301Y-60189352D01*
X131306524Y-60174500D01*
X130843482Y-60174500D01*
X130762519Y-60187323D01*
X130749696Y-60189354D01*
X130636658Y-60246950D01*
X130636657Y-60246951D01*
X130636652Y-60246954D01*
X130546954Y-60336652D01*
X130546951Y-60336657D01*
X130546950Y-60336658D01*
X130527751Y-60374337D01*
X130489352Y-60449698D01*
X130486337Y-60458980D01*
X130483825Y-60458163D01*
X130460180Y-60508037D01*
X130400866Y-60544966D01*
X130367640Y-60549500D01*
X129754749Y-60549500D01*
X129687710Y-60529815D01*
X129644266Y-60481797D01*
X129599658Y-60394249D01*
X129599656Y-60394247D01*
X129599653Y-60394243D01*
X129505756Y-60300346D01*
X129505753Y-60300344D01*
X129505751Y-60300342D01*
X129387420Y-60240049D01*
X129387419Y-60240048D01*
X129387416Y-60240047D01*
X129387417Y-60240047D01*
X129289251Y-60224500D01*
X129289246Y-60224500D01*
X128785754Y-60224500D01*
X128785749Y-60224500D01*
X128687582Y-60240047D01*
X128608692Y-60280244D01*
X128569249Y-60300342D01*
X128569248Y-60300343D01*
X128569243Y-60300346D01*
X128475346Y-60394243D01*
X128475344Y-60394247D01*
X128475342Y-60394249D01*
X128462631Y-60419196D01*
X128415047Y-60512582D01*
X128399500Y-60610748D01*
X128100500Y-60610748D01*
X128084952Y-60512582D01*
X128079291Y-60501472D01*
X128024658Y-60394249D01*
X128024654Y-60394245D01*
X128024653Y-60394243D01*
X127930756Y-60300346D01*
X127930753Y-60300344D01*
X127930751Y-60300342D01*
X127812420Y-60240049D01*
X127812419Y-60240048D01*
X127812416Y-60240047D01*
X127812417Y-60240047D01*
X127714251Y-60224500D01*
X127714246Y-60224500D01*
X127210754Y-60224500D01*
X127210752Y-60224500D01*
X127154504Y-60233408D01*
X127085211Y-60224452D01*
X127031759Y-60179455D01*
X127011121Y-60112703D01*
X127029847Y-60045389D01*
X127047419Y-60023261D01*
X127158864Y-59911816D01*
X127220185Y-59878334D01*
X127246543Y-59875500D01*
X127714251Y-59875500D01*
X127812417Y-59859952D01*
X127812418Y-59859951D01*
X127812420Y-59859951D01*
X127930751Y-59799658D01*
X128024658Y-59705751D01*
X128084951Y-59587420D01*
X128084951Y-59587418D01*
X128084952Y-59587417D01*
X128100500Y-59489251D01*
X128100500Y-58910748D01*
X128399500Y-58910748D01*
X128399500Y-59489251D01*
X128415047Y-59587417D01*
X128434364Y-59625329D01*
X128475342Y-59705751D01*
X128475344Y-59705753D01*
X128475346Y-59705756D01*
X128569243Y-59799653D01*
X128569245Y-59799654D01*
X128569249Y-59799658D01*
X128687580Y-59859951D01*
X128687581Y-59859951D01*
X128687583Y-59859952D01*
X128687582Y-59859952D01*
X128785749Y-59875500D01*
X128785754Y-59875500D01*
X129289251Y-59875500D01*
X129387417Y-59859952D01*
X129387418Y-59859951D01*
X129387420Y-59859951D01*
X129505751Y-59799658D01*
X129568591Y-59736817D01*
X129629912Y-59703334D01*
X129656271Y-59700500D01*
X130482746Y-59700500D01*
X130549785Y-59720185D01*
X130570422Y-59736814D01*
X130636658Y-59803050D01*
X130748332Y-59859951D01*
X130749698Y-59860647D01*
X130843475Y-59875499D01*
X130843481Y-59875500D01*
X131306518Y-59875499D01*
X131400304Y-59860646D01*
X131513342Y-59803050D01*
X131603050Y-59713342D01*
X131660646Y-59600304D01*
X131660646Y-59600302D01*
X131660647Y-59600301D01*
X131675499Y-59506524D01*
X131675500Y-59506519D01*
X131675499Y-58893482D01*
X131675498Y-58893475D01*
X132124500Y-58893475D01*
X132124500Y-59506517D01*
X132131897Y-59553220D01*
X132139354Y-59600304D01*
X132196950Y-59713342D01*
X132196952Y-59713344D01*
X132196954Y-59713347D01*
X132286652Y-59803045D01*
X132286654Y-59803046D01*
X132286658Y-59803050D01*
X132398332Y-59859951D01*
X132399698Y-59860647D01*
X132493475Y-59875499D01*
X132493481Y-59875500D01*
X132956518Y-59875499D01*
X133050304Y-59860646D01*
X133163342Y-59803050D01*
X133229574Y-59736817D01*
X133290895Y-59703334D01*
X133317254Y-59700500D01*
X133769011Y-59700500D01*
X133806673Y-59709541D01*
X133807595Y-59706704D01*
X133816876Y-59709720D01*
X133949998Y-59730804D01*
X133950000Y-59730804D01*
X133950002Y-59730804D01*
X134083121Y-59709720D01*
X134083121Y-59709719D01*
X134083126Y-59709719D01*
X134203220Y-59648528D01*
X134298528Y-59553220D01*
X134359719Y-59433126D01*
X134363950Y-59406412D01*
X134380804Y-59300002D01*
X134380804Y-59299997D01*
X134359720Y-59166878D01*
X134359719Y-59166876D01*
X134359719Y-59166874D01*
X134310758Y-59070782D01*
X136241347Y-59070782D01*
X136397517Y-59180133D01*
X136603673Y-59276265D01*
X136603682Y-59276269D01*
X136823389Y-59335139D01*
X136823400Y-59335141D01*
X137049998Y-59354966D01*
X137050002Y-59354966D01*
X137276599Y-59335141D01*
X137276610Y-59335139D01*
X137496317Y-59276269D01*
X137496326Y-59276265D01*
X137702482Y-59180134D01*
X137858651Y-59070782D01*
X137784399Y-58996530D01*
X144799500Y-58996530D01*
X144799500Y-59203469D01*
X144839868Y-59406412D01*
X144839870Y-59406420D01*
X144919058Y-59597596D01*
X145034024Y-59769657D01*
X145180342Y-59915975D01*
X145180345Y-59915977D01*
X145352402Y-60030941D01*
X145543580Y-60110130D01*
X145724626Y-60146142D01*
X145746530Y-60150499D01*
X145746534Y-60150500D01*
X145746535Y-60150500D01*
X146253466Y-60150500D01*
X146253467Y-60150499D01*
X146456420Y-60110130D01*
X146647598Y-60030941D01*
X146819655Y-59915977D01*
X146965977Y-59769655D01*
X147080941Y-59597598D01*
X147160130Y-59406420D01*
X147200500Y-59203465D01*
X147200500Y-58996535D01*
X147160130Y-58793580D01*
X147080941Y-58602402D01*
X146965977Y-58430345D01*
X146965975Y-58430342D01*
X146819657Y-58284024D01*
X146733626Y-58226541D01*
X146647598Y-58169059D01*
X146456420Y-58089870D01*
X146456412Y-58089868D01*
X146253469Y-58049500D01*
X146253465Y-58049500D01*
X145746535Y-58049500D01*
X145746530Y-58049500D01*
X145543587Y-58089868D01*
X145543579Y-58089870D01*
X145352403Y-58169058D01*
X145180342Y-58284024D01*
X145034024Y-58430342D01*
X144919058Y-58602403D01*
X144839870Y-58793579D01*
X144839868Y-58793587D01*
X144799500Y-58996530D01*
X137784399Y-58996530D01*
X137050000Y-58262132D01*
X136241347Y-59070782D01*
X134310758Y-59070782D01*
X134298528Y-59046780D01*
X134298526Y-59046778D01*
X134298523Y-59046774D01*
X134203225Y-58951476D01*
X134203221Y-58951473D01*
X134203220Y-58951472D01*
X134083126Y-58890281D01*
X134083124Y-58890280D01*
X134083121Y-58890279D01*
X133950002Y-58869196D01*
X133949998Y-58869196D01*
X133816876Y-58890279D01*
X133807595Y-58893296D01*
X133806673Y-58890458D01*
X133769011Y-58899500D01*
X133432360Y-58899500D01*
X133365321Y-58879815D01*
X133319566Y-58827011D01*
X133314088Y-58808842D01*
X133313663Y-58808981D01*
X133310647Y-58799699D01*
X133310646Y-58799697D01*
X133310646Y-58799696D01*
X133253050Y-58686658D01*
X133253046Y-58686654D01*
X133253045Y-58686652D01*
X133163347Y-58596954D01*
X133163344Y-58596952D01*
X133163342Y-58596950D01*
X133086517Y-58557805D01*
X133050301Y-58539352D01*
X132956524Y-58524500D01*
X132493482Y-58524500D01*
X132412519Y-58537323D01*
X132399696Y-58539354D01*
X132286658Y-58596950D01*
X132286657Y-58596951D01*
X132286652Y-58596954D01*
X132196954Y-58686652D01*
X132196951Y-58686657D01*
X132196950Y-58686658D01*
X132177751Y-58724337D01*
X132139352Y-58799698D01*
X132124500Y-58893475D01*
X131675498Y-58893475D01*
X131660646Y-58799696D01*
X131603050Y-58686658D01*
X131603046Y-58686654D01*
X131603045Y-58686652D01*
X131513347Y-58596954D01*
X131513344Y-58596952D01*
X131513342Y-58596950D01*
X131436517Y-58557805D01*
X131400301Y-58539352D01*
X131306524Y-58524500D01*
X130843482Y-58524500D01*
X130762519Y-58537323D01*
X130749696Y-58539354D01*
X130636658Y-58596950D01*
X130636657Y-58596951D01*
X130636652Y-58596954D01*
X130546954Y-58686652D01*
X130546951Y-58686657D01*
X130546950Y-58686658D01*
X130527751Y-58724337D01*
X130489352Y-58799698D01*
X130474275Y-58894898D01*
X130444346Y-58958032D01*
X130385035Y-58994964D01*
X130351802Y-58999500D01*
X129795463Y-58999500D01*
X129728424Y-58979815D01*
X129682669Y-58927011D01*
X129672990Y-58894898D01*
X129659952Y-58812583D01*
X129659951Y-58812581D01*
X129659951Y-58812580D01*
X129599658Y-58694249D01*
X129599654Y-58694245D01*
X129599653Y-58694243D01*
X129505756Y-58600346D01*
X129505753Y-58600344D01*
X129505751Y-58600342D01*
X129387420Y-58540049D01*
X129387419Y-58540048D01*
X129387416Y-58540047D01*
X129387417Y-58540047D01*
X129289251Y-58524500D01*
X129289246Y-58524500D01*
X128785754Y-58524500D01*
X128785749Y-58524500D01*
X128687582Y-58540047D01*
X128608692Y-58580244D01*
X128569249Y-58600342D01*
X128569248Y-58600343D01*
X128569243Y-58600346D01*
X128475346Y-58694243D01*
X128475343Y-58694248D01*
X128415047Y-58812582D01*
X128399500Y-58910748D01*
X128100500Y-58910748D01*
X128084952Y-58812582D01*
X128078386Y-58799696D01*
X128024658Y-58694249D01*
X128024654Y-58694245D01*
X128024653Y-58694243D01*
X127930756Y-58600346D01*
X127930753Y-58600344D01*
X127930751Y-58600342D01*
X127812420Y-58540049D01*
X127812419Y-58540048D01*
X127812416Y-58540047D01*
X127812417Y-58540047D01*
X127714251Y-58524500D01*
X127714246Y-58524500D01*
X127210754Y-58524500D01*
X127210749Y-58524500D01*
X127112582Y-58540047D01*
X127033692Y-58580244D01*
X126994249Y-58600342D01*
X126994248Y-58600343D01*
X126994243Y-58600346D01*
X126900346Y-58694243D01*
X126900343Y-58694248D01*
X126840047Y-58812582D01*
X126824500Y-58910748D01*
X126824500Y-59203456D01*
X126804815Y-59270495D01*
X126788181Y-59291137D01*
X123919531Y-62159786D01*
X123919527Y-62159791D01*
X123878724Y-62230464D01*
X123878722Y-62230470D01*
X123873386Y-62239712D01*
X123849500Y-62328856D01*
X123849500Y-62722526D01*
X123829815Y-62789565D01*
X123777011Y-62835320D01*
X123707853Y-62845264D01*
X123673096Y-62834909D01*
X123655011Y-62826476D01*
X123610545Y-62805741D01*
X123610542Y-62805740D01*
X123610541Y-62805740D01*
X123563140Y-62799500D01*
X123236867Y-62799500D01*
X123221839Y-62801478D01*
X123189455Y-62805741D01*
X123189453Y-62805742D01*
X123189448Y-62805743D01*
X123126904Y-62834908D01*
X123057827Y-62845400D01*
X122994043Y-62816880D01*
X122955804Y-62758403D01*
X122950500Y-62722526D01*
X122950500Y-62146544D01*
X122970185Y-62079505D01*
X122986819Y-62058863D01*
X123856436Y-61189246D01*
X124730470Y-60315212D01*
X124776614Y-60235288D01*
X124779505Y-60224500D01*
X124800500Y-60146144D01*
X124800500Y-59359043D01*
X124820185Y-59292004D01*
X124836814Y-59271366D01*
X124889198Y-59218983D01*
X124940573Y-59113893D01*
X124950500Y-59045760D01*
X124950500Y-58049997D01*
X135745034Y-58049997D01*
X135745034Y-58050002D01*
X135764858Y-58276599D01*
X135764860Y-58276610D01*
X135823730Y-58496317D01*
X135823734Y-58496326D01*
X135919866Y-58702482D01*
X136029216Y-58858650D01*
X136837868Y-58050000D01*
X136837868Y-58049999D01*
X137262132Y-58049999D01*
X137262132Y-58050001D01*
X138070782Y-58858651D01*
X138180134Y-58702482D01*
X138276265Y-58496326D01*
X138276269Y-58496317D01*
X138335139Y-58276610D01*
X138335141Y-58276599D01*
X138354966Y-58050002D01*
X138354966Y-58049997D01*
X138335141Y-57823400D01*
X138335139Y-57823389D01*
X138276269Y-57603682D01*
X138276265Y-57603673D01*
X138180133Y-57397517D01*
X138070782Y-57241347D01*
X137262132Y-58049999D01*
X136837868Y-58049999D01*
X136029216Y-57241347D01*
X136029215Y-57241348D01*
X135919866Y-57397516D01*
X135919865Y-57397518D01*
X135823734Y-57603673D01*
X135823730Y-57603682D01*
X135764860Y-57823389D01*
X135764858Y-57823400D01*
X135745034Y-58049997D01*
X124950500Y-58049997D01*
X124950500Y-57954240D01*
X124940573Y-57886107D01*
X124889198Y-57781017D01*
X124889196Y-57781015D01*
X124889196Y-57781014D01*
X124806485Y-57698303D01*
X124701391Y-57646926D01*
X124633261Y-57637000D01*
X124633260Y-57637000D01*
X124557513Y-57637000D01*
X124490474Y-57617315D01*
X124444719Y-57564511D01*
X124434775Y-57495353D01*
X124435040Y-57493602D01*
X124455804Y-57362502D01*
X124455804Y-57362497D01*
X124435040Y-57231398D01*
X124443995Y-57162104D01*
X124488991Y-57108652D01*
X124555743Y-57088013D01*
X124557513Y-57088000D01*
X124633261Y-57088000D01*
X124655971Y-57084691D01*
X124701393Y-57078073D01*
X124801332Y-57029216D01*
X136241347Y-57029216D01*
X137050000Y-57837868D01*
X137050001Y-57837868D01*
X137858651Y-57029216D01*
X137702482Y-56919866D01*
X137496326Y-56823734D01*
X137496317Y-56823730D01*
X137276610Y-56764860D01*
X137276599Y-56764858D01*
X137050002Y-56745034D01*
X137049998Y-56745034D01*
X136823400Y-56764858D01*
X136823389Y-56764860D01*
X136603682Y-56823730D01*
X136603673Y-56823734D01*
X136397518Y-56919865D01*
X136397516Y-56919866D01*
X136241348Y-57029215D01*
X136241347Y-57029216D01*
X124801332Y-57029216D01*
X124806483Y-57026698D01*
X124889198Y-56943983D01*
X124940573Y-56838893D01*
X124950500Y-56770760D01*
X124950500Y-55679240D01*
X124940573Y-55611107D01*
X124889198Y-55506017D01*
X124889196Y-55506015D01*
X124889196Y-55506014D01*
X124836819Y-55453637D01*
X124803334Y-55392314D01*
X124800500Y-55365956D01*
X124800500Y-55166358D01*
X124800500Y-55166356D01*
X124776614Y-55077212D01*
X124767744Y-55061849D01*
X124754619Y-55039115D01*
X124754617Y-55039113D01*
X124752429Y-55035324D01*
X124730470Y-54997288D01*
X124336819Y-54603637D01*
X124303334Y-54542314D01*
X124300500Y-54515956D01*
X124300500Y-54171544D01*
X124320185Y-54104505D01*
X124336819Y-54083863D01*
X124428809Y-53991873D01*
X124530470Y-53890212D01*
X124563791Y-53832498D01*
X124614356Y-53784284D01*
X124671173Y-53770499D01*
X124852132Y-53770499D01*
X124932495Y-53754515D01*
X124932498Y-53754512D01*
X124943778Y-53749841D01*
X124944376Y-53751286D01*
X124997782Y-53734563D01*
X125055943Y-53750516D01*
X125056223Y-53749842D01*
X125061590Y-53752065D01*
X125065162Y-53753045D01*
X125067351Y-53754451D01*
X125067506Y-53754516D01*
X125120957Y-53765147D01*
X125147867Y-53770500D01*
X125325499Y-53770499D01*
X125392539Y-53790183D01*
X125438294Y-53842987D01*
X125449500Y-53894499D01*
X125449500Y-54681511D01*
X125440460Y-54719171D01*
X125443296Y-54720093D01*
X125440280Y-54729373D01*
X125419196Y-54862497D01*
X125419196Y-54862502D01*
X125440279Y-54995621D01*
X125440280Y-54995624D01*
X125440281Y-54995626D01*
X125489192Y-55091619D01*
X125501473Y-55115721D01*
X125501476Y-55115725D01*
X125596774Y-55211023D01*
X125596778Y-55211026D01*
X125596780Y-55211028D01*
X125716874Y-55272219D01*
X125716876Y-55272219D01*
X125716878Y-55272220D01*
X125849998Y-55293304D01*
X125850000Y-55293304D01*
X125850002Y-55293304D01*
X125983121Y-55272220D01*
X125983121Y-55272219D01*
X125983126Y-55272219D01*
X126103220Y-55211028D01*
X126198528Y-55115720D01*
X126259719Y-54995626D01*
X126267639Y-54945623D01*
X126280804Y-54862502D01*
X126280804Y-54862497D01*
X126259719Y-54729373D01*
X126256704Y-54720093D01*
X126259539Y-54719171D01*
X126250500Y-54681511D01*
X126250500Y-54574285D01*
X126270185Y-54507246D01*
X126322989Y-54461491D01*
X126392147Y-54451547D01*
X126437622Y-54470005D01*
X126438085Y-54469097D01*
X126446778Y-54473526D01*
X126446780Y-54473528D01*
X126566874Y-54534719D01*
X126566876Y-54534719D01*
X126566878Y-54534720D01*
X126699998Y-54555804D01*
X126700000Y-54555804D01*
X126700002Y-54555804D01*
X126833121Y-54534720D01*
X126833121Y-54534719D01*
X126833126Y-54534719D01*
X126953220Y-54473528D01*
X127048528Y-54378220D01*
X127109719Y-54258126D01*
X127114859Y-54225674D01*
X127130804Y-54125002D01*
X127130804Y-54124997D01*
X127109719Y-53991873D01*
X127106704Y-53982593D01*
X127109539Y-53981671D01*
X127100500Y-53944011D01*
X127100500Y-53716543D01*
X127120185Y-53649504D01*
X127136818Y-53628862D01*
X127139198Y-53626483D01*
X127190573Y-53521393D01*
X127198039Y-53470144D01*
X127227182Y-53406647D01*
X127286030Y-53368983D01*
X127355900Y-53369113D01*
X127389634Y-53384923D01*
X127488182Y-53450771D01*
X127488195Y-53450778D01*
X127615667Y-53503578D01*
X127615672Y-53503580D01*
X127615676Y-53503580D01*
X127615677Y-53503581D01*
X127751004Y-53530500D01*
X127751007Y-53530500D01*
X127888995Y-53530500D01*
X127980041Y-53512389D01*
X128024328Y-53503580D01*
X128151811Y-53450775D01*
X128266542Y-53374114D01*
X128364114Y-53276542D01*
X128440775Y-53161811D01*
X128493580Y-53034328D01*
X128520500Y-52898993D01*
X128520500Y-51661007D01*
X128520500Y-51661004D01*
X128493581Y-51525677D01*
X128493580Y-51525676D01*
X128493580Y-51525672D01*
X128452558Y-51426635D01*
X128440778Y-51398195D01*
X128440771Y-51398182D01*
X128364114Y-51283458D01*
X128364111Y-51283454D01*
X128266545Y-51185888D01*
X128266541Y-51185885D01*
X128151817Y-51109228D01*
X128151804Y-51109221D01*
X128024332Y-51056421D01*
X128024322Y-51056418D01*
X127888995Y-51029500D01*
X127888993Y-51029500D01*
X127751007Y-51029500D01*
X127751005Y-51029500D01*
X127615677Y-51056418D01*
X127615667Y-51056421D01*
X127488195Y-51109221D01*
X127488182Y-51109228D01*
X127373458Y-51185885D01*
X127373454Y-51185888D01*
X127275888Y-51283454D01*
X127275885Y-51283458D01*
X127199228Y-51398182D01*
X127199221Y-51398195D01*
X127144089Y-51531299D01*
X127142289Y-51530553D01*
X127108920Y-51581464D01*
X127045105Y-51609916D01*
X126976039Y-51599350D01*
X126923649Y-51553122D01*
X126921177Y-51549024D01*
X126850517Y-51426638D01*
X126850512Y-51426632D01*
X126743367Y-51319487D01*
X126743365Y-51319485D01*
X126677750Y-51281602D01*
X126612136Y-51243719D01*
X126537863Y-51223818D01*
X126465766Y-51204500D01*
X126390544Y-51204500D01*
X126323505Y-51184815D01*
X126277750Y-51132011D01*
X126267806Y-51062853D01*
X126296831Y-50999297D01*
X126302863Y-50992819D01*
X126533863Y-50761819D01*
X126595186Y-50728334D01*
X126621544Y-50725500D01*
X129013467Y-50725500D01*
X129080506Y-50745185D01*
X129123950Y-50793203D01*
X129146950Y-50838342D01*
X129146952Y-50838344D01*
X129146954Y-50838347D01*
X129236652Y-50928045D01*
X129236654Y-50928046D01*
X129236658Y-50928050D01*
X129349694Y-50985645D01*
X129349698Y-50985647D01*
X129443475Y-51000499D01*
X129443481Y-51000500D01*
X129906518Y-51000499D01*
X130000304Y-50985646D01*
X130113342Y-50928050D01*
X130203050Y-50838342D01*
X130260646Y-50725304D01*
X130260646Y-50725302D01*
X130260647Y-50725301D01*
X130275499Y-50631524D01*
X130275500Y-50631519D01*
X130275499Y-50018482D01*
X130275498Y-50018475D01*
X130724500Y-50018475D01*
X130724500Y-50631517D01*
X130731870Y-50678048D01*
X130739354Y-50725304D01*
X130796950Y-50838342D01*
X130796952Y-50838344D01*
X130796954Y-50838347D01*
X130886652Y-50928045D01*
X130886654Y-50928046D01*
X130886658Y-50928050D01*
X130999694Y-50985645D01*
X130999698Y-50985647D01*
X131093475Y-51000499D01*
X131093481Y-51000500D01*
X131556518Y-51000499D01*
X131650304Y-50985646D01*
X131763342Y-50928050D01*
X131853050Y-50838342D01*
X131876049Y-50793203D01*
X131924023Y-50742409D01*
X131986533Y-50725500D01*
X132156511Y-50725500D01*
X132194173Y-50734541D01*
X132195095Y-50731704D01*
X132204376Y-50734720D01*
X132337498Y-50755804D01*
X132337500Y-50755804D01*
X132337502Y-50755804D01*
X132470621Y-50734720D01*
X132470621Y-50734719D01*
X132470626Y-50734719D01*
X132590720Y-50673528D01*
X132686028Y-50578220D01*
X132747219Y-50458126D01*
X132749269Y-50445185D01*
X132768304Y-50325002D01*
X132768304Y-50324997D01*
X132747220Y-50191878D01*
X132747219Y-50191876D01*
X132747219Y-50191874D01*
X132686028Y-50071780D01*
X132686026Y-50071778D01*
X132686023Y-50071774D01*
X132614246Y-49999997D01*
X141594506Y-49999997D01*
X141594506Y-50000002D01*
X141595834Y-50024500D01*
X141612301Y-50328221D01*
X141614469Y-50368196D01*
X141614470Y-50368213D01*
X141674122Y-50732068D01*
X141674128Y-50732094D01*
X141772768Y-51087365D01*
X141772770Y-51087371D01*
X141772772Y-51087377D01*
X141772773Y-51087379D01*
X141790556Y-51132011D01*
X141909255Y-51429926D01*
X141909261Y-51429938D01*
X142081973Y-51755708D01*
X142081976Y-51755713D01*
X142081978Y-51755716D01*
X142114618Y-51803856D01*
X142288909Y-52060916D01*
X142361500Y-52146376D01*
X142527627Y-52341956D01*
X142795330Y-52595538D01*
X143088881Y-52818690D01*
X143404838Y-53008795D01*
X143404840Y-53008796D01*
X143404842Y-53008797D01*
X143404846Y-53008799D01*
X143460035Y-53034332D01*
X143739497Y-53163625D01*
X144088934Y-53281364D01*
X144449052Y-53360632D01*
X144815630Y-53400500D01*
X144815636Y-53400500D01*
X145184364Y-53400500D01*
X145184370Y-53400500D01*
X145550948Y-53360632D01*
X145911066Y-53281364D01*
X146260503Y-53163625D01*
X146595162Y-53008795D01*
X146911119Y-52818690D01*
X147204670Y-52595538D01*
X147472373Y-52341956D01*
X147711090Y-52060917D01*
X147918022Y-51755716D01*
X148090743Y-51429930D01*
X148227227Y-51087379D01*
X148235823Y-51056421D01*
X148320761Y-50750499D01*
X148325875Y-50732081D01*
X148351099Y-50578221D01*
X148385529Y-50368213D01*
X148385529Y-50368210D01*
X148385531Y-50368199D01*
X148404166Y-50024500D01*
X148405494Y-50000002D01*
X148405494Y-49999997D01*
X148402343Y-49941878D01*
X148385531Y-49631801D01*
X148381603Y-49607843D01*
X148325877Y-49267931D01*
X148325876Y-49267930D01*
X148325875Y-49267919D01*
X148271917Y-49073580D01*
X148227231Y-48912634D01*
X148227229Y-48912628D01*
X148227228Y-48912627D01*
X148227227Y-48912621D01*
X148090743Y-48570070D01*
X147918022Y-48244284D01*
X147711090Y-47939083D01*
X147472373Y-47658044D01*
X147204670Y-47404462D01*
X146911119Y-47181310D01*
X146595162Y-46991205D01*
X146595161Y-46991204D01*
X146595157Y-46991202D01*
X146595153Y-46991200D01*
X146260513Y-46836379D01*
X146260508Y-46836377D01*
X146260503Y-46836375D01*
X146090172Y-46778983D01*
X145911065Y-46718635D01*
X145550946Y-46639367D01*
X145184371Y-46599500D01*
X145184370Y-46599500D01*
X144815630Y-46599500D01*
X144815628Y-46599500D01*
X144449053Y-46639367D01*
X144088934Y-46718635D01*
X143844326Y-46801054D01*
X143739497Y-46836375D01*
X143739494Y-46836376D01*
X143739486Y-46836379D01*
X143404846Y-46991200D01*
X143404842Y-46991202D01*
X143211094Y-47107777D01*
X143088881Y-47181310D01*
X142990779Y-47255885D01*
X142795330Y-47404461D01*
X142795330Y-47404462D01*
X142527626Y-47658044D01*
X142288909Y-47939083D01*
X142081979Y-48244282D01*
X142081973Y-48244291D01*
X141909261Y-48570061D01*
X141909255Y-48570073D01*
X141772770Y-48912628D01*
X141772768Y-48912634D01*
X141674128Y-49267905D01*
X141674122Y-49267931D01*
X141614470Y-49631786D01*
X141614469Y-49631803D01*
X141594506Y-49999997D01*
X132614246Y-49999997D01*
X132590725Y-49976476D01*
X132590721Y-49976473D01*
X132590720Y-49976472D01*
X132470626Y-49915281D01*
X132470624Y-49915280D01*
X132470621Y-49915279D01*
X132337502Y-49894196D01*
X132337498Y-49894196D01*
X132204376Y-49915279D01*
X132195095Y-49918296D01*
X132194173Y-49915458D01*
X132156511Y-49924500D01*
X131986533Y-49924500D01*
X131919494Y-49904815D01*
X131876049Y-49856796D01*
X131853050Y-49811658D01*
X131853046Y-49811654D01*
X131853045Y-49811652D01*
X131763347Y-49721954D01*
X131763344Y-49721952D01*
X131763342Y-49721950D01*
X131686517Y-49682805D01*
X131650301Y-49664352D01*
X131556524Y-49649500D01*
X131093482Y-49649500D01*
X131012519Y-49662323D01*
X130999696Y-49664354D01*
X130886658Y-49721950D01*
X130886657Y-49721951D01*
X130886652Y-49721954D01*
X130796954Y-49811652D01*
X130796951Y-49811657D01*
X130739352Y-49924698D01*
X130724500Y-50018475D01*
X130275498Y-50018475D01*
X130260646Y-49924696D01*
X130203050Y-49811658D01*
X130203046Y-49811654D01*
X130203045Y-49811652D01*
X130113347Y-49721954D01*
X130113344Y-49721952D01*
X130113342Y-49721950D01*
X130036517Y-49682805D01*
X130000301Y-49664352D01*
X129906524Y-49649500D01*
X129443482Y-49649500D01*
X129362519Y-49662323D01*
X129349696Y-49664354D01*
X129236658Y-49721950D01*
X129236657Y-49721951D01*
X129236652Y-49721954D01*
X129146954Y-49811652D01*
X129146951Y-49811657D01*
X129089352Y-49924698D01*
X129086337Y-49933980D01*
X129083825Y-49933163D01*
X129060180Y-49983037D01*
X129000866Y-50019966D01*
X128967640Y-50024500D01*
X126378856Y-50024500D01*
X126298940Y-50045913D01*
X126298939Y-50045912D01*
X126289714Y-50048385D01*
X126289708Y-50048387D01*
X126209791Y-50094527D01*
X126209786Y-50094531D01*
X124469532Y-51834785D01*
X124469528Y-51834791D01*
X124434106Y-51896142D01*
X124434107Y-51896143D01*
X124423386Y-51914711D01*
X124423386Y-51914712D01*
X124411309Y-51959786D01*
X124406537Y-51977594D01*
X124370171Y-52037254D01*
X124307324Y-52067783D01*
X124286762Y-52069500D01*
X124192517Y-52069500D01*
X124125478Y-52049815D01*
X124079723Y-51997011D01*
X124077953Y-51992946D01*
X124076615Y-51989716D01*
X124076614Y-51989712D01*
X124076611Y-51989707D01*
X124076610Y-51989704D01*
X124030473Y-51909794D01*
X124030470Y-51909791D01*
X124030469Y-51909788D01*
X123965212Y-51844531D01*
X123715212Y-51594530D01*
X123635288Y-51548386D01*
X123546144Y-51524500D01*
X123003856Y-51524500D01*
X122914712Y-51548386D01*
X122914709Y-51548387D01*
X122834791Y-51594527D01*
X122834786Y-51594531D01*
X122469531Y-51959786D01*
X122469527Y-51959791D01*
X122443791Y-52004369D01*
X122443786Y-52004377D01*
X122441978Y-52007508D01*
X122391408Y-52055720D01*
X122334596Y-52069500D01*
X122224500Y-52069500D01*
X122157461Y-52049815D01*
X122111706Y-51997011D01*
X122100500Y-51945500D01*
X122100500Y-51803858D01*
X122100500Y-51803856D01*
X122076614Y-51714712D01*
X122053542Y-51674750D01*
X122030472Y-51634791D01*
X122030468Y-51634786D01*
X120190213Y-49794531D01*
X120190208Y-49794527D01*
X120110291Y-49748387D01*
X120110287Y-49748385D01*
X120104926Y-49746949D01*
X120104926Y-49746948D01*
X120036476Y-49728608D01*
X120021144Y-49724500D01*
X120021143Y-49724500D01*
X117962010Y-49724500D01*
X117894971Y-49704815D01*
X117851526Y-49656796D01*
X117823846Y-49602473D01*
X117803050Y-49561658D01*
X117803047Y-49561655D01*
X117803045Y-49561652D01*
X117713347Y-49471954D01*
X117713344Y-49471952D01*
X117713342Y-49471950D01*
X117636517Y-49432805D01*
X117600301Y-49414352D01*
X117506524Y-49399500D01*
X117043482Y-49399500D01*
X116962519Y-49412323D01*
X116949696Y-49414354D01*
X116836658Y-49471950D01*
X116836657Y-49471951D01*
X116836652Y-49471954D01*
X116746954Y-49561652D01*
X116746951Y-49561657D01*
X116746950Y-49561658D01*
X116727751Y-49599337D01*
X116689352Y-49674698D01*
X116674500Y-49768475D01*
X116674500Y-50381517D01*
X116681153Y-50423523D01*
X116689354Y-50475304D01*
X116746950Y-50588342D01*
X116746952Y-50588344D01*
X116746954Y-50588347D01*
X116836652Y-50678045D01*
X116836654Y-50678046D01*
X116836658Y-50678050D01*
X116942725Y-50732094D01*
X116949698Y-50735647D01*
X117043475Y-50750499D01*
X117043481Y-50750500D01*
X117506518Y-50750499D01*
X117600304Y-50735646D01*
X117713342Y-50678050D01*
X117803050Y-50588342D01*
X117834592Y-50526436D01*
X117851526Y-50493204D01*
X117899500Y-50442409D01*
X117962010Y-50425500D01*
X119778456Y-50425500D01*
X119845495Y-50445185D01*
X119866137Y-50461819D01*
X120441188Y-51036870D01*
X120474673Y-51098193D01*
X120469689Y-51167885D01*
X120427817Y-51223818D01*
X120395014Y-51239753D01*
X120395369Y-51240611D01*
X120387865Y-51243718D01*
X120256635Y-51319485D01*
X120256632Y-51319487D01*
X120149487Y-51426632D01*
X120149485Y-51426635D01*
X120078822Y-51549025D01*
X120028254Y-51597240D01*
X119959647Y-51610462D01*
X119894782Y-51584494D01*
X119856677Y-51530981D01*
X119855911Y-51531299D01*
X119854531Y-51527968D01*
X119854254Y-51527579D01*
X119853834Y-51526286D01*
X119853094Y-51524500D01*
X119812558Y-51426635D01*
X119800778Y-51398195D01*
X119800771Y-51398182D01*
X119724114Y-51283458D01*
X119724111Y-51283454D01*
X119626545Y-51185888D01*
X119626541Y-51185885D01*
X119511817Y-51109228D01*
X119511804Y-51109221D01*
X119384332Y-51056421D01*
X119384322Y-51056418D01*
X119248995Y-51029500D01*
X119248993Y-51029500D01*
X119111007Y-51029500D01*
X119111005Y-51029500D01*
X118975677Y-51056418D01*
X118975667Y-51056421D01*
X118848195Y-51109221D01*
X118848182Y-51109228D01*
X118733458Y-51185885D01*
X118733454Y-51185888D01*
X118635888Y-51283454D01*
X118635885Y-51283458D01*
X118559228Y-51398182D01*
X118559221Y-51398195D01*
X118506421Y-51525667D01*
X118506418Y-51525677D01*
X118479500Y-51661004D01*
X118479500Y-51661007D01*
X118479500Y-52898993D01*
X118479500Y-52898995D01*
X118479499Y-52898995D01*
X118506418Y-53034322D01*
X118506421Y-53034332D01*
X118559221Y-53161804D01*
X118559228Y-53161817D01*
X118635885Y-53276541D01*
X118635888Y-53276545D01*
X118733454Y-53374111D01*
X118733458Y-53374114D01*
X118848182Y-53450771D01*
X118848195Y-53450778D01*
X118975667Y-53503578D01*
X118975672Y-53503580D01*
X118975676Y-53503580D01*
X118975677Y-53503581D01*
X119111004Y-53530500D01*
X119111007Y-53530500D01*
X119248995Y-53530500D01*
X119340041Y-53512389D01*
X119384328Y-53503580D01*
X119511811Y-53450775D01*
X119610365Y-53384922D01*
X119677042Y-53364045D01*
X119744422Y-53382529D01*
X119791113Y-53434508D01*
X119801960Y-53470147D01*
X119809426Y-53521391D01*
X119860801Y-53626482D01*
X119860802Y-53626483D01*
X119863178Y-53628859D01*
X119865391Y-53632911D01*
X119866773Y-53634847D01*
X119866539Y-53635013D01*
X119896665Y-53690179D01*
X119899500Y-53716543D01*
X119899500Y-53844011D01*
X119890460Y-53881671D01*
X119893296Y-53882593D01*
X119890280Y-53891873D01*
X119869196Y-54024997D01*
X119869196Y-54025002D01*
X119890279Y-54158121D01*
X119890280Y-54158124D01*
X119890281Y-54158126D01*
X119941234Y-54258126D01*
X119951473Y-54278221D01*
X119951476Y-54278225D01*
X120046774Y-54373523D01*
X120046778Y-54373526D01*
X120046780Y-54373528D01*
X120166874Y-54434719D01*
X120166876Y-54434719D01*
X120166878Y-54434720D01*
X120299998Y-54455804D01*
X120300000Y-54455804D01*
X120300002Y-54455804D01*
X120366563Y-54445261D01*
X120433126Y-54434719D01*
X120519206Y-54390858D01*
X120587874Y-54377962D01*
X120652614Y-54404238D01*
X120692872Y-54461344D01*
X120699500Y-54501343D01*
X120699500Y-54631511D01*
X120690460Y-54669171D01*
X120693296Y-54670093D01*
X120690280Y-54679373D01*
X120669196Y-54812497D01*
X120669196Y-54812501D01*
X120690279Y-54945623D01*
X120735985Y-55035324D01*
X120749500Y-55091619D01*
X120749500Y-55210679D01*
X120729815Y-55277718D01*
X120677011Y-55323473D01*
X120607853Y-55333417D01*
X120569207Y-55321165D01*
X120533122Y-55302779D01*
X120433493Y-55287000D01*
X120433488Y-55287000D01*
X119916512Y-55287000D01*
X119916507Y-55287000D01*
X119816878Y-55302779D01*
X119696778Y-55363973D01*
X119696774Y-55363976D01*
X119601476Y-55459274D01*
X119601473Y-55459278D01*
X119540279Y-55579378D01*
X119524500Y-55679006D01*
X119524500Y-56245993D01*
X119540279Y-56345621D01*
X119540280Y-56345624D01*
X119540281Y-56345626D01*
X119601471Y-56465718D01*
X119601473Y-56465721D01*
X119601476Y-56465725D01*
X119696774Y-56561023D01*
X119696777Y-56561025D01*
X119696780Y-56561028D01*
X119816874Y-56622219D01*
X119816876Y-56622219D01*
X119816878Y-56622220D01*
X119916507Y-56638000D01*
X119916512Y-56638000D01*
X120433493Y-56638000D01*
X120533121Y-56622220D01*
X120533121Y-56622219D01*
X120533126Y-56622219D01*
X120653220Y-56561028D01*
X120653225Y-56561022D01*
X120654204Y-56560313D01*
X120655598Y-56559815D01*
X120661915Y-56556597D01*
X120662330Y-56557413D01*
X120720011Y-56536834D01*
X120788065Y-56552661D01*
X120814769Y-56572951D01*
X120819529Y-56577711D01*
X120819530Y-56577712D01*
X121869531Y-57627712D01*
X121934788Y-57692969D01*
X122005522Y-57733808D01*
X122053736Y-57784375D01*
X122066958Y-57852982D01*
X122061994Y-57877800D01*
X122059426Y-57886110D01*
X122049500Y-57954239D01*
X122049500Y-58815956D01*
X122029815Y-58882995D01*
X122013181Y-58903637D01*
X121519531Y-59397286D01*
X121519527Y-59397291D01*
X121473387Y-59477209D01*
X121473386Y-59477212D01*
X121449500Y-59566356D01*
X121449500Y-62504457D01*
X121429815Y-62571496D01*
X121377011Y-62617251D01*
X121307853Y-62627195D01*
X121244297Y-62598170D01*
X121237819Y-62592138D01*
X121215212Y-62569531D01*
X120825213Y-62179531D01*
X120825208Y-62179527D01*
X120745290Y-62133387D01*
X120745289Y-62133386D01*
X120745288Y-62133386D01*
X120656144Y-62109500D01*
X120656143Y-62109500D01*
X115610071Y-62109500D01*
X115543032Y-62089815D01*
X115497277Y-62037011D01*
X115490039Y-62014597D01*
X115488867Y-62011769D01*
X115444552Y-61945448D01*
X115428453Y-61934691D01*
X115418591Y-61928101D01*
X115373787Y-61874491D01*
X115365080Y-61805166D01*
X115395234Y-61742138D01*
X115418592Y-61721898D01*
X115444552Y-61704552D01*
X115488867Y-61638231D01*
X115488867Y-61638229D01*
X115488868Y-61638229D01*
X115500499Y-61579752D01*
X115500500Y-61579750D01*
X115500500Y-60800249D01*
X115500499Y-60800247D01*
X115488868Y-60741770D01*
X115488867Y-60741769D01*
X115444552Y-60675447D01*
X115378230Y-60631132D01*
X115378229Y-60631131D01*
X115319752Y-60619500D01*
X115319748Y-60619500D01*
X112880252Y-60619500D01*
X112880247Y-60619500D01*
X112821770Y-60631131D01*
X112821769Y-60631132D01*
X112755447Y-60675447D01*
X112711132Y-60741769D01*
X112711131Y-60741770D01*
X112699500Y-60800247D01*
X112699500Y-61579752D01*
X112711131Y-61638229D01*
X112711132Y-61638230D01*
X112755447Y-61704552D01*
X112781407Y-61721898D01*
X112826212Y-61775511D01*
X112834919Y-61844836D01*
X112804764Y-61907863D01*
X112781407Y-61928102D01*
X112755447Y-61945447D01*
X112711132Y-62011769D01*
X112711131Y-62011770D01*
X112699500Y-62070247D01*
X112699500Y-62849752D01*
X112711131Y-62908229D01*
X112711132Y-62908230D01*
X112755447Y-62974552D01*
X112781407Y-62991898D01*
X112826212Y-63045511D01*
X112834919Y-63114836D01*
X112804764Y-63177863D01*
X112781407Y-63198102D01*
X112755447Y-63215447D01*
X112711132Y-63281769D01*
X112711131Y-63281770D01*
X112699500Y-63340247D01*
X112699500Y-64119752D01*
X112711131Y-64178229D01*
X112711132Y-64178230D01*
X112755447Y-64244552D01*
X112781407Y-64261898D01*
X112826212Y-64315511D01*
X112834919Y-64384836D01*
X112804764Y-64447863D01*
X112781407Y-64468102D01*
X112755447Y-64485447D01*
X112711132Y-64551769D01*
X112711131Y-64551770D01*
X112699500Y-64610247D01*
X112699500Y-65389752D01*
X112711131Y-65448229D01*
X112711132Y-65448230D01*
X112755447Y-65514552D01*
X112781407Y-65531898D01*
X112826212Y-65585511D01*
X112834919Y-65654836D01*
X112804764Y-65717863D01*
X112781407Y-65738102D01*
X112755447Y-65755447D01*
X112711132Y-65821769D01*
X112711131Y-65821770D01*
X112699500Y-65880247D01*
X112699500Y-66659752D01*
X112711131Y-66718229D01*
X112711132Y-66718230D01*
X112755447Y-66784552D01*
X112781407Y-66801898D01*
X112826212Y-66855511D01*
X112834919Y-66924836D01*
X112804764Y-66987863D01*
X112781407Y-67008102D01*
X112755447Y-67025447D01*
X112711132Y-67091769D01*
X112711131Y-67091770D01*
X112699500Y-67150247D01*
X112699500Y-67929752D01*
X112711131Y-67988229D01*
X112711132Y-67988230D01*
X112755447Y-68054552D01*
X112781407Y-68071898D01*
X112826212Y-68125511D01*
X112834919Y-68194836D01*
X112804764Y-68257863D01*
X112781407Y-68278102D01*
X112755447Y-68295447D01*
X112711132Y-68361769D01*
X112711131Y-68361770D01*
X112699500Y-68420247D01*
X112699500Y-69199752D01*
X112711131Y-69258229D01*
X112711132Y-69258230D01*
X112755447Y-69324552D01*
X112821769Y-69368867D01*
X112821770Y-69368868D01*
X112880247Y-69380499D01*
X112880250Y-69380500D01*
X112880252Y-69380500D01*
X113625500Y-69380500D01*
X113692539Y-69400185D01*
X113738294Y-69452989D01*
X113749500Y-69504500D01*
X113749500Y-74196144D01*
X113756025Y-74220494D01*
X113769899Y-74272274D01*
X113769899Y-74272275D01*
X113773385Y-74285287D01*
X113819527Y-74365208D01*
X113819531Y-74365213D01*
X116142137Y-76687819D01*
X116175622Y-76749142D01*
X116170638Y-76818834D01*
X116128766Y-76874767D01*
X116063302Y-76899184D01*
X116054456Y-76899500D01*
X114696543Y-76899500D01*
X114629504Y-76879815D01*
X114608862Y-76863181D01*
X110586819Y-72841137D01*
X110553334Y-72779814D01*
X110550500Y-72753456D01*
X110550500Y-69504500D01*
X110570185Y-69437461D01*
X110622989Y-69391706D01*
X110674500Y-69380500D01*
X111419750Y-69380500D01*
X111419751Y-69380499D01*
X111434568Y-69377552D01*
X111478229Y-69368868D01*
X111478229Y-69368867D01*
X111478231Y-69368867D01*
X111544552Y-69324552D01*
X111588867Y-69258231D01*
X111588867Y-69258229D01*
X111588868Y-69258229D01*
X111600499Y-69199752D01*
X111600500Y-69199750D01*
X111600500Y-68420249D01*
X111600499Y-68420247D01*
X111588868Y-68361770D01*
X111588867Y-68361769D01*
X111544552Y-68295448D01*
X111534869Y-68288978D01*
X111518591Y-68278101D01*
X111473787Y-68224491D01*
X111465080Y-68155166D01*
X111495234Y-68092138D01*
X111518592Y-68071898D01*
X111544552Y-68054552D01*
X111588867Y-67988231D01*
X111588867Y-67988229D01*
X111588868Y-67988229D01*
X111597552Y-67944568D01*
X111600500Y-67929748D01*
X111600500Y-67150252D01*
X111600500Y-67150249D01*
X111600499Y-67150247D01*
X111588868Y-67091770D01*
X111588867Y-67091769D01*
X111544552Y-67025448D01*
X111544551Y-67025447D01*
X111518591Y-67008101D01*
X111473787Y-66954491D01*
X111465080Y-66885166D01*
X111495234Y-66822138D01*
X111518592Y-66801898D01*
X111544552Y-66784552D01*
X111588867Y-66718231D01*
X111588867Y-66718229D01*
X111588868Y-66718229D01*
X111600499Y-66659752D01*
X111600500Y-66659750D01*
X111600500Y-65880249D01*
X111600499Y-65880247D01*
X111588868Y-65821770D01*
X111588867Y-65821769D01*
X111544552Y-65755448D01*
X111541218Y-65753220D01*
X111518591Y-65738101D01*
X111473787Y-65684491D01*
X111465080Y-65615166D01*
X111495234Y-65552138D01*
X111518592Y-65531898D01*
X111544552Y-65514552D01*
X111588867Y-65448231D01*
X111588867Y-65448229D01*
X111588868Y-65448229D01*
X111600499Y-65389752D01*
X111600500Y-65389750D01*
X111600500Y-64610249D01*
X111600499Y-64610247D01*
X111588868Y-64551770D01*
X111588867Y-64551769D01*
X111544552Y-64485448D01*
X111529664Y-64475500D01*
X111518591Y-64468101D01*
X111473787Y-64414491D01*
X111465080Y-64345166D01*
X111495234Y-64282138D01*
X111518592Y-64261898D01*
X111544552Y-64244552D01*
X111588867Y-64178231D01*
X111588867Y-64178229D01*
X111588868Y-64178229D01*
X111600499Y-64119752D01*
X111600500Y-64119750D01*
X111600500Y-63340249D01*
X111600499Y-63340247D01*
X111588868Y-63281770D01*
X111588867Y-63281769D01*
X111544552Y-63215448D01*
X111529535Y-63205414D01*
X111518591Y-63198101D01*
X111473787Y-63144491D01*
X111465080Y-63075166D01*
X111495234Y-63012138D01*
X111518592Y-62991898D01*
X111544552Y-62974552D01*
X111588867Y-62908231D01*
X111588867Y-62908229D01*
X111588868Y-62908229D01*
X111600499Y-62849752D01*
X111600500Y-62849750D01*
X111600500Y-62070249D01*
X111600499Y-62070247D01*
X111588868Y-62011770D01*
X111588867Y-62011769D01*
X111544552Y-61945448D01*
X111528453Y-61934691D01*
X111518591Y-61928101D01*
X111473787Y-61874491D01*
X111465080Y-61805166D01*
X111495234Y-61742138D01*
X111518592Y-61721898D01*
X111544552Y-61704552D01*
X111588867Y-61638231D01*
X111588867Y-61638229D01*
X111588868Y-61638229D01*
X111600499Y-61579752D01*
X111600500Y-61579750D01*
X111600500Y-60800249D01*
X111600499Y-60800247D01*
X111588868Y-60741770D01*
X111588867Y-60741769D01*
X111544552Y-60675447D01*
X111478230Y-60631132D01*
X111478229Y-60631131D01*
X111419752Y-60619500D01*
X111419748Y-60619500D01*
X108980252Y-60619500D01*
X108980247Y-60619500D01*
X108921770Y-60631131D01*
X108921769Y-60631132D01*
X108855447Y-60675447D01*
X108811132Y-60741769D01*
X108811131Y-60741770D01*
X108799500Y-60800247D01*
X108799500Y-61579752D01*
X108811131Y-61638229D01*
X108811132Y-61638230D01*
X108853359Y-61701427D01*
X108874237Y-61768105D01*
X108855752Y-61835485D01*
X108803774Y-61882175D01*
X108757967Y-61892568D01*
X108758058Y-61893257D01*
X108750613Y-61894237D01*
X108750257Y-61894318D01*
X108749999Y-61894318D01*
X108593239Y-61914955D01*
X108593237Y-61914956D01*
X108447160Y-61975463D01*
X108321718Y-62071718D01*
X108225463Y-62197160D01*
X108164956Y-62343237D01*
X108164955Y-62343239D01*
X108144318Y-62499998D01*
X105500500Y-62499998D01*
X105500500Y-55962497D01*
X117169196Y-55962497D01*
X117169196Y-55962502D01*
X117190279Y-56095621D01*
X117190280Y-56095624D01*
X117190281Y-56095626D01*
X117251472Y-56215720D01*
X117251473Y-56215721D01*
X117251476Y-56215725D01*
X117346774Y-56311023D01*
X117346778Y-56311026D01*
X117346780Y-56311028D01*
X117466874Y-56372219D01*
X117466876Y-56372219D01*
X117466878Y-56372220D01*
X117599998Y-56393304D01*
X117600000Y-56393304D01*
X117600002Y-56393304D01*
X117733123Y-56372220D01*
X117742405Y-56369204D01*
X117743326Y-56372041D01*
X117780989Y-56363000D01*
X117923147Y-56363000D01*
X117990186Y-56382685D01*
X118033631Y-56430705D01*
X118051471Y-56465718D01*
X118051476Y-56465725D01*
X118146774Y-56561023D01*
X118146777Y-56561025D01*
X118146780Y-56561028D01*
X118266874Y-56622219D01*
X118266876Y-56622219D01*
X118266878Y-56622220D01*
X118366507Y-56638000D01*
X118366512Y-56638000D01*
X118883493Y-56638000D01*
X118983121Y-56622220D01*
X118983121Y-56622219D01*
X118983126Y-56622219D01*
X119103220Y-56561028D01*
X119198528Y-56465720D01*
X119259719Y-56345626D01*
X119274289Y-56253637D01*
X119275500Y-56245993D01*
X119275500Y-55679006D01*
X119259720Y-55579378D01*
X119259719Y-55579376D01*
X119259719Y-55579374D01*
X119198528Y-55459280D01*
X119198526Y-55459278D01*
X119198523Y-55459274D01*
X119103225Y-55363976D01*
X119103221Y-55363973D01*
X119103220Y-55363972D01*
X118983126Y-55302781D01*
X118983124Y-55302780D01*
X118983121Y-55302779D01*
X118883493Y-55287000D01*
X118883488Y-55287000D01*
X118366512Y-55287000D01*
X118366507Y-55287000D01*
X118266878Y-55302779D01*
X118146778Y-55363973D01*
X118146774Y-55363976D01*
X118051476Y-55459274D01*
X118051471Y-55459281D01*
X118033632Y-55494294D01*
X117985658Y-55545090D01*
X117923147Y-55562000D01*
X117780989Y-55562000D01*
X117743326Y-55552958D01*
X117742405Y-55555796D01*
X117733123Y-55552779D01*
X117600002Y-55531696D01*
X117599998Y-55531696D01*
X117466878Y-55552779D01*
X117466874Y-55552780D01*
X117466874Y-55552781D01*
X117386811Y-55593575D01*
X117346778Y-55613973D01*
X117346774Y-55613976D01*
X117251476Y-55709274D01*
X117251473Y-55709278D01*
X117190279Y-55829378D01*
X117169196Y-55962497D01*
X105500500Y-55962497D01*
X105500500Y-50002706D01*
X105500559Y-49999997D01*
X106594506Y-49999997D01*
X106594506Y-50000002D01*
X106595834Y-50024500D01*
X106612301Y-50328221D01*
X106614469Y-50368196D01*
X106614470Y-50368213D01*
X106674122Y-50732068D01*
X106674128Y-50732094D01*
X106772768Y-51087365D01*
X106772770Y-51087371D01*
X106772772Y-51087377D01*
X106772773Y-51087379D01*
X106790556Y-51132011D01*
X106909255Y-51429926D01*
X106909261Y-51429938D01*
X107081973Y-51755708D01*
X107081976Y-51755713D01*
X107081978Y-51755716D01*
X107114618Y-51803856D01*
X107288909Y-52060916D01*
X107361500Y-52146376D01*
X107527627Y-52341956D01*
X107795330Y-52595538D01*
X108088881Y-52818690D01*
X108404838Y-53008795D01*
X108404840Y-53008796D01*
X108404842Y-53008797D01*
X108404846Y-53008799D01*
X108460035Y-53034332D01*
X108739497Y-53163625D01*
X109088934Y-53281364D01*
X109449052Y-53360632D01*
X109815630Y-53400500D01*
X109815636Y-53400500D01*
X110184364Y-53400500D01*
X110184370Y-53400500D01*
X110550948Y-53360632D01*
X110911066Y-53281364D01*
X111260503Y-53163625D01*
X111595162Y-53008795D01*
X111911119Y-52818690D01*
X112204670Y-52595538D01*
X112472373Y-52341956D01*
X112711090Y-52060917D01*
X112918022Y-51755716D01*
X113090743Y-51429930D01*
X113227227Y-51087379D01*
X113235823Y-51056421D01*
X113320761Y-50750499D01*
X113325875Y-50732081D01*
X113351099Y-50578221D01*
X113385529Y-50368213D01*
X113385529Y-50368210D01*
X113385531Y-50368199D01*
X113401428Y-50074997D01*
X114169196Y-50074997D01*
X114169196Y-50075002D01*
X114190279Y-50208121D01*
X114190280Y-50208124D01*
X114190281Y-50208126D01*
X114251472Y-50328220D01*
X114251473Y-50328221D01*
X114251476Y-50328225D01*
X114346774Y-50423523D01*
X114346778Y-50423526D01*
X114346780Y-50423528D01*
X114466874Y-50484719D01*
X114466876Y-50484719D01*
X114466878Y-50484720D01*
X114599998Y-50505804D01*
X114600000Y-50505804D01*
X114600002Y-50505804D01*
X114733123Y-50484720D01*
X114742405Y-50481704D01*
X114743326Y-50484541D01*
X114780989Y-50475500D01*
X114963467Y-50475500D01*
X115030506Y-50495185D01*
X115073950Y-50543203D01*
X115096950Y-50588342D01*
X115096952Y-50588344D01*
X115096954Y-50588347D01*
X115186652Y-50678045D01*
X115186654Y-50678046D01*
X115186658Y-50678050D01*
X115292725Y-50732094D01*
X115299698Y-50735647D01*
X115393475Y-50750499D01*
X115393481Y-50750500D01*
X115856518Y-50750499D01*
X115950304Y-50735646D01*
X116063342Y-50678050D01*
X116153050Y-50588342D01*
X116210646Y-50475304D01*
X116210646Y-50475302D01*
X116210647Y-50475301D01*
X116225499Y-50381524D01*
X116225500Y-50381519D01*
X116225499Y-49768482D01*
X116210646Y-49674696D01*
X116153050Y-49561658D01*
X116153046Y-49561654D01*
X116153045Y-49561652D01*
X116063347Y-49471954D01*
X116063344Y-49471952D01*
X116063342Y-49471950D01*
X115986517Y-49432805D01*
X115950301Y-49414352D01*
X115856524Y-49399500D01*
X115393482Y-49399500D01*
X115312519Y-49412323D01*
X115299696Y-49414354D01*
X115186658Y-49471950D01*
X115186657Y-49471951D01*
X115186652Y-49471954D01*
X115096954Y-49561652D01*
X115096951Y-49561657D01*
X115096950Y-49561658D01*
X115073950Y-49606796D01*
X115025977Y-49657591D01*
X114963467Y-49674500D01*
X114780989Y-49674500D01*
X114743326Y-49665458D01*
X114742405Y-49668296D01*
X114733123Y-49665279D01*
X114600002Y-49644196D01*
X114599998Y-49644196D01*
X114466878Y-49665279D01*
X114346778Y-49726473D01*
X114346774Y-49726476D01*
X114251476Y-49821774D01*
X114251473Y-49821778D01*
X114251472Y-49821780D01*
X114194720Y-49933163D01*
X114190279Y-49941878D01*
X114169196Y-50074997D01*
X113401428Y-50074997D01*
X113404166Y-50024500D01*
X113405494Y-50000002D01*
X113405494Y-49999997D01*
X113402343Y-49941878D01*
X113385531Y-49631801D01*
X113381603Y-49607843D01*
X113325877Y-49267931D01*
X113325876Y-49267930D01*
X113325875Y-49267919D01*
X113271917Y-49073580D01*
X113227231Y-48912634D01*
X113227229Y-48912628D01*
X113227228Y-48912627D01*
X113227227Y-48912621D01*
X113090743Y-48570070D01*
X113037156Y-48468995D01*
X118479499Y-48468995D01*
X118506418Y-48604322D01*
X118506421Y-48604332D01*
X118559221Y-48731804D01*
X118559228Y-48731817D01*
X118635885Y-48846541D01*
X118635888Y-48846545D01*
X118733454Y-48944111D01*
X118733458Y-48944114D01*
X118848182Y-49020771D01*
X118848195Y-49020778D01*
X118975667Y-49073578D01*
X118975672Y-49073580D01*
X118975676Y-49073580D01*
X118975677Y-49073581D01*
X119111004Y-49100500D01*
X119111007Y-49100500D01*
X119248995Y-49100500D01*
X119340041Y-49082389D01*
X119384328Y-49073580D01*
X119511811Y-49020775D01*
X119626542Y-48944114D01*
X119724114Y-48846542D01*
X119800775Y-48731811D01*
X119853580Y-48604328D01*
X119880500Y-48468995D01*
X127119499Y-48468995D01*
X127146418Y-48604322D01*
X127146421Y-48604332D01*
X127199221Y-48731804D01*
X127199228Y-48731817D01*
X127275885Y-48846541D01*
X127275888Y-48846545D01*
X127373454Y-48944111D01*
X127373458Y-48944114D01*
X127488182Y-49020771D01*
X127488195Y-49020778D01*
X127615667Y-49073578D01*
X127615672Y-49073580D01*
X127615676Y-49073580D01*
X127615677Y-49073581D01*
X127751004Y-49100500D01*
X127751007Y-49100500D01*
X127888995Y-49100500D01*
X127980041Y-49082389D01*
X128024328Y-49073580D01*
X128151811Y-49020775D01*
X128266542Y-48944114D01*
X128364114Y-48846542D01*
X128440775Y-48731811D01*
X128493580Y-48604328D01*
X128520500Y-48468993D01*
X128520500Y-47731007D01*
X128520500Y-47731004D01*
X128493581Y-47595677D01*
X128493580Y-47595676D01*
X128493580Y-47595672D01*
X128493578Y-47595667D01*
X128440778Y-47468195D01*
X128440771Y-47468182D01*
X128364114Y-47353458D01*
X128364111Y-47353454D01*
X128266545Y-47255888D01*
X128266541Y-47255885D01*
X128151817Y-47179228D01*
X128151804Y-47179221D01*
X128024332Y-47126421D01*
X128024322Y-47126418D01*
X127888995Y-47099500D01*
X127888993Y-47099500D01*
X127751007Y-47099500D01*
X127751005Y-47099500D01*
X127615677Y-47126418D01*
X127615667Y-47126421D01*
X127488195Y-47179221D01*
X127488182Y-47179228D01*
X127373458Y-47255885D01*
X127373454Y-47255888D01*
X127275888Y-47353454D01*
X127275885Y-47353458D01*
X127199228Y-47468182D01*
X127199221Y-47468195D01*
X127146421Y-47595667D01*
X127146418Y-47595677D01*
X127119500Y-47731004D01*
X127119500Y-47731007D01*
X127119500Y-48468993D01*
X127119500Y-48468995D01*
X127119499Y-48468995D01*
X119880500Y-48468995D01*
X119880500Y-48468993D01*
X119880500Y-47731007D01*
X119880500Y-47731004D01*
X119853581Y-47595677D01*
X119853580Y-47595676D01*
X119853580Y-47595672D01*
X119853578Y-47595667D01*
X119800778Y-47468195D01*
X119800771Y-47468182D01*
X119724114Y-47353458D01*
X119724111Y-47353454D01*
X119626545Y-47255888D01*
X119626541Y-47255885D01*
X119511817Y-47179228D01*
X119511804Y-47179221D01*
X119384332Y-47126421D01*
X119384322Y-47126418D01*
X119248995Y-47099500D01*
X119248993Y-47099500D01*
X119111007Y-47099500D01*
X119111005Y-47099500D01*
X118975677Y-47126418D01*
X118975667Y-47126421D01*
X118848195Y-47179221D01*
X118848182Y-47179228D01*
X118733458Y-47255885D01*
X118733454Y-47255888D01*
X118635888Y-47353454D01*
X118635885Y-47353458D01*
X118559228Y-47468182D01*
X118559221Y-47468195D01*
X118506421Y-47595667D01*
X118506418Y-47595677D01*
X118479500Y-47731004D01*
X118479500Y-47731007D01*
X118479500Y-48468993D01*
X118479500Y-48468995D01*
X118479499Y-48468995D01*
X113037156Y-48468995D01*
X112918022Y-48244284D01*
X112711090Y-47939083D01*
X112472373Y-47658044D01*
X112204670Y-47404462D01*
X111911119Y-47181310D01*
X111595162Y-46991205D01*
X111595161Y-46991204D01*
X111595157Y-46991202D01*
X111595153Y-46991200D01*
X111260513Y-46836379D01*
X111260508Y-46836377D01*
X111260503Y-46836375D01*
X111090172Y-46778983D01*
X110911065Y-46718635D01*
X110550946Y-46639367D01*
X110184371Y-46599500D01*
X110184370Y-46599500D01*
X109815630Y-46599500D01*
X109815628Y-46599500D01*
X109449053Y-46639367D01*
X109088934Y-46718635D01*
X108844326Y-46801054D01*
X108739497Y-46836375D01*
X108739494Y-46836376D01*
X108739486Y-46836379D01*
X108404846Y-46991200D01*
X108404842Y-46991202D01*
X108211094Y-47107777D01*
X108088881Y-47181310D01*
X107990779Y-47255885D01*
X107795330Y-47404461D01*
X107795330Y-47404462D01*
X107527626Y-47658044D01*
X107288909Y-47939083D01*
X107081979Y-48244282D01*
X107081973Y-48244291D01*
X106909261Y-48570061D01*
X106909255Y-48570073D01*
X106772770Y-48912628D01*
X106772768Y-48912634D01*
X106674128Y-49267905D01*
X106674122Y-49267931D01*
X106614470Y-49631786D01*
X106614469Y-49631803D01*
X106594506Y-49999997D01*
X105500559Y-49999997D01*
X105500618Y-49997297D01*
X105503377Y-49934108D01*
X105517386Y-49613226D01*
X105518326Y-49602495D01*
X105568152Y-49224025D01*
X105570025Y-49213405D01*
X105652649Y-48840709D01*
X105655440Y-48830295D01*
X105770230Y-48466227D01*
X105773917Y-48456095D01*
X105920003Y-48103412D01*
X105924561Y-48093638D01*
X106100822Y-47755045D01*
X106106217Y-47745700D01*
X106311325Y-47423744D01*
X106317515Y-47414905D01*
X106549896Y-47112060D01*
X106556834Y-47103791D01*
X106814726Y-46822352D01*
X106822352Y-46814726D01*
X107103791Y-46556834D01*
X107112060Y-46549896D01*
X107414905Y-46317515D01*
X107423744Y-46311325D01*
X107745700Y-46106217D01*
X107755045Y-46100822D01*
X108093638Y-45924561D01*
X108103412Y-45920003D01*
X108456095Y-45773917D01*
X108466227Y-45770230D01*
X108830295Y-45655440D01*
X108840709Y-45652649D01*
X109213405Y-45570025D01*
X109224025Y-45568152D01*
X109602495Y-45518326D01*
X109613226Y-45517386D01*
X109997297Y-45500617D01*
X110002706Y-45500500D01*
X110065892Y-45500500D01*
X144934108Y-45500500D01*
X144997294Y-45500500D01*
X145002702Y-45500617D01*
G37*
%TD.AperFunction*%
%TD*%
%TA.AperFunction,Conductor*%
%TO.N,+5V*%
G36*
X136693039Y-67469685D02*
G01*
X136738794Y-67522489D01*
X136750000Y-67574000D01*
X136750000Y-67698638D01*
X136730315Y-67765677D01*
X136713681Y-67786319D01*
X135822524Y-68677475D01*
X135761201Y-68710960D01*
X135710654Y-68711412D01*
X135675902Y-68704500D01*
X135174000Y-68704500D01*
X135106961Y-68684815D01*
X135061206Y-68632011D01*
X135050000Y-68580500D01*
X135050000Y-68551362D01*
X135069685Y-68484323D01*
X135086319Y-68463681D01*
X136063681Y-67486319D01*
X136125004Y-67452834D01*
X136151362Y-67450000D01*
X136626000Y-67450000D01*
X136693039Y-67469685D01*
G37*
%TD.AperFunction*%
%TD*%
%TA.AperFunction,Conductor*%
%TO.N,SYS*%
G36*
X133600000Y-68683687D02*
G01*
X133587426Y-68694196D01*
X133537937Y-68704500D01*
X132811602Y-68704500D01*
X132775000Y-68711780D01*
X132775000Y-68400000D01*
X132575000Y-68225000D01*
X132575000Y-68075000D01*
X133600000Y-68075000D01*
X133600000Y-68683687D01*
G37*
%TD.AperFunction*%
%TD*%
M02*
