M48
; DRILL file {KiCad 8.0.8} date 2025-04-07T17:04:05+0200
; FORMAT={-:-/ absolute / inch / decimal}
; #@! TF.CreationDate,2025-04-07T17:04:05+02:00
; #@! TF.GenerationSoftware,Kicad,Pcbnew,8.0.8
; #@! TF.FileFunction,Plated,1,2,PTH
FMAT,2
INCH
; #@! TA.AperFunction,Plated,PTH,ViaDrill
T1C0.0118
; #@! TA.AperFunction,Plated,PTH,ComponentDrill
T2C0.0197
; #@! TA.AperFunction,Plated,PTH,ViaDrill
T3C0.0236
; #@! TA.AperFunction,Plated,PTH,ComponentDrill
T4C0.0236
; #@! TA.AperFunction,Plated,PTH,ComponentDrill
T5C0.0394
; #@! TA.AperFunction,Plated,PTH,ComponentDrill
T6C0.1260
%
G90
G05
T1
X4.2815Y-2.5087
X4.2815Y-2.5579
X4.2815Y-2.6602
X4.5118Y-1.9715
X4.5522Y-2.8563
X4.6299Y-2.2032
X4.7283Y-2.9154
X4.7323Y-2.7874
X4.7362Y-2.127
X4.7677Y-2.158
X4.811Y-3.1206
X4.8829Y-2.2584
X4.8868Y-2.9449
X4.9528Y-2.7244
X4.9528Y-2.7539
X4.9547Y-2.1599
X4.9803Y-3.1501
X4.9882Y-2.1309
X5.0059Y-2.9528
X5.0359Y-2.5349
X5.0906Y-3.0876
X5.0915Y-2.6939
X5.1043Y-2.6368
X5.1762Y-2.9252
X5.2057Y-2.4872
X5.2087Y-2.7697
X5.2101Y-1.9813
X5.2244Y-2.876
X5.25Y-2.5315
X5.2717Y-2.3957
X5.2736Y-2.3346
X5.2795Y-2.5079
X5.2854Y-2.7185
X5.2854Y-2.7461
X5.2943Y-2.6693
X5.3602Y-2.6663
X5.3602Y-2.9567
X5.3809Y-2.7372
X5.4715Y-2.5994
X5.4921Y-2.6929
T2
X4.2362Y-1.9685
X4.2362Y-3.3465
X4.2639Y-1.9017
X4.2639Y-2.0353
X4.2639Y-3.2796
X4.2639Y-3.4133
X4.3307Y-1.874
X4.3307Y-2.063
X4.3307Y-3.252
X4.3307Y-3.4409
X4.3975Y-1.9017
X4.3975Y-2.0353
X4.3975Y-3.2796
X4.3975Y-3.4133
X4.4252Y-1.9685
X4.4252Y-3.3465
X5.6142Y-1.9685
X5.6142Y-3.3465
X5.6418Y-1.9017
X5.6418Y-2.0353
X5.6418Y-3.2796
X5.6418Y-3.4133
X5.7087Y-1.874
X5.7087Y-2.063
X5.7087Y-3.252
X5.7087Y-3.4409
X5.7755Y-1.9017
X5.7755Y-2.0353
X5.7755Y-3.2796
X5.7755Y-3.4133
X5.8031Y-1.9685
X5.8031Y-3.3465
T3
X4.2815Y-2.4606
X4.8031Y-3.1791
T5
X5.748Y-2.3268
X5.748Y-2.4252
X5.748Y-2.6594
X5.748Y-2.7579
X5.751Y-2.9961
X5.751Y-3.0945
T6
X4.3307Y-1.9685
X4.3307Y-3.3465
X5.7087Y-1.9685
X5.7087Y-3.3465
T4
G00X4.6921Y-1.9055
M15
G01X4.6921Y-1.8819
M16
G05
G00X4.6921Y-2.0799
M15
G01X4.6921Y-2.0366
M16
G05
G00X5.0323Y-1.9055
M15
G01X5.0323Y-1.8819
M16
G05
G00X5.0323Y-2.0799
M15
G01X5.0323Y-2.0366
M16
G05
M30
